G04 EAGLE Gerber X2 export*
%TF.Part,Single*%
%TF.FileFunction,Copper,L1,Top,Mixed*%
%TF.FilePolarity,Positive*%
%TF.GenerationSoftware,Autodesk,EAGLE,9.0.1*%
%TF.CreationDate,2018-10-12T14:53:16Z*%
G75*
%MOMM*%
%FSLAX34Y34*%
%LPD*%
%AMOC8*
5,1,8,0,0,1.08239X$1,22.5*%
G01*
%ADD10C,2.000000*%
%ADD11C,0.609600*%

G36*
X100021Y-171267D02*
X100021Y-171267D01*
X100091Y-171266D01*
X104360Y-170961D01*
X104370Y-170959D01*
X104380Y-170959D01*
X104539Y-170935D01*
X108722Y-170025D01*
X108731Y-170022D01*
X108741Y-170021D01*
X108896Y-169974D01*
X112906Y-168478D01*
X112915Y-168473D01*
X112925Y-168471D01*
X113071Y-168403D01*
X116828Y-166352D01*
X116836Y-166346D01*
X116845Y-166342D01*
X116980Y-166254D01*
X120406Y-163689D01*
X120414Y-163682D01*
X120422Y-163676D01*
X120543Y-163570D01*
X123570Y-160543D01*
X123576Y-160535D01*
X123584Y-160529D01*
X123689Y-160406D01*
X126254Y-156980D01*
X126259Y-156971D01*
X126266Y-156964D01*
X126352Y-156828D01*
X128403Y-153071D01*
X128407Y-153061D01*
X128412Y-153053D01*
X128478Y-152906D01*
X129974Y-148896D01*
X129976Y-148886D01*
X129981Y-148877D01*
X130025Y-148722D01*
X130935Y-144539D01*
X130936Y-144529D01*
X130939Y-144520D01*
X130961Y-144360D01*
X131266Y-140091D01*
X131265Y-140069D01*
X131269Y-140000D01*
X131269Y140000D01*
X131267Y140021D01*
X131266Y140091D01*
X130961Y144360D01*
X130959Y144370D01*
X130959Y144380D01*
X130935Y144539D01*
X130025Y148722D01*
X130022Y148731D01*
X130021Y148741D01*
X129974Y148896D01*
X128478Y152906D01*
X128473Y152915D01*
X128471Y152925D01*
X128403Y153071D01*
X126352Y156828D01*
X126346Y156836D01*
X126342Y156845D01*
X126254Y156980D01*
X123689Y160406D01*
X123682Y160414D01*
X123676Y160422D01*
X123570Y160543D01*
X120543Y163570D01*
X120535Y163576D01*
X120529Y163584D01*
X120406Y163689D01*
X116980Y166254D01*
X116971Y166259D01*
X116964Y166266D01*
X116828Y166352D01*
X113071Y168403D01*
X113061Y168407D01*
X113053Y168412D01*
X112906Y168478D01*
X108896Y169974D01*
X108886Y169976D01*
X108877Y169981D01*
X108722Y170025D01*
X104539Y170935D01*
X104529Y170936D01*
X104520Y170939D01*
X104360Y170961D01*
X100091Y171266D01*
X100069Y171265D01*
X100000Y171269D01*
X-100000Y171269D01*
X-100021Y171267D01*
X-100091Y171266D01*
X-104360Y170961D01*
X-104370Y170959D01*
X-104380Y170959D01*
X-104539Y170935D01*
X-108722Y170025D01*
X-108731Y170022D01*
X-108741Y170021D01*
X-108896Y169974D01*
X-112906Y168478D01*
X-112915Y168473D01*
X-112925Y168471D01*
X-113071Y168403D01*
X-116828Y166352D01*
X-116836Y166346D01*
X-116845Y166342D01*
X-116980Y166254D01*
X-120406Y163689D01*
X-120414Y163682D01*
X-120422Y163676D01*
X-120543Y163570D01*
X-123570Y160543D01*
X-123576Y160535D01*
X-123584Y160529D01*
X-123689Y160406D01*
X-126254Y156980D01*
X-126259Y156971D01*
X-126266Y156964D01*
X-126316Y156884D01*
X-126321Y156878D01*
X-126324Y156871D01*
X-126352Y156828D01*
X-128403Y153071D01*
X-128407Y153061D01*
X-128412Y153053D01*
X-128478Y152906D01*
X-129974Y148896D01*
X-129976Y148886D01*
X-129981Y148877D01*
X-130025Y148722D01*
X-130935Y144539D01*
X-130936Y144529D01*
X-130939Y144520D01*
X-130961Y144360D01*
X-131266Y140091D01*
X-131265Y140069D01*
X-131269Y140000D01*
X-131269Y-140000D01*
X-131267Y-140021D01*
X-131266Y-140091D01*
X-130961Y-144360D01*
X-130959Y-144370D01*
X-130959Y-144380D01*
X-130935Y-144539D01*
X-130025Y-148722D01*
X-130022Y-148731D01*
X-130021Y-148741D01*
X-129974Y-148896D01*
X-128478Y-152906D01*
X-128473Y-152915D01*
X-128471Y-152925D01*
X-128403Y-153071D01*
X-126352Y-156828D01*
X-126346Y-156836D01*
X-126342Y-156845D01*
X-126254Y-156980D01*
X-123689Y-160406D01*
X-123682Y-160414D01*
X-123676Y-160422D01*
X-123570Y-160543D01*
X-120543Y-163570D01*
X-120535Y-163576D01*
X-120529Y-163584D01*
X-120406Y-163689D01*
X-116980Y-166254D01*
X-116971Y-166259D01*
X-116964Y-166266D01*
X-116828Y-166352D01*
X-113071Y-168403D01*
X-113061Y-168407D01*
X-113053Y-168412D01*
X-112906Y-168478D01*
X-108896Y-169974D01*
X-108886Y-169976D01*
X-108877Y-169981D01*
X-108722Y-170025D01*
X-104539Y-170935D01*
X-104529Y-170936D01*
X-104520Y-170939D01*
X-104360Y-170961D01*
X-100091Y-171266D01*
X-100069Y-171265D01*
X-100000Y-171269D01*
X100000Y-171269D01*
X100021Y-171267D01*
G37*
%LPC*%
G36*
X-28198Y-102665D02*
X-28198Y-102665D01*
X-33367Y-100524D01*
X-37324Y-96567D01*
X-39465Y-91398D01*
X-39465Y-85802D01*
X-37324Y-80633D01*
X-33367Y-76677D01*
X-33296Y-76647D01*
X-33271Y-76633D01*
X-33243Y-76623D01*
X-33133Y-76554D01*
X-33020Y-76490D01*
X-32999Y-76469D01*
X-32974Y-76453D01*
X-32885Y-76359D01*
X-32792Y-76268D01*
X-32776Y-76243D01*
X-32756Y-76222D01*
X-32693Y-76108D01*
X-32625Y-75997D01*
X-32617Y-75969D01*
X-32602Y-75943D01*
X-32570Y-75818D01*
X-32532Y-75693D01*
X-32530Y-75664D01*
X-32523Y-75635D01*
X-32513Y-75475D01*
X-32513Y96875D01*
X-32516Y96904D01*
X-32514Y96933D01*
X-32536Y97061D01*
X-32553Y97190D01*
X-32563Y97218D01*
X-32569Y97247D01*
X-32622Y97365D01*
X-32670Y97486D01*
X-32687Y97510D01*
X-32699Y97537D01*
X-32780Y97638D01*
X-32856Y97743D01*
X-32879Y97762D01*
X-32898Y97785D01*
X-33001Y97863D01*
X-33101Y97946D01*
X-33128Y97959D01*
X-33152Y97976D01*
X-33296Y98047D01*
X-33367Y98077D01*
X-37324Y102033D01*
X-39465Y107202D01*
X-39465Y112798D01*
X-37324Y117967D01*
X-33367Y121924D01*
X-28198Y124065D01*
X-22602Y124065D01*
X-17433Y121924D01*
X-13476Y117967D01*
X-11335Y112798D01*
X-11335Y107202D01*
X-13476Y102033D01*
X-17433Y98077D01*
X-17504Y98047D01*
X-17529Y98033D01*
X-17557Y98023D01*
X-17667Y97954D01*
X-17780Y97890D01*
X-17801Y97869D01*
X-17826Y97853D01*
X-17915Y97759D01*
X-18008Y97668D01*
X-18024Y97643D01*
X-18044Y97622D01*
X-18107Y97508D01*
X-18175Y97397D01*
X-18183Y97369D01*
X-18198Y97343D01*
X-18230Y97218D01*
X-18268Y97093D01*
X-18270Y97064D01*
X-18277Y97035D01*
X-18287Y96875D01*
X-18287Y-75475D01*
X-18284Y-75504D01*
X-18286Y-75533D01*
X-18264Y-75661D01*
X-18247Y-75790D01*
X-18237Y-75818D01*
X-18231Y-75847D01*
X-18178Y-75965D01*
X-18130Y-76086D01*
X-18113Y-76110D01*
X-18101Y-76137D01*
X-18020Y-76238D01*
X-17944Y-76343D01*
X-17921Y-76362D01*
X-17902Y-76385D01*
X-17799Y-76463D01*
X-17699Y-76546D01*
X-17672Y-76559D01*
X-17648Y-76576D01*
X-17504Y-76647D01*
X-17433Y-76677D01*
X-13598Y-80512D01*
X-13503Y-80585D01*
X-13414Y-80664D01*
X-13378Y-80682D01*
X-13346Y-80707D01*
X-13237Y-80754D01*
X-13131Y-80808D01*
X-13092Y-80817D01*
X-13054Y-80833D01*
X-12937Y-80852D01*
X-12821Y-80878D01*
X-12780Y-80877D01*
X-12740Y-80883D01*
X-12622Y-80872D01*
X-12503Y-80868D01*
X-12464Y-80857D01*
X-12424Y-80853D01*
X-12311Y-80813D01*
X-12197Y-80780D01*
X-12163Y-80759D01*
X-12124Y-80746D01*
X-12026Y-80679D01*
X-11923Y-80618D01*
X-11878Y-80579D01*
X-11861Y-80567D01*
X-11848Y-80552D01*
X-11803Y-80512D01*
X-7967Y-76677D01*
X-7896Y-76647D01*
X-7871Y-76633D01*
X-7843Y-76623D01*
X-7733Y-76554D01*
X-7620Y-76490D01*
X-7599Y-76469D01*
X-7574Y-76453D01*
X-7485Y-76359D01*
X-7392Y-76268D01*
X-7376Y-76243D01*
X-7356Y-76222D01*
X-7293Y-76108D01*
X-7225Y-75997D01*
X-7217Y-75969D01*
X-7202Y-75943D01*
X-7170Y-75818D01*
X-7132Y-75693D01*
X-7130Y-75664D01*
X-7123Y-75635D01*
X-7113Y-75475D01*
X-7113Y122275D01*
X-7116Y122304D01*
X-7114Y122333D01*
X-7136Y122461D01*
X-7153Y122590D01*
X-7163Y122618D01*
X-7169Y122647D01*
X-7222Y122765D01*
X-7270Y122886D01*
X-7287Y122910D01*
X-7299Y122937D01*
X-7380Y123038D01*
X-7456Y123143D01*
X-7479Y123162D01*
X-7498Y123185D01*
X-7601Y123263D01*
X-7701Y123346D01*
X-7728Y123359D01*
X-7752Y123376D01*
X-7896Y123447D01*
X-7967Y123477D01*
X-11924Y127433D01*
X-14065Y132602D01*
X-14065Y138198D01*
X-11924Y143367D01*
X-7967Y147324D01*
X-2798Y149465D01*
X2798Y149465D01*
X7967Y147324D01*
X11924Y143367D01*
X14065Y138198D01*
X14065Y132602D01*
X11924Y127433D01*
X7967Y123477D01*
X7896Y123447D01*
X7871Y123433D01*
X7843Y123423D01*
X7733Y123354D01*
X7620Y123290D01*
X7599Y123269D01*
X7574Y123253D01*
X7485Y123159D01*
X7392Y123068D01*
X7376Y123043D01*
X7356Y123022D01*
X7293Y122908D01*
X7225Y122797D01*
X7217Y122769D01*
X7202Y122743D01*
X7170Y122618D01*
X7132Y122493D01*
X7130Y122464D01*
X7123Y122435D01*
X7113Y122275D01*
X7113Y-75475D01*
X7116Y-75504D01*
X7114Y-75533D01*
X7136Y-75661D01*
X7153Y-75790D01*
X7163Y-75818D01*
X7169Y-75847D01*
X7222Y-75965D01*
X7270Y-76086D01*
X7287Y-76110D01*
X7299Y-76137D01*
X7380Y-76238D01*
X7456Y-76343D01*
X7479Y-76362D01*
X7498Y-76385D01*
X7601Y-76463D01*
X7701Y-76546D01*
X7728Y-76559D01*
X7752Y-76576D01*
X7896Y-76647D01*
X7967Y-76677D01*
X11803Y-80512D01*
X11897Y-80585D01*
X11986Y-80664D01*
X12022Y-80682D01*
X12054Y-80707D01*
X12163Y-80754D01*
X12269Y-80808D01*
X12308Y-80817D01*
X12346Y-80833D01*
X12463Y-80852D01*
X12579Y-80878D01*
X12620Y-80877D01*
X12660Y-80883D01*
X12778Y-80872D01*
X12897Y-80868D01*
X12936Y-80857D01*
X12976Y-80853D01*
X13089Y-80813D01*
X13203Y-80780D01*
X13238Y-80759D01*
X13276Y-80746D01*
X13374Y-80679D01*
X13477Y-80618D01*
X13522Y-80579D01*
X13539Y-80567D01*
X13552Y-80552D01*
X13598Y-80512D01*
X17433Y-76677D01*
X17504Y-76647D01*
X17529Y-76633D01*
X17557Y-76623D01*
X17667Y-76554D01*
X17780Y-76490D01*
X17801Y-76469D01*
X17826Y-76453D01*
X17915Y-76359D01*
X18008Y-76268D01*
X18024Y-76243D01*
X18044Y-76222D01*
X18107Y-76108D01*
X18175Y-75997D01*
X18183Y-75969D01*
X18198Y-75943D01*
X18230Y-75818D01*
X18268Y-75693D01*
X18270Y-75664D01*
X18277Y-75635D01*
X18287Y-75475D01*
X18287Y96875D01*
X18284Y96904D01*
X18286Y96933D01*
X18264Y97061D01*
X18247Y97190D01*
X18237Y97218D01*
X18231Y97247D01*
X18178Y97365D01*
X18130Y97486D01*
X18113Y97510D01*
X18101Y97537D01*
X18020Y97638D01*
X17944Y97743D01*
X17921Y97762D01*
X17902Y97785D01*
X17799Y97863D01*
X17699Y97946D01*
X17672Y97959D01*
X17648Y97976D01*
X17504Y98047D01*
X17433Y98077D01*
X13476Y102033D01*
X11335Y107202D01*
X11335Y112798D01*
X13476Y117967D01*
X17433Y121924D01*
X22602Y124065D01*
X28198Y124065D01*
X33367Y121924D01*
X37324Y117967D01*
X39465Y112798D01*
X39465Y107202D01*
X37324Y102033D01*
X33367Y98077D01*
X33296Y98047D01*
X33271Y98033D01*
X33243Y98023D01*
X33133Y97954D01*
X33020Y97890D01*
X32999Y97869D01*
X32974Y97853D01*
X32885Y97759D01*
X32792Y97668D01*
X32776Y97643D01*
X32756Y97622D01*
X32693Y97508D01*
X32625Y97397D01*
X32617Y97369D01*
X32602Y97343D01*
X32570Y97218D01*
X32532Y97093D01*
X32530Y97064D01*
X32523Y97035D01*
X32513Y96875D01*
X32513Y-75475D01*
X32516Y-75504D01*
X32514Y-75533D01*
X32536Y-75661D01*
X32553Y-75790D01*
X32563Y-75818D01*
X32569Y-75847D01*
X32622Y-75965D01*
X32670Y-76086D01*
X32687Y-76110D01*
X32699Y-76137D01*
X32780Y-76238D01*
X32856Y-76343D01*
X32879Y-76362D01*
X32898Y-76385D01*
X33001Y-76463D01*
X33101Y-76546D01*
X33128Y-76559D01*
X33152Y-76576D01*
X33296Y-76647D01*
X33367Y-76677D01*
X37324Y-80633D01*
X39465Y-85802D01*
X39465Y-91398D01*
X37324Y-96567D01*
X33367Y-100524D01*
X28198Y-102665D01*
X22602Y-102665D01*
X17433Y-100524D01*
X13598Y-96688D01*
X13503Y-96615D01*
X13414Y-96536D01*
X13378Y-96518D01*
X13346Y-96493D01*
X13237Y-96446D01*
X13131Y-96392D01*
X13092Y-96383D01*
X13054Y-96367D01*
X12937Y-96348D01*
X12821Y-96322D01*
X12780Y-96323D01*
X12740Y-96317D01*
X12622Y-96328D01*
X12503Y-96332D01*
X12464Y-96343D01*
X12424Y-96347D01*
X12311Y-96387D01*
X12197Y-96420D01*
X12163Y-96441D01*
X12124Y-96454D01*
X12026Y-96521D01*
X11923Y-96582D01*
X11878Y-96621D01*
X11861Y-96633D01*
X11848Y-96648D01*
X11803Y-96688D01*
X7967Y-100524D01*
X2798Y-102665D01*
X-2798Y-102665D01*
X-7967Y-100524D01*
X-11803Y-96688D01*
X-11897Y-96615D01*
X-11986Y-96536D01*
X-12022Y-96518D01*
X-12054Y-96493D01*
X-12163Y-96446D01*
X-12269Y-96392D01*
X-12308Y-96383D01*
X-12346Y-96367D01*
X-12463Y-96348D01*
X-12579Y-96322D01*
X-12620Y-96323D01*
X-12660Y-96317D01*
X-12778Y-96328D01*
X-12897Y-96332D01*
X-12936Y-96343D01*
X-12976Y-96347D01*
X-13089Y-96387D01*
X-13203Y-96420D01*
X-13238Y-96441D01*
X-13276Y-96454D01*
X-13374Y-96521D01*
X-13477Y-96582D01*
X-13522Y-96621D01*
X-13539Y-96633D01*
X-13552Y-96648D01*
X-13598Y-96688D01*
X-17433Y-100524D01*
X-22602Y-102665D01*
X-28198Y-102665D01*
G37*
%LPD*%
%LPC*%
G36*
X86817Y-146001D02*
X86817Y-146001D01*
X80936Y-143565D01*
X76435Y-139064D01*
X73999Y-133183D01*
X73999Y-126817D01*
X76435Y-120936D01*
X80936Y-116435D01*
X86817Y-113999D01*
X93183Y-113999D01*
X99064Y-116435D01*
X103565Y-120936D01*
X106001Y-126817D01*
X106001Y-133183D01*
X103565Y-139064D01*
X99064Y-143565D01*
X93183Y-146001D01*
X86817Y-146001D01*
G37*
%LPD*%
%LPC*%
G36*
X-93183Y-146001D02*
X-93183Y-146001D01*
X-99064Y-143565D01*
X-103565Y-139064D01*
X-106001Y-133183D01*
X-106001Y-126817D01*
X-103565Y-120936D01*
X-99064Y-116435D01*
X-93183Y-113999D01*
X-86817Y-113999D01*
X-80936Y-116435D01*
X-76435Y-120936D01*
X-73999Y-126817D01*
X-73999Y-133183D01*
X-76435Y-139064D01*
X-80936Y-143565D01*
X-86817Y-146001D01*
X-93183Y-146001D01*
G37*
%LPD*%
D10*
X-25400Y110000D03*
X-25400Y-88600D03*
D11*
X-25400Y110000D01*
D10*
X25400Y110000D03*
X25400Y-88600D03*
D11*
X25400Y110000D01*
D10*
X0Y135400D03*
X0Y-88600D03*
D11*
X0Y135400D01*
M02*
