G04 EAGLE Gerber X2 export*
%TF.Part,Single*%
%TF.FileFunction,Copper,L2,Bot,Mixed*%
%TF.FilePolarity,Positive*%
%TF.GenerationSoftware,Autodesk,EAGLE,9.0.1*%
%TF.CreationDate,2018-10-12T14:53:16Z*%
G75*
%MOMM*%
%FSLAX34Y34*%
%LPD*%
%AMOC8*
5,1,8,0,0,1.08239X$1,22.5*%
G01*
%ADD10C,2.000000*%

G36*
X100021Y-171267D02*
X100021Y-171267D01*
X100091Y-171266D01*
X104360Y-170961D01*
X104370Y-170959D01*
X104380Y-170959D01*
X104539Y-170935D01*
X108722Y-170025D01*
X108731Y-170022D01*
X108741Y-170021D01*
X108896Y-169974D01*
X112906Y-168478D01*
X112915Y-168473D01*
X112925Y-168471D01*
X113071Y-168403D01*
X116828Y-166352D01*
X116836Y-166346D01*
X116845Y-166342D01*
X116980Y-166254D01*
X120406Y-163689D01*
X120414Y-163682D01*
X120422Y-163676D01*
X120543Y-163570D01*
X123570Y-160543D01*
X123576Y-160535D01*
X123584Y-160529D01*
X123689Y-160406D01*
X126254Y-156980D01*
X126259Y-156971D01*
X126266Y-156964D01*
X126352Y-156828D01*
X128403Y-153071D01*
X128407Y-153061D01*
X128412Y-153053D01*
X128478Y-152906D01*
X129974Y-148896D01*
X129976Y-148886D01*
X129981Y-148877D01*
X130025Y-148722D01*
X130935Y-144539D01*
X130936Y-144529D01*
X130939Y-144520D01*
X130961Y-144360D01*
X131266Y-140091D01*
X131265Y-140069D01*
X131269Y-140000D01*
X131269Y140000D01*
X131267Y140021D01*
X131266Y140091D01*
X130961Y144360D01*
X130959Y144370D01*
X130959Y144380D01*
X130935Y144539D01*
X130025Y148722D01*
X130022Y148731D01*
X130021Y148741D01*
X129974Y148896D01*
X128478Y152906D01*
X128473Y152915D01*
X128471Y152925D01*
X128403Y153071D01*
X126352Y156828D01*
X126346Y156836D01*
X126342Y156845D01*
X126254Y156980D01*
X123689Y160406D01*
X123682Y160414D01*
X123676Y160422D01*
X123570Y160543D01*
X120543Y163570D01*
X120535Y163576D01*
X120529Y163584D01*
X120406Y163689D01*
X116980Y166254D01*
X116971Y166259D01*
X116964Y166266D01*
X116828Y166352D01*
X113071Y168403D01*
X113061Y168407D01*
X113053Y168412D01*
X112906Y168478D01*
X108896Y169974D01*
X108886Y169976D01*
X108877Y169981D01*
X108722Y170025D01*
X104539Y170935D01*
X104529Y170936D01*
X104520Y170939D01*
X104360Y170961D01*
X100091Y171266D01*
X100069Y171265D01*
X100000Y171269D01*
X-100000Y171269D01*
X-100021Y171267D01*
X-100091Y171266D01*
X-104360Y170961D01*
X-104370Y170959D01*
X-104380Y170959D01*
X-104539Y170935D01*
X-108722Y170025D01*
X-108731Y170022D01*
X-108741Y170021D01*
X-108896Y169974D01*
X-112906Y168478D01*
X-112915Y168473D01*
X-112925Y168471D01*
X-113071Y168403D01*
X-116828Y166352D01*
X-116836Y166346D01*
X-116845Y166342D01*
X-116980Y166254D01*
X-120406Y163689D01*
X-120414Y163682D01*
X-120422Y163676D01*
X-120543Y163570D01*
X-123570Y160543D01*
X-123576Y160535D01*
X-123584Y160529D01*
X-123689Y160406D01*
X-126254Y156980D01*
X-126259Y156971D01*
X-126266Y156964D01*
X-126316Y156884D01*
X-126321Y156878D01*
X-126324Y156871D01*
X-126352Y156828D01*
X-128403Y153071D01*
X-128407Y153061D01*
X-128412Y153053D01*
X-128478Y152906D01*
X-129974Y148896D01*
X-129976Y148886D01*
X-129981Y148877D01*
X-130025Y148722D01*
X-130935Y144539D01*
X-130936Y144529D01*
X-130939Y144520D01*
X-130961Y144360D01*
X-131266Y140091D01*
X-131265Y140069D01*
X-131269Y140000D01*
X-131269Y-140000D01*
X-131267Y-140021D01*
X-131266Y-140091D01*
X-130961Y-144360D01*
X-130959Y-144370D01*
X-130959Y-144380D01*
X-130935Y-144539D01*
X-130025Y-148722D01*
X-130022Y-148731D01*
X-130021Y-148741D01*
X-129974Y-148896D01*
X-128478Y-152906D01*
X-128473Y-152915D01*
X-128471Y-152925D01*
X-128403Y-153071D01*
X-126352Y-156828D01*
X-126346Y-156836D01*
X-126342Y-156845D01*
X-126254Y-156980D01*
X-123689Y-160406D01*
X-123682Y-160414D01*
X-123676Y-160422D01*
X-123570Y-160543D01*
X-120543Y-163570D01*
X-120535Y-163576D01*
X-120529Y-163584D01*
X-120406Y-163689D01*
X-116980Y-166254D01*
X-116971Y-166259D01*
X-116964Y-166266D01*
X-116828Y-166352D01*
X-113071Y-168403D01*
X-113061Y-168407D01*
X-113053Y-168412D01*
X-112906Y-168478D01*
X-108896Y-169974D01*
X-108886Y-169976D01*
X-108877Y-169981D01*
X-108722Y-170025D01*
X-104539Y-170935D01*
X-104529Y-170936D01*
X-104520Y-170939D01*
X-104360Y-170961D01*
X-100091Y-171266D01*
X-100069Y-171265D01*
X-100000Y-171269D01*
X100000Y-171269D01*
X100021Y-171267D01*
G37*
%LPC*%
G36*
X-28198Y-102665D02*
X-28198Y-102665D01*
X-33367Y-100524D01*
X-37324Y-96567D01*
X-39465Y-91398D01*
X-39465Y-85802D01*
X-37324Y-80633D01*
X-33367Y-76676D01*
X-28198Y-74535D01*
X-22602Y-74535D01*
X-17433Y-76676D01*
X-13598Y-80512D01*
X-13503Y-80585D01*
X-13414Y-80664D01*
X-13378Y-80682D01*
X-13346Y-80707D01*
X-13237Y-80754D01*
X-13131Y-80808D01*
X-13092Y-80817D01*
X-13054Y-80833D01*
X-12937Y-80852D01*
X-12821Y-80878D01*
X-12780Y-80877D01*
X-12740Y-80883D01*
X-12622Y-80872D01*
X-12503Y-80868D01*
X-12464Y-80857D01*
X-12424Y-80853D01*
X-12311Y-80813D01*
X-12197Y-80780D01*
X-12163Y-80759D01*
X-12124Y-80746D01*
X-12026Y-80679D01*
X-11923Y-80618D01*
X-11878Y-80579D01*
X-11861Y-80567D01*
X-11848Y-80552D01*
X-11803Y-80512D01*
X-7967Y-76676D01*
X-2798Y-74535D01*
X2798Y-74535D01*
X7967Y-76676D01*
X11803Y-80512D01*
X11897Y-80585D01*
X11986Y-80664D01*
X12022Y-80682D01*
X12054Y-80707D01*
X12163Y-80754D01*
X12269Y-80808D01*
X12308Y-80817D01*
X12346Y-80833D01*
X12463Y-80852D01*
X12579Y-80878D01*
X12620Y-80877D01*
X12660Y-80883D01*
X12778Y-80872D01*
X12897Y-80868D01*
X12936Y-80857D01*
X12976Y-80853D01*
X13089Y-80813D01*
X13203Y-80780D01*
X13238Y-80759D01*
X13276Y-80746D01*
X13374Y-80679D01*
X13477Y-80618D01*
X13522Y-80579D01*
X13539Y-80567D01*
X13552Y-80552D01*
X13598Y-80512D01*
X17433Y-76676D01*
X22602Y-74535D01*
X28198Y-74535D01*
X33367Y-76676D01*
X37324Y-80633D01*
X39465Y-85802D01*
X39465Y-91398D01*
X37324Y-96567D01*
X33367Y-100524D01*
X28198Y-102665D01*
X22602Y-102665D01*
X17433Y-100524D01*
X13598Y-96688D01*
X13503Y-96615D01*
X13414Y-96536D01*
X13378Y-96518D01*
X13346Y-96493D01*
X13237Y-96446D01*
X13131Y-96392D01*
X13092Y-96383D01*
X13054Y-96367D01*
X12937Y-96348D01*
X12821Y-96322D01*
X12780Y-96323D01*
X12740Y-96317D01*
X12622Y-96328D01*
X12503Y-96332D01*
X12464Y-96343D01*
X12424Y-96347D01*
X12311Y-96387D01*
X12197Y-96420D01*
X12163Y-96441D01*
X12124Y-96454D01*
X12026Y-96521D01*
X11923Y-96582D01*
X11878Y-96621D01*
X11861Y-96633D01*
X11848Y-96648D01*
X11803Y-96688D01*
X7967Y-100524D01*
X2798Y-102665D01*
X-2798Y-102665D01*
X-7967Y-100524D01*
X-11803Y-96688D01*
X-11897Y-96615D01*
X-11986Y-96536D01*
X-12022Y-96518D01*
X-12054Y-96493D01*
X-12163Y-96446D01*
X-12269Y-96392D01*
X-12308Y-96383D01*
X-12346Y-96367D01*
X-12463Y-96348D01*
X-12579Y-96322D01*
X-12620Y-96323D01*
X-12660Y-96317D01*
X-12778Y-96328D01*
X-12897Y-96332D01*
X-12936Y-96343D01*
X-12976Y-96347D01*
X-13089Y-96387D01*
X-13203Y-96420D01*
X-13238Y-96441D01*
X-13276Y-96454D01*
X-13374Y-96521D01*
X-13477Y-96582D01*
X-13522Y-96621D01*
X-13539Y-96633D01*
X-13552Y-96648D01*
X-13598Y-96688D01*
X-17433Y-100524D01*
X-22602Y-102665D01*
X-28198Y-102665D01*
G37*
%LPD*%
%LPC*%
G36*
X86817Y-146001D02*
X86817Y-146001D01*
X80936Y-143565D01*
X76435Y-139064D01*
X73999Y-133183D01*
X73999Y-126817D01*
X76435Y-120936D01*
X80936Y-116435D01*
X86817Y-113999D01*
X93183Y-113999D01*
X99064Y-116435D01*
X103565Y-120936D01*
X106001Y-126817D01*
X106001Y-133183D01*
X103565Y-139064D01*
X99064Y-143565D01*
X93183Y-146001D01*
X86817Y-146001D01*
G37*
%LPD*%
%LPC*%
G36*
X-93183Y-146001D02*
X-93183Y-146001D01*
X-99064Y-143565D01*
X-103565Y-139064D01*
X-106001Y-133183D01*
X-106001Y-126817D01*
X-103565Y-120936D01*
X-99064Y-116435D01*
X-93183Y-113999D01*
X-86817Y-113999D01*
X-80936Y-116435D01*
X-76435Y-120936D01*
X-73999Y-126817D01*
X-73999Y-133183D01*
X-76435Y-139064D01*
X-80936Y-143565D01*
X-86817Y-146001D01*
X-93183Y-146001D01*
G37*
%LPD*%
%LPC*%
G36*
X22602Y95935D02*
X22602Y95935D01*
X17433Y98076D01*
X13476Y102033D01*
X11335Y107202D01*
X11335Y112798D01*
X13476Y117967D01*
X17433Y121924D01*
X22602Y124065D01*
X28198Y124065D01*
X33367Y121924D01*
X37324Y117967D01*
X39465Y112798D01*
X39465Y107202D01*
X37324Y102033D01*
X33367Y98076D01*
X28198Y95935D01*
X22602Y95935D01*
G37*
%LPD*%
%LPC*%
G36*
X-28198Y95935D02*
X-28198Y95935D01*
X-33367Y98076D01*
X-37324Y102033D01*
X-39465Y107202D01*
X-39465Y112798D01*
X-37324Y117967D01*
X-33367Y121924D01*
X-28198Y124065D01*
X-22602Y124065D01*
X-17433Y121924D01*
X-13476Y117967D01*
X-11335Y112798D01*
X-11335Y107202D01*
X-13476Y102033D01*
X-17433Y98076D01*
X-22602Y95935D01*
X-28198Y95935D01*
G37*
%LPD*%
%LPC*%
G36*
X-2798Y121335D02*
X-2798Y121335D01*
X-7967Y123476D01*
X-11924Y127433D01*
X-14065Y132602D01*
X-14065Y138198D01*
X-11924Y143367D01*
X-7967Y147324D01*
X-2798Y149465D01*
X2798Y149465D01*
X7967Y147324D01*
X11924Y143367D01*
X14065Y138198D01*
X14065Y132602D01*
X11924Y127433D01*
X7967Y123476D01*
X2798Y121335D01*
X-2798Y121335D01*
G37*
%LPD*%
D10*
X-25400Y110000D03*
X-25400Y-88600D03*
X25400Y110000D03*
X25400Y-88600D03*
X0Y135400D03*
X0Y-88600D03*
M02*
