G04 EAGLE Gerber X2 export*
%TF.Part,Single*%
%TF.FileFunction,Profile,NP*%
%TF.FilePolarity,Positive*%
%TF.GenerationSoftware,Autodesk,EAGLE,9.0.1*%
%TF.CreationDate,2018-10-12T14:53:16Z*%
G75*
%MOMM*%
%FSLAX34Y34*%
%LPD*%
%AMOC8*
5,1,8,0,0,1.08239X$1,22.5*%
G01*
%ADD10C,0.254000*%


D10*
X-130000Y-140000D02*
X-129886Y-142615D01*
X-129544Y-145209D01*
X-128978Y-147765D01*
X-128191Y-150261D01*
X-127189Y-152679D01*
X-125981Y-155000D01*
X-124575Y-157207D01*
X-122981Y-159284D01*
X-121213Y-161213D01*
X-119284Y-162981D01*
X-117207Y-164575D01*
X-115000Y-165981D01*
X-112679Y-167189D01*
X-110261Y-168191D01*
X-107765Y-168978D01*
X-105209Y-169544D01*
X-102615Y-169886D01*
X-100000Y-170000D01*
X100000Y-170000D01*
X102615Y-169886D01*
X105209Y-169544D01*
X107765Y-168978D01*
X110261Y-168191D01*
X112679Y-167189D01*
X115000Y-165981D01*
X117207Y-164575D01*
X119284Y-162981D01*
X121213Y-161213D01*
X122981Y-159284D01*
X124575Y-157207D01*
X125981Y-155000D01*
X127189Y-152679D01*
X128191Y-150261D01*
X128978Y-147765D01*
X129544Y-145209D01*
X129886Y-142615D01*
X130000Y-140000D01*
X130000Y140000D01*
X129886Y142615D01*
X129544Y145209D01*
X128978Y147765D01*
X128191Y150261D01*
X127189Y152679D01*
X125981Y155000D01*
X124575Y157207D01*
X122981Y159284D01*
X121213Y161213D01*
X119284Y162981D01*
X117207Y164575D01*
X115000Y165981D01*
X112679Y167189D01*
X110261Y168191D01*
X107765Y168978D01*
X105209Y169544D01*
X102615Y169886D01*
X100000Y170000D01*
X-100000Y170000D01*
X-102615Y169886D01*
X-105209Y169544D01*
X-107765Y168978D01*
X-110261Y168191D01*
X-112679Y167189D01*
X-115000Y165981D01*
X-117207Y164575D01*
X-119284Y162981D01*
X-121213Y161213D01*
X-122981Y159284D01*
X-124575Y157207D01*
X-125981Y155000D01*
X-127189Y152679D01*
X-128191Y150261D01*
X-128978Y147765D01*
X-129544Y145209D01*
X-129886Y142615D01*
X-130000Y140000D01*
X-130000Y-140000D01*
X-30000Y-130000D02*
X-29962Y-130872D01*
X-29848Y-131736D01*
X-29659Y-132588D01*
X-29397Y-133420D01*
X-29063Y-134226D01*
X-28660Y-135000D01*
X-28192Y-135736D01*
X-27660Y-136428D01*
X-27071Y-137071D01*
X-26428Y-137660D01*
X-25736Y-138192D01*
X-25000Y-138660D01*
X-24226Y-139063D01*
X-23420Y-139397D01*
X-22588Y-139659D01*
X-21736Y-139848D01*
X-20872Y-139962D01*
X-20000Y-140000D01*
X20000Y-140000D01*
X20872Y-139962D01*
X21736Y-139848D01*
X22588Y-139659D01*
X23420Y-139397D01*
X24226Y-139063D01*
X25000Y-138660D01*
X25736Y-138192D01*
X26428Y-137660D01*
X27071Y-137071D01*
X27660Y-136428D01*
X28192Y-135736D01*
X28660Y-135000D01*
X29063Y-134226D01*
X29397Y-133420D01*
X29659Y-132588D01*
X29848Y-131736D01*
X29962Y-130872D01*
X30000Y-130000D01*
X29962Y-129128D01*
X29848Y-128264D01*
X29659Y-127412D01*
X29397Y-126580D01*
X29063Y-125774D01*
X28660Y-125000D01*
X28192Y-124264D01*
X27660Y-123572D01*
X27071Y-122929D01*
X26428Y-122340D01*
X25736Y-121808D01*
X25000Y-121340D01*
X24226Y-120937D01*
X23420Y-120603D01*
X22588Y-120341D01*
X21736Y-120152D01*
X20872Y-120038D01*
X20000Y-120000D01*
X-20000Y-120000D01*
X-20872Y-120038D01*
X-21736Y-120152D01*
X-22588Y-120341D01*
X-23420Y-120603D01*
X-24226Y-120937D01*
X-25000Y-121340D01*
X-25736Y-121808D01*
X-26428Y-122340D01*
X-27071Y-122929D01*
X-27660Y-123572D01*
X-28192Y-124264D01*
X-28660Y-125000D01*
X-29063Y-125774D01*
X-29397Y-126580D01*
X-29659Y-127412D01*
X-29848Y-128264D01*
X-29962Y-129128D01*
X-30000Y-130000D01*
X106000Y-130524D02*
X105932Y-131569D01*
X105795Y-132608D01*
X105590Y-133635D01*
X105319Y-134647D01*
X104983Y-135639D01*
X104582Y-136607D01*
X104118Y-137546D01*
X103595Y-138454D01*
X103013Y-139325D01*
X102375Y-140156D01*
X101684Y-140943D01*
X100943Y-141684D01*
X100156Y-142375D01*
X99325Y-143013D01*
X98454Y-143595D01*
X97546Y-144118D01*
X96607Y-144582D01*
X95639Y-144983D01*
X94647Y-145319D01*
X93635Y-145590D01*
X92608Y-145795D01*
X91569Y-145932D01*
X90524Y-146000D01*
X89476Y-146000D01*
X88431Y-145932D01*
X87392Y-145795D01*
X86365Y-145590D01*
X85353Y-145319D01*
X84361Y-144983D01*
X83393Y-144582D01*
X82454Y-144118D01*
X81546Y-143595D01*
X80675Y-143013D01*
X79844Y-142375D01*
X79057Y-141684D01*
X78316Y-140943D01*
X77625Y-140156D01*
X76988Y-139325D01*
X76406Y-138454D01*
X75882Y-137546D01*
X75418Y-136607D01*
X75017Y-135639D01*
X74681Y-134647D01*
X74410Y-133635D01*
X74205Y-132608D01*
X74069Y-131569D01*
X74000Y-130524D01*
X74000Y-129476D01*
X74069Y-128431D01*
X74205Y-127392D01*
X74410Y-126365D01*
X74681Y-125353D01*
X75017Y-124361D01*
X75418Y-123393D01*
X75882Y-122454D01*
X76406Y-121546D01*
X76988Y-120675D01*
X77625Y-119844D01*
X78316Y-119057D01*
X79057Y-118316D01*
X79844Y-117625D01*
X80675Y-116988D01*
X81546Y-116406D01*
X82454Y-115882D01*
X83393Y-115418D01*
X84361Y-115017D01*
X85353Y-114681D01*
X86365Y-114410D01*
X87392Y-114205D01*
X88431Y-114069D01*
X89476Y-114000D01*
X90524Y-114000D01*
X91569Y-114069D01*
X92608Y-114205D01*
X93635Y-114410D01*
X94647Y-114681D01*
X95639Y-115017D01*
X96607Y-115418D01*
X97546Y-115882D01*
X98454Y-116406D01*
X99325Y-116988D01*
X100156Y-117625D01*
X100943Y-118316D01*
X101684Y-119057D01*
X102375Y-119844D01*
X103013Y-120675D01*
X103595Y-121546D01*
X104118Y-122454D01*
X104582Y-123393D01*
X104983Y-124361D01*
X105319Y-125353D01*
X105590Y-126365D01*
X105795Y-127392D01*
X105932Y-128431D01*
X106000Y-129476D01*
X106000Y-130524D01*
X-74000Y-130524D02*
X-74069Y-131569D01*
X-74205Y-132608D01*
X-74410Y-133635D01*
X-74681Y-134647D01*
X-75017Y-135639D01*
X-75418Y-136607D01*
X-75882Y-137546D01*
X-76406Y-138454D01*
X-76988Y-139325D01*
X-77625Y-140156D01*
X-78316Y-140943D01*
X-79057Y-141684D01*
X-79844Y-142375D01*
X-80675Y-143013D01*
X-81546Y-143595D01*
X-82454Y-144118D01*
X-83393Y-144582D01*
X-84361Y-144983D01*
X-85353Y-145319D01*
X-86365Y-145590D01*
X-87392Y-145795D01*
X-88431Y-145932D01*
X-89476Y-146000D01*
X-90524Y-146000D01*
X-91569Y-145932D01*
X-92608Y-145795D01*
X-93635Y-145590D01*
X-94647Y-145319D01*
X-95639Y-144983D01*
X-96607Y-144582D01*
X-97546Y-144118D01*
X-98454Y-143595D01*
X-99325Y-143013D01*
X-100156Y-142375D01*
X-100943Y-141684D01*
X-101684Y-140943D01*
X-102375Y-140156D01*
X-103013Y-139325D01*
X-103595Y-138454D01*
X-104118Y-137546D01*
X-104582Y-136607D01*
X-104983Y-135639D01*
X-105319Y-134647D01*
X-105590Y-133635D01*
X-105795Y-132608D01*
X-105932Y-131569D01*
X-106000Y-130524D01*
X-106000Y-129476D01*
X-105932Y-128431D01*
X-105795Y-127392D01*
X-105590Y-126365D01*
X-105319Y-125353D01*
X-104983Y-124361D01*
X-104582Y-123393D01*
X-104118Y-122454D01*
X-103595Y-121546D01*
X-103013Y-120675D01*
X-102375Y-119844D01*
X-101684Y-119057D01*
X-100943Y-118316D01*
X-100156Y-117625D01*
X-99325Y-116988D01*
X-98454Y-116406D01*
X-97546Y-115882D01*
X-96607Y-115418D01*
X-95639Y-115017D01*
X-94647Y-114681D01*
X-93635Y-114410D01*
X-92608Y-114205D01*
X-91569Y-114069D01*
X-90524Y-114000D01*
X-89476Y-114000D01*
X-88431Y-114069D01*
X-87392Y-114205D01*
X-86365Y-114410D01*
X-85353Y-114681D01*
X-84361Y-115017D01*
X-83393Y-115418D01*
X-82454Y-115882D01*
X-81546Y-116406D01*
X-80675Y-116988D01*
X-79844Y-117625D01*
X-79057Y-118316D01*
X-78316Y-119057D01*
X-77625Y-119844D01*
X-76988Y-120675D01*
X-76406Y-121546D01*
X-75882Y-122454D01*
X-75418Y-123393D01*
X-75017Y-124361D01*
X-74681Y-125353D01*
X-74410Y-126365D01*
X-74205Y-127392D01*
X-74069Y-128431D01*
X-74000Y-129476D01*
X-74000Y-130524D01*
X106000Y-130524D02*
X105932Y-131569D01*
X105795Y-132608D01*
X105590Y-133635D01*
X105319Y-134647D01*
X104983Y-135639D01*
X104582Y-136607D01*
X104118Y-137546D01*
X103595Y-138454D01*
X103013Y-139325D01*
X102375Y-140156D01*
X101684Y-140943D01*
X100943Y-141684D01*
X100156Y-142375D01*
X99325Y-143013D01*
X98454Y-143595D01*
X97546Y-144118D01*
X96607Y-144582D01*
X95639Y-144983D01*
X94647Y-145319D01*
X93635Y-145590D01*
X92608Y-145795D01*
X91569Y-145932D01*
X90524Y-146000D01*
X89476Y-146000D01*
X88431Y-145932D01*
X87392Y-145795D01*
X86365Y-145590D01*
X85353Y-145319D01*
X84361Y-144983D01*
X83393Y-144582D01*
X82454Y-144118D01*
X81546Y-143595D01*
X80675Y-143013D01*
X79844Y-142375D01*
X79057Y-141684D01*
X78316Y-140943D01*
X77625Y-140156D01*
X76988Y-139325D01*
X76406Y-138454D01*
X75882Y-137546D01*
X75418Y-136607D01*
X75017Y-135639D01*
X74681Y-134647D01*
X74410Y-133635D01*
X74205Y-132608D01*
X74069Y-131569D01*
X74000Y-130524D01*
X74000Y-129476D01*
X74069Y-128431D01*
X74205Y-127392D01*
X74410Y-126365D01*
X74681Y-125353D01*
X75017Y-124361D01*
X75418Y-123393D01*
X75882Y-122454D01*
X76406Y-121546D01*
X76988Y-120675D01*
X77625Y-119844D01*
X78316Y-119057D01*
X79057Y-118316D01*
X79844Y-117625D01*
X80675Y-116988D01*
X81546Y-116406D01*
X82454Y-115882D01*
X83393Y-115418D01*
X84361Y-115017D01*
X85353Y-114681D01*
X86365Y-114410D01*
X87392Y-114205D01*
X88431Y-114069D01*
X89476Y-114000D01*
X90524Y-114000D01*
X91569Y-114069D01*
X92608Y-114205D01*
X93635Y-114410D01*
X94647Y-114681D01*
X95639Y-115017D01*
X96607Y-115418D01*
X97546Y-115882D01*
X98454Y-116406D01*
X99325Y-116988D01*
X100156Y-117625D01*
X100943Y-118316D01*
X101684Y-119057D01*
X102375Y-119844D01*
X103013Y-120675D01*
X103595Y-121546D01*
X104118Y-122454D01*
X104582Y-123393D01*
X104983Y-124361D01*
X105319Y-125353D01*
X105590Y-126365D01*
X105795Y-127392D01*
X105932Y-128431D01*
X106000Y-129476D01*
X106000Y-130524D01*
X-74000Y-130524D02*
X-74069Y-131569D01*
X-74205Y-132608D01*
X-74410Y-133635D01*
X-74681Y-134647D01*
X-75017Y-135639D01*
X-75418Y-136607D01*
X-75882Y-137546D01*
X-76406Y-138454D01*
X-76988Y-139325D01*
X-77625Y-140156D01*
X-78316Y-140943D01*
X-79057Y-141684D01*
X-79844Y-142375D01*
X-80675Y-143013D01*
X-81546Y-143595D01*
X-82454Y-144118D01*
X-83393Y-144582D01*
X-84361Y-144983D01*
X-85353Y-145319D01*
X-86365Y-145590D01*
X-87392Y-145795D01*
X-88431Y-145932D01*
X-89476Y-146000D01*
X-90524Y-146000D01*
X-91569Y-145932D01*
X-92608Y-145795D01*
X-93635Y-145590D01*
X-94647Y-145319D01*
X-95639Y-144983D01*
X-96607Y-144582D01*
X-97546Y-144118D01*
X-98454Y-143595D01*
X-99325Y-143013D01*
X-100156Y-142375D01*
X-100943Y-141684D01*
X-101684Y-140943D01*
X-102375Y-140156D01*
X-103013Y-139325D01*
X-103595Y-138454D01*
X-104118Y-137546D01*
X-104582Y-136607D01*
X-104983Y-135639D01*
X-105319Y-134647D01*
X-105590Y-133635D01*
X-105795Y-132608D01*
X-105932Y-131569D01*
X-106000Y-130524D01*
X-106000Y-129476D01*
X-105932Y-128431D01*
X-105795Y-127392D01*
X-105590Y-126365D01*
X-105319Y-125353D01*
X-104983Y-124361D01*
X-104582Y-123393D01*
X-104118Y-122454D01*
X-103595Y-121546D01*
X-103013Y-120675D01*
X-102375Y-119844D01*
X-101684Y-119057D01*
X-100943Y-118316D01*
X-100156Y-117625D01*
X-99325Y-116988D01*
X-98454Y-116406D01*
X-97546Y-115882D01*
X-96607Y-115418D01*
X-95639Y-115017D01*
X-94647Y-114681D01*
X-93635Y-114410D01*
X-92608Y-114205D01*
X-91569Y-114069D01*
X-90524Y-114000D01*
X-89476Y-114000D01*
X-88431Y-114069D01*
X-87392Y-114205D01*
X-86365Y-114410D01*
X-85353Y-114681D01*
X-84361Y-115017D01*
X-83393Y-115418D01*
X-82454Y-115882D01*
X-81546Y-116406D01*
X-80675Y-116988D01*
X-79844Y-117625D01*
X-79057Y-118316D01*
X-78316Y-119057D01*
X-77625Y-119844D01*
X-76988Y-120675D01*
X-76406Y-121546D01*
X-75882Y-122454D01*
X-75418Y-123393D01*
X-75017Y-124361D01*
X-74681Y-125353D01*
X-74410Y-126365D01*
X-74205Y-127392D01*
X-74069Y-128431D01*
X-74000Y-129476D01*
X-74000Y-130524D01*
M02*
