  0
SECTION
  2
HEADER
  9
$ACADVER
  1
AC1014
  9
$HANDSEED
  5
FFFF
  9
$MEASUREMENT
 70
     1
  0
ENDSEC
  0
SECTION
  2
TABLES
  0
TABLE
  2
VPORT
  5
8
330
0
100
AcDbSymbolTable
 70
     4
  0
VPORT
  5
2E
330
8
100
AcDbSymbolTableRecord
100
AcDbViewportTableRecord
  2
*ACTIVE
 70
     0
 10
0.0
 20
0.0
 11
1.0
 21
1.0
 12
210.0
 22
148.5
 13
0.0
 23
0.0
 14
10.0
 24
10.0
 15
10.0
 25
10.0
 16
0.0
 26
0.0
 36
1.0
 17
0.0
 27
0.0
 37
0.0
 40
341.0
 41
1.24
 42
50.0
 43
0.0
 44
0.0
 50
0.0
 51
0.0
 71
     0
 72
   100
 73
     1
 74
     3
 75
     0
 76
     0
 77
     0
 78
     0
  0
ENDTAB
  0
TABLE
  2
LTYPE
  5
5
330
0
100
AcDbSymbolTable
 70
     1
  0
LTYPE
  5
14
330
5
100
AcDbSymbolTableRecord
100
AcDbLinetypeTableRecord
  2
BYBLOCK
 70
     0
  3

 72
    65
 73
     0
 40
0.0
  0
LTYPE
  5
15
330
5
100
AcDbSymbolTableRecord
100
AcDbLinetypeTableRecord
  2
BYLAYER
 70
     0
  3

 72
    65
 73
     0
 40
0.0
  0
LTYPE
  5
16
330
5
100
AcDbSymbolTableRecord
100
AcDbLinetypeTableRecord
  2
CONTINUOUS
 70
     0
  3
Solid line
 72
    65
 73
     0
 40
0.0
  0
ENDTAB
  0
TABLE
  2
LAYER
  5
2
100
AcDbSymbolTable
 70
2
  0
LAYER
  5
50
100
AcDbSymbolTableRecord
100
AcDbLayerTableRecord
  2
0
 70
0
  6
CONTINUOUS
  0
LAYER
  5
51
100
AcDbSymbolTableRecord
100
AcDbLayerTableRecord
  2
31
 70
0
  6
CONTINUOUS
  0
ENDTAB
  0
TABLE
  2
STYLE
  5
3
330
0
100
AcDbSymbolTable
 70
     1
  0
STYLE
  5
11
330
3
100
AcDbSymbolTableRecord
100
AcDbTextStyleTableRecord
  2
STANDARD
 70
     0
 40
0.0
 41
1.0
 50
0.0
 71
     0
 42
2.5
  3
txt
  4

  0
ENDTAB
  0
TABLE
  2
VIEW
  5
6
330
0
100
AcDbSymbolTable
 70
     0
  0
ENDTAB
  0
TABLE
  2
UCS
  5
7
330
0
100
AcDbSymbolTable
 70
     0
  0
ENDTAB
  0
TABLE
  2
APPID
  5
9
330
0
100
AcDbSymbolTable
 70
     2
  0
APPID
  5
12
330
9
100
AcDbSymbolTableRecord
100
AcDbRegAppTableRecord
  2
ACAD
 70
     0
  0
ENDTAB
  0
TABLE
  2
DIMSTYLE
  5
A
330
0
100
AcDbSymbolTable
 70
     1
  0
DIMSTYLE
105
27
330
A
100
AcDbSymbolTableRecord
100
AcDbDimStyleTableRecord
  2
ISO-25
 70
     0
  3

  4

  5

  6

  7

 40
1.0
 41
2.5
 42
0.625
 43
3.75
 44
1.25
 45
0.0
 46
0.0
 47
0.0
 48
0.0
140
2.5
141
2.5
142
0.0
143
0.03937007874016
144
1.0
145
0.0
146
1.0
147
0.625
 71
     0
 72
     0
 73
     0
 74
     0
 75
     0
 76
     0
 77
     1
 78
     8
170
     0
171
     3
172
     1
173
     0
174
     0
175
     0
176
     0
177
     0
178
     0
270
     2
271
     2
272
     2
273
     2
274
     3
340
11
275
     0
280
     0
281
     0
282
     0
283
     0
284
     8
285
     0
286
     0
287
     3
288
     0
  0
ENDTAB
  0
TABLE
  2
BLOCK_RECORD
  5
1
330
0
100
AcDbSymbolTable
 70
     1
  0
BLOCK_RECORD
  5
1F
330
1
100
AcDbSymbolTableRecord
100
AcDbBlockTableRecord
  2
*MODEL_SPACE
  0
BLOCK_RECORD
  5
1B
330
1
100
AcDbSymbolTableRecord
100
AcDbBlockTableRecord
  2
*PAPER_SPACE
  0
ENDTAB
  0
ENDSEC
  0
SECTION
  2
BLOCKS
  0
BLOCK
  5
20
330
1F
100
AcDbEntity
  8
0
100
AcDbBlockBegin
  2
*MODEL_SPACE
 70
     0
 10
0.0
 20
0.0
 30
0.0
  3
*MODEL_SPACE
  1

  0
ENDBLK
  5
21
330
1F
100
AcDbEntity
  8
0
100
AcDbBlockEnd
  0
BLOCK
  5
1C
330
1B
100
AcDbEntity
 67
     1
  8
0
100
AcDbBlockBegin
  2
*PAPER_SPACE
  1

  0
ENDBLK
  5
1D
330
1B
100
AcDbEntity
 67
     1
  8
0
100
AcDbBlockEnd
  0
ENDSEC
  0
SECTION
  2
ENTITIES
  0
LWPOLYLINE
  5
100
100
AcDbEntity
  8
0
 62
7
100
AcDbPolyline
 90
6
 70
1
 10
106.062588
 20
153.078972
 30
0.0
 10
107.671254
 20
153.078972
 30
0.0
 10
107.671254
 20
152.486305
 30
0.0
 10
106.062588
 20
152.486305
 30
0.0
 10
106.062588
 20
153.078972
 30
0.0
 10
106.062588
 20
153.078972
 30
0.0
  0
LWPOLYLINE
  5
101
100
AcDbEntity
  8
0
 62
7
100
AcDbPolyline
 90
6
 70
1
 10
106.062588
 20
154.327805
 30
0.0
 10
107.671254
 20
154.327805
 30
0.0
 10
107.671254
 20
153.735138
 30
0.0
 10
106.062588
 20
153.735138
 30
0.0
 10
106.062588
 20
154.327805
 30
0.0
 10
106.062588
 20
154.327805
 30
0.0
  0
LWPOLYLINE
  5
102
100
AcDbEntity
  8
0
 62
7
100
AcDbPolyline
 90
6
 70
1
 10
106.062588
 20
155.597805
 30
0.0
 10
107.671254
 20
155.597805
 30
0.0
 10
107.671254
 20
155.005138
 30
0.0
 10
106.062588
 20
155.005138
 30
0.0
 10
106.062588
 20
155.597805
 30
0.0
 10
106.062588
 20
155.597805
 30
0.0
  0
LWPOLYLINE
  5
103
100
AcDbEntity
  8
0
 62
7
100
AcDbPolyline
 90
6
 70
1
 10
106.062588
 20
156.867805
 30
0.0
 10
107.671254
 20
156.867805
 30
0.0
 10
107.671254
 20
156.275138
 30
0.0
 10
106.062588
 20
156.275138
 30
0.0
 10
106.062588
 20
156.867805
 30
0.0
 10
106.062588
 20
156.867805
 30
0.0
  0
LWPOLYLINE
  5
104
100
AcDbEntity
  8
0
 62
7
100
AcDbPolyline
 90
6
 70
1
 10
100.770921
 20
153.078972
 30
0.0
 10
102.379588
 20
153.078972
 30
0.0
 10
102.379588
 20
152.486305
 30
0.0
 10
100.770921
 20
152.486305
 30
0.0
 10
100.770921
 20
153.078972
 30
0.0
 10
100.770921
 20
153.078972
 30
0.0
  0
LWPOLYLINE
  5
105
100
AcDbEntity
  8
0
 62
7
100
AcDbPolyline
 90
6
 70
1
 10
100.770921
 20
154.348972
 30
0.0
 10
102.379588
 20
154.348972
 30
0.0
 10
102.379588
 20
153.756305
 30
0.0
 10
100.770921
 20
153.756305
 30
0.0
 10
100.770921
 20
154.348972
 30
0.0
 10
100.770921
 20
154.348972
 30
0.0
  0
LWPOLYLINE
  5
106
100
AcDbEntity
  8
0
 62
7
100
AcDbPolyline
 90
6
 70
1
 10
100.770921
 20
155.618972
 30
0.0
 10
102.379588
 20
155.618972
 30
0.0
 10
102.379588
 20
155.026305
 30
0.0
 10
100.770921
 20
155.026305
 30
0.0
 10
100.770921
 20
155.618972
 30
0.0
 10
100.770921
 20
155.618972
 30
0.0
  0
LWPOLYLINE
  5
107
100
AcDbEntity
  8
0
 62
7
100
AcDbPolyline
 90
6
 70
1
 10
100.770921
 20
156.867805
 30
0.0
 10
102.379588
 20
156.867805
 30
0.0
 10
102.379588
 20
156.275138
 30
0.0
 10
100.770921
 20
156.275138
 30
0.0
 10
100.770921
 20
156.867805
 30
0.0
 10
100.770921
 20
156.867805
 30
0.0
  0
LWPOLYLINE
  5
108
100
AcDbEntity
  8
0
 62
7
100
AcDbPolyline
 90
6
 70
1
 10
96.791588
 20
151.131638
 30
0.0
 10
97.511254
 20
151.131638
 30
0.0
 10
97.511254
 20
150.030972
 30
0.0
 10
96.791588
 20
150.030972
 30
0.0
 10
96.791588
 20
151.131638
 30
0.0
 10
96.791588
 20
151.131638
 30
0.0
  0
LWPOLYLINE
  5
109
100
AcDbEntity
  8
0
 62
7
100
AcDbPolyline
 90
6
 70
1
 10
93.807088
 20
151.131638
 30
0.0
 10
94.526754
 20
151.131638
 30
0.0
 10
94.526754
 20
150.030972
 30
0.0
 10
93.807088
 20
150.030972
 30
0.0
 10
93.807088
 20
151.131638
 30
0.0
 10
93.807088
 20
151.131638
 30
0.0
  0
LWPOLYLINE
  5
10a
100
AcDbEntity
  8
0
 62
7
100
AcDbPolyline
 90
6
 70
1
 10
95.288754
 20
151.131638
 30
0.0
 10
96.008421
 20
151.131638
 30
0.0
 10
96.008421
 20
150.030972
 30
0.0
 10
95.288754
 20
150.030972
 30
0.0
 10
95.288754
 20
151.131638
 30
0.0
 10
95.288754
 20
151.131638
 30
0.0
  0
LWPOLYLINE
  5
10b
100
AcDbEntity
  8
0
 62
7
100
AcDbPolyline
 90
6
 70
1
 10
94.653754
 20
154.624138
 30
0.0
 10
96.643421
 20
154.624138
 30
0.0
 10
96.643421
 20
151.830138
 30
0.0
 10
94.653754
 20
151.830138
 30
0.0
 10
94.653754
 20
154.624138
 30
0.0
 10
94.653754
 20
154.624138
 30
0.0
  0
LWPOLYLINE
  5
10c
100
AcDbEntity
  8
0
 62
7
100
AcDbPolyline
 90
6
 70
1
 10
98.929421
 20
153.227138
 30
0.0
 10
99.987754
 20
153.227138
 30
0.0
 10
99.987754
 20
152.168805
 30
0.0
 10
98.929421
 20
152.168805
 30
0.0
 10
98.929421
 20
153.227138
 30
0.0
 10
98.929421
 20
153.227138
 30
0.0
  0
LWPOLYLINE
  5
10d
100
AcDbEntity
  8
0
 62
7
100
AcDbPolyline
 90
6
 70
1
 10
98.929421
 20
151.470305
 30
0.0
 10
99.987754
 20
151.470305
 30
0.0
 10
99.987754
 20
150.411972
 30
0.0
 10
98.929421
 20
150.411972
 30
0.0
 10
98.929421
 20
151.470305
 30
0.0
 10
98.929421
 20
151.470305
 30
0.0
  0
LWPOLYLINE
  5
10e
100
AcDbEntity
  8
0
 62
7
100
AcDbPolyline
 90
6
 70
1
 10
98.611921
 20
145.141472
 30
0.0
 10
99.670254
 20
145.141472
 30
0.0
 10
99.670254
 20
144.083138
 30
0.0
 10
98.611921
 20
144.083138
 30
0.0
 10
98.611921
 20
145.141472
 30
0.0
 10
98.611921
 20
145.141472
 30
0.0
  0
LWPOLYLINE
  5
10f
100
AcDbEntity
  8
0
 62
7
100
AcDbPolyline
 90
6
 70
1
 10
98.611921
 20
146.877138
 30
0.0
 10
99.670254
 20
146.877138
 30
0.0
 10
99.670254
 20
145.818805
 30
0.0
 10
98.611921
 20
145.818805
 30
0.0
 10
98.611921
 20
146.877138
 30
0.0
 10
98.611921
 20
146.877138
 30
0.0
  0
LWPOLYLINE
  5
110
100
AcDbEntity
  8
0
 62
7
100
AcDbPolyline
 90
6
 70
1
 10
103.924754
 20
140.421305
 30
0.0
 10
105.660421
 20
140.421305
 30
0.0
 10
105.660421
 20
139.786305
 30
0.0
 10
103.924754
 20
139.786305
 30
0.0
 10
103.924754
 20
140.421305
 30
0.0
 10
103.924754
 20
140.421305
 30
0.0
  0
LWPOLYLINE
  5
111
100
AcDbEntity
  8
0
 62
7
100
AcDbPolyline
 90
6
 70
1
 10
103.924754
 20
139.151305
 30
0.0
 10
105.660421
 20
139.151305
 30
0.0
 10
105.660421
 20
138.516305
 30
0.0
 10
103.924754
 20
138.516305
 30
0.0
 10
103.924754
 20
139.151305
 30
0.0
 10
103.924754
 20
139.151305
 30
0.0
  0
LWPOLYLINE
  5
112
100
AcDbEntity
  8
0
 62
7
100
AcDbPolyline
 90
6
 70
1
 10
103.924754
 20
141.670138
 30
0.0
 10
105.660421
 20
141.670138
 30
0.0
 10
105.660421
 20
141.035138
 30
0.0
 10
103.924754
 20
141.035138
 30
0.0
 10
103.924754
 20
141.670138
 30
0.0
 10
103.924754
 20
141.670138
 30
0.0
  0
LWPOLYLINE
  5
113
100
AcDbEntity
  8
0
 62
7
100
AcDbPolyline
 90
6
 70
1
 10
103.924754
 20
142.940138
 30
0.0
 10
105.660421
 20
142.940138
 30
0.0
 10
105.660421
 20
142.305138
 30
0.0
 10
103.924754
 20
142.305138
 30
0.0
 10
103.924754
 20
142.940138
 30
0.0
 10
103.924754
 20
142.940138
 30
0.0
  0
LWPOLYLINE
  5
114
100
AcDbEntity
  8
0
 62
7
100
AcDbPolyline
 90
6
 70
1
 10
98.336754
 20
142.940138
 30
0.0
 10
100.072421
 20
142.940138
 30
0.0
 10
100.072421
 20
142.305138
 30
0.0
 10
98.336754
 20
142.305138
 30
0.0
 10
98.336754
 20
142.940138
 30
0.0
 10
98.336754
 20
142.940138
 30
0.0
  0
LWPOLYLINE
  5
115
100
AcDbEntity
  8
0
 62
7
100
AcDbPolyline
 90
6
 70
1
 10
98.336754
 20
141.670138
 30
0.0
 10
100.072421
 20
141.670138
 30
0.0
 10
100.072421
 20
141.035138
 30
0.0
 10
98.336754
 20
141.035138
 30
0.0
 10
98.336754
 20
141.670138
 30
0.0
 10
98.336754
 20
141.670138
 30
0.0
  0
LWPOLYLINE
  5
116
100
AcDbEntity
  8
0
 62
7
100
AcDbPolyline
 90
6
 70
1
 10
98.336754
 20
140.421305
 30
0.0
 10
100.072421
 20
140.421305
 30
0.0
 10
100.072421
 20
139.786305
 30
0.0
 10
98.336754
 20
139.786305
 30
0.0
 10
98.336754
 20
140.421305
 30
0.0
 10
98.336754
 20
140.421305
 30
0.0
  0
LWPOLYLINE
  5
117
100
AcDbEntity
  8
0
 62
7
100
AcDbPolyline
 90
6
 70
1
 10
98.336754
 20
139.151305
 30
0.0
 10
100.072421
 20
139.151305
 30
0.0
 10
100.072421
 20
138.516305
 30
0.0
 10
98.336754
 20
138.516305
 30
0.0
 10
98.336754
 20
139.151305
 30
0.0
 10
98.336754
 20
139.151305
 30
0.0
  0
LWPOLYLINE
  5
118
100
AcDbEntity
  8
0
 62
7
100
AcDbPolyline
 90
6
 70
1
 10
100.792088
 20
142.368638
 30
0.0
 10
103.205088
 20
142.368638
 30
0.0
 10
103.205088
 20
139.066638
 30
0.0
 10
100.792088
 20
139.066638
 30
0.0
 10
100.792088
 20
142.368638
 30
0.0
 10
100.792088
 20
142.368638
 30
0.0
  0
LWPOLYLINE
  5
119
100
AcDbEntity
  8
0
 62
7
100
AcDbPolyline
 90
6
 70
1
 10
94.907754
 20
144.548805
 30
0.0
 10
96.389421
 20
144.548805
 30
0.0
 10
96.389421
 20
143.236472
 30
0.0
 10
94.907754
 20
143.236472
 30
0.0
 10
94.907754
 20
144.548805
 30
0.0
 10
94.907754
 20
144.548805
 30
0.0
  0
LWPOLYLINE
  5
11a
100
AcDbEntity
  8
0
 62
7
100
AcDbPolyline
 90
6
 70
1
 10
94.907754
 20
142.664972
 30
0.0
 10
96.389421
 20
142.664972
 30
0.0
 10
96.389421
 20
141.352638
 30
0.0
 10
94.907754
 20
141.352638
 30
0.0
 10
94.907754
 20
142.664972
 30
0.0
 10
94.907754
 20
142.664972
 30
0.0
  0
LWPOLYLINE
  5
11b
100
AcDbEntity
  8
0
 62
7
100
AcDbPolyline
 90
6
 70
1
 10
108.009921
 20
148.972638
 30
0.0
 10
109.322254
 20
148.972638
 30
0.0
 10
109.322254
 20
147.660305
 30
0.0
 10
108.009921
 20
147.660305
 30
0.0
 10
108.009921
 20
148.972638
 30
0.0
 10
108.009921
 20
148.972638
 30
0.0
  0
LWPOLYLINE
  5
11c
100
AcDbEntity
  8
0
 62
7
100
AcDbPolyline
 90
6
 70
1
 10
109.068254
 20
151.449138
 30
0.0
 10
110.253588
 20
151.449138
 30
0.0
 10
110.253588
 20
150.221472
 30
0.0
 10
109.068254
 20
150.221472
 30
0.0
 10
109.068254
 20
151.449138
 30
0.0
 10
109.068254
 20
151.449138
 30
0.0
  0
LWPOLYLINE
  5
11d
100
AcDbEntity
  8
0
 62
7
100
AcDbPolyline
 90
6
 70
1
 10
107.078588
 20
151.449138
 30
0.0
 10
108.263921
 20
151.449138
 30
0.0
 10
108.263921
 20
150.221472
 30
0.0
 10
107.078588
 20
150.221472
 30
0.0
 10
107.078588
 20
151.449138
 30
0.0
 10
107.078588
 20
151.449138
 30
0.0
  0
LWPOLYLINE
  5
11e
100
AcDbEntity
  8
0
 62
7
100
AcDbPolyline
 90
6
 70
1
 10
111.925754
 20
151.173972
 30
0.0
 10
113.026421
 20
151.173972
 30
0.0
 10
113.026421
 20
150.157972
 30
0.0
 10
111.925754
 20
150.157972
 30
0.0
 10
111.925754
 20
151.173972
 30
0.0
 10
111.925754
 20
151.173972
 30
0.0
  0
LWPOLYLINE
  5
11f
100
AcDbEntity
  8
0
 62
7
100
AcDbPolyline
 90
6
 70
1
 10
111.925754
 20
152.867305
 30
0.0
 10
113.026421
 20
152.867305
 30
0.0
 10
113.026421
 20
151.851305
 30
0.0
 10
111.925754
 20
151.851305
 30
0.0
 10
111.925754
 20
152.867305
 30
0.0
 10
111.925754
 20
152.867305
 30
0.0
  0
LWPOLYLINE
  5
120
100
AcDbEntity
  8
0
 62
7
100
AcDbPolyline
 90
6
 70
1
 10
110.041921
 20
143.088305
 30
0.0
 10
108.623754
 20
141.670138
 30
0.0
 10
107.078588
 20
143.236472
 30
0.0
 10
108.475588
 20
144.633472
 30
0.0
 10
110.041921
 20
143.088305
 30
0.0
 10
110.041921
 20
143.088305
 30
0.0
  0
LWPOLYLINE
  5
121
100
AcDbEntity
  8
0
 62
7
100
AcDbPolyline
 90
6
 70
1
 10
112.158588
 20
145.204972
 30
0.0
 10
110.740421
 20
143.786805
 30
0.0
 10
109.195254
 20
145.353138
 30
0.0
 10
110.592254
 20
146.750138
 30
0.0
 10
112.158588
 20
145.204972
 30
0.0
 10
112.158588
 20
145.204972
 30
0.0
  0
ENDSEC
  0
SECTION
  2
OBJECTS
  0
DICTIONARY
  5
C
330
0
100
AcDbDictionary
  3
ACAD_GROUP
350
D
  3
ACAD_MLINESTYLE
350
17
  0
DICTIONARY
  5
D
330
C
100
AcDbDictionary
  0
DICTIONARY
  5
1A
330
C
100
AcDbDictionary
  0
DICTIONARY
  5
17
330
C
100
AcDbDictionary
  3
STANDARD
350
18
  0
DICTIONARY
  5
19
330
C
100
AcDbDictionary
  0
ENDSEC
  0
EOF
