  0
SECTION
  2
HEADER
  9
$ACADVER
  1
AC1014
  9
$HANDSEED
  5
FFFF
  9
$MEASUREMENT
 70
     1
  0
ENDSEC
  0
SECTION
  2
TABLES
  0
TABLE
  2
VPORT
  5
8
330
0
100
AcDbSymbolTable
 70
     4
  0
VPORT
  5
2E
330
8
100
AcDbSymbolTableRecord
100
AcDbViewportTableRecord
  2
*ACTIVE
 70
     0
 10
0.0
 20
0.0
 11
1.0
 21
1.0
 12
210.0
 22
148.5
 13
0.0
 23
0.0
 14
10.0
 24
10.0
 15
10.0
 25
10.0
 16
0.0
 26
0.0
 36
1.0
 17
0.0
 27
0.0
 37
0.0
 40
341.0
 41
1.24
 42
50.0
 43
0.0
 44
0.0
 50
0.0
 51
0.0
 71
     0
 72
   100
 73
     1
 74
     3
 75
     0
 76
     0
 77
     0
 78
     0
  0
ENDTAB
  0
TABLE
  2
LTYPE
  5
5
330
0
100
AcDbSymbolTable
 70
     1
  0
LTYPE
  5
14
330
5
100
AcDbSymbolTableRecord
100
AcDbLinetypeTableRecord
  2
BYBLOCK
 70
     0
  3

 72
    65
 73
     0
 40
0.0
  0
LTYPE
  5
15
330
5
100
AcDbSymbolTableRecord
100
AcDbLinetypeTableRecord
  2
BYLAYER
 70
     0
  3

 72
    65
 73
     0
 40
0.0
  0
LTYPE
  5
16
330
5
100
AcDbSymbolTableRecord
100
AcDbLinetypeTableRecord
  2
CONTINUOUS
 70
     0
  3
Solid line
 72
    65
 73
     0
 40
0.0
  0
ENDTAB
  0
TABLE
  2
LAYER
  5
2
100
AcDbSymbolTable
 70
2
  0
LAYER
  5
50
100
AcDbSymbolTableRecord
100
AcDbLayerTableRecord
  2
0
 70
0
  6
CONTINUOUS
  0
LAYER
  5
51
100
AcDbSymbolTableRecord
100
AcDbLayerTableRecord
  2
pot_board
 70
0
  6
CONTINUOUS
  0
ENDTAB
  0
TABLE
  2
STYLE
  5
3
330
0
100
AcDbSymbolTable
 70
     1
  0
STYLE
  5
11
330
3
100
AcDbSymbolTableRecord
100
AcDbTextStyleTableRecord
  2
STANDARD
 70
     0
 40
0.0
 41
1.0
 50
0.0
 71
     0
 42
2.5
  3
txt
  4

  0
ENDTAB
  0
TABLE
  2
VIEW
  5
6
330
0
100
AcDbSymbolTable
 70
     0
  0
ENDTAB
  0
TABLE
  2
UCS
  5
7
330
0
100
AcDbSymbolTable
 70
     0
  0
ENDTAB
  0
TABLE
  2
APPID
  5
9
330
0
100
AcDbSymbolTable
 70
     2
  0
APPID
  5
12
330
9
100
AcDbSymbolTableRecord
100
AcDbRegAppTableRecord
  2
ACAD
 70
     0
  0
ENDTAB
  0
TABLE
  2
DIMSTYLE
  5
A
330
0
100
AcDbSymbolTable
 70
     1
  0
DIMSTYLE
105
27
330
A
100
AcDbSymbolTableRecord
100
AcDbDimStyleTableRecord
  2
ISO-25
 70
     0
  3

  4

  5

  6

  7

 40
1.0
 41
2.5
 42
0.625
 43
3.75
 44
1.25
 45
0.0
 46
0.0
 47
0.0
 48
0.0
140
2.5
141
2.5
142
0.0
143
0.03937007874016
144
1.0
145
0.0
146
1.0
147
0.625
 71
     0
 72
     0
 73
     0
 74
     0
 75
     0
 76
     0
 77
     1
 78
     8
170
     0
171
     3
172
     1
173
     0
174
     0
175
     0
176
     0
177
     0
178
     0
270
     2
271
     2
272
     2
273
     2
274
     3
340
11
275
     0
280
     0
281
     0
282
     0
283
     0
284
     8
285
     0
286
     0
287
     3
288
     0
  0
ENDTAB
  0
TABLE
  2
BLOCK_RECORD
  5
1
330
0
100
AcDbSymbolTable
 70
     1
  0
BLOCK_RECORD
  5
1F
330
1
100
AcDbSymbolTableRecord
100
AcDbBlockTableRecord
  2
*MODEL_SPACE
  0
BLOCK_RECORD
  5
1B
330
1
100
AcDbSymbolTableRecord
100
AcDbBlockTableRecord
  2
*PAPER_SPACE
  0
ENDTAB
  0
ENDSEC
  0
SECTION
  2
BLOCKS
  0
BLOCK
  5
20
330
1F
100
AcDbEntity
  8
0
100
AcDbBlockBegin
  2
*MODEL_SPACE
 70
     0
 10
0.0
 20
0.0
 30
0.0
  3
*MODEL_SPACE
  1

  0
ENDBLK
  5
21
330
1F
100
AcDbEntity
  8
0
100
AcDbBlockEnd
  0
BLOCK
  5
1C
330
1B
100
AcDbEntity
 67
     1
  8
0
100
AcDbBlockBegin
  2
*PAPER_SPACE
  1

  0
ENDBLK
  5
1D
330
1B
100
AcDbEntity
 67
     1
  8
0
100
AcDbBlockEnd
  0
ENDSEC
  0
SECTION
  2
ENTITIES
  0
SPLINE
  5
100
100
AcDbEntity
  8
pot_board
 62
7
100
AcDbSpline
 70
8
 71
3
 72
8
 73
4
 74
0
 40
0
 40
0
 40
0
 40
0
 40
1
 40
1
 40
1
 40
1
 10
124.560351
 20
92.529106
 30
0.0
 10
124.407849
 20
92.537114
 30
0.0
 10
124.365597
 20
92.543641
 30
0.0
 10
124.226853
 20
92.580442
 30
0.0
  0
SPLINE
  5
101
100
AcDbEntity
  8
pot_board
 62
7
100
AcDbSpline
 70
8
 71
3
 72
8
 73
4
 74
0
 40
0
 40
0
 40
0
 40
0
 40
1
 40
1
 40
1
 40
1
 10
124.226853
 20
92.580442
 30
0.0
 10
124.139473
 20
92.603620
 30
0.0
 10
124.051328
 20
92.622596
 30
0.0
 10
124.030976
 20
92.622596
 30
0.0
  0
SPLINE
  5
102
100
AcDbEntity
  8
pot_board
 62
7
100
AcDbSpline
 70
8
 71
3
 72
8
 73
4
 74
0
 40
0
 40
0
 40
0
 40
0
 40
1
 40
1
 40
1
 40
1
 10
124.030976
 20
92.622596
 30
0.0
 10
124.010621
 20
92.622596
 30
0.0
 10
123.972581
 20
92.633955
 30
0.0
 10
123.946433
 20
92.647819
 30
0.0
  0
SPLINE
  5
103
100
AcDbEntity
  8
pot_board
 62
7
100
AcDbSpline
 70
8
 71
3
 72
8
 73
4
 74
0
 40
0
 40
0
 40
0
 40
0
 40
1
 40
1
 40
1
 40
1
 10
123.946433
 20
92.647819
 30
0.0
 10
123.920292
 20
92.661684
 30
0.0
 10
123.818823
 20
92.702295
 30
0.0
 10
123.720962
 20
92.738053
 30
0.0
  0
SPLINE
  5
104
100
AcDbEntity
  8
pot_board
 62
7
100
AcDbSpline
 70
8
 71
3
 72
8
 73
4
 74
0
 40
0
 40
0
 40
0
 40
0
 40
1
 40
1
 40
1
 40
1
 10
123.720962
 20
92.738053
 30
0.0
 10
123.525033
 20
92.809646
 30
0.0
 10
123.158426
 20
92.987262
 30
0.0
 10
123.099202
 20
93.039283
 30
0.0
  0
SPLINE
  5
105
100
AcDbEntity
  8
pot_board
 62
7
100
AcDbSpline
 70
8
 71
3
 72
8
 73
4
 74
0
 40
0
 40
0
 40
0
 40
0
 40
1
 40
1
 40
1
 40
1
 10
123.099202
 20
93.039283
 30
0.0
 10
123.078459
 20
93.057486
 30
0.0
 10
123.004795
 20
93.117635
 30
0.0
 10
122.935478
 20
93.172933
 30
0.0
  0
SPLINE
  5
106
100
AcDbEntity
  8
pot_board
 62
7
100
AcDbSpline
 70
8
 71
3
 72
8
 73
4
 74
0
 40
0
 40
0
 40
0
 40
0
 40
1
 40
1
 40
1
 40
1
 10
122.935478
 20
93.172933
 30
0.0
 10
122.866157
 20
93.228231
 30
0.0
 10
122.754531
 20
93.328243
 30
0.0
 10
122.687419
 20
93.395183
 30
0.0
  0
SPLINE
  5
107
100
AcDbEntity
  8
pot_board
 62
7
100
AcDbSpline
 70
8
 71
3
 72
8
 73
4
 74
0
 40
0
 40
0
 40
0
 40
0
 40
1
 40
1
 40
1
 40
1
 10
122.687419
 20
93.395183
 30
0.0
 10
122.620303
 20
93.462122
 30
0.0
 10
122.552509
 20
93.525287
 30
0.0
 10
122.536765
 20
93.535546
 30
0.0
  0
SPLINE
  5
108
100
AcDbEntity
  8
pot_board
 62
7
100
AcDbSpline
 70
8
 71
3
 72
8
 73
4
 74
0
 40
0
 40
0
 40
0
 40
0
 40
1
 40
1
 40
1
 40
1
 10
122.536765
 20
93.535546
 30
0.0
 10
122.521031
 20
93.545812
 30
0.0
 10
122.491253
 20
93.579146
 30
0.0
 10
122.470616
 20
93.609629
 30
0.0
  0
SPLINE
  5
109
100
AcDbEntity
  8
pot_board
 62
7
100
AcDbSpline
 70
8
 71
3
 72
8
 73
4
 74
0
 40
0
 40
0
 40
0
 40
0
 40
1
 40
1
 40
1
 40
1
 10
122.470616
 20
93.609629
 30
0.0
 10
122.449978
 20
93.640109
 30
0.0
 10
122.383113
 20
93.724589
 30
0.0
 10
122.322022
 20
93.797349
 30
0.0
  0
SPLINE
  5
10a
100
AcDbEntity
  8
pot_board
 62
7
100
AcDbSpline
 70
8
 71
3
 72
8
 73
4
 74
0
 40
0
 40
0
 40
0
 40
0
 40
1
 40
1
 40
1
 40
1
 10
122.322022
 20
93.797349
 30
0.0
 10
122.219085
 20
93.919947
 30
0.0
 10
122.202409
 20
93.946571
 30
0.0
 10
122.094480
 20
94.160650
 30
0.0
  0
SPLINE
  5
10b
100
AcDbEntity
  8
pot_board
 62
7
100
AcDbSpline
 70
8
 71
3
 72
8
 73
4
 74
0
 40
0
 40
0
 40
0
 40
0
 40
1
 40
1
 40
1
 40
1
 10
122.094480
 20
94.160650
 30
0.0
 10
122.030426
 20
94.287703
 30
0.0
 10
121.978018
 20
94.397791
 30
0.0
 10
121.978018
 20
94.405284
 30
0.0
  0
SPLINE
  5
10c
100
AcDbEntity
  8
pot_board
 62
7
100
AcDbSpline
 70
8
 71
3
 72
8
 73
4
 74
0
 40
0
 40
0
 40
0
 40
0
 40
1
 40
1
 40
1
 40
1
 10
121.978018
 20
94.405284
 30
0.0
 10
121.978018
 20
94.412763
 30
0.0
 10
121.968211
 20
94.431390
 30
0.0
 10
121.956216
 20
94.446633
 30
0.0
  0
SPLINE
  5
10d
100
AcDbEntity
  8
pot_board
 62
7
100
AcDbSpline
 70
8
 71
3
 72
8
 73
4
 74
0
 40
0
 40
0
 40
0
 40
0
 40
1
 40
1
 40
1
 40
1
 10
121.956216
 20
94.446633
 30
0.0
 10
121.944222
 20
94.461873
 30
0.0
 10
121.931839
 20
94.492286
 30
0.0
 10
121.928699
 20
94.514204
 30
0.0
  0
SPLINE
  5
10e
100
AcDbEntity
  8
pot_board
 62
7
100
AcDbSpline
 70
8
 71
3
 72
8
 73
4
 74
0
 40
0
 40
0
 40
0
 40
0
 40
1
 40
1
 40
1
 40
1
 10
121.928699
 20
94.514204
 30
0.0
 10
121.921115
 20
94.567206
 30
0.0
 10
121.885064
 20
94.666146
 30
0.0
 10
121.865443
 20
94.687902
 30
0.0
  0
SPLINE
  5
10f
100
AcDbEntity
  8
pot_board
 62
7
100
AcDbSpline
 70
8
 71
3
 72
8
 73
4
 74
0
 40
0
 40
0
 40
0
 40
0
 40
1
 40
1
 40
1
 40
1
 10
121.865443
 20
94.687902
 30
0.0
 10
121.856800
 20
94.697497
 30
0.0
 10
121.845546
 20
94.733202
 30
0.0
 10
121.840466
 20
94.767277
 30
0.0
  0
SPLINE
  5
110
100
AcDbEntity
  8
pot_board
 62
7
100
AcDbSpline
 70
8
 71
3
 72
8
 73
4
 74
0
 40
0
 40
0
 40
0
 40
0
 40
1
 40
1
 40
1
 40
1
 10
121.840466
 20
94.767277
 30
0.0
 10
121.835351
 20
94.801355
 30
0.0
 10
121.809986
 20
94.907806
 30
0.0
 10
121.784099
 20
95.003849
 30
0.0
  0
SPLINE
  5
111
100
AcDbEntity
  8
pot_board
 62
7
100
AcDbSpline
 70
8
 71
3
 72
8
 73
4
 74
0
 40
0
 40
0
 40
0
 40
0
 40
1
 40
1
 40
1
 40
1
 10
121.784099
 20
95.003849
 30
0.0
 10
121.739000
 20
95.171084
 30
0.0
 10
121.736510
 20
95.188102
 30
0.0
 10
121.725231
 20
95.406037
 30
0.0
  0
SPLINE
  5
112
100
AcDbEntity
  8
pot_board
 62
7
100
AcDbSpline
 70
8
 71
3
 72
8
 73
4
 74
0
 40
0
 40
0
 40
0
 40
0
 40
1
 40
1
 40
1
 40
1
 10
121.725231
 20
95.406037
 30
0.0
 10
121.708439
 20
95.730289
 30
0.0
 10
121.708439
 20
123.508576
 30
0.0
 10
121.725231
 20
123.832828
 30
0.0
  0
SPLINE
  5
113
100
AcDbEntity
  8
pot_board
 62
7
100
AcDbSpline
 70
8
 71
3
 72
8
 73
4
 74
0
 40
0
 40
0
 40
0
 40
0
 40
1
 40
1
 40
1
 40
1
 10
121.725231
 20
123.832828
 30
0.0
 10
121.736520
 20
124.050764
 30
0.0
 10
121.738990
 20
124.067782
 30
0.0
 10
121.784099
 20
124.235016
 30
0.0
  0
SPLINE
  5
114
100
AcDbEntity
  8
pot_board
 62
7
100
AcDbSpline
 70
8
 71
3
 72
8
 73
4
 74
0
 40
0
 40
0
 40
0
 40
0
 40
1
 40
1
 40
1
 40
1
 10
121.784099
 20
124.235016
 30
0.0
 10
121.809993
 20
124.331060
 30
0.0
 10
121.835365
 20
124.437517
 30
0.0
 10
121.840466
 20
124.471592
 30
0.0
  0
SPLINE
  5
115
100
AcDbEntity
  8
pot_board
 62
7
100
AcDbSpline
 70
8
 71
3
 72
8
 73
4
 74
0
 40
0
 40
0
 40
0
 40
0
 40
1
 40
1
 40
1
 40
1
 10
121.840466
 20
124.471592
 30
0.0
 10
121.845582
 20
124.505671
 30
0.0
 10
121.856800
 20
124.541382
 30
0.0
 10
121.865443
 20
124.550967
 30
0.0
  0
SPLINE
  5
116
100
AcDbEntity
  8
pot_board
 62
7
100
AcDbSpline
 70
8
 71
3
 72
8
 73
4
 74
0
 40
0
 40
0
 40
0
 40
0
 40
1
 40
1
 40
1
 40
1
 10
121.865443
 20
124.550967
 30
0.0
 10
121.885057
 20
124.572734
 30
0.0
 10
121.921097
 20
124.671660
 30
0.0
 10
121.928699
 20
124.724661
 30
0.0
  0
SPLINE
  5
117
100
AcDbEntity
  8
pot_board
 62
7
100
AcDbSpline
 70
8
 71
3
 72
8
 73
4
 74
0
 40
0
 40
0
 40
0
 40
0
 40
1
 40
1
 40
1
 40
1
 10
121.928699
 20
124.724661
 30
0.0
 10
121.931874
 20
124.746568
 30
0.0
 10
121.944222
 20
124.776985
 30
0.0
 10
121.956216
 20
124.792232
 30
0.0
  0
SPLINE
  5
118
100
AcDbEntity
  8
pot_board
 62
7
100
AcDbSpline
 70
8
 71
3
 72
8
 73
4
 74
0
 40
0
 40
0
 40
0
 40
0
 40
1
 40
1
 40
1
 40
1
 10
121.956216
 20
124.792232
 30
0.0
 10
121.968211
 20
124.807472
 30
0.0
 10
121.978018
 20
124.826099
 30
0.0
 10
121.978018
 20
124.833581
 30
0.0
  0
SPLINE
  5
119
100
AcDbEntity
  8
pot_board
 62
7
100
AcDbSpline
 70
8
 71
3
 72
8
 73
4
 74
0
 40
0
 40
0
 40
0
 40
0
 40
1
 40
1
 40
1
 40
1
 10
121.978018
 20
124.833581
 30
0.0
 10
121.978018
 20
124.841060
 30
0.0
 10
122.030426
 20
124.951162
 30
0.0
 10
122.094480
 20
125.078215
 30
0.0
  0
SPLINE
  5
11a
100
AcDbEntity
  8
pot_board
 62
7
100
AcDbSpline
 70
8
 71
3
 72
8
 73
4
 74
0
 40
0
 40
0
 40
0
 40
0
 40
1
 40
1
 40
1
 40
1
 10
122.094480
 20
125.078215
 30
0.0
 10
122.202409
 20
125.292294
 30
0.0
 10
122.219085
 20
125.318919
 30
0.0
 10
122.322022
 20
125.441516
 30
0.0
  0
SPLINE
  5
11b
100
AcDbEntity
  8
pot_board
 62
7
100
AcDbSpline
 70
8
 71
3
 72
8
 73
4
 74
0
 40
0
 40
0
 40
0
 40
0
 40
1
 40
1
 40
1
 40
1
 10
122.322022
 20
125.441516
 30
0.0
 10
122.383113
 20
125.514276
 30
0.0
 10
122.449982
 20
125.598749
 30
0.0
 10
122.470616
 20
125.629236
 30
0.0
  0
SPLINE
  5
11c
100
AcDbEntity
  8
pot_board
 62
7
100
AcDbSpline
 70
8
 71
3
 72
8
 73
4
 74
0
 40
0
 40
0
 40
0
 40
0
 40
1
 40
1
 40
1
 40
1
 10
122.470616
 20
125.629236
 30
0.0
 10
122.491253
 20
125.659716
 30
0.0
 10
122.521020
 20
125.693057
 30
0.0
 10
122.536765
 20
125.703319
 30
0.0
  0
SPLINE
  5
11d
100
AcDbEntity
  8
pot_board
 62
7
100
AcDbSpline
 70
8
 71
3
 72
8
 73
4
 74
0
 40
0
 40
0
 40
0
 40
0
 40
1
 40
1
 40
1
 40
1
 10
122.536765
 20
125.703319
 30
0.0
 10
122.552499
 20
125.713585
 30
0.0
 10
122.620303
 20
125.776743
 30
0.0
 10
122.687419
 20
125.843683
 30
0.0
  0
SPLINE
  5
11e
100
AcDbEntity
  8
pot_board
 62
7
100
AcDbSpline
 70
8
 71
3
 72
8
 73
4
 74
0
 40
0
 40
0
 40
0
 40
0
 40
1
 40
1
 40
1
 40
1
 10
122.687419
 20
125.843683
 30
0.0
 10
122.754531
 20
125.910622
 30
0.0
 10
122.866157
 20
126.010635
 30
0.0
 10
122.935478
 20
126.065933
 30
0.0
  0
SPLINE
  5
11f
100
AcDbEntity
  8
pot_board
 62
7
100
AcDbSpline
 70
8
 71
3
 72
8
 73
4
 74
0
 40
0
 40
0
 40
0
 40
0
 40
1
 40
1
 40
1
 40
1
 10
122.935478
 20
126.065933
 30
0.0
 10
123.004795
 20
126.121231
 30
0.0
 10
123.078473
 20
126.181372
 30
0.0
 10
123.099202
 20
126.199582
 30
0.0
  0
SPLINE
  5
120
100
AcDbEntity
  8
pot_board
 62
7
100
AcDbSpline
 70
8
 71
3
 72
8
 73
4
 74
0
 40
0
 40
0
 40
0
 40
0
 40
1
 40
1
 40
1
 40
1
 10
123.099202
 20
126.199582
 30
0.0
 10
123.158426
 20
126.251603
 30
0.0
 10
123.525033
 20
126.429216
 30
0.0
 10
123.720962
 20
126.500812
 30
0.0
  0
SPLINE
  5
121
100
AcDbEntity
  8
pot_board
 62
7
100
AcDbSpline
 70
8
 71
3
 72
8
 73
4
 74
0
 40
0
 40
0
 40
0
 40
0
 40
1
 40
1
 40
1
 40
1
 10
123.720962
 20
126.500812
 30
0.0
 10
123.818823
 20
126.536570
 30
0.0
 10
123.920285
 20
126.577178
 30
0.0
 10
123.946433
 20
126.591046
 30
0.0
  0
SPLINE
  5
122
100
AcDbEntity
  8
pot_board
 62
7
100
AcDbSpline
 70
8
 71
3
 72
8
 73
4
 74
0
 40
0
 40
0
 40
0
 40
0
 40
1
 40
1
 40
1
 40
1
 10
123.946433
 20
126.591046
 30
0.0
 10
123.972574
 20
126.604910
 30
0.0
 10
124.010843
 20
126.616269
 30
0.0
 10
124.031456
 20
126.616269
 30
0.0
  0
SPLINE
  5
123
100
AcDbEntity
  8
pot_board
 62
7
100
AcDbSpline
 70
8
 71
3
 72
8
 73
4
 74
0
 40
0
 40
0
 40
0
 40
0
 40
1
 40
1
 40
1
 40
1
 10
124.031456
 20
126.616269
 30
0.0
 10
124.052058
 20
126.616269
 30
0.0
 10
124.137836
 20
126.634790
 30
0.0
 10
124.222041
 20
126.657435
 30
0.0
  0
SPLINE
  5
124
100
AcDbEntity
  8
pot_board
 62
7
100
AcDbSpline
 70
8
 71
3
 72
8
 73
4
 74
0
 40
0
 40
0
 40
0
 40
0
 40
1
 40
1
 40
1
 40
1
 10
124.222041
 20
126.657435
 30
0.0
 10
124.363187
 20
126.695387
 30
0.0
 10
124.392499
 20
126.699522
 30
0.0
 10
124.597393
 20
126.710384
 30
0.0
  0
SPLINE
  5
125
100
AcDbEntity
  8
pot_board
 62
7
100
AcDbSpline
 70
8
 71
3
 72
8
 73
4
 74
0
 40
0
 40
0
 40
0
 40
0
 40
1
 40
1
 40
1
 40
1
 10
124.597393
 20
126.710384
 30
0.0
 10
124.913785
 20
126.727176
 30
0.0
 10
144.717879
 20
126.727140
 30
0.0
 10
145.033809
 20
126.710366
 30
0.0
  0
SPLINE
  5
126
100
AcDbEntity
  8
pot_board
 62
7
100
AcDbSpline
 70
8
 71
3
 72
8
 73
4
 74
0
 40
0
 40
0
 40
0
 40
0
 40
1
 40
1
 40
1
 40
1
 10
145.033809
 20
126.710366
 30
0.0
 10
145.233722
 20
126.699747
 30
0.0
 10
145.269356
 20
126.694879
 30
0.0
 10
145.388351
 20
126.662064
 30
0.0
  0
SPLINE
  5
127
100
AcDbEntity
  8
pot_board
 62
7
100
AcDbSpline
 70
8
 71
3
 72
8
 73
4
 74
0
 40
0
 40
0
 40
0
 40
0
 40
1
 40
1
 40
1
 40
1
 10
145.388351
 20
126.662064
 30
0.0
 10
145.461112
 20
126.641991
 30
0.0
 10
145.546837
 20
126.622799
 30
0.0
 10
145.578851
 20
126.619423
 30
0.0
  0
SPLINE
  5
128
100
AcDbEntity
  8
pot_board
 62
7
100
AcDbSpline
 70
8
 71
3
 72
8
 73
4
 74
0
 40
0
 40
0
 40
0
 40
0
 40
1
 40
1
 40
1
 40
1
 10
145.578851
 20
126.619423
 30
0.0
 10
145.610848
 20
126.615896
 30
0.0
 10
145.659722
 20
126.601961
 30
0.0
 10
145.687419
 20
126.588097
 30
0.0
  0
SPLINE
  5
129
100
AcDbEntity
  8
pot_board
 62
7
100
AcDbSpline
 70
8
 71
3
 72
8
 73
4
 74
0
 40
0
 40
0
 40
0
 40
0
 40
1
 40
1
 40
1
 40
1
 10
145.687419
 20
126.588097
 30
0.0
 10
145.715112
 20
126.574232
 30
0.0
 10
145.810369
 20
126.536722
 30
0.0
 10
145.899085
 20
126.504721
 30
0.0
  0
SPLINE
  5
12a
100
AcDbEntity
  8
pot_board
 62
7
100
AcDbSpline
 70
8
 71
3
 72
8
 73
4
 74
0
 40
0
 40
0
 40
0
 40
0
 40
1
 40
1
 40
1
 40
1
 10
145.899085
 20
126.504721
 30
0.0
 10
145.987805
 20
126.472724
 30
0.0
 10
146.155643
 20
126.399583
 30
0.0
 10
146.272059
 20
126.342193
 30
0.0
  0
SPLINE
  5
12b
100
AcDbEntity
  8
pot_board
 62
7
100
AcDbSpline
 70
8
 71
3
 72
8
 73
4
 74
0
 40
0
 40
0
 40
0
 40
0
 40
1
 40
1
 40
1
 40
1
 10
146.272059
 20
126.342193
 30
0.0
 10
146.473640
 20
126.242819
 30
0.0
 10
146.491540
 20
126.231431
 30
0.0
 10
146.647768
 20
126.103197
 30
0.0
  0
SPLINE
  5
12c
100
AcDbEntity
  8
pot_board
 62
7
100
AcDbSpline
 70
8
 71
3
 72
8
 73
4
 74
0
 40
0
 40
0
 40
0
 40
0
 40
1
 40
1
 40
1
 40
1
 10
146.647768
 20
126.103197
 30
0.0
 10
146.737991
 20
126.029138
 30
0.0
 10
146.868959
 20
125.912531
 30
0.0
 10
146.938809
 20
125.844067
 30
0.0
  0
SPLINE
  5
12d
100
AcDbEntity
  8
pot_board
 62
7
100
AcDbSpline
 70
8
 71
3
 72
8
 73
4
 74
0
 40
0
 40
0
 40
0
 40
0
 40
1
 40
1
 40
1
 40
1
 10
146.938809
 20
125.844067
 30
0.0
 10
147.008659
 20
125.775604
 30
0.0
 10
147.076343
 20
125.714100
 30
0.0
 10
147.089223
 20
125.707394
 30
0.0
  0
SPLINE
  5
12e
100
AcDbEntity
  8
pot_board
 62
7
100
AcDbSpline
 70
8
 71
3
 72
8
 73
4
 74
0
 40
0
 40
0
 40
0
 40
0
 40
1
 40
1
 40
1
 40
1
 10
147.089223
 20
125.707394
 30
0.0
 10
147.102100
 20
125.700691
 30
0.0
 10
147.127994
 20
125.672645
 30
0.0
 10
147.146765
 20
125.645090
 30
0.0
  0
SPLINE
  5
12f
100
AcDbEntity
  8
pot_board
 62
7
100
AcDbSpline
 70
8
 71
3
 72
8
 73
4
 74
0
 40
0
 40
0
 40
0
 40
0
 40
1
 40
1
 40
1
 40
1
 10
147.146765
 20
125.645090
 30
0.0
 10
147.182840
 20
125.592117
 30
0.0
 10
147.340518
 20
125.394632
 30
0.0
 10
147.389571
 20
125.340978
 30
0.0
  0
SPLINE
  5
130
100
AcDbEntity
  8
pot_board
 62
7
100
AcDbSpline
 70
8
 71
3
 72
8
 73
4
 74
0
 40
0
 40
0
 40
0
 40
0
 40
1
 40
1
 40
1
 40
1
 10
147.389571
 20
125.340978
 30
0.0
 10
147.405552
 20
125.323515
 30
0.0
 10
147.466103
 20
125.213978
 30
0.0
 10
147.524156
 20
125.097561
 30
0.0
  0
SPLINE
  5
131
100
AcDbEntity
  8
pot_board
 62
7
100
AcDbSpline
 70
8
 71
3
 72
8
 73
4
 74
0
 40
0
 40
0
 40
0
 40
0
 40
1
 40
1
 40
1
 40
1
 10
147.524156
 20
125.097561
 30
0.0
 10
147.673413
 20
124.798257
 30
0.0
 10
147.702937
 20
124.732768
 30
0.0
 10
147.709848
 20
124.685661
 30
0.0
  0
SPLINE
  5
132
100
AcDbEntity
  8
pot_board
 62
7
100
AcDbSpline
 70
8
 71
3
 72
8
 73
4
 74
0
 40
0
 40
0
 40
0
 40
0
 40
1
 40
1
 40
1
 40
1
 10
147.709848
 20
124.685661
 30
0.0
 10
147.713023
 20
124.662837
 30
0.0
 10
147.732778
 20
124.610103
 30
0.0
 10
147.753352
 20
124.568454
 30
0.0
  0
SPLINE
  5
133
100
AcDbEntity
  8
pot_board
 62
7
100
AcDbSpline
 70
8
 71
3
 72
8
 73
4
 74
0
 40
0
 40
0
 40
0
 40
0
 40
1
 40
1
 40
1
 40
1
 10
147.753352
 20
124.568454
 30
0.0
 10
147.773919
 20
124.526809
 30
0.0
 10
147.790768
 20
124.482034
 30
0.0
 10
147.790768
 20
124.468961
 30
0.0
  0
SPLINE
  5
134
100
AcDbEntity
  8
pot_board
 62
7
100
AcDbSpline
 70
8
 71
3
 72
8
 73
4
 74
0
 40
0
 40
0
 40
0
 40
0
 40
1
 40
1
 40
1
 40
1
 10
147.790768
 20
124.468961
 30
0.0
 10
147.790768
 20
124.455872
 30
0.0
 10
147.814298
 20
124.353849
 30
0.0
 10
147.843042
 20
124.242209
 30
0.0
  0
SPLINE
  5
135
100
AcDbEntity
  8
pot_board
 62
7
100
AcDbSpline
 70
8
 71
3
 72
8
 73
4
 74
0
 40
0
 40
0
 40
0
 40
0
 40
1
 40
1
 40
1
 40
1
 10
147.843042
 20
124.242209
 30
0.0
 10
147.894710
 20
124.041574
 30
0.0
 10
147.895448
 20
124.036413
 30
0.0
 10
147.906606
 20
123.795811
 30
0.0
  0
SPLINE
  5
136
100
AcDbEntity
  8
pot_board
 62
7
100
AcDbSpline
 70
8
 71
3
 72
8
 73
4
 74
0
 40
0
 40
0
 40
0
 40
0
 40
1
 40
1
 40
1
 40
1
 10
147.906606
 20
123.795811
 30
0.0
 10
147.922516
 20
123.453197
 30
0.0
 10
147.922516
 20
95.785679
 30
0.0
 10
147.906606
 20
95.443061
 30
0.0
  0
SPLINE
  5
137
100
AcDbEntity
  8
pot_board
 62
7
100
AcDbSpline
 70
8
 71
3
 72
8
 73
4
 74
0
 40
0
 40
0
 40
0
 40
0
 40
1
 40
1
 40
1
 40
1
 10
147.906606
 20
95.443061
 30
0.0
 10
147.895458
 20
95.202460
 30
0.0
 10
147.894717
 20
95.197299
 30
0.0
 10
147.843042
 20
94.996663
 30
0.0
  0
SPLINE
  5
138
100
AcDbEntity
  8
pot_board
 62
7
100
AcDbSpline
 70
8
 71
3
 72
8
 73
4
 74
0
 40
0
 40
0
 40
0
 40
0
 40
1
 40
1
 40
1
 40
1
 10
147.843042
 20
94.996663
 30
0.0
 10
147.814291
 20
94.885023
 30
0.0
 10
147.790768
 20
94.782986
 30
0.0
 10
147.790768
 20
94.769912
 30
0.0
  0
SPLINE
  5
139
100
AcDbEntity
  8
pot_board
 62
7
100
AcDbSpline
 70
8
 71
3
 72
8
 73
4
 74
0
 40
0
 40
0
 40
0
 40
0
 40
1
 40
1
 40
1
 40
1
 10
147.790768
 20
94.769912
 30
0.0
 10
147.790768
 20
94.756824
 30
0.0
 10
147.773940
 20
94.712063
 30
0.0
 10
147.753352
 20
94.670418
 30
0.0
  0
SPLINE
  5
13a
100
AcDbEntity
  8
pot_board
 62
7
100
AcDbSpline
 70
8
 71
3
 72
8
 73
4
 74
0
 40
0
 40
0
 40
0
 40
0
 40
1
 40
1
 40
1
 40
1
 10
147.753352
 20
94.670418
 30
0.0
 10
147.732785
 20
94.628769
 30
0.0
 10
147.713196
 20
94.576025
 30
0.0
 10
147.709848
 20
94.553211
 30
0.0
  0
SPLINE
  5
13b
100
AcDbEntity
  8
pot_board
 62
7
100
AcDbSpline
 70
8
 71
3
 72
8
 73
4
 74
0
 40
0
 40
0
 40
0
 40
0
 40
1
 40
1
 40
1
 40
1
 10
147.709848
 20
94.553211
 30
0.0
 10
147.702933
 20
94.506105
 30
0.0
 10
147.673413
 20
94.440615
 30
0.0
 10
147.524156
 20
94.141311
 30
0.0
  0
SPLINE
  5
13c
100
AcDbEntity
  8
pot_board
 62
7
100
AcDbSpline
 70
8
 71
3
 72
8
 73
4
 74
0
 40
0
 40
0
 40
0
 40
0
 40
1
 40
1
 40
1
 40
1
 10
147.524156
 20
94.141311
 30
0.0
 10
147.466103
 20
94.024894
 30
0.0
 10
147.405538
 20
93.915357
 30
0.0
 10
147.389571
 20
93.897894
 30
0.0
  0
SPLINE
  5
13d
100
AcDbEntity
  8
pot_board
 62
7
100
AcDbSpline
 70
8
 71
3
 72
8
 73
4
 74
0
 40
0
 40
0
 40
0
 40
0
 40
1
 40
1
 40
1
 40
1
 10
147.389571
 20
93.897894
 30
0.0
 10
147.340518
 20
93.844241
 30
0.0
 10
147.182840
 20
93.646756
 30
0.0
 10
147.146765
 20
93.593782
 30
0.0
  0
SPLINE
  5
13e
100
AcDbEntity
  8
pot_board
 62
7
100
AcDbSpline
 70
8
 71
3
 72
8
 73
4
 74
0
 40
0
 40
0
 40
0
 40
0
 40
1
 40
1
 40
1
 40
1
 10
147.146765
 20
93.593782
 30
0.0
 10
147.127997
 20
93.566230
 30
0.0
 10
147.102100
 20
93.538185
 30
0.0
 10
147.089223
 20
93.531478
 30
0.0
  0
SPLINE
  5
13f
100
AcDbEntity
  8
pot_board
 62
7
100
AcDbSpline
 70
8
 71
3
 72
8
 73
4
 74
0
 40
0
 40
0
 40
0
 40
0
 40
1
 40
1
 40
1
 40
1
 10
147.089223
 20
93.531478
 30
0.0
 10
147.076347
 20
93.524776
 30
0.0
 10
147.008659
 20
93.463269
 30
0.0
 10
146.938809
 20
93.394805
 30
0.0
  0
SPLINE
  5
140
100
AcDbEntity
  8
pot_board
 62
7
100
AcDbSpline
 70
8
 71
3
 72
8
 73
4
 74
0
 40
0
 40
0
 40
0
 40
0
 40
1
 40
1
 40
1
 40
1
 10
146.938809
 20
93.394805
 30
0.0
 10
146.868959
 20
93.326342
 30
0.0
 10
146.737991
 20
93.209734
 30
0.0
 10
146.647768
 20
93.135676
 30
0.0
  0
SPLINE
  5
141
100
AcDbEntity
  8
pot_board
 62
7
100
AcDbSpline
 70
8
 71
3
 72
8
 73
4
 74
0
 40
0
 40
0
 40
0
 40
0
 40
1
 40
1
 40
1
 40
1
 10
146.647768
 20
93.135676
 30
0.0
 10
146.491540
 20
93.007441
 30
0.0
 10
146.473640
 20
92.996053
 30
0.0
 10
146.272059
 20
92.896679
 30
0.0
  0
SPLINE
  5
142
100
AcDbEntity
  8
pot_board
 62
7
100
AcDbSpline
 70
8
 71
3
 72
8
 73
4
 74
0
 40
0
 40
0
 40
0
 40
0
 40
1
 40
1
 40
1
 40
1
 10
146.272059
 20
92.896679
 30
0.0
 10
146.155643
 20
92.839290
 30
0.0
 10
145.986574
 20
92.765753
 30
0.0
 10
145.896351
 20
92.733266
 30
0.0
  0
SPLINE
  5
143
100
AcDbEntity
  8
pot_board
 62
7
100
AcDbSpline
 70
8
 71
3
 72
8
 73
4
 74
0
 40
0
 40
0
 40
0
 40
0
 40
1
 40
1
 40
1
 40
1
 10
145.896351
 20
92.733266
 30
0.0
 10
145.806128
 20
92.700775
 30
0.0
 10
145.715641
 20
92.664396
 30
0.0
 10
145.695268
 20
92.652420
 30
0.0
  0
SPLINE
  5
144
100
AcDbEntity
  8
pot_board
 62
7
100
AcDbSpline
 70
8
 71
3
 72
8
 73
4
 74
0
 40
0
 40
0
 40
0
 40
0
 40
1
 40
1
 40
1
 40
1
 10
145.695268
 20
92.652420
 30
0.0
 10
145.674877
 20
92.640425
 30
0.0
 10
145.627270
 20
92.626632
 30
0.0
 10
145.589434
 20
92.621763
 30
0.0
  0
SPLINE
  5
145
100
AcDbEntity
  8
pot_board
 62
7
100
AcDbSpline
 70
8
 71
3
 72
8
 73
4
 74
0
 40
0
 40
0
 40
0
 40
0
 40
1
 40
1
 40
1
 40
1
 10
145.589434
 20
92.621763
 30
0.0
 10
145.551599
 20
92.616895
 30
0.0
 10
145.461112
 20
92.596540
 30
0.0
 10
145.388351
 20
92.576597
 30
0.0
  0
SPLINE
  5
146
100
AcDbEntity
  8
pot_board
 62
7
100
AcDbSpline
 70
8
 71
3
 72
8
 73
4
 74
0
 40
0
 40
0
 40
0
 40
0
 40
1
 40
1
 40
1
 40
1
 10
145.388351
 20
92.576597
 30
0.0
 10
145.269744
 20
92.544071
 30
0.0
 10
145.233065
 20
92.539086
 30
0.0
 10
145.033809
 20
92.528506
 30
0.0
  0
SPLINE
  5
147
100
AcDbEntity
  8
pot_board
 62
7
100
AcDbSpline
 70
8
 71
3
 72
8
 73
4
 74
0
 40
0
 40
0
 40
0
 40
0
 40
1
 40
1
 40
1
 40
1
 10
145.033809
 20
92.528506
 30
0.0
 10
144.762619
 20
92.514113
 30
0.0
 10
124.834527
 20
92.514678
 30
0.0
 10
124.560351
 20
92.529212
 30
0.0
  0
LINE
  5
148
100
AcDbEntity
  8
pot_board
 62
7
100
AcDbLine
 10
124.560351
 20
92.529212
 30
0.0
 11
124.560351
 21
92.529106
 31
0.0
  0
LINE
  5
149
100
AcDbEntity
  8
pot_board
 62
7
100
AcDbLine
 10
126.444068
 20
95.159879
 30
0.0
 11
126.734990
 21
95.284304
 31
0.0
  0
LINE
  5
14a
100
AcDbEntity
  8
pot_board
 62
7
100
AcDbLine
 10
126.734990
 20
95.284304
 30
0.0
 11
126.967975
 21
95.517137
 31
0.0
  0
SPLINE
  5
14b
100
AcDbEntity
  8
pot_board
 62
7
100
AcDbSpline
 70
8
 71
3
 72
8
 73
4
 74
0
 40
0
 40
0
 40
0
 40
0
 40
1
 40
1
 40
1
 40
1
 10
126.967975
 20
95.517137
 30
0.0
 10
127.153836
 20
95.702878
 30
0.0
 10
127.204523
 20
95.759605
 30
0.0
 10
127.218571
 20
95.797596
 30
0.0
  0
SPLINE
  5
14c
100
AcDbEntity
  8
pot_board
 62
7
100
AcDbSpline
 70
8
 71
3
 72
8
 73
4
 74
0
 40
0
 40
0
 40
0
 40
0
 40
1
 40
1
 40
1
 40
1
 10
127.218571
 20
95.797596
 30
0.0
 10
127.246934
 20
95.874311
 30
0.0
 10
127.353723
 20
96.138711
 30
0.0
 10
127.370314
 20
96.173304
 30
0.0
  0
SPLINE
  5
14d
100
AcDbEntity
  8
pot_board
 62
7
100
AcDbSpline
 70
8
 71
3
 72
8
 73
4
 74
0
 40
0
 40
0
 40
0
 40
0
 40
1
 40
1
 40
1
 40
1
 10
127.370314
 20
96.173304
 30
0.0
 10
127.430301
 20
96.298381
 30
0.0
 10
127.428434
 20
96.283657
 30
0.0
 10
127.428456
 20
96.631912
 30
0.0
  0
LINE
  5
14e
100
AcDbEntity
  8
pot_board
 62
7
100
AcDbLine
 10
127.428456
 20
96.631912
 30
0.0
 11
127.428477
 21
96.956471
 31
0.0
  0
LINE
  5
14f
100
AcDbEntity
  8
pot_board
 62
7
100
AcDbLine
 10
127.428477
 20
96.956471
 30
0.0
 11
127.310056
 21
97.252360
 31
0.0
  0
LINE
  5
150
100
AcDbEntity
  8
pot_board
 62
7
100
AcDbLine
 10
127.310056
 20
97.252360
 30
0.0
 11
127.191636
 21
97.548248
 31
0.0
  0
LINE
  5
151
100
AcDbEntity
  8
pot_board
 62
7
100
AcDbLine
 10
127.191636
 20
97.548248
 30
0.0
 11
127.099021
 21
97.638651
 31
0.0
  0
SPLINE
  5
152
100
AcDbEntity
  8
pot_board
 62
7
100
AcDbSpline
 70
8
 71
3
 72
8
 73
4
 74
0
 40
0
 40
0
 40
0
 40
0
 40
1
 40
1
 40
1
 40
1
 10
127.099021
 20
97.638651
 30
0.0
 10
126.989575
 20
97.745483
 30
0.0
 10
126.956965
 20
97.778016
 30
0.0
 10
126.830021
 20
97.906988
 30
0.0
  0
LINE
  5
153
100
AcDbEntity
  8
pot_board
 62
7
100
AcDbLine
 10
126.830021
 20
97.906988
 30
0.0
 11
126.734316
 21
98.004221
 31
0.0
  0
LINE
  5
154
100
AcDbEntity
  8
pot_board
 62
7
100
AcDbLine
 10
126.734316
 20
98.004221
 30
0.0
 11
126.523104
 21
98.085677
 31
0.0
  0
SPLINE
  5
155
100
AcDbEntity
  8
pot_board
 62
7
100
AcDbSpline
 70
8
 71
3
 72
8
 73
4
 74
0
 40
0
 40
0
 40
0
 40
0
 40
1
 40
1
 40
1
 40
1
 10
126.523104
 20
98.085677
 30
0.0
 10
126.406938
 20
98.130476
 30
0.0
 10
126.297898
 20
98.170086
 30
0.0
 10
126.280788
 20
98.173692
 30
0.0
  0
SPLINE
  5
156
100
AcDbEntity
  8
pot_board
 62
7
100
AcDbSpline
 70
8
 71
3
 72
8
 73
4
 74
0
 40
0
 40
0
 40
0
 40
0
 40
1
 40
1
 40
1
 40
1
 10
126.280788
 20
98.173692
 30
0.0
 10
126.263679
 20
98.177290
 30
0.0
 10
126.235107
 20
98.190660
 30
0.0
 10
126.217288
 20
98.203360
 30
0.0
  0
SPLINE
  5
157
100
AcDbEntity
  8
pot_board
 62
7
100
AcDbSpline
 70
8
 71
3
 72
8
 73
4
 74
0
 40
0
 40
0
 40
0
 40
0
 40
1
 40
1
 40
1
 40
1
 10
126.217288
 20
98.203360
 30
0.0
 10
126.185538
 20
98.226009
 30
0.0
 10
126.177880
 20
98.226467
 30
0.0
 10
125.830351
 20
98.226467
 30
0.0
  0
SPLINE
  5
158
100
AcDbEntity
  8
pot_board
 62
7
100
AcDbSpline
 70
8
 71
3
 72
8
 73
4
 74
0
 40
0
 40
0
 40
0
 40
0
 40
1
 40
1
 40
1
 40
1
 10
125.830351
 20
98.226467
 30
0.0
 10
125.481405
 20
98.226467
 30
0.0
 10
125.475291
 20
98.226114
 30
0.0
 10
125.442984
 20
98.203043
 30
0.0
  0
SPLINE
  5
159
100
AcDbEntity
  8
pot_board
 62
7
100
AcDbSpline
 70
8
 71
3
 72
8
 73
4
 74
0
 40
0
 40
0
 40
0
 40
0
 40
1
 40
1
 40
1
 40
1
 10
125.442984
 20
98.203043
 30
0.0
 10
125.424921
 20
98.190166
 30
0.0
 10
125.389210
 20
98.174856
 30
0.0
 10
125.363609
 20
98.169035
 30
0.0
  0
SPLINE
  5
15a
100
AcDbEntity
  8
pot_board
 62
7
100
AcDbSpline
 70
8
 71
3
 72
8
 73
4
 74
0
 40
0
 40
0
 40
0
 40
0
 40
1
 40
1
 40
1
 40
1
 10
125.363609
 20
98.169035
 30
0.0
 10
125.278053
 20
98.149562
 30
0.0
 10
124.954930
 20
98.012906
 30
0.0
 10
124.911030
 20
97.977625
 30
0.0
  0
SPLINE
  5
15b
100
AcDbEntity
  8
pot_board
 62
7
100
AcDbSpline
 70
8
 71
3
 72
8
 73
4
 74
0
 40
0
 40
0
 40
0
 40
0
 40
1
 40
1
 40
1
 40
1
 10
124.911030
 20
97.977625
 30
0.0
 10
124.887535
 20
97.958751
 30
0.0
 10
124.781070
 20
97.852089
 30
0.0
 10
124.674418
 20
97.740593
 30
0.0
  0
SPLINE
  5
15c
100
AcDbEntity
  8
pot_board
 62
7
100
AcDbSpline
 70
8
 71
3
 72
8
 73
4
 74
0
 40
0
 40
0
 40
0
 40
0
 40
1
 40
1
 40
1
 40
1
 10
124.674418
 20
97.740593
 30
0.0
 10
124.484476
 20
97.542022
 30
0.0
 10
124.479794
 20
97.536032
 30
0.0
 10
124.445998
 20
97.448250
 30
0.0
  0
SPLINE
  5
15d
100
AcDbEntity
  8
pot_board
 62
7
100
AcDbSpline
 70
8
 71
3
 72
8
 73
4
 74
0
 40
0
 40
0
 40
0
 40
0
 40
1
 40
1
 40
1
 40
1
 10
124.445998
 20
97.448250
 30
0.0
 10
124.427019
 20
97.398956
 30
0.0
 10
124.404741
 20
97.346382
 30
0.0
 10
124.396486
 20
97.331417
 30
0.0
  0
SPLINE
  5
15e
100
AcDbEntity
  8
pot_board
 62
7
100
AcDbSpline
 70
8
 71
3
 72
8
 73
4
 74
0
 40
0
 40
0
 40
0
 40
0
 40
1
 40
1
 40
1
 40
1
 10
124.396486
 20
97.331417
 30
0.0
 10
124.388231
 20
97.316459
 30
0.0
 10
124.347905
 20
97.226173
 30
0.0
 10
124.306873
 20
97.130796
 30
0.0
  0
LINE
  5
15f
100
AcDbEntity
  8
pot_board
 62
7
100
AcDbLine
 10
124.306873
 20
97.130796
 30
0.0
 11
124.232268
 21
96.957388
 31
0.0
  0
LINE
  5
160
100
AcDbEntity
  8
pot_board
 62
7
100
AcDbLine
 10
124.232268
 20
96.957388
 30
0.0
 11
124.232268
 21
96.632998
 31
0.0
  0
LINE
  5
161
100
AcDbEntity
  8
pot_board
 62
7
100
AcDbLine
 10
124.232268
 20
96.632998
 30
0.0
 11
124.232268
 21
96.308608
 31
0.0
  0
LINE
  5
162
100
AcDbEntity
  8
pot_board
 62
7
100
AcDbLine
 10
124.232268
 20
96.308608
 30
0.0
 11
124.336683
 21
96.076908
 31
0.0
  0
SPLINE
  5
163
100
AcDbEntity
  8
pot_board
 62
7
100
AcDbSpline
 70
8
 71
3
 72
8
 73
4
 74
0
 40
0
 40
0
 40
0
 40
0
 40
1
 40
1
 40
1
 40
1
 10
124.336683
 20
96.076908
 30
0.0
 10
124.394112
 20
95.949474
 30
0.0
 10
124.450828
 20
95.822971
 30
0.0
 10
124.462713
 20
95.795786
 30
0.0
  0
SPLINE
  5
164
100
AcDbEntity
  8
pot_board
 62
7
100
AcDbSpline
 70
8
 71
3
 72
8
 73
4
 74
0
 40
0
 40
0
 40
0
 40
0
 40
1
 40
1
 40
1
 40
1
 10
124.462713
 20
95.795786
 30
0.0
 10
124.477812
 20
95.761249
 30
0.0
 10
124.543185
 20
95.684763
 30
0.0
 10
124.679795
 20
95.541786
 30
0.0
  0
SPLINE
  5
165
100
AcDbEntity
  8
pot_board
 62
7
100
AcDbSpline
 70
8
 71
3
 72
8
 73
4
 74
0
 40
0
 40
0
 40
0
 40
0
 40
1
 40
1
 40
1
 40
1
 10
124.679795
 20
95.541786
 30
0.0
 10
124.787304
 20
95.429271
 30
0.0
 10
124.888096
 20
95.325304
 30
0.0
 10
124.903777
 20
95.310752
 30
0.0
  0
SPLINE
  5
166
100
AcDbEntity
  8
pot_board
 62
7
100
AcDbSpline
 70
8
 71
3
 72
8
 73
4
 74
0
 40
0
 40
0
 40
0
 40
0
 40
1
 40
1
 40
1
 40
1
 10
124.903777
 20
95.310752
 30
0.0
 10
124.919440
 20
95.296217
 30
0.0
 10
125.059345
 20
95.228759
 30
0.0
 10
125.214634
 20
95.160885
 30
0.0
  0
LINE
  5
167
100
AcDbEntity
  8
pot_board
 62
7
100
AcDbLine
 10
125.214634
 20
95.160885
 30
0.0
 11
125.496976
 21
95.037476
 31
0.0
  0
LINE
  5
168
100
AcDbEntity
  8
pot_board
 62
7
100
AcDbLine
 10
125.496976
 20
95.037476
 30
0.0
 11
125.825059
 21
95.036418
 31
0.0
  0
LINE
  5
169
100
AcDbEntity
  8
pot_board
 62
7
100
AcDbLine
 10
125.825059
 20
95.036418
 30
0.0
 11
126.153143
 21
95.035359
 31
0.0
  0
LINE
  5
16a
100
AcDbEntity
  8
pot_board
 62
7
100
AcDbLine
 10
126.153143
 20
95.035359
 30
0.0
 11
126.444068
 21
95.159784
 31
0.0
  0
LINE
  5
16b
100
AcDbEntity
  8
pot_board
 62
7
100
AcDbLine
 10
126.444068
 20
95.159784
 30
0.0
 11
126.444068
 21
95.159879
 31
0.0
  0
LINE
  5
16c
100
AcDbEntity
  8
pot_board
 62
7
100
AcDbLine
 10
144.413076
 20
95.159985
 30
0.0
 11
144.702505
 21
95.284353
 31
0.0
  0
LINE
  5
16d
100
AcDbEntity
  8
pot_board
 62
7
100
AcDbLine
 10
144.702505
 20
95.284353
 30
0.0
 11
144.926367
 21
95.518827
 31
0.0
  0
LINE
  5
16e
100
AcDbEntity
  8
pot_board
 62
7
100
AcDbLine
 10
144.926367
 20
95.518827
 30
0.0
 11
145.150226
 21
95.753301
 31
0.0
  0
LINE
  5
16f
100
AcDbEntity
  8
pot_board
 62
7
100
AcDbLine
 10
145.150226
 20
95.753301
 30
0.0
 11
145.223674
 21
95.920994
 31
0.0
  0
SPLINE
  5
170
100
AcDbEntity
  8
pot_board
 62
7
100
AcDbSpline
 70
8
 71
3
 72
8
 73
4
 74
0
 40
0
 40
0
 40
0
 40
0
 40
1
 40
1
 40
1
 40
1
 10
145.223674
 20
95.920994
 30
0.0
 10
145.264071
 20
96.013224
 30
0.0
 10
145.320032
 20
96.139169
 30
0.0
 10
145.348029
 20
96.200874
 30
0.0
  0
LINE
  5
171
100
AcDbEntity
  8
pot_board
 62
7
100
AcDbLine
 10
145.348029
 20
96.200874
 30
0.0
 11
145.398934
 21
96.313064
 31
0.0
  0
LINE
  5
172
100
AcDbEntity
  8
pot_board
 62
7
100
AcDbLine
 10
145.398934
 20
96.313064
 30
0.0
 11
145.398934
 21
96.632780
 31
0.0
  0
LINE
  5
173
100
AcDbEntity
  8
pot_board
 62
7
100
AcDbLine
 10
145.398934
 20
96.632780
 30
0.0
 11
145.398934
 21
96.952498
 31
0.0
  0
LINE
  5
174
100
AcDbEntity
  8
pot_board
 62
7
100
AcDbLine
 10
145.398934
 20
96.952498
 30
0.0
 11
145.339488
 21
97.092093
 31
0.0
  0
SPLINE
  5
175
100
AcDbEntity
  8
pot_board
 62
7
100
AcDbSpline
 70
8
 71
3
 72
8
 73
4
 74
0
 40
0
 40
0
 40
0
 40
0
 40
1
 40
1
 40
1
 40
1
 10
145.339488
 20
97.092093
 30
0.0
 10
145.306785
 20
97.168868
 30
0.0
 10
145.264336
 20
97.265024
 30
0.0
 10
145.245134
 20
97.305770
 30
0.0
  0
SPLINE
  5
176
100
AcDbEntity
  8
pot_board
 62
7
100
AcDbSpline
 70
8
 71
3
 72
8
 73
4
 74
0
 40
0
 40
0
 40
0
 40
0
 40
1
 40
1
 40
1
 40
1
 10
145.245134
 20
97.305770
 30
0.0
 10
145.225943
 20
97.346516
 30
0.0
 10
145.196726
 20
97.415241
 30
0.0
 10
145.180226
 20
97.458495
 30
0.0
  0
SPLINE
  5
177
100
AcDbEntity
  8
pot_board
 62
7
100
AcDbSpline
 70
8
 71
3
 72
8
 73
4
 74
0
 40
0
 40
0
 40
0
 40
0
 40
1
 40
1
 40
1
 40
1
 10
145.180226
 20
97.458495
 30
0.0
 10
145.153345
 20
97.528959
 30
0.0
 10
145.137509
 20
97.550418
 30
0.0
 10
145.027911
 20
97.664870
 30
0.0
  0
SPLINE
  5
178
100
AcDbEntity
  8
pot_board
 62
7
100
AcDbSpline
 70
8
 71
3
 72
8
 73
4
 74
0
 40
0
 40
0
 40
0
 40
0
 40
1
 40
1
 40
1
 40
1
 10
145.027911
 20
97.664870
 30
0.0
 10
144.960636
 20
97.735122
 30
0.0
 10
144.874911
 20
97.825359
 30
0.0
 10
144.837411
 20
97.865399
 30
0.0
  0
SPLINE
  5
179
100
AcDbEntity
  8
pot_board
 62
7
100
AcDbSpline
 70
8
 71
3
 72
8
 73
4
 74
0
 40
0
 40
0
 40
0
 40
0
 40
1
 40
1
 40
1
 40
1
 10
144.837411
 20
97.865399
 30
0.0
 10
144.799911
 20
97.905439
 30
0.0
 10
144.745414
 20
97.955820
 30
0.0
 10
144.716309
 20
97.977357
 30
0.0
  0
SPLINE
  5
17a
100
AcDbEntity
  8
pot_board
 62
7
100
AcDbSpline
 70
8
 71
3
 72
8
 73
4
 74
0
 40
0
 40
0
 40
0
 40
0
 40
1
 40
1
 40
1
 40
1
 10
144.716309
 20
97.977357
 30
0.0
 10
144.665128
 20
98.015234
 30
0.0
 10
144.306188
 20
98.168284
 30
0.0
 10
144.268426
 20
98.168333
 30
0.0
  0
SPLINE
  5
17b
100
AcDbEntity
  8
pot_board
 62
7
100
AcDbSpline
 70
8
 71
3
 72
8
 73
4
 74
0
 40
0
 40
0
 40
0
 40
0
 40
1
 40
1
 40
1
 40
1
 10
144.268426
 20
98.168333
 30
0.0
 10
144.258654
 20
98.168333
 30
0.0
 10
144.223204
 20
98.182832
 30
0.0
 10
144.189665
 20
98.200506
 30
0.0
  0
LINE
  5
17c
100
AcDbEntity
  8
pot_board
 62
7
100
AcDbLine
 10
144.189665
 20
98.200506
 30
0.0
 11
144.128684
 21
98.232644
 31
0.0
  0
LINE
  5
17d
100
AcDbEntity
  8
pot_board
 62
7
100
AcDbLine
 10
144.128684
 20
98.232644
 30
0.0
 11
143.785721
 21
98.229469
 31
0.0
  0
SPLINE
  5
17e
100
AcDbEntity
  8
pot_board
 62
7
100
AcDbSpline
 70
8
 71
3
 72
8
 73
4
 74
0
 40
0
 40
0
 40
0
 40
0
 40
1
 40
1
 40
1
 40
1
 10
143.785721
 20
98.229469
 30
0.0
 10
143.451086
 20
98.226647
 30
0.0
 10
143.441988
 20
98.225836
 30
0.0
 10
143.411198
 20
98.203046
 30
0.0
  0
SPLINE
  5
17f
100
AcDbEntity
  8
pot_board
 62
7
100
AcDbSpline
 70
8
 71
3
 72
8
 73
4
 74
0
 40
0
 40
0
 40
0
 40
0
 40
1
 40
1
 40
1
 40
1
 10
143.411198
 20
98.203046
 30
0.0
 10
143.393841
 20
98.190205
 30
0.0
 10
143.366067
 20
98.176870
 30
0.0
 10
143.349476
 20
98.173378
 30
0.0
  0
SPLINE
  5
180
100
AcDbEntity
  8
pot_board
 62
7
100
AcDbSpline
 70
8
 71
3
 72
8
 73
4
 74
0
 40
0
 40
0
 40
0
 40
0
 40
1
 40
1
 40
1
 40
1
 10
143.349476
 20
98.173378
 30
0.0
 10
143.332895
 20
98.169850
 30
0.0
 10
143.224059
 20
98.130399
 30
0.0
 10
143.107643
 20
98.085596
 30
0.0
  0
LINE
  5
181
100
AcDbEntity
  8
pot_board
 62
7
100
AcDbLine
 10
143.107643
 20
98.085596
 30
0.0
 11
142.895976
 21
98.004143
 31
0.0
  0
LINE
  5
182
100
AcDbEntity
  8
pot_board
 62
7
100
AcDbLine
 10
142.895976
 20
98.004143
 30
0.0
 11
142.794030
 21
97.899714
 31
0.0
  0
SPLINE
  5
183
100
AcDbEntity
  8
pot_board
 62
7
100
AcDbSpline
 70
8
 71
3
 72
8
 73
4
 74
0
 40
0
 40
0
 40
0
 40
0
 40
1
 40
1
 40
1
 40
1
 10
142.794030
 20
97.899714
 30
0.0
 10
142.684355
 20
97.787368
 30
0.0
 10
142.674795
 20
97.777822
 30
0.0
 10
142.527602
 20
97.633726
 30
0.0
  0
LINE
  5
184
100
AcDbEntity
  8
pot_board
 62
7
100
AcDbLine
 10
142.527602
 20
97.633726
 30
0.0
 11
142.430309
 21
97.538476
 31
0.0
  0
LINE
  5
185
100
AcDbEntity
  8
pot_board
 62
7
100
AcDbLine
 10
142.430309
 20
97.538476
 30
0.0
 11
142.315974
 21
97.247435
 31
0.0
  0
LINE
  5
186
100
AcDbEntity
  8
pot_board
 62
7
100
AcDbLine
 10
142.315974
 20
97.247435
 30
0.0
 11
142.201642
 21
96.956393
 31
0.0
  0
LINE
  5
187
100
AcDbEntity
  8
pot_board
 62
7
100
AcDbLine
 10
142.201642
 20
96.956393
 30
0.0
 11
142.204817
 21
96.617727
 31
0.0
  0
LINE
  5
188
100
AcDbEntity
  8
pot_board
 62
7
100
AcDbLine
 10
142.204817
 20
96.617727
 30
0.0
 11
142.207992
 21
96.279060
 31
0.0
  0
LINE
  5
189
100
AcDbEntity
  8
pot_board
 62
7
100
AcDbLine
 10
142.207992
 20
96.279060
 30
0.0
 11
142.247680
 21
96.197339
 31
0.0
  0
SPLINE
  5
18a
100
AcDbEntity
  8
pot_board
 62
7
100
AcDbSpline
 70
8
 71
3
 72
8
 73
4
 74
0
 40
0
 40
0
 40
0
 40
0
 40
1
 40
1
 40
1
 40
1
 10
142.247680
 20
96.197339
 30
0.0
 10
142.269517
 20
96.152391
 30
0.0
 10
142.287367
 20
96.112358
 30
0.0
 10
142.287367
 20
96.108372
 30
0.0
  0
SPLINE
  5
18b
100
AcDbEntity
  8
pot_board
 62
7
100
AcDbSpline
 70
8
 71
3
 72
8
 73
4
 74
0
 40
0
 40
0
 40
0
 40
0
 40
1
 40
1
 40
1
 40
1
 10
142.287367
 20
96.108372
 30
0.0
 10
142.287367
 20
96.104385
 30
0.0
 10
142.319435
 20
96.022100
 30
0.0
 10
142.358597
 20
95.925509
 30
0.0
  0
LINE
  5
18c
100
AcDbEntity
  8
pot_board
 62
7
100
AcDbLine
 10
142.358597
 20
95.925509
 30
0.0
 11
142.429830
 21
95.749893
 31
0.0
  0
LINE
  5
18d
100
AcDbEntity
  8
pot_board
 62
7
100
AcDbLine
 10
142.429830
 20
95.749893
 30
0.0
 11
142.662868
 21
95.516883
 31
0.0
  0
LINE
  5
18e
100
AcDbEntity
  8
pot_board
 62
7
100
AcDbLine
 10
142.662868
 20
95.516883
 30
0.0
 11
142.895909
 21
95.283877
 31
0.0
  0
LINE
  5
18f
100
AcDbEntity
  8
pot_board
 62
7
100
AcDbLine
 10
142.895909
 20
95.283877
 30
0.0
 11
143.181659
 21
95.160631
 31
0.0
  0
LINE
  5
190
100
AcDbEntity
  8
pot_board
 62
7
100
AcDbLine
 10
143.181659
 20
95.160631
 30
0.0
 11
143.467409
 21
95.037384
 31
0.0
  0
LINE
  5
191
100
AcDbEntity
  8
pot_board
 62
7
100
AcDbLine
 10
143.467409
 20
95.037384
 30
0.0
 11
143.795492
 21
95.036326
 31
0.0
  0
LINE
  5
192
100
AcDbEntity
  8
pot_board
 62
7
100
AcDbLine
 10
143.795492
 20
95.036326
 30
0.0
 11
144.123576
 21
95.035268
 31
0.0
  0
LINE
  5
193
100
AcDbEntity
  8
pot_board
 62
7
100
AcDbLine
 10
144.123576
 20
95.035268
 30
0.0
 11
144.413009
 21
95.159632
 31
0.0
  0
LINE
  5
194
100
AcDbEntity
  8
pot_board
 62
7
100
AcDbLine
 10
144.413009
 20
95.159632
 30
0.0
 11
144.413076
 21
95.159985
 31
0.0
  0
LINE
  5
195
100
AcDbEntity
  8
pot_board
 62
7
100
AcDbLine
 10
132.815351
 20
99.477742
 30
0.0
 11
133.064059
 21
99.581102
 31
0.0
  0
LINE
  5
196
100
AcDbEntity
  8
pot_board
 62
7
100
AcDbLine
 10
133.064059
 20
99.581102
 30
0.0
 11
133.265143
 21
99.783152
 31
0.0
  0
SPLINE
  5
197
100
AcDbEntity
  8
pot_board
 62
7
100
AcDbSpline
 70
8
 71
3
 72
8
 73
4
 74
0
 40
0
 40
0
 40
0
 40
0
 40
1
 40
1
 40
1
 40
1
 10
133.265143
 20
99.783152
 30
0.0
 10
133.375739
 20
99.894281
 30
0.0
 10
133.476630
 20
99.990730
 30
0.0
 10
133.489344
 20
99.997482
 30
0.0
  0
SPLINE
  5
198
100
AcDbEntity
  8
pot_board
 62
7
100
AcDbSpline
 70
8
 71
3
 72
8
 73
4
 74
0
 40
0
 40
0
 40
0
 40
0
 40
1
 40
1
 40
1
 40
1
 10
133.489344
 20
99.997482
 30
0.0
 10
133.522999
 20
100.015368
 30
0.0
 10
133.578681
 20
100.012405
 30
0.0
 10
133.609101
 20
99.991097
 30
0.0
  0
SPLINE
  5
199
100
AcDbEntity
  8
pot_board
 62
7
100
AcDbSpline
 70
8
 71
3
 72
8
 73
4
 74
0
 40
0
 40
0
 40
0
 40
0
 40
1
 40
1
 40
1
 40
1
 10
133.609101
 20
99.991097
 30
0.0
 10
133.623636
 20
99.980902
 30
0.0
 10
133.723666
 20
99.884509
 30
0.0
 10
133.831351
 20
99.776855
 30
0.0
  0
LINE
  5
19a
100
AcDbEntity
  8
pot_board
 62
7
100
AcDbLine
 10
133.831351
 20
99.776855
 30
0.0
 11
134.027143
 21
99.581123
 31
0.0
  0
LINE
  5
19b
100
AcDbEntity
  8
pot_board
 62
7
100
AcDbLine
 10
134.027143
 20
99.581123
 30
0.0
 11
134.284607
 21
99.477936
 31
0.0
  0
LINE
  5
19c
100
AcDbEntity
  8
pot_board
 62
7
100
AcDbLine
 10
134.284607
 20
99.477936
 30
0.0
 11
134.542071
 21
99.374748
 31
0.0
  0
LINE
  5
19d
100
AcDbEntity
  8
pot_board
 62
7
100
AcDbLine
 10
134.542071
 20
99.374748
 30
0.0
 11
134.813774
 21
99.374621
 31
0.0
  0
LINE
  5
19e
100
AcDbEntity
  8
pot_board
 62
7
100
AcDbLine
 10
134.813774
 20
99.374621
 30
0.0
 11
135.085476
 21
99.374494
 31
0.0
  0
LINE
  5
19f
100
AcDbEntity
  8
pot_board
 62
7
100
AcDbLine
 10
135.085476
 20
99.374494
 30
0.0
 11
135.344768
 21
99.477809
 31
0.0
  0
LINE
  5
1a0
100
AcDbEntity
  8
pot_board
 62
7
100
AcDbLine
 10
135.344768
 20
99.477809
 30
0.0
 11
135.604060
 21
99.581127
 31
0.0
  0
LINE
  5
1a1
100
AcDbEntity
  8
pot_board
 62
7
100
AcDbLine
 10
135.604060
 20
99.581127
 30
0.0
 11
135.805143
 21
99.783985
 31
0.0
  0
SPLINE
  5
1a2
100
AcDbEntity
  8
pot_board
 62
7
100
AcDbSpline
 70
8
 71
3
 72
8
 73
4
 74
0
 40
0
 40
0
 40
0
 40
0
 40
1
 40
1
 40
1
 40
1
 10
135.805143
 20
99.783985
 30
0.0
 10
135.915739
 20
99.895558
 30
0.0
 10
136.016630
 20
99.992000
 30
0.0
 10
136.029344
 20
99.998297
 30
0.0
  0
SPLINE
  5
1a3
100
AcDbEntity
  8
pot_board
 62
7
100
AcDbSpline
 70
8
 71
3
 72
8
 73
4
 74
0
 40
0
 40
0
 40
0
 40
0
 40
1
 40
1
 40
1
 40
1
 10
136.029344
 20
99.998297
 30
0.0
 10
136.057566
 20
100.012302
 30
0.0
 10
136.116931
 20
100.012973
 30
0.0
 10
136.138518
 20
99.999708
 30
0.0
  0
SPLINE
  5
1a4
100
AcDbEntity
  8
pot_board
 62
7
100
AcDbSpline
 70
8
 71
3
 72
8
 73
4
 74
0
 40
0
 40
0
 40
0
 40
0
 40
1
 40
1
 40
1
 40
1
 10
136.138518
 20
99.999708
 30
0.0
 10
136.147231
 20
99.994276
 30
0.0
 10
136.247262
 20
99.897914
 30
0.0
 10
136.360768
 20
99.785558
 30
0.0
  0
LINE
  5
1a5
100
AcDbEntity
  8
pot_board
 62
7
100
AcDbLine
 10
136.360768
 20
99.785558
 30
0.0
 11
136.567143
 21
99.581268
 31
0.0
  0
LINE
  5
1a6
100
AcDbEntity
  8
pot_board
 62
7
100
AcDbLine
 10
136.567143
 20
99.581268
 30
0.0
 11
136.815851
 21
99.477890
 31
0.0
  0
LINE
  5
1a7
100
AcDbEntity
  8
pot_board
 62
7
100
AcDbLine
 10
136.815851
 20
99.477890
 30
0.0
 11
137.064559
 21
99.374508
 31
0.0
  0
LINE
  5
1a8
100
AcDbEntity
  8
pot_board
 62
7
100
AcDbLine
 10
137.064559
 20
99.374508
 30
0.0
 11
137.345018
 21
99.374508
 31
0.0
  0
LINE
  5
1a9
100
AcDbEntity
  8
pot_board
 62
7
100
AcDbLine
 10
137.345018
 20
99.374508
 30
0.0
 11
137.625476
 21
99.374508
 31
0.0
  0
LINE
  5
1aa
100
AcDbEntity
  8
pot_board
 62
7
100
AcDbLine
 10
137.625476
 20
99.374508
 30
0.0
 11
137.879476
 21
99.476715
 31
0.0
  0
LINE
  5
1ab
100
AcDbEntity
  8
pot_board
 62
7
100
AcDbLine
 10
137.879476
 20
99.476715
 30
0.0
 11
138.133476
 21
99.578922
 31
0.0
  0
LINE
  5
1ac
100
AcDbEntity
  8
pot_board
 62
7
100
AcDbLine
 10
138.133476
 20
99.578922
 30
0.0
 11
138.336874
 21
99.780725
 31
0.0
  0
SPLINE
  5
1ad
100
AcDbEntity
  8
pot_board
 62
7
100
AcDbSpline
 70
8
 71
3
 72
8
 73
4
 74
0
 40
0
 40
0
 40
0
 40
0
 40
1
 40
1
 40
1
 40
1
 10
138.336874
 20
99.780725
 30
0.0
 10
138.514032
 20
99.956493
 30
0.0
 10
138.543153
 20
99.990095
 30
0.0
 10
138.562613
 20
100.041170
 30
0.0
  0
SPLINE
  5
1ae
100
AcDbEntity
  8
pot_board
 62
7
100
AcDbSpline
 70
8
 71
3
 72
8
 73
4
 74
0
 40
0
 40
0
 40
0
 40
0
 40
1
 40
1
 40
1
 40
1
 10
138.562613
 20
100.041170
 30
0.0
 10
138.574889
 20
100.073414
 30
0.0
 10
138.592317
 20
100.116481
 30
0.0
 10
138.601344
 20
100.136854
 30
0.0
  0
SPLINE
  5
1af
100
AcDbEntity
  8
pot_board
 62
7
100
AcDbSpline
 70
8
 71
3
 72
8
 73
4
 74
0
 40
0
 40
0
 40
0
 40
0
 40
1
 40
1
 40
1
 40
1
 10
138.601344
 20
100.136854
 30
0.0
 10
138.610375
 20
100.157245
 30
0.0
 10
138.648080
 20
100.247281
 30
0.0
 10
138.685168
 20
100.336971
 30
0.0
  0
LINE
  5
1b0
100
AcDbEntity
  8
pot_board
 62
7
100
AcDbLine
 10
138.685168
 20
100.336971
 30
0.0
 11
138.752601
 21
100.500046
 31
0.0
  0
LINE
  5
1b1
100
AcDbEntity
  8
pot_board
 62
7
100
AcDbLine
 10
138.752601
 20
100.500046
 30
0.0
 11
138.752601
 21
100.771600
 31
0.0
  0
LINE
  5
1b2
100
AcDbEntity
  8
pot_board
 62
7
100
AcDbLine
 10
138.752601
 20
100.771600
 30
0.0
 11
138.752601
 21
101.043154
 31
0.0
  0
LINE
  5
1b3
100
AcDbEntity
  8
pot_board
 62
7
100
AcDbLine
 10
138.752601
 20
101.043154
 30
0.0
 11
138.646708
 21
101.301691
 31
0.0
  0
LINE
  5
1b4
100
AcDbEntity
  8
pot_board
 62
7
100
AcDbLine
 10
138.646708
 20
101.301691
 30
0.0
 11
138.540818
 21
101.560224
 31
0.0
  0
LINE
  5
1b5
100
AcDbEntity
  8
pot_board
 62
7
100
AcDbLine
 10
138.540818
 20
101.560224
 30
0.0
 11
138.342437
 21
101.759417
 31
0.0
  0
SPLINE
  5
1b6
100
AcDbEntity
  8
pot_board
 62
7
100
AcDbSpline
 70
8
 71
3
 72
8
 73
4
 74
0
 40
0
 40
0
 40
0
 40
0
 40
1
 40
1
 40
1
 40
1
 10
138.342437
 20
101.759417
 30
0.0
 10
138.233330
 20
101.868975
 30
0.0
 10
138.131042
 20
101.965517
 30
0.0
 10
138.115135
 20
101.973952
 30
0.0
  0
SPLINE
  5
1b7
100
AcDbEntity
  8
pot_board
 62
7
100
AcDbSpline
 70
8
 71
3
 72
8
 73
4
 74
0
 40
0
 40
0
 40
0
 40
0
 40
1
 40
1
 40
1
 40
1
 10
138.115135
 20
101.973952
 30
0.0
 10
138.099225
 20
101.982383
 30
0.0
 10
138.078986
 20
102.003267
 30
0.0
 10
138.070156
 20
102.020342
 30
0.0
  0
SPLINE
  5
1b8
100
AcDbEntity
  8
pot_board
 62
7
100
AcDbSpline
 70
8
 71
3
 72
8
 73
4
 74
0
 40
0
 40
0
 40
0
 40
0
 40
1
 40
1
 40
1
 40
1
 10
138.070156
 20
102.020342
 30
0.0
 10
138.055833
 20
102.048070
 30
0.0
 10
138.054105
 20
102.988960
 30
0.0
 10
138.054105
 20
110.688473
 30
0.0
  0
SPLINE
  5
1b9
100
AcDbEntity
  8
pot_board
 62
7
100
AcDbSpline
 70
8
 71
3
 72
8
 73
4
 74
0
 40
0
 40
0
 40
0
 40
0
 40
1
 40
1
 40
1
 40
1
 10
138.054105
 20
110.688473
 30
0.0
 10
138.054105
 20
118.387985
 30
0.0
 10
138.055869
 20
119.328893
 30
0.0
 10
138.070156
 20
119.356569
 30
0.0
  0
SPLINE
  5
1ba
100
AcDbEntity
  8
pot_board
 62
7
100
AcDbSpline
 70
8
 71
3
 72
8
 73
4
 74
0
 40
0
 40
0
 40
0
 40
0
 40
1
 40
1
 40
1
 40
1
 10
138.070156
 20
119.356569
 30
0.0
 10
138.078976
 20
119.373643
 30
0.0
 10
138.099225
 20
119.394517
 30
0.0
 10
138.115135
 20
119.402955
 30
0.0
  0
SPLINE
  5
1bb
100
AcDbEntity
  8
pot_board
 62
7
100
AcDbSpline
 70
8
 71
3
 72
8
 73
4
 74
0
 40
0
 40
0
 40
0
 40
0
 40
1
 40
1
 40
1
 40
1
 10
138.115135
 20
119.402955
 30
0.0
 10
138.131046
 20
119.411387
 30
0.0
 10
138.233450
 20
119.508058
 30
0.0
 10
138.342709
 20
119.617762
 30
0.0
  0
LINE
  5
1bc
100
AcDbEntity
  8
pot_board
 62
7
100
AcDbLine
 10
138.342709
 20
119.617762
 30
0.0
 11
138.541358
 21
119.817226
 31
0.0
  0
LINE
  5
1bd
100
AcDbEntity
  8
pot_board
 62
7
100
AcDbLine
 10
138.541358
 20
119.817226
 30
0.0
 11
138.621393
 21
120.012703
 31
0.0
  0
SPLINE
  5
1be
100
AcDbEntity
  8
pot_board
 62
7
100
AcDbSpline
 70
8
 71
3
 72
8
 73
4
 74
0
 40
0
 40
0
 40
0
 40
0
 40
1
 40
1
 40
1
 40
1
 10
138.621393
 20
120.012703
 30
0.0
 10
138.764857
 20
120.363100
 30
0.0
 10
138.752601
 20
120.307104
 30
0.0
 10
138.752601
 20
120.612140
 30
0.0
  0
LINE
  5
1bf
100
AcDbEntity
  8
pot_board
 62
7
100
AcDbLine
 10
138.752601
 20
120.612140
 30
0.0
 11
138.752601
 21
120.878611
 31
0.0
  0
LINE
  5
1c0
100
AcDbEntity
  8
pot_board
 62
7
100
AcDbLine
 10
138.752601
 20
120.878611
 30
0.0
 11
138.696220
 21
121.014352
 31
0.0
  0
SPLINE
  5
1c1
100
AcDbEntity
  8
pot_board
 62
7
100
AcDbSpline
 70
8
 71
3
 72
8
 73
4
 74
0
 40
0
 40
0
 40
0
 40
0
 40
1
 40
1
 40
1
 40
1
 10
138.696220
 20
121.014352
 30
0.0
 10
138.665211
 20
121.089014
 30
0.0
 10
138.617420
 20
121.205082
 30
0.0
 10
138.590013
 20
121.272282
 30
0.0
  0
LINE
  5
1c2
100
AcDbEntity
  8
pot_board
 62
7
100
AcDbLine
 10
138.590013
 20
121.272282
 30
0.0
 11
138.540183
 21
121.394467
 31
0.0
  0
LINE
  5
1c3
100
AcDbEntity
  8
pot_board
 62
7
100
AcDbLine
 10
138.540183
 20
121.394467
 30
0.0
 11
138.336828
 21
121.596224
 31
0.0
  0
LINE
  5
1c4
100
AcDbEntity
  8
pot_board
 62
7
100
AcDbLine
 10
138.336828
 20
121.596224
 30
0.0
 11
138.133476
 21
121.797981
 31
0.0
  0
LINE
  5
1c5
100
AcDbEntity
  8
pot_board
 62
7
100
AcDbLine
 10
138.133476
 20
121.797981
 30
0.0
 11
137.879476
 21
121.900093
 31
0.0
  0
LINE
  5
1c6
100
AcDbEntity
  8
pot_board
 62
7
100
AcDbLine
 10
137.879476
 20
121.900093
 30
0.0
 11
137.625476
 21
122.002208
 31
0.0
  0
LINE
  5
1c7
100
AcDbEntity
  8
pot_board
 62
7
100
AcDbLine
 10
137.625476
 20
122.002208
 30
0.0
 11
137.345018
 21
122.002321
 31
0.0
  0
LINE
  5
1c8
100
AcDbEntity
  8
pot_board
 62
7
100
AcDbLine
 10
137.345018
 20
122.002321
 30
0.0
 11
137.064559
 21
122.002437
 31
0.0
  0
LINE
  5
1c9
100
AcDbEntity
  8
pot_board
 62
7
100
AcDbLine
 10
137.064559
 20
122.002437
 30
0.0
 11
136.809304
 21
121.894822
 31
0.0
  0
LINE
  5
1ca
100
AcDbEntity
  8
pot_board
 62
7
100
AcDbLine
 10
136.809304
 20
121.894822
 30
0.0
 11
136.554048
 21
121.787207
 31
0.0
  0
LINE
  5
1cb
100
AcDbEntity
  8
pot_board
 62
7
100
AcDbLine
 10
136.554048
 20
121.787207
 30
0.0
 11
136.365484
 21
121.603590
 31
0.0
  0
SPLINE
  5
1cc
100
AcDbEntity
  8
pot_board
 62
7
100
AcDbSpline
 70
8
 71
3
 72
8
 73
4
 74
0
 40
0
 40
0
 40
0
 40
0
 40
1
 40
1
 40
1
 40
1
 10
136.365484
 20
121.603590
 30
0.0
 10
136.261771
 20
121.502600
 30
0.0
 10
136.173224
 20
121.419973
 30
0.0
 10
136.168709
 20
121.419973
 30
0.0
  0
SPLINE
  5
1cd
100
AcDbEntity
  8
pot_board
 62
7
100
AcDbSpline
 70
8
 71
3
 72
8
 73
4
 74
0
 40
0
 40
0
 40
0
 40
0
 40
1
 40
1
 40
1
 40
1
 10
136.168709
 20
121.419973
 30
0.0
 10
136.164193
 20
121.419973
 30
0.0
 10
136.155127
 20
121.399723
 30
0.0
 10
136.148530
 20
121.374994
 30
0.0
  0
SPLINE
  5
1ce
100
AcDbEntity
  8
pot_board
 62
7
100
AcDbSpline
 70
8
 71
3
 72
8
 73
4
 74
0
 40
0
 40
0
 40
0
 40
0
 40
1
 40
1
 40
1
 40
1
 10
136.148530
 20
121.374994
 30
0.0
 10
136.141933
 20
121.350264
 30
0.0
 10
136.129797
 20
121.322444
 30
0.0
 10
136.121577
 20
121.313190
 30
0.0
  0
SPLINE
  5
1cf
100
AcDbEntity
  8
pot_board
 62
7
100
AcDbSpline
 70
8
 71
3
 72
8
 73
4
 74
0
 40
0
 40
0
 40
0
 40
0
 40
1
 40
1
 40
1
 40
1
 10
136.121577
 20
121.313190
 30
0.0
 10
136.113322
 20
121.303948
 30
0.0
 10
136.077734
 20
121.225356
 30
0.0
 10
136.042471
 20
121.138565
 30
0.0
  0
SPLINE
  5
1d0
100
AcDbEntity
  8
pot_board
 62
7
100
AcDbSpline
 70
8
 71
3
 72
8
 73
4
 74
0
 40
0
 40
0
 40
0
 40
0
 40
1
 40
1
 40
1
 40
1
 10
136.042471
 20
121.138565
 30
0.0
 10
135.929793
 20
120.861222
 30
0.0
 10
135.937459
 20
120.900271
 30
0.0
 10
135.937459
 20
120.603705
 30
0.0
  0
LINE
  5
1d1
100
AcDbEntity
  8
pot_board
 62
7
100
AcDbLine
 10
135.937459
 20
120.603705
 30
0.0
 11
135.937459
 21
120.341083
 31
0.0
  0
LINE
  5
1d2
100
AcDbEntity
  8
pot_board
 62
7
100
AcDbLine
 10
135.937459
 20
120.341083
 30
0.0
 11
135.968468
 21
120.258755
 31
0.0
  0
SPLINE
  5
1d3
100
AcDbEntity
  8
pot_board
 62
7
100
AcDbSpline
 70
8
 71
3
 72
8
 73
4
 74
0
 40
0
 40
0
 40
0
 40
0
 40
1
 40
1
 40
1
 40
1
 10
135.968468
 20
120.258755
 30
0.0
 10
136.027502
 20
120.102048
 30
0.0
 10
136.103448
 20
119.922272
 30
0.0
 10
136.126195
 20
119.885389
 30
0.0
  0
SPLINE
  5
1d4
100
AcDbEntity
  8
pot_board
 62
7
100
AcDbSpline
 70
8
 71
3
 72
8
 73
4
 74
0
 40
0
 40
0
 40
0
 40
0
 40
1
 40
1
 40
1
 40
1
 10
136.126195
 20
119.885389
 30
0.0
 10
136.138754
 20
119.865034
 30
0.0
 10
136.149055
 20
119.840206
 30
0.0
 10
136.149091
 20
119.830254
 30
0.0
  0
SPLINE
  5
1d5
100
AcDbEntity
  8
pot_board
 62
7
100
AcDbSpline
 70
8
 71
3
 72
8
 73
4
 74
0
 40
0
 40
0
 40
0
 40
0
 40
1
 40
1
 40
1
 40
1
 10
136.149091
 20
119.830254
 30
0.0
 10
136.149091
 20
119.820305
 30
0.0
 10
136.169375
 20
119.794207
 30
0.0
 10
136.194109
 20
119.772268
 30
0.0
  0
SPLINE
  5
1d6
100
AcDbEntity
  8
pot_board
 62
7
100
AcDbSpline
 70
8
 71
3
 72
8
 73
4
 74
0
 40
0
 40
0
 40
0
 40
0
 40
1
 40
1
 40
1
 40
1
 10
136.194109
 20
119.772268
 30
0.0
 10
136.218838
 20
119.750325
 30
0.0
 10
136.267663
 20
119.703077
 30
0.0
 10
136.302588
 20
119.667274
 30
0.0
  0
SPLINE
  5
1d7
100
AcDbEntity
  8
pot_board
 62
7
100
AcDbSpline
 70
8
 71
3
 72
8
 73
4
 74
0
 40
0
 40
0
 40
0
 40
0
 40
1
 40
1
 40
1
 40
1
 10
136.302588
 20
119.667274
 30
0.0
 10
136.337513
 20
119.631467
 30
0.0
 10
136.418475
 20
119.553112
 30
0.0
 10
136.482504
 20
119.493153
 30
0.0
  0
SPLINE
  5
1d8
100
AcDbEntity
  8
pot_board
 62
7
100
AcDbSpline
 70
8
 71
3
 72
8
 73
4
 74
0
 40
0
 40
0
 40
0
 40
0
 40
1
 40
1
 40
1
 40
1
 10
136.482504
 20
119.493153
 30
0.0
 10
136.546534
 20
119.433195
 30
0.0
 10
136.607222
 20
119.371904
 30
0.0
 10
136.617371
 20
119.356949
 30
0.0
  0
SPLINE
  5
1d9
100
AcDbEntity
  8
pot_board
 62
7
100
AcDbSpline
 70
8
 71
3
 72
8
 73
4
 74
0
 40
0
 40
0
 40
0
 40
0
 40
1
 40
1
 40
1
 40
1
 10
136.617371
 20
119.356949
 30
0.0
 10
136.634869
 20
119.331161
 30
0.0
 10
136.635822
 20
118.888383
 30
0.0
 10
136.635822
 20
110.688473
 30
0.0
  0
SPLINE
  5
1da
100
AcDbEntity
  8
pot_board
 62
7
100
AcDbSpline
 70
8
 71
3
 72
8
 73
4
 74
0
 40
0
 40
0
 40
0
 40
0
 40
1
 40
1
 40
1
 40
1
 10
136.635822
 20
110.688473
 30
0.0
 10
136.635822
 20
102.483567
 30
0.0
 10
136.634763
 20
102.045844
 30
0.0
 10
136.617336
 20
102.020723
 30
0.0
  0
SPLINE
  5
1db
100
AcDbEntity
  8
pot_board
 62
7
100
AcDbSpline
 70
8
 71
3
 72
8
 73
4
 74
0
 40
0
 40
0
 40
0
 40
0
 40
1
 40
1
 40
1
 40
1
 10
136.617336
 20
102.020723
 30
0.0
 10
136.596734
 20
101.991231
 30
0.0
 10
136.163205
 20
101.559847
 30
0.0
 10
136.138408
 20
101.544169
 30
0.0
  0
SPLINE
  5
1dc
100
AcDbEntity
  8
pot_board
 62
7
100
AcDbSpline
 70
8
 71
3
 72
8
 73
4
 74
0
 40
0
 40
0
 40
0
 40
0
 40
1
 40
1
 40
1
 40
1
 10
136.138408
 20
101.544169
 30
0.0
 10
136.116607
 20
101.530376
 30
0.0
 10
136.057090
 20
101.531434
 30
0.0
 10
136.029721
 20
101.545933
 30
0.0
  0
SPLINE
  5
1dd
100
AcDbEntity
  8
pot_board
 62
7
100
AcDbSpline
 70
8
 71
3
 72
8
 73
4
 74
0
 40
0
 40
0
 40
0
 40
0
 40
1
 40
1
 40
1
 40
1
 10
136.029721
 20
101.545933
 30
0.0
 10
136.002275
 20
101.560609
 30
0.0
 10
135.560548
 20
102.003744
 30
0.0
 10
135.545717
 20
102.031458
 30
0.0
  0
SPLINE
  5
1de
100
AcDbEntity
  8
pot_board
 62
7
100
AcDbSpline
 70
8
 71
3
 72
8
 73
4
 74
0
 40
0
 40
0
 40
0
 40
0
 40
1
 40
1
 40
1
 40
1
 10
135.545717
 20
102.031458
 30
0.0
 10
135.538873
 20
102.044228
 30
0.0
 10
135.535275
 20
105.470205
 30
0.0
 10
135.535275
 20
111.958169
 30
0.0
  0
SPLINE
  5
1df
100
AcDbEntity
  8
pot_board
 62
7
100
AcDbSpline
 70
8
 71
3
 72
8
 73
4
 74
0
 40
0
 40
0
 40
0
 40
0
 40
1
 40
1
 40
1
 40
1
 10
135.535275
 20
111.958169
 30
0.0
 10
135.535275
 20
120.793023
 30
0.0
 10
135.537039
 20
121.868752
 30
0.0
 10
135.551326
 20
121.896434
 30
0.0
  0
SPLINE
  5
1e0
100
AcDbEntity
  8
pot_board
 62
7
100
AcDbSpline
 70
8
 71
3
 72
8
 73
4
 74
0
 40
0
 40
0
 40
0
 40
0
 40
1
 40
1
 40
1
 40
1
 10
135.551326
 20
121.896434
 30
0.0
 10
135.560146
 20
121.913509
 30
0.0
 10
135.581030
 20
121.934534
 30
0.0
 10
135.597688
 20
121.943153
 30
0.0
  0
SPLINE
  5
1e1
100
AcDbEntity
  8
pot_board
 62
7
100
AcDbSpline
 70
8
 71
3
 72
8
 73
4
 74
0
 40
0
 40
0
 40
0
 40
0
 40
1
 40
1
 40
1
 40
1
 10
135.597688
 20
121.943153
 30
0.0
 10
135.614375
 20
121.951761
 30
0.0
 10
135.713100
 20
122.048750
 30
0.0
 10
135.817113
 20
122.158654
 30
0.0
  0
LINE
  5
1e2
100
AcDbEntity
  8
pot_board
 62
7
100
AcDbLine
 10
135.817113
 20
122.158654
 30
0.0
 11
136.006230
 21
122.358478
 31
0.0
  0
LINE
  5
1e3
100
AcDbEntity
  8
pot_board
 62
7
100
AcDbLine
 10
136.006230
 20
122.358478
 30
0.0
 11
136.109417
 21
122.606499
 31
0.0
  0
LINE
  5
1e4
100
AcDbEntity
  8
pot_board
 62
7
100
AcDbLine
 10
136.109417
 20
122.606499
 30
0.0
 11
136.212605
 21
122.854522
 31
0.0
  0
LINE
  5
1e5
100
AcDbEntity
  8
pot_board
 62
7
100
AcDbLine
 10
136.212605
 20
122.854522
 30
0.0
 11
136.212605
 21
123.137002
 31
0.0
  0
SPLINE
  5
1e6
100
AcDbEntity
  8
pot_board
 62
7
100
AcDbSpline
 70
8
 71
3
 72
8
 73
4
 74
0
 40
0
 40
0
 40
0
 40
0
 40
1
 40
1
 40
1
 40
1
 10
136.212605
 20
123.137002
 30
0.0
 10
136.212605
 20
123.409826
 30
0.0
 10
136.211899
 20
123.421394
 30
0.0
 10
136.187946
 20
123.475348
 30
0.0
  0
SPLINE
  5
1e7
100
AcDbEntity
  8
pot_board
 62
7
100
AcDbSpline
 70
8
 71
3
 72
8
 73
4
 74
0
 40
0
 40
0
 40
0
 40
0
 40
1
 40
1
 40
1
 40
1
 10
136.187946
 20
123.475348
 30
0.0
 10
136.174364
 20
123.506075
 30
0.0
 10
136.128136
 20
123.619320
 30
0.0
 10
136.085188
 20
123.727005
 30
0.0
  0
LINE
  5
1e8
100
AcDbEntity
  8
pot_board
 62
7
100
AcDbLine
 10
136.085188
 20
123.727005
 30
0.0
 11
136.007101
 21
123.922797
 31
0.0
  0
LINE
  5
1e9
100
AcDbEntity
  8
pot_board
 62
7
100
AcDbLine
 10
136.007101
 20
123.922797
 30
0.0
 11
135.906182
 21
124.028630
 31
0.0
  0
SPLINE
  5
1ea
100
AcDbEntity
  8
pot_board
 62
7
100
AcDbSpline
 70
8
 71
3
 72
8
 73
4
 74
0
 40
0
 40
0
 40
0
 40
0
 40
1
 40
1
 40
1
 40
1
 10
135.906182
 20
124.028630
 30
0.0
 10
135.686923
 20
124.258574
 30
0.0
 10
135.604119
 20
124.336627
 30
0.0
 10
135.567032
 20
124.348321
 30
0.0
  0
SPLINE
  5
1eb
100
AcDbEntity
  8
pot_board
 62
7
100
AcDbSpline
 70
8
 71
3
 72
8
 73
4
 74
0
 40
0
 40
0
 40
0
 40
0
 40
1
 40
1
 40
1
 40
1
 10
135.567032
 20
124.348321
 30
0.0
 10
135.546677
 20
124.354742
 30
0.0
 10
135.430563
 20
124.400931
 30
0.0
 10
135.309038
 20
124.450962
 30
0.0
  0
LINE
  5
1ec
100
AcDbEntity
  8
pot_board
 62
7
100
AcDbLine
 10
135.309038
 20
124.450962
 30
0.0
 11
135.088090
 21
124.541922
 31
0.0
  0
LINE
  5
1ed
100
AcDbEntity
  8
pot_board
 62
7
100
AcDbLine
 10
135.088090
 20
124.541922
 30
0.0
 11
134.814324
 21
124.541922
 31
0.0
  0
LINE
  5
1ee
100
AcDbEntity
  8
pot_board
 62
7
100
AcDbLine
 10
134.814324
 20
124.541922
 30
0.0
 11
134.540558
 21
124.541922
 31
0.0
  0
LINE
  5
1ef
100
AcDbEntity
  8
pot_board
 62
7
100
AcDbLine
 10
134.540558
 20
124.541922
 30
0.0
 11
134.294439
 21
124.441116
 31
0.0
  0
SPLINE
  5
1f0
100
AcDbEntity
  8
pot_board
 62
7
100
AcDbSpline
 70
8
 71
3
 72
8
 73
4
 74
0
 40
0
 40
0
 40
0
 40
0
 40
1
 40
1
 40
1
 40
1
 10
134.294439
 20
124.441116
 30
0.0
 10
134.159075
 20
124.385673
 30
0.0
 10
134.038396
 20
124.335286
 30
0.0
 10
134.026264
 20
124.329144
 30
0.0
  0
SPLINE
  5
1f1
100
AcDbEntity
  8
pot_board
 62
7
100
AcDbSpline
 70
8
 71
3
 72
8
 73
4
 74
0
 40
0
 40
0
 40
0
 40
0
 40
1
 40
1
 40
1
 40
1
 10
134.026264
 20
124.329144
 30
0.0
 10
134.014129
 20
124.323006
 30
0.0
 10
133.918882
 20
124.231435
 30
0.0
 10
133.814598
 20
124.125669
 30
0.0
  0
LINE
  5
1f2
100
AcDbEntity
  8
pot_board
 62
7
100
AcDbLine
 10
133.814598
 20
124.125669
 30
0.0
 11
133.624990
 21
123.933366
 31
0.0
  0
LINE
  5
1f3
100
AcDbEntity
  8
pot_board
 62
7
100
AcDbLine
 10
133.624990
 20
123.933366
 30
0.0
 11
133.551944
 21
123.748165
 31
0.0
  0
SPLINE
  5
1f4
100
AcDbEntity
  8
pot_board
 62
7
100
AcDbSpline
 70
8
 71
3
 72
8
 73
4
 74
0
 40
0
 40
0
 40
0
 40
0
 40
1
 40
1
 40
1
 40
1
 10
133.551944
 20
123.748165
 30
0.0
 10
133.511770
 20
123.646304
 30
0.0
 10
133.465334
 20
123.531210
 30
0.0
 10
133.448757
 20
123.492398
 30
0.0
  0
LINE
  5
1f5
100
AcDbEntity
  8
pot_board
 62
7
100
AcDbLine
 10
133.448757
 20
123.492398
 30
0.0
 11
133.418629
 21
123.421831
 31
0.0
  0
LINE
  5
1f6
100
AcDbEntity
  8
pot_board
 62
7
100
AcDbLine
 10
133.418629
 20
123.421831
 30
0.0
 11
133.419335
 21
123.132564
 31
0.0
  0
LINE
  5
1f7
100
AcDbEntity
  8
pot_board
 62
7
100
AcDbLine
 10
133.419335
 20
123.132564
 30
0.0
 11
133.420040
 21
122.843297
 31
0.0
  0
LINE
  5
1f8
100
AcDbEntity
  8
pot_board
 62
7
100
AcDbLine
 10
133.420040
 20
122.843297
 30
0.0
 11
133.527888
 21
122.592313
 31
0.0
  0
LINE
  5
1f9
100
AcDbEntity
  8
pot_board
 62
7
100
AcDbLine
 10
133.527888
 20
122.592313
 30
0.0
 11
133.635732
 21
122.341333
 31
0.0
  0
LINE
  5
1fa
100
AcDbEntity
  8
pot_board
 62
7
100
AcDbLine
 10
133.635732
 20
122.341333
 30
0.0
 11
133.819748
 21
122.149979
 31
0.0
  0
SPLINE
  5
1fb
100
AcDbEntity
  8
pot_board
 62
7
100
AcDbSpline
 70
8
 71
3
 72
8
 73
4
 74
0
 40
0
 40
0
 40
0
 40
0
 40
1
 40
1
 40
1
 40
1
 10
133.819748
 20
122.149979
 30
0.0
 10
133.920960
 20
122.044735
 30
0.0
 10
134.017318
 20
121.951619
 30
0.0
 10
134.033884
 20
121.943054
 30
0.0
  0
SPLINE
  5
1fc
100
AcDbEntity
  8
pot_board
 62
7
100
AcDbSpline
 70
8
 71
3
 72
8
 73
4
 74
0
 40
0
 40
0
 40
0
 40
0
 40
1
 40
1
 40
1
 40
1
 10
134.033884
 20
121.943054
 30
0.0
 10
134.050465
 20
121.934482
 30
0.0
 10
134.071226
 20
121.913491
 30
0.0
 10
134.080052
 20
121.896434
 30
0.0
  0
SPLINE
  5
1fd
100
AcDbEntity
  8
pot_board
 62
7
100
AcDbSpline
 70
8
 71
3
 72
8
 73
4
 74
0
 40
0
 40
0
 40
0
 40
0
 40
1
 40
1
 40
1
 40
1
 10
134.080052
 20
121.896434
 30
0.0
 10
134.094375
 20
121.868741
 30
0.0
 10
134.096104
 20
120.793023
 30
0.0
 10
134.096104
 20
111.958169
 30
0.0
  0
SPLINE
  5
1fe
100
AcDbEntity
  8
pot_board
 62
7
100
AcDbSpline
 70
8
 71
3
 72
8
 73
4
 74
0
 40
0
 40
0
 40
0
 40
0
 40
1
 40
1
 40
1
 40
1
 10
134.096104
 20
111.958169
 30
0.0
 10
134.096104
 20
105.138559
 30
0.0
 10
134.092576
 20
102.044556
 30
0.0
 10
134.085132
 20
102.030442
 30
0.0
  0
SPLINE
  5
1ff
100
AcDbEntity
  8
pot_board
 62
7
100
AcDbSpline
 70
8
 71
3
 72
8
 73
4
 74
0
 40
0
 40
0
 40
0
 40
0
 40
1
 40
1
 40
1
 40
1
 10
134.085132
 20
102.030442
 30
0.0
 10
134.072256
 20
102.006382
 30
0.0
 10
133.648090
 20
101.580671
 30
0.0
 10
133.609274
 20
101.552855
 30
0.0
  0
SPLINE
  5
200
100
AcDbEntity
  8
pot_board
 62
7
100
AcDbSpline
 70
8
 71
3
 72
8
 73
4
 74
0
 40
0
 40
0
 40
0
 40
0
 40
1
 40
1
 40
1
 40
1
 10
133.609274
 20
101.552855
 30
0.0
 10
133.580523
 20
101.532253
 30
0.0
 10
133.523764
 20
101.527808
 30
0.0
 10
133.493891
 20
101.543788
 30
0.0
  0
SPLINE
  5
201
100
AcDbEntity
  8
pot_board
 62
7
100
AcDbSpline
 70
8
 71
3
 72
8
 73
4
 74
0
 40
0
 40
0
 40
0
 40
0
 40
1
 40
1
 40
1
 40
1
 10
133.493891
 20
101.543788
 30
0.0
 10
133.468279
 20
101.557476
 30
0.0
 10
133.019983
 20
102.005095
 30
0.0
 10
133.006356
 20
102.030558
 30
0.0
  0
SPLINE
  5
202
100
AcDbEntity
  8
pot_board
 62
7
100
AcDbSpline
 70
8
 71
3
 72
8
 73
4
 74
0
 40
0
 40
0
 40
0
 40
0
 40
1
 40
1
 40
1
 40
1
 10
133.006356
 20
102.030558
 30
0.0
 10
132.989316
 20
102.062379
 30
0.0
 10
132.991998
 20
119.322268
 30
0.0
 10
133.009178
 20
119.352229
 30
0.0
  0
SPLINE
  5
203
100
AcDbEntity
  8
pot_board
 62
7
100
AcDbSpline
 70
8
 71
3
 72
8
 73
4
 74
0
 40
0
 40
0
 40
0
 40
0
 40
1
 40
1
 40
1
 40
1
 10
133.009178
 20
119.352229
 30
0.0
 10
133.016233
 20
119.364647
 30
0.0
 10
133.081564
 20
119.431491
 30
0.0
 10
133.154325
 20
119.500759
 30
0.0
  0
SPLINE
  5
204
100
AcDbEntity
  8
pot_board
 62
7
100
AcDbSpline
 70
8
 71
3
 72
8
 73
4
 74
0
 40
0
 40
0
 40
0
 40
0
 40
1
 40
1
 40
1
 40
1
 10
133.154325
 20
119.500759
 30
0.0
 10
133.420005
 20
119.753673
 30
0.0
 10
133.479752
 20
119.815931
 30
0.0
 10
133.487139
 20
119.847572
 30
0.0
  0
SPLINE
  5
205
100
AcDbEntity
  8
pot_board
 62
7
100
AcDbSpline
 70
8
 71
3
 72
8
 73
4
 74
0
 40
0
 40
0
 40
0
 40
0
 40
1
 40
1
 40
1
 40
1
 10
133.487139
 20
119.847572
 30
0.0
 10
133.491125
 20
119.864681
 30
0.0
 10
133.502943
 20
119.890872
 30
0.0
 10
133.513350
 20
119.905780
 30
0.0
  0
SPLINE
  5
206
100
AcDbEntity
  8
pot_board
 62
7
100
AcDbSpline
 70
8
 71
3
 72
8
 73
4
 74
0
 40
0
 40
0
 40
0
 40
0
 40
1
 40
1
 40
1
 40
1
 10
133.513350
 20
119.905780
 30
0.0
 10
133.523757
 20
119.920702
 30
0.0
 10
133.546935
 20
119.970984
 30
0.0
 10
133.564828
 20
120.017551
 30
0.0
  0
SPLINE
  5
207
100
AcDbEntity
  8
pot_board
 62
7
100
AcDbSpline
 70
8
 71
3
 72
8
 73
4
 74
0
 40
0
 40
0
 40
0
 40
0
 40
1
 40
1
 40
1
 40
1
 10
133.564828
 20
120.017551
 30
0.0
 10
133.582713
 20
120.064117
 30
0.0
 10
133.607612
 20
120.125225
 30
0.0
 10
133.620140
 20
120.153345
 30
0.0
  0
SPLINE
  5
208
100
AcDbEntity
  8
pot_board
 62
7
100
AcDbSpline
 70
8
 71
3
 72
8
 73
4
 74
0
 40
0
 40
0
 40
0
 40
0
 40
1
 40
1
 40
1
 40
1
 10
133.620140
 20
120.153345
 30
0.0
 10
133.692904
 20
120.316696
 30
0.0
 10
133.694078
 20
120.323875
 30
0.0
 10
133.694078
 20
120.604926
 30
0.0
  0
SPLINE
  5
209
100
AcDbEntity
  8
pot_board
 62
7
100
AcDbSpline
 70
8
 71
3
 72
8
 73
4
 74
0
 40
0
 40
0
 40
0
 40
0
 40
1
 40
1
 40
1
 40
1
 10
133.694078
 20
120.604926
 30
0.0
 10
133.694078
 20
120.885977
 30
0.0
 10
133.693020
 20
120.893156
 30
0.0
 10
133.620136
 20
121.056506
 30
0.0
  0
SPLINE
  5
20a
100
AcDbEntity
  8
pot_board
 62
7
100
AcDbSpline
 70
8
 71
3
 72
8
 73
4
 74
0
 40
0
 40
0
 40
0
 40
0
 40
1
 40
1
 40
1
 40
1
 10
133.620136
 20
121.056506
 30
0.0
 10
133.607612
 20
121.084622
 30
0.0
 10
133.582717
 20
121.145734
 30
0.0
 10
133.564824
 20
121.192301
 30
0.0
  0
SPLINE
  5
20b
100
AcDbEntity
  8
pot_board
 62
7
100
AcDbSpline
 70
8
 71
3
 72
8
 73
4
 74
0
 40
0
 40
0
 40
0
 40
0
 40
1
 40
1
 40
1
 40
1
 10
133.564824
 20
121.192301
 30
0.0
 10
133.546938
 20
121.238867
 30
0.0
 10
133.523411
 20
121.289664
 30
0.0
 10
133.512556
 20
121.305182
 30
0.0
  0
SPLINE
  5
20c
100
AcDbEntity
  8
pot_board
 62
7
100
AcDbSpline
 70
8
 71
3
 72
8
 73
4
 74
0
 40
0
 40
0
 40
0
 40
0
 40
1
 40
1
 40
1
 40
1
 10
133.512556
 20
121.305182
 30
0.0
 10
133.501691
 20
121.320705
 30
0.0
 10
133.490049
 20
121.347159
 30
0.0
 10
133.486698
 20
121.363983
 30
0.0
  0
SPLINE
  5
20d
100
AcDbEntity
  8
pot_board
 62
7
100
AcDbSpline
 70
8
 71
3
 72
8
 73
4
 74
0
 40
0
 40
0
 40
0
 40
0
 40
1
 40
1
 40
1
 40
1
 10
133.486698
 20
121.363983
 30
0.0
 10
133.482323
 20
121.385926
 30
0.0
 10
133.425103
 20
121.448269
 30
0.0
 10
133.284641
 20
121.584223
 30
0.0
  0
SPLINE
  5
20e
100
AcDbEntity
  8
pot_board
 62
7
100
AcDbSpline
 70
8
 71
3
 72
8
 73
4
 74
0
 40
0
 40
0
 40
0
 40
0
 40
1
 40
1
 40
1
 40
1
 10
133.284641
 20
121.584223
 30
0.0
 10
133.176874
 20
121.688532
 30
0.0
 10
133.080845
 20
121.779161
 30
0.0
 10
133.071242
 20
121.785623
 30
0.0
  0
SPLINE
  5
20f
100
AcDbEntity
  8
pot_board
 62
7
100
AcDbSpline
 70
8
 71
3
 72
8
 73
4
 74
0
 40
0
 40
0
 40
0
 40
0
 40
1
 40
1
 40
1
 40
1
 10
133.071242
 20
121.785623
 30
0.0
 10
133.061646
 20
121.792079
 30
0.0
 10
132.944888
 20
121.843398
 30
0.0
 10
132.811799
 20
121.899648
 30
0.0
  0
LINE
  5
210
100
AcDbEntity
  8
pot_board
 62
7
100
AcDbLine
 10
132.811799
 20
121.899648
 30
0.0
 11
132.569818
 21
122.001926
 31
0.0
  0
LINE
  5
211
100
AcDbEntity
  8
pot_board
 62
7
100
AcDbLine
 10
132.569818
 20
122.001926
 30
0.0
 11
132.287924
 21
122.002056
 31
0.0
  0
LINE
  5
212
100
AcDbEntity
  8
pot_board
 62
7
100
AcDbLine
 10
132.287924
 20
122.002056
 30
0.0
 11
132.006030
 21
122.002183
 31
0.0
  0
LINE
  5
213
100
AcDbEntity
  8
pot_board
 62
7
100
AcDbLine
 10
132.006030
 20
122.002183
 30
0.0
 11
131.746897
 21
121.898869
 31
0.0
  0
LINE
  5
214
100
AcDbEntity
  8
pot_board
 62
7
100
AcDbLine
 10
131.746897
 20
121.898869
 30
0.0
 11
131.487764
 21
121.795551
 31
0.0
  0
LINE
  5
215
100
AcDbEntity
  8
pot_board
 62
7
100
AcDbLine
 10
131.487764
 20
121.795551
 30
0.0
 11
131.286522
 21
121.594467
 31
0.0
  0
LINE
  5
216
100
AcDbEntity
  8
pot_board
 62
7
100
AcDbLine
 10
131.286522
 20
121.594467
 30
0.0
 11
131.085280
 21
121.393384
 31
0.0
  0
LINE
  5
217
100
AcDbEntity
  8
pot_board
 62
7
100
AcDbLine
 10
131.085280
 20
121.393384
 30
0.0
 11
131.033273
 21
121.261092
 31
0.0
  0
SPLINE
  5
218
100
AcDbEntity
  8
pot_board
 62
7
100
AcDbSpline
 70
8
 71
3
 72
8
 73
4
 74
0
 40
0
 40
0
 40
0
 40
0
 40
1
 40
1
 40
1
 40
1
 10
131.033273
 20
121.261092
 30
0.0
 10
131.004663
 20
121.188332
 30
0.0
 10
130.958237
 20
121.073340
 30
0.0
 10
130.930086
 20
121.005554
 30
0.0
  0
LINE
  5
219
100
AcDbEntity
  8
pot_board
 62
7
100
AcDbLine
 10
130.930086
 20
121.005554
 30
0.0
 11
130.878905
 21
120.882308
 31
0.0
  0
LINE
  5
21a
100
AcDbEntity
  8
pot_board
 62
7
100
AcDbLine
 10
130.878905
 20
120.882308
 30
0.0
 11
130.878905
 21
120.611808
 31
0.0
  0
SPLINE
  5
21b
100
AcDbEntity
  8
pot_board
 62
7
100
AcDbSpline
 70
8
 71
3
 72
8
 73
4
 74
0
 40
0
 40
0
 40
0
 40
0
 40
1
 40
1
 40
1
 40
1
 10
130.878905
 20
120.611808
 30
0.0
 10
130.878905
 20
120.303272
 30
0.0
 10
130.865570
 20
120.365651
 30
0.0
 10
131.006956
 20
120.012259
 30
0.0
  0
LINE
  5
21c
100
AcDbEntity
  8
pot_board
 62
7
100
AcDbLine
 10
131.006956
 20
120.012259
 30
0.0
 11
131.085280
 21
119.816467
 31
0.0
  0
LINE
  5
21d
100
AcDbEntity
  8
pot_board
 62
7
100
AcDbLine
 10
131.085280
 20
119.816467
 30
0.0
 11
131.281071
 21
119.619653
 31
0.0
  0
SPLINE
  5
21e
100
AcDbEntity
  8
pot_board
 62
7
100
AcDbSpline
 70
8
 71
3
 72
8
 73
4
 74
0
 40
0
 40
0
 40
0
 40
0
 40
1
 40
1
 40
1
 40
1
 10
131.281071
 20
119.619653
 30
0.0
 10
131.388757
 20
119.511406
 30
0.0
 10
131.491694
 20
119.414318
 30
0.0
 10
131.509823
 20
119.403904
 30
0.0
  0
SPLINE
  5
21f
100
AcDbEntity
  8
pot_board
 62
7
100
AcDbSpline
 70
8
 71
3
 72
8
 73
4
 74
0
 40
0
 40
0
 40
0
 40
0
 40
1
 40
1
 40
1
 40
1
 10
131.509823
 20
119.403904
 30
0.0
 10
131.527956
 20
119.393497
 30
0.0
 10
131.550576
 20
119.371801
 30
0.0
 10
131.560094
 20
119.355672
 30
0.0
  0
SPLINE
  5
220
100
AcDbEntity
  8
pot_board
 62
7
100
AcDbSpline
 70
8
 71
3
 72
8
 73
4
 74
0
 40
0
 40
0
 40
0
 40
0
 40
1
 40
1
 40
1
 40
1
 10
131.560094
 20
119.355672
 30
0.0
 10
131.576075
 20
119.328614
 30
0.0
 10
131.577415
 20
118.665745
 30
0.0
 10
131.577415
 20
110.688342
 30
0.0
  0
SPLINE
  5
221
100
AcDbEntity
  8
pot_board
 62
7
100
AcDbSpline
 70
8
 71
3
 72
8
 73
4
 74
0
 40
0
 40
0
 40
0
 40
0
 40
1
 40
1
 40
1
 40
1
 10
131.577415
 20
110.688342
 30
0.0
 10
131.577415
 20
102.659208
 30
0.0
 10
131.576004
 20
102.048222
 30
0.0
 10
131.559847
 20
102.020578
 30
0.0
  0
SPLINE
  5
222
100
AcDbEntity
  8
pot_board
 62
7
100
AcDbSpline
 70
8
 71
3
 72
8
 73
4
 74
0
 40
0
 40
0
 40
0
 40
0
 40
1
 40
1
 40
1
 40
1
 10
131.559847
 20
102.020578
 30
0.0
 10
131.550181
 20
102.004209
 30
0.0
 10
131.525169
 20
101.981102
 30
0.0
 10
131.504284
 20
101.969207
 30
0.0
  0
SPLINE
  5
223
100
AcDbEntity
  8
pot_board
 62
7
100
AcDbSpline
 70
8
 71
3
 72
8
 73
4
 74
0
 40
0
 40
0
 40
0
 40
0
 40
1
 40
1
 40
1
 40
1
 10
131.504284
 20
101.969207
 30
0.0
 10
131.483400
 20
101.957318
 30
0.0
 10
131.380565
 20
101.860417
 30
0.0
 10
131.275790
 20
101.753896
 30
0.0
  0
LINE
  5
224
100
AcDbEntity
  8
pot_board
 62
7
100
AcDbLine
 10
131.275790
 20
101.753896
 30
0.0
 11
131.085290
 21
101.560217
 31
0.0
  0
LINE
  5
225
100
AcDbEntity
  8
pot_board
 62
7
100
AcDbLine
 10
131.085290
 20
101.560217
 30
0.0
 11
130.982103
 21
101.303451
 31
0.0
  0
LINE
  5
226
100
AcDbEntity
  8
pot_board
 62
7
100
AcDbLine
 10
130.982103
 20
101.303451
 30
0.0
 11
130.878915
 21
101.046689
 31
0.0
  0
LINE
  5
227
100
AcDbEntity
  8
pot_board
 62
7
100
AcDbLine
 10
130.878915
 20
101.046689
 30
0.0
 11
130.878915
 21
100.771727
 31
0.0
  0
LINE
  5
228
100
AcDbEntity
  8
pot_board
 62
7
100
AcDbLine
 10
130.878915
 20
100.771727
 30
0.0
 11
130.878915
 21
100.496762
 31
0.0
  0
LINE
  5
229
100
AcDbEntity
  8
pot_board
 62
7
100
AcDbLine
 10
130.878915
 20
100.496762
 30
0.0
 11
130.948885
 21
100.324698
 31
0.0
  0
SPLINE
  5
22a
100
AcDbEntity
  8
pot_board
 62
7
100
AcDbSpline
 70
8
 71
3
 72
8
 73
4
 74
0
 40
0
 40
0
 40
0
 40
0
 40
1
 40
1
 40
1
 40
1
 10
130.948885
 20
100.324698
 30
0.0
 10
130.987366
 20
100.230062
 30
0.0
 10
131.022358
 20
100.147871
 30
0.0
 10
131.026641
 20
100.142051
 30
0.0
  0
SPLINE
  5
22b
100
AcDbEntity
  8
pot_board
 62
7
100
AcDbSpline
 70
8
 71
3
 72
8
 73
4
 74
0
 40
0
 40
0
 40
0
 40
0
 40
1
 40
1
 40
1
 40
1
 10
131.026641
 20
100.142051
 30
0.0
 10
131.030909
 20
100.136230
 30
0.0
 10
131.045832
 20
100.098130
 30
0.0
 10
131.059767
 20
100.057384
 30
0.0
  0
SPLINE
  5
22c
100
AcDbEntity
  8
pot_board
 62
7
100
AcDbSpline
 70
8
 71
3
 72
8
 73
4
 74
0
 40
0
 40
0
 40
0
 40
0
 40
1
 40
1
 40
1
 40
1
 10
131.059767
 20
100.057384
 30
0.0
 10
131.084391
 20
99.985343
 30
0.0
 10
131.090635
 20
99.977758
 30
0.0
 10
131.286278
 20
99.782217
 30
0.0
  0
LINE
  5
22d
100
AcDbEntity
  8
pot_board
 62
7
100
AcDbLine
 10
131.286278
 20
99.782217
 30
0.0
 11
131.487453
 21
99.581134
 31
0.0
  0
LINE
  5
22e
100
AcDbEntity
  8
pot_board
 62
7
100
AcDbLine
 10
131.487453
 20
99.581134
 30
0.0
 11
131.741453
 21
99.478610
 31
0.0
  0
LINE
  5
22f
100
AcDbEntity
  8
pot_board
 62
7
100
AcDbLine
 10
131.741453
 20
99.478610
 30
0.0
 11
131.995453
 21
99.376082
 31
0.0
  0
LINE
  5
230
100
AcDbEntity
  8
pot_board
 62
7
100
AcDbLine
 10
131.995453
 20
99.376082
 30
0.0
 11
132.281203
 21
99.375376
 31
0.0
  0
LINE
  5
231
100
AcDbEntity
  8
pot_board
 62
7
100
AcDbLine
 10
132.281203
 20
99.375376
 30
0.0
 11
132.566953
 21
99.374671
 31
0.0
  0
LINE
  5
232
100
AcDbEntity
  8
pot_board
 62
7
100
AcDbLine
 10
132.566953
 20
99.374671
 30
0.0
 11
132.815662
 21
99.478035
 31
0.0
  0
LINE
  5
233
100
AcDbEntity
  8
pot_board
 62
7
100
AcDbLine
 10
132.815662
 20
99.478035
 30
0.0
 11
132.815351
 21
99.477742
 31
0.0
  0
SPLINE
  5
234
100
AcDbEntity
  8
pot_board
 62
7
100
AcDbSpline
 70
8
 71
3
 72
8
 73
4
 74
0
 40
0
 40
0
 40
0
 40
0
 40
1
 40
1
 40
1
 40
1
 10
132.045107
 20
99.660851
 30
0.0
 10
131.614206
 20
99.754055
 30
0.0
 10
131.291355
 20
100.063526
 30
0.0
 10
131.172987
 20
100.496829
 30
0.0
  0
SPLINE
  5
235
100
AcDbEntity
  8
pot_board
 62
7
100
AcDbSpline
 70
8
 71
3
 72
8
 73
4
 74
0
 40
0
 40
0
 40
0
 40
0
 40
1
 40
1
 40
1
 40
1
 10
131.172987
 20
100.496829
 30
0.0
 10
131.151397
 20
100.575893
 30
0.0
 10
131.148575
 20
100.609192
 30
0.0
 10
131.149280
 20
100.777054
 30
0.0
  0
SPLINE
  5
236
100
AcDbEntity
  8
pot_board
 62
7
100
AcDbSpline
 70
8
 71
3
 72
8
 73
4
 74
0
 40
0
 40
0
 40
0
 40
0
 40
1
 40
1
 40
1
 40
1
 10
131.149280
 20
100.777054
 30
0.0
 10
131.149986
 20
100.936545
 30
0.0
 10
131.153725
 20
100.980776
 30
0.0
 10
131.172458
 20
101.048785
 30
0.0
  0
SPLINE
  5
237
100
AcDbEntity
  8
pot_board
 62
7
100
AcDbSpline
 70
8
 71
3
 72
8
 73
4
 74
0
 40
0
 40
0
 40
0
 40
0
 40
1
 40
1
 40
1
 40
1
 10
131.172458
 20
101.048785
 30
0.0
 10
131.224941
 20
101.239422
 30
0.0
 10
131.317136
 20
101.406593
 30
0.0
 10
131.444404
 20
101.541876
 30
0.0
  0
SPLINE
  5
238
100
AcDbEntity
  8
pot_board
 62
7
100
AcDbSpline
 70
8
 71
3
 72
8
 73
4
 74
0
 40
0
 40
0
 40
0
 40
0
 40
1
 40
1
 40
1
 40
1
 10
131.444404
 20
101.541876
 30
0.0
 10
131.575831
 20
101.681587
 30
0.0
 10
131.723631
 20
101.780615
 30
0.0
 10
131.886625
 20
101.838181
 30
0.0
  0
LINE
  5
239
100
AcDbEntity
  8
pot_board
 62
7
100
AcDbLine
 10
131.886625
 20
101.838181
 30
0.0
 11
131.968617
 21
101.867144
 31
0.0
  0
LINE
  5
23a
100
AcDbEntity
  8
pot_board
 62
7
100
AcDbLine
 10
131.968617
 20
101.867144
 30
0.0
 11
131.968649
 21
110.689323
 31
0.0
  0
LINE
  5
23b
100
AcDbEntity
  8
pot_board
 62
7
100
AcDbLine
 10
131.968649
 20
110.689323
 30
0.0
 11
131.968681
 21
119.511501
 31
0.0
  0
LINE
  5
23c
100
AcDbEntity
  8
pot_board
 62
7
100
AcDbLine
 10
131.968681
 20
119.511501
 30
0.0
 11
131.923702
 21
119.524519
 31
0.0
  0
SPLINE
  5
23d
100
AcDbEntity
  8
pot_board
 62
7
100
AcDbSpline
 70
8
 71
3
 72
8
 73
4
 74
0
 40
0
 40
0
 40
0
 40
0
 40
1
 40
1
 40
1
 40
1
 10
131.923702
 20
119.524519
 30
0.0
 10
131.842877
 20
119.547908
 30
0.0
 10
131.688141
 20
119.628761
 30
0.0
 10
131.602649
 20
119.692275
 30
0.0
  0
SPLINE
  5
23e
100
AcDbEntity
  8
pot_board
 62
7
100
AcDbSpline
 70
8
 71
3
 72
8
 73
4
 74
0
 40
0
 40
0
 40
0
 40
0
 40
1
 40
1
 40
1
 40
1
 10
131.602649
 20
119.692275
 30
0.0
 10
131.390796
 20
119.849667
 30
0.0
 10
131.244862
 20
120.066308
 30
0.0
 10
131.173065
 20
120.330002
 30
0.0
  0
SPLINE
  5
23f
100
AcDbEntity
  8
pot_board
 62
7
100
AcDbSpline
 70
8
 71
3
 72
8
 73
4
 74
0
 40
0
 40
0
 40
0
 40
0
 40
1
 40
1
 40
1
 40
1
 10
131.173065
 20
120.330002
 30
0.0
 10
131.151898
 20
120.407751
 30
0.0
 10
131.148617
 20
120.444450
 30
0.0
 10
131.148617
 20
120.604936
 30
0.0
  0
SPLINE
  5
240
100
AcDbEntity
  8
pot_board
 62
7
100
AcDbSpline
 70
8
 71
3
 72
8
 73
4
 74
0
 40
0
 40
0
 40
0
 40
0
 40
1
 40
1
 40
1
 40
1
 10
131.148617
 20
120.604936
 30
0.0
 10
131.148617
 20
120.765422
 30
0.0
 10
131.151792
 20
120.802121
 30
0.0
 10
131.173065
 20
120.879870
 30
0.0
  0
SPLINE
  5
241
100
AcDbEntity
  8
pot_board
 62
7
100
AcDbSpline
 70
8
 71
3
 72
8
 73
4
 74
0
 40
0
 40
0
 40
0
 40
0
 40
1
 40
1
 40
1
 40
1
 10
131.173065
 20
120.879870
 30
0.0
 10
131.284274
 20
121.288313
 30
0.0
 10
131.587028
 20
121.594936
 30
0.0
 10
131.985314
 20
121.702488
 30
0.0
  0
SPLINE
  5
242
100
AcDbEntity
  8
pot_board
 62
7
100
AcDbSpline
 70
8
 71
3
 72
8
 73
4
 74
0
 40
0
 40
0
 40
0
 40
0
 40
1
 40
1
 40
1
 40
1
 10
131.985314
 20
121.702488
 30
0.0
 10
132.080462
 20
121.728170
 30
0.0
 10
132.107891
 20
121.730851
 30
0.0
 10
132.275598
 20
121.730851
 30
0.0
  0
SPLINE
  5
243
100
AcDbEntity
  8
pot_board
 62
7
100
AcDbSpline
 70
8
 71
3
 72
8
 73
4
 74
0
 40
0
 40
0
 40
0
 40
0
 40
1
 40
1
 40
1
 40
1
 10
132.275598
 20
121.730851
 30
0.0
 10
132.442253
 20
121.730851
 30
0.0
 10
132.471072
 20
121.728029
 30
0.0
 10
132.563291
 20
121.703123
 30
0.0
  0
SPLINE
  5
244
100
AcDbEntity
  8
pot_board
 62
7
100
AcDbSpline
 70
8
 71
3
 72
8
 73
4
 74
0
 40
0
 40
0
 40
0
 40
0
 40
1
 40
1
 40
1
 40
1
 10
132.563291
 20
121.703123
 30
0.0
 10
132.884125
 20
121.616350
 30
0.0
 10
133.153633
 20
121.393581
 30
0.0
 10
133.296544
 20
121.097036
 30
0.0
  0
SPLINE
  5
245
100
AcDbEntity
  8
pot_board
 62
7
100
AcDbSpline
 70
8
 71
3
 72
8
 73
4
 74
0
 40
0
 40
0
 40
0
 40
0
 40
1
 40
1
 40
1
 40
1
 10
133.296544
 20
121.097036
 30
0.0
 10
133.541008
 20
120.589763
 30
0.0
 10
133.371526
 20
119.971164
 30
0.0
 10
132.902688
 20
119.659481
 30
0.0
  0
SPLINE
  5
246
100
AcDbEntity
  8
pot_board
 62
7
100
AcDbSpline
 70
8
 71
3
 72
8
 73
4
 74
0
 40
0
 40
0
 40
0
 40
0
 40
1
 40
1
 40
1
 40
1
 10
132.902688
 20
119.659481
 30
0.0
 10
132.824421
 20
119.607446
 30
0.0
 10
132.699531
 20
119.546536
 30
0.0
 10
132.625860
 20
119.524463
 30
0.0
  0
LINE
  5
247
100
AcDbEntity
  8
pot_board
 62
7
100
AcDbLine
 10
132.625860
 20
119.524463
 30
0.0
 11
132.582507
 21
119.511480
 31
0.0
  0
LINE
  5
248
100
AcDbEntity
  8
pot_board
 62
7
100
AcDbLine
 10
132.582507
 20
119.511480
 30
0.0
 11
132.582507
 21
110.688332
 31
0.0
  0
LINE
  5
249
100
AcDbEntity
  8
pot_board
 62
7
100
AcDbLine
 10
132.582507
 20
110.688332
 30
0.0
 11
132.582507
 21
101.865183
 31
0.0
  0
LINE
  5
24a
100
AcDbEntity
  8
pot_board
 62
7
100
AcDbLine
 10
132.582507
 20
101.865183
 30
0.0
 11
132.627486
 21
101.851883
 31
0.0
  0
SPLINE
  5
24b
100
AcDbEntity
  8
pot_board
 62
7
100
AcDbSpline
 70
8
 71
3
 72
8
 73
4
 74
0
 40
0
 40
0
 40
0
 40
0
 40
1
 40
1
 40
1
 40
1
 10
132.627486
 20
101.851883
 30
0.0
 10
132.710576
 20
101.827330
 30
0.0
 10
132.863745
 20
101.747394
 30
0.0
 10
132.948370
 20
101.684409
 30
0.0
  0
SPLINE
  5
24c
100
AcDbEntity
  8
pot_board
 62
7
100
AcDbSpline
 70
8
 71
3
 72
8
 73
4
 74
0
 40
0
 40
0
 40
0
 40
0
 40
1
 40
1
 40
1
 40
1
 10
132.948370
 20
101.684409
 30
0.0
 10
133.353863
 20
101.382611
 30
0.0
 10
133.510532
 20
100.862536
 30
0.0
 10
133.339826
 20
100.384920
 30
0.0
  0
SPLINE
  5
24d
100
AcDbEntity
  8
pot_board
 62
7
100
AcDbSpline
 70
8
 71
3
 72
8
 73
4
 74
0
 40
0
 40
0
 40
0
 40
0
 40
1
 40
1
 40
1
 40
1
 10
133.339826
 20
100.384920
 30
0.0
 10
133.213923
 20
100.032658
 30
0.0
 10
132.914616
 20
99.762624
 30
0.0
 10
132.546898
 20
99.669544
 30
0.0
  0
SPLINE
  5
24e
100
AcDbEntity
  8
pot_board
 62
7
100
AcDbSpline
 70
8
 71
3
 72
8
 73
4
 74
0
 40
0
 40
0
 40
0
 40
0
 40
1
 40
1
 40
1
 40
1
 10
132.546898
 20
99.669544
 30
0.0
 10
132.417383
 20
99.636771
 30
0.0
 10
132.175769
 20
99.632562
 30
0.0
 10
132.045096
 20
99.660830
 30
0.0
  0
LINE
  5
24f
100
AcDbEntity
  8
pot_board
 62
7
100
AcDbLine
 10
132.045096
 20
99.660830
 30
0.0
 11
132.045107
 21
99.660851
 31
0.0
  0
SPLINE
  5
250
100
AcDbEntity
  8
pot_board
 62
7
100
AcDbSpline
 70
8
 71
3
 72
8
 73
4
 74
0
 40
0
 40
0
 40
0
 40
0
 40
1
 40
1
 40
1
 40
1
 10
132.396939
 20
100.290570
 30
0.0
 10
132.644480
 20
100.355044
 30
0.0
 10
132.806126
 20
100.600457
 30
0.0
 10
132.764428
 20
100.848492
 30
0.0
  0
SPLINE
  5
251
100
AcDbEntity
  8
pot_board
 62
7
100
AcDbSpline
 70
8
 71
3
 72
8
 73
4
 74
0
 40
0
 40
0
 40
0
 40
0
 40
1
 40
1
 40
1
 40
1
 10
132.764428
 20
100.848492
 30
0.0
 10
132.715808
 20
101.137692
 30
0.0
 10
132.433346
 20
101.325648
 30
0.0
 10
132.155939
 20
101.253392
 30
0.0
  0
SPLINE
  5
252
100
AcDbEntity
  8
pot_board
 62
7
100
AcDbSpline
 70
8
 71
3
 72
8
 73
4
 74
0
 40
0
 40
0
 40
0
 40
0
 40
1
 40
1
 40
1
 40
1
 10
132.155939
 20
101.253392
 30
0.0
 10
132.063963
 20
101.229439
 30
0.0
 10
131.992010
 20
101.188365
 30
0.0
 10
131.925504
 20
101.121859
 30
0.0
  0
SPLINE
  5
253
100
AcDbEntity
  8
pot_board
 62
7
100
AcDbSpline
 70
8
 71
3
 72
8
 73
4
 74
0
 40
0
 40
0
 40
0
 40
0
 40
1
 40
1
 40
1
 40
1
 10
131.925504
 20
101.121859
 30
0.0
 10
131.730051
 20
100.926406
 30
0.0
 10
131.729801
 20
100.615545
 30
0.0
 10
131.924799
 20
100.423038
 30
0.0
  0
SPLINE
  5
254
100
AcDbEntity
  8
pot_board
 62
7
100
AcDbSpline
 70
8
 71
3
 72
8
 73
4
 74
0
 40
0
 40
0
 40
0
 40
0
 40
1
 40
1
 40
1
 40
1
 10
131.924799
 20
100.423038
 30
0.0
 10
132.054226
 20
100.295354
 30
0.0
 10
132.227966
 20
100.246593
 30
0.0
 10
132.396801
 20
100.290570
 30
0.0
  0
LINE
  5
255
100
AcDbEntity
  8
pot_board
 62
7
100
AcDbLine
 10
132.396801
 20
100.290570
 30
0.0
 11
132.396939
 21
100.290570
 31
0.0
  0
SPLINE
  5
256
100
AcDbEntity
  8
pot_board
 62
7
100
AcDbSpline
 70
8
 71
3
 72
8
 73
4
 74
0
 40
0
 40
0
 40
0
 40
0
 40
1
 40
1
 40
1
 40
1
 10
132.396939
 20
120.123737
 30
0.0
 10
132.644480
 20
120.188210
 30
0.0
 10
132.806126
 20
120.433624
 30
0.0
 10
132.764428
 20
120.681658
 30
0.0
  0
SPLINE
  5
257
100
AcDbEntity
  8
pot_board
 62
7
100
AcDbSpline
 70
8
 71
3
 72
8
 73
4
 74
0
 40
0
 40
0
 40
0
 40
0
 40
1
 40
1
 40
1
 40
1
 10
132.764428
 20
120.681658
 30
0.0
 10
132.731196
 20
120.879362
 30
0.0
 10
132.588716
 20
121.036172
 30
0.0
 10
132.396939
 20
121.086122
 30
0.0
  0
SPLINE
  5
258
100
AcDbEntity
  8
pot_board
 62
7
100
AcDbSpline
 70
8
 71
3
 72
8
 73
4
 74
0
 40
0
 40
0
 40
0
 40
0
 40
1
 40
1
 40
1
 40
1
 10
132.396939
 20
121.086122
 30
0.0
 10
132.228061
 20
121.130109
 30
0.0
 10
132.054395
 20
121.081359
 30
0.0
 10
131.924937
 20
120.953657
 30
0.0
  0
SPLINE
  5
259
100
AcDbEntity
  8
pot_board
 62
7
100
AcDbSpline
 70
8
 71
3
 72
8
 73
4
 74
0
 40
0
 40
0
 40
0
 40
0
 40
1
 40
1
 40
1
 40
1
 10
131.924937
 20
120.953657
 30
0.0
 10
131.730108
 20
120.761450
 30
0.0
 10
131.730108
 20
120.448409
 30
0.0
 10
131.924937
 20
120.256205
 30
0.0
  0
SPLINE
  5
25a
100
AcDbEntity
  8
pot_board
 62
7
100
AcDbSpline
 70
8
 71
3
 72
8
 73
4
 74
0
 40
0
 40
0
 40
0
 40
0
 40
1
 40
1
 40
1
 40
1
 10
131.924937
 20
120.256205
 30
0.0
 10
132.054364
 20
120.128520
 30
0.0
 10
132.228103
 20
120.079759
 30
0.0
 10
132.396939
 20
120.123737
 30
0.0
  0
LINE
  5
25b
100
AcDbEntity
  8
pot_board
 62
7
100
AcDbLine
 10
132.396939
 20
120.123737
 30
0.0
 11
132.396939
 21
120.123737
 31
0.0
  0
SPLINE
  5
25c
100
AcDbEntity
  8
pot_board
 62
7
100
AcDbSpline
 70
8
 71
3
 72
8
 73
4
 74
0
 40
0
 40
0
 40
0
 40
0
 40
1
 40
1
 40
1
 40
1
 10
134.585107
 20
99.660851
 30
0.0
 10
134.156203
 20
99.753621
 30
0.0
 10
133.825230
 20
100.070246
 30
0.0
 10
133.713439
 20
100.494740
 30
0.0
  0
SPLINE
  5
25d
100
AcDbEntity
  8
pot_board
 62
7
100
AcDbSpline
 70
8
 71
3
 72
8
 73
4
 74
0
 40
0
 40
0
 40
0
 40
0
 40
1
 40
1
 40
1
 40
1
 10
133.713439
 20
100.494740
 30
0.0
 10
133.685746
 20
100.599843
 30
0.0
 10
133.675684
 20
100.821261
 30
0.0
 10
133.693083
 20
100.942204
 30
0.0
  0
SPLINE
  5
25e
100
AcDbEntity
  8
pot_board
 62
7
100
AcDbSpline
 70
8
 71
3
 72
8
 73
4
 74
0
 40
0
 40
0
 40
0
 40
0
 40
1
 40
1
 40
1
 40
1
 10
133.693083
 20
100.942204
 30
0.0
 10
133.725433
 20
101.167198
 30
0.0
 10
133.829735
 20
101.379362
 30
0.0
 10
133.991872
 20
101.550050
 30
0.0
  0
SPLINE
  5
25f
100
AcDbEntity
  8
pot_board
 62
7
100
AcDbSpline
 70
8
 71
3
 72
8
 73
4
 74
0
 40
0
 40
0
 40
0
 40
0
 40
1
 40
1
 40
1
 40
1
 10
133.991872
 20
101.550050
 30
0.0
 10
134.118301
 20
101.683146
 30
0.0
 10
134.267356
 20
101.781928
 30
0.0
 10
134.426639
 20
101.838181
 30
0.0
  0
LINE
  5
260
100
AcDbEntity
  8
pot_board
 62
7
100
AcDbLine
 10
134.426639
 20
101.838181
 30
0.0
 11
134.508632
 21
101.867145
 31
0.0
  0
LINE
  5
261
100
AcDbEntity
  8
pot_board
 62
7
100
AcDbLine
 10
134.508632
 20
101.867145
 30
0.0
 11
134.508632
 21
111.958353
 31
0.0
  0
LINE
  5
262
100
AcDbEntity
  8
pot_board
 62
7
100
AcDbLine
 10
134.508632
 20
111.958353
 30
0.0
 11
134.508632
 21
122.049561
 31
0.0
  0
LINE
  5
263
100
AcDbEntity
  8
pot_board
 62
7
100
AcDbLine
 10
134.508632
 20
122.049561
 30
0.0
 11
134.426639
 21
122.078524
 31
0.0
  0
SPLINE
  5
264
100
AcDbEntity
  8
pot_board
 62
7
100
AcDbSpline
 70
8
 71
3
 72
8
 73
4
 74
0
 40
0
 40
0
 40
0
 40
0
 40
1
 40
1
 40
1
 40
1
 10
134.426639
 20
122.078524
 30
0.0
 10
134.084385
 20
122.199396
 30
0.0
 10
133.814788
 20
122.497353
 30
0.0
 10
133.712387
 20
122.867921
 30
0.0
  0
SPLINE
  5
265
100
AcDbEntity
  8
pot_board
 62
7
100
AcDbSpline
 70
8
 71
3
 72
8
 73
4
 74
0
 40
0
 40
0
 40
0
 40
0
 40
1
 40
1
 40
1
 40
1
 10
133.712387
 20
122.867921
 30
0.0
 10
133.693232
 20
122.937175
 30
0.0
 10
133.689951
 20
122.978016
 30
0.0
 10
133.689951
 20
123.144943
 30
0.0
  0
SPLINE
  5
266
100
AcDbEntity
  8
pot_board
 62
7
100
AcDbSpline
 70
8
 71
3
 72
8
 73
4
 74
0
 40
0
 40
0
 40
0
 40
0
 40
1
 40
1
 40
1
 40
1
 10
133.689951
 20
123.144943
 30
0.0
 10
133.689951
 20
123.311871
 30
0.0
 10
133.693126
 20
123.352712
 30
0.0
 10
133.712387
 20
123.421966
 30
0.0
  0
SPLINE
  5
267
100
AcDbEntity
  8
pot_board
 62
7
100
AcDbSpline
 70
8
 71
3
 72
8
 73
4
 74
0
 40
0
 40
0
 40
0
 40
0
 40
1
 40
1
 40
1
 40
1
 10
133.712387
 20
123.421966
 30
0.0
 10
133.771760
 20
123.636825
 30
0.0
 10
133.862812
 20
123.792326
 30
0.0
 10
134.021142
 20
123.949277
 30
0.0
  0
SPLINE
  5
268
100
AcDbEntity
  8
pot_board
 62
7
100
AcDbSpline
 70
8
 71
3
 72
8
 73
4
 74
0
 40
0
 40
0
 40
0
 40
0
 40
1
 40
1
 40
1
 40
1
 10
134.021142
 20
123.949277
 30
0.0
 10
134.191975
 20
124.118620
 30
0.0
 10
134.358800
 20
124.208096
 30
0.0
 10
134.594173
 20
124.256624
 30
0.0
  0
SPLINE
  5
269
100
AcDbEntity
  8
pot_board
 62
7
100
AcDbSpline
 70
8
 71
3
 72
8
 73
4
 74
0
 40
0
 40
0
 40
0
 40
0
 40
1
 40
1
 40
1
 40
1
 10
134.594173
 20
124.256624
 30
0.0
 10
134.734138
 20
124.285481
 30
0.0
 10
134.951290
 20
124.281248
 30
0.0
 10
135.086912
 20
124.247063
 30
0.0
  0
SPLINE
  5
26a
100
AcDbEntity
  8
pot_board
 62
7
100
AcDbSpline
 70
8
 71
3
 72
8
 73
4
 74
0
 40
0
 40
0
 40
0
 40
0
 40
1
 40
1
 40
1
 40
1
 10
135.086912
 20
124.247063
 30
0.0
 10
135.454210
 20
124.154427
 30
0.0
 10
135.753927
 20
123.884051
 30
0.0
 10
135.879840
 20
123.531764
 30
0.0
  0
SPLINE
  5
26b
100
AcDbEntity
  8
pot_board
 62
7
100
AcDbSpline
 70
8
 71
3
 72
8
 73
4
 74
0
 40
0
 40
0
 40
0
 40
0
 40
1
 40
1
 40
1
 40
1
 10
135.879840
 20
123.531764
 30
0.0
 10
136.057912
 20
123.033543
 30
0.0
 10
135.876665
 20
122.488120
 30
0.0
 10
135.436039
 20
122.195093
 30
0.0
  0
SPLINE
  5
26c
100
AcDbEntity
  8
pot_board
 62
7
100
AcDbSpline
 70
8
 71
3
 72
8
 73
4
 74
0
 40
0
 40
0
 40
0
 40
0
 40
1
 40
1
 40
1
 40
1
 10
135.436039
 20
122.195093
 30
0.0
 10
135.366679
 20
122.148981
 30
0.0
 10
135.209086
 20
122.074294
 30
0.0
 10
135.149692
 20
122.059390
 30
0.0
  0
LINE
  5
26d
100
AcDbEntity
  8
pot_board
 62
7
100
AcDbLine
 10
135.149692
 20
122.059390
 30
0.0
 11
135.122528
 21
122.052581
 31
0.0
  0
LINE
  5
26e
100
AcDbEntity
  8
pot_board
 62
7
100
AcDbLine
 10
135.122528
 20
122.052581
 30
0.0
 11
135.122528
 21
111.958903
 31
0.0
  0
LINE
  5
26f
100
AcDbEntity
  8
pot_board
 62
7
100
AcDbLine
 10
135.122528
 20
111.958903
 30
0.0
 11
135.122528
 21
101.865225
 31
0.0
  0
LINE
  5
270
100
AcDbEntity
  8
pot_board
 62
7
100
AcDbLine
 10
135.122528
 20
101.865225
 30
0.0
 11
135.165871
 21
101.852243
 31
0.0
  0
SPLINE
  5
271
100
AcDbEntity
  8
pot_board
 62
7
100
AcDbSpline
 70
8
 71
3
 72
8
 73
4
 74
0
 40
0
 40
0
 40
0
 40
0
 40
1
 40
1
 40
1
 40
1
 10
135.165871
 20
101.852243
 30
0.0
 10
135.189718
 20
101.845117
 30
0.0
 10
135.244932
 20
101.822998
 30
0.0
 10
135.288588
 20
101.803084
 30
0.0
  0
SPLINE
  5
272
100
AcDbEntity
  8
pot_board
 62
7
100
AcDbSpline
 70
8
 71
3
 72
8
 73
4
 74
0
 40
0
 40
0
 40
0
 40
0
 40
1
 40
1
 40
1
 40
1
 10
135.288588
 20
101.803084
 30
0.0
 10
135.569731
 20
101.674962
 30
0.0
 10
135.791092
 20
101.427301
 30
0.0
 10
135.888730
 20
101.131628
 30
0.0
  0
SPLINE
  5
273
100
AcDbEntity
  8
pot_board
 62
7
100
AcDbSpline
 70
8
 71
3
 72
8
 73
4
 74
0
 40
0
 40
0
 40
0
 40
0
 40
1
 40
1
 40
1
 40
1
 10
135.888730
 20
101.131628
 30
0.0
 10
135.937364
 20
100.984350
 30
0.0
 10
135.952389
 20
100.872893
 30
0.0
 10
135.944956
 20
100.714531
 30
0.0
  0
SPLINE
  5
274
100
AcDbEntity
  8
pot_board
 62
7
100
AcDbSpline
 70
8
 71
3
 72
8
 73
4
 74
0
 40
0
 40
0
 40
0
 40
0
 40
1
 40
1
 40
1
 40
1
 10
135.944956
 20
100.714531
 30
0.0
 10
135.931480
 20
100.427127
 30
0.0
 10
135.816643
 20
100.170283
 30
0.0
 10
135.610847
 20
99.967172
 30
0.0
  0
SPLINE
  5
275
100
AcDbEntity
  8
pot_board
 62
7
100
AcDbSpline
 70
8
 71
3
 72
8
 73
4
 74
0
 40
0
 40
0
 40
0
 40
0
 40
1
 40
1
 40
1
 40
1
 10
135.610847
 20
99.967172
 30
0.0
 10
135.460430
 20
99.818719
 30
0.0
 10
135.287089
 20
99.720269
 30
0.0
 10
135.086919
 20
99.669600
 30
0.0
  0
SPLINE
  5
276
100
AcDbEntity
  8
pot_board
 62
7
100
AcDbSpline
 70
8
 71
3
 72
8
 73
4
 74
0
 40
0
 40
0
 40
0
 40
0
 40
1
 40
1
 40
1
 40
1
 10
135.086919
 20
99.669600
 30
0.0
 10
134.957404
 20
99.636827
 30
0.0
 10
134.715790
 20
99.632618
 30
0.0
 10
134.585117
 20
99.660886
 30
0.0
  0
LINE
  5
277
100
AcDbEntity
  8
pot_board
 62
7
100
AcDbLine
 10
134.585117
 20
99.660886
 30
0.0
 11
134.585107
 21
99.660851
 31
0.0
  0
SPLINE
  5
278
100
AcDbEntity
  8
pot_board
 62
7
100
AcDbSpline
 70
8
 71
3
 72
8
 73
4
 74
0
 40
0
 40
0
 40
0
 40
0
 40
1
 40
1
 40
1
 40
1
 10
134.936939
 20
100.290570
 30
0.0
 10
135.184480
 20
100.355044
 30
0.0
 10
135.346126
 20
100.600457
 30
0.0
 10
135.304428
 20
100.848492
 30
0.0
  0
SPLINE
  5
279
100
AcDbEntity
  8
pot_board
 62
7
100
AcDbSpline
 70
8
 71
3
 72
8
 73
4
 74
0
 40
0
 40
0
 40
0
 40
0
 40
1
 40
1
 40
1
 40
1
 10
135.304428
 20
100.848492
 30
0.0
 10
135.255808
 20
101.137692
 30
0.0
 10
134.973346
 20
101.325648
 30
0.0
 10
134.695939
 20
101.253392
 30
0.0
  0
SPLINE
  5
27a
100
AcDbEntity
  8
pot_board
 62
7
100
AcDbSpline
 70
8
 71
3
 72
8
 73
4
 74
0
 40
0
 40
0
 40
0
 40
0
 40
1
 40
1
 40
1
 40
1
 10
134.695939
 20
101.253392
 30
0.0
 10
134.603963
 20
101.229439
 30
0.0
 10
134.532010
 20
101.188365
 30
0.0
 10
134.465504
 20
101.121859
 30
0.0
  0
SPLINE
  5
27b
100
AcDbEntity
  8
pot_board
 62
7
100
AcDbSpline
 70
8
 71
3
 72
8
 73
4
 74
0
 40
0
 40
0
 40
0
 40
0
 40
1
 40
1
 40
1
 40
1
 10
134.465504
 20
101.121859
 30
0.0
 10
134.270051
 20
100.926406
 30
0.0
 10
134.269801
 20
100.615545
 30
0.0
 10
134.464799
 20
100.423038
 30
0.0
  0
SPLINE
  5
27c
100
AcDbEntity
  8
pot_board
 62
7
100
AcDbSpline
 70
8
 71
3
 72
8
 73
4
 74
0
 40
0
 40
0
 40
0
 40
0
 40
1
 40
1
 40
1
 40
1
 10
134.464799
 20
100.423038
 30
0.0
 10
134.594226
 20
100.295354
 30
0.0
 10
134.767966
 20
100.246593
 30
0.0
 10
134.936801
 20
100.290570
 30
0.0
  0
LINE
  5
27d
100
AcDbEntity
  8
pot_board
 62
7
100
AcDbLine
 10
134.936801
 20
100.290570
 30
0.0
 11
134.936939
 21
100.290570
 31
0.0
  0
SPLINE
  5
27e
100
AcDbEntity
  8
pot_board
 62
7
100
AcDbSpline
 70
8
 71
3
 72
8
 73
4
 74
0
 40
0
 40
0
 40
0
 40
0
 40
1
 40
1
 40
1
 40
1
 10
134.936939
 20
122.663737
 30
0.0
 10
135.184480
 20
122.728210
 30
0.0
 10
135.346126
 20
122.973624
 30
0.0
 10
135.304428
 20
123.221658
 30
0.0
  0
SPLINE
  5
27f
100
AcDbEntity
  8
pot_board
 62
7
100
AcDbSpline
 70
8
 71
3
 72
8
 73
4
 74
0
 40
0
 40
0
 40
0
 40
0
 40
1
 40
1
 40
1
 40
1
 10
135.304428
 20
123.221658
 30
0.0
 10
135.255667
 20
123.511712
 30
0.0
 10
134.973392
 20
123.698826
 30
0.0
 10
134.694263
 20
123.626122
 30
0.0
  0
SPLINE
  5
280
100
AcDbEntity
  8
pot_board
 62
7
100
AcDbSpline
 70
8
 71
3
 72
8
 73
4
 74
0
 40
0
 40
0
 40
0
 40
0
 40
1
 40
1
 40
1
 40
1
 10
134.694263
 20
123.626122
 30
0.0
 10
134.605670
 20
123.603050
 30
0.0
 10
134.533654
 20
123.561447
 30
0.0
 10
134.464937
 20
123.493657
 30
0.0
  0
SPLINE
  5
281
100
AcDbEntity
  8
pot_board
 62
7
100
AcDbSpline
 70
8
 71
3
 72
8
 73
4
 74
0
 40
0
 40
0
 40
0
 40
0
 40
1
 40
1
 40
1
 40
1
 10
134.464937
 20
123.493657
 30
0.0
 10
134.269801
 20
123.301146
 30
0.0
 10
134.270051
 20
122.990285
 30
0.0
 10
134.465642
 20
122.794832
 30
0.0
  0
SPLINE
  5
282
100
AcDbEntity
  8
pot_board
 62
7
100
AcDbSpline
 70
8
 71
3
 72
8
 73
4
 74
0
 40
0
 40
0
 40
0
 40
0
 40
1
 40
1
 40
1
 40
1
 10
134.465642
 20
122.794832
 30
0.0
 10
134.591069
 20
122.669406
 30
0.0
 10
134.768943
 20
122.619943
 30
0.0
 10
134.937077
 20
122.663737
 30
0.0
  0
LINE
  5
283
100
AcDbEntity
  8
pot_board
 62
7
100
AcDbLine
 10
134.937077
 20
122.663737
 30
0.0
 11
134.936939
 21
122.663737
 31
0.0
  0
SPLINE
  5
284
100
AcDbEntity
  8
pot_board
 62
7
100
AcDbSpline
 70
8
 71
3
 72
8
 73
4
 74
0
 40
0
 40
0
 40
0
 40
0
 40
1
 40
1
 40
1
 40
1
 10
137.123911
 20
99.661091
 30
0.0
 10
136.917381
 20
99.705728
 30
0.0
 10
136.736635
 20
99.799313
 30
0.0
 10
136.587537
 20
99.938812
 30
0.0
  0
SPLINE
  5
285
100
AcDbEntity
  8
pot_board
 62
7
100
AcDbSpline
 70
8
 71
3
 72
8
 73
4
 74
0
 40
0
 40
0
 40
0
 40
0
 40
1
 40
1
 40
1
 40
1
 10
136.587537
 20
99.938812
 30
0.0
 10
136.344166
 20
100.166512
 30
0.0
 10
136.223185
 20
100.443090
 30
0.0
 10
136.223185
 20
100.771762
 30
0.0
  0
SPLINE
  5
286
100
AcDbEntity
  8
pot_board
 62
7
100
AcDbSpline
 70
8
 71
3
 72
8
 73
4
 74
0
 40
0
 40
0
 40
0
 40
0
 40
1
 40
1
 40
1
 40
1
 10
136.223185
 20
100.771762
 30
0.0
 10
136.223185
 20
100.961381
 30
0.0
 10
136.260261
 20
101.121192
 30
0.0
 10
136.342275
 20
101.285054
 30
0.0
  0
SPLINE
  5
287
100
AcDbEntity
  8
pot_board
 62
7
100
AcDbSpline
 70
8
 71
3
 72
8
 73
4
 74
0
 40
0
 40
0
 40
0
 40
0
 40
1
 40
1
 40
1
 40
1
 10
136.342275
 20
101.285054
 30
0.0
 10
136.470408
 20
101.541061
 30
0.0
 10
136.742939
 20
101.774607
 30
0.0
 10
137.003705
 20
101.851869
 30
0.0
  0
LINE
  5
288
100
AcDbEntity
  8
pot_board
 62
7
100
AcDbLine
 10
137.003705
 20
101.851869
 30
0.0
 11
137.048684
 21
101.865204
 31
0.0
  0
LINE
  5
289
100
AcDbEntity
  8
pot_board
 62
7
100
AcDbLine
 10
137.048684
 20
101.865204
 30
0.0
 11
137.048684
 21
110.687383
 31
0.0
  0
LINE
  5
28a
100
AcDbEntity
  8
pot_board
 62
7
100
AcDbLine
 10
137.048684
 20
110.687383
 30
0.0
 11
137.048684
 21
119.509561
 31
0.0
  0
LINE
  5
28b
100
AcDbEntity
  8
pot_board
 62
7
100
AcDbLine
 10
137.048684
 20
119.509561
 30
0.0
 11
136.966692
 21
119.538524
 31
0.0
  0
SPLINE
  5
28c
100
AcDbEntity
  8
pot_board
 62
7
100
AcDbSpline
 70
8
 71
3
 72
8
 73
4
 74
0
 40
0
 40
0
 40
0
 40
0
 40
1
 40
1
 40
1
 40
1
 10
136.966692
 20
119.538524
 30
0.0
 10
136.707855
 20
119.629915
 30
0.0
 10
136.467053
 20
119.843278
 30
0.0
 10
136.342370
 20
120.091652
 30
0.0
  0
SPLINE
  5
28d
100
AcDbEntity
  8
pot_board
 62
7
100
AcDbSpline
 70
8
 71
3
 72
8
 73
4
 74
0
 40
0
 40
0
 40
0
 40
0
 40
1
 40
1
 40
1
 40
1
 10
136.342370
 20
120.091652
 30
0.0
 10
136.260388
 20
120.254970
 30
0.0
 10
136.223185
 20
120.415188
 30
0.0
 10
136.223185
 20
120.604943
 30
0.0
  0
SPLINE
  5
28e
100
AcDbEntity
  8
pot_board
 62
7
100
AcDbSpline
 70
8
 71
3
 72
8
 73
4
 74
0
 40
0
 40
0
 40
0
 40
0
 40
1
 40
1
 40
1
 40
1
 10
136.223185
 20
120.604943
 30
0.0
 10
136.223185
 20
120.933619
 30
0.0
 10
136.344166
 20
121.210193
 30
0.0
 10
136.587537
 20
121.437894
 30
0.0
  0
SPLINE
  5
28f
100
AcDbEntity
  8
pot_board
 62
7
100
AcDbSpline
 70
8
 71
3
 72
8
 73
4
 74
0
 40
0
 40
0
 40
0
 40
0
 40
1
 40
1
 40
1
 40
1
 10
136.587537
 20
121.437894
 30
0.0
 10
136.740452
 20
121.580963
 30
0.0
 10
136.919847
 20
121.672438
 30
0.0
 10
137.134170
 20
121.716624
 30
0.0
  0
SPLINE
  5
290
100
AcDbEntity
  8
pot_board
 62
7
100
AcDbSpline
 70
8
 71
3
 72
8
 73
4
 74
0
 40
0
 40
0
 40
0
 40
0
 40
1
 40
1
 40
1
 40
1
 10
137.134170
 20
121.716624
 30
0.0
 10
137.274134
 20
121.745481
 30
0.0
 10
137.491287
 20
121.741248
 30
0.0
 10
137.626908
 20
121.707063
 30
0.0
  0
SPLINE
  5
291
100
AcDbEntity
  8
pot_board
 62
7
100
AcDbSpline
 70
8
 71
3
 72
8
 73
4
 74
0
 40
0
 40
0
 40
0
 40
0
 40
1
 40
1
 40
1
 40
1
 10
137.626908
 20
121.707063
 30
0.0
 10
138.033965
 20
121.604398
 30
0.0
 10
138.342067
 20
121.295336
 30
0.0
 10
138.458353
 20
120.873026
 30
0.0
  0
SPLINE
  5
292
100
AcDbEntity
  8
pot_board
 62
7
100
AcDbSpline
 70
8
 71
3
 72
8
 73
4
 74
0
 40
0
 40
0
 40
0
 40
0
 40
1
 40
1
 40
1
 40
1
 10
138.458353
 20
120.873026
 30
0.0
 10
138.477685
 20
120.802777
 30
0.0
 10
138.481177
 20
120.761943
 30
0.0
 10
138.481177
 20
120.604947
 30
0.0
  0
SPLINE
  5
293
100
AcDbEntity
  8
pot_board
 62
7
100
AcDbSpline
 70
8
 71
3
 72
8
 73
4
 74
0
 40
0
 40
0
 40
0
 40
0
 40
1
 40
1
 40
1
 40
1
 10
138.481177
 20
120.604947
 30
0.0
 10
138.481177
 20
120.447950
 30
0.0
 10
138.477650
 20
120.407116
 30
0.0
 10
138.458353
 20
120.336871
 30
0.0
  0
SPLINE
  5
294
100
AcDbEntity
  8
pot_board
 62
7
100
AcDbSpline
 70
8
 71
3
 72
8
 73
4
 74
0
 40
0
 40
0
 40
0
 40
0
 40
1
 40
1
 40
1
 40
1
 10
138.458353
 20
120.336871
 30
0.0
 10
138.350928
 20
119.946745
 30
0.0
 10
138.084638
 20
119.656190
 30
0.0
 10
137.718080
 20
119.529151
 30
0.0
  0
LINE
  5
295
100
AcDbEntity
  8
pot_board
 62
7
100
AcDbLine
 10
137.718080
 20
119.529151
 30
0.0
 11
137.662518
 21
119.509889
 31
0.0
  0
LINE
  5
296
100
AcDbEntity
  8
pot_board
 62
7
100
AcDbLine
 10
137.662518
 20
119.509889
 30
0.0
 11
137.662518
 21
110.687549
 31
0.0
  0
LINE
  5
297
100
AcDbEntity
  8
pot_board
 62
7
100
AcDbLine
 10
137.662518
 20
110.687549
 30
0.0
 11
137.662518
 21
101.865208
 31
0.0
  0
LINE
  5
298
100
AcDbEntity
  8
pot_board
 62
7
100
AcDbLine
 10
137.662518
 20
101.865208
 30
0.0
 11
137.707497
 21
101.851908
 31
0.0
  0
SPLINE
  5
299
100
AcDbEntity
  8
pot_board
 62
7
100
AcDbSpline
 70
8
 71
3
 72
8
 73
4
 74
0
 40
0
 40
0
 40
0
 40
0
 40
1
 40
1
 40
1
 40
1
 10
137.707497
 20
101.851908
 30
0.0
 10
137.791941
 20
101.826967
 30
0.0
 10
137.945880
 20
101.746248
 30
0.0
 10
138.030186
 20
101.682719
 30
0.0
  0
SPLINE
  5
29a
100
AcDbEntity
  8
pot_board
 62
7
100
AcDbSpline
 70
8
 71
3
 72
8
 73
4
 74
0
 40
0
 40
0
 40
0
 40
0
 40
1
 40
1
 40
1
 40
1
 10
138.030186
 20
101.682719
 30
0.0
 10
138.243091
 20
101.522294
 30
0.0
 10
138.383426
 20
101.310941
 30
0.0
 10
138.459161
 20
101.036670
 30
0.0
  0
SPLINE
  5
29b
100
AcDbEntity
  8
pot_board
 62
7
100
AcDbSpline
 70
8
 71
3
 72
8
 73
4
 74
0
 40
0
 40
0
 40
0
 40
0
 40
1
 40
1
 40
1
 40
1
 10
138.459161
 20
101.036670
 30
0.0
 10
138.491651
 20
100.919033
 30
0.0
 10
138.491193
 20
100.622964
 30
0.0
 10
138.458455
 20
100.503683
 30
0.0
  0
SPLINE
  5
29c
100
AcDbEntity
  8
pot_board
 62
7
100
AcDbSpline
 70
8
 71
3
 72
8
 73
4
 74
0
 40
0
 40
0
 40
0
 40
0
 40
1
 40
1
 40
1
 40
1
 10
138.458455
 20
100.503683
 30
0.0
 10
138.399075
 20
100.288037
 30
0.0
 10
138.299049
 20
100.113564
 30
0.0
 10
138.150843
 20
99.967140
 30
0.0
  0
SPLINE
  5
29d
100
AcDbEntity
  8
pot_board
 62
7
100
AcDbSpline
 70
8
 71
3
 72
8
 73
4
 74
0
 40
0
 40
0
 40
0
 40
0
 40
1
 40
1
 40
1
 40
1
 10
138.150843
 20
99.967140
 30
0.0
 10
138.000662
 20
99.818765
 30
0.0
 10
137.827251
 20
99.720255
 30
0.0
 10
137.627011
 20
99.669568
 30
0.0
  0
SPLINE
  5
29e
100
AcDbEntity
  8
pot_board
 62
7
100
AcDbSpline
 70
8
 71
3
 72
8
 73
4
 74
0
 40
0
 40
0
 40
0
 40
0
 40
1
 40
1
 40
1
 40
1
 10
137.627011
 20
99.669568
 30
0.0
 10
137.496935
 20
99.636654
 30
0.0
 10
137.255934
 20
99.632580
 30
0.0
 10
137.124017
 20
99.661102
 30
0.0
  0
LINE
  5
29f
100
AcDbEntity
  8
pot_board
 62
7
100
AcDbLine
 10
137.124017
 20
99.661102
 30
0.0
 11
137.123911
 21
99.661091
 31
0.0
  0
SPLINE
  5
2a0
100
AcDbEntity
  8
pot_board
 62
7
100
AcDbSpline
 70
8
 71
3
 72
8
 73
4
 74
0
 40
0
 40
0
 40
0
 40
0
 40
1
 40
1
 40
1
 40
1
 10
137.476939
 20
100.290570
 30
0.0
 10
137.723862
 20
100.354885
 30
0.0
 10
137.886020
 20
100.601074
 30
0.0
 10
137.844428
 20
100.848492
 30
0.0
  0
SPLINE
  5
2a1
100
AcDbEntity
  8
pot_board
 62
7
100
AcDbSpline
 70
8
 71
3
 72
8
 73
4
 74
0
 40
0
 40
0
 40
0
 40
0
 40
1
 40
1
 40
1
 40
1
 10
137.844428
 20
100.848492
 30
0.0
 10
137.795808
 20
101.137692
 30
0.0
 10
137.513346
 20
101.325648
 30
0.0
 10
137.235939
 20
101.253392
 30
0.0
  0
SPLINE
  5
2a2
100
AcDbEntity
  8
pot_board
 62
7
100
AcDbSpline
 70
8
 71
3
 72
8
 73
4
 74
0
 40
0
 40
0
 40
0
 40
0
 40
1
 40
1
 40
1
 40
1
 10
137.235939
 20
101.253392
 30
0.0
 10
137.143963
 20
101.229439
 30
0.0
 10
137.072010
 20
101.188365
 30
0.0
 10
137.005504
 20
101.121859
 30
0.0
  0
SPLINE
  5
2a3
100
AcDbEntity
  8
pot_board
 62
7
100
AcDbSpline
 70
8
 71
3
 72
8
 73
4
 74
0
 40
0
 40
0
 40
0
 40
0
 40
1
 40
1
 40
1
 40
1
 10
137.005504
 20
101.121859
 30
0.0
 10
136.734084
 20
100.850439
 30
0.0
 10
136.858957
 20
100.390964
 30
0.0
 10
137.231399
 20
100.290662
 30
0.0
  0
SPLINE
  5
2a4
100
AcDbEntity
  8
pot_board
 62
7
100
AcDbSpline
 70
8
 71
3
 72
8
 73
4
 74
0
 40
0
 40
0
 40
0
 40
0
 40
1
 40
1
 40
1
 40
1
 10
137.231399
 20
100.290662
 30
0.0
 10
137.305284
 20
100.270765
 30
0.0
 10
137.400764
 20
100.270730
 30
0.0
 10
137.476939
 20
100.290556
 30
0.0
  0
LINE
  5
2a5
100
AcDbEntity
  8
pot_board
 62
7
100
AcDbLine
 10
137.476939
 20
100.290556
 30
0.0
 11
137.476939
 21
100.290570
 31
0.0
  0
SPLINE
  5
2a6
100
AcDbEntity
  8
pot_board
 62
7
100
AcDbSpline
 70
8
 71
3
 72
8
 73
4
 74
0
 40
0
 40
0
 40
0
 40
0
 40
1
 40
1
 40
1
 40
1
 10
137.476939
 20
120.123737
 30
0.0
 10
137.723862
 20
120.188052
 30
0.0
 10
137.886020
 20
120.434241
 30
0.0
 10
137.844428
 20
120.681658
 30
0.0
  0
SPLINE
  5
2a7
100
AcDbEntity
  8
pot_board
 62
7
100
AcDbSpline
 70
8
 71
3
 72
8
 73
4
 74
0
 40
0
 40
0
 40
0
 40
0
 40
1
 40
1
 40
1
 40
1
 10
137.844428
 20
120.681658
 30
0.0
 10
137.795896
 20
120.970336
 30
0.0
 10
137.512845
 20
121.158684
 30
0.0
 10
137.235939
 20
121.086559
 30
0.0
  0
SPLINE
  5
2a8
100
AcDbEntity
  8
pot_board
 62
7
100
AcDbSpline
 70
8
 71
3
 72
8
 73
4
 74
0
 40
0
 40
0
 40
0
 40
0
 40
1
 40
1
 40
1
 40
1
 10
137.235939
 20
121.086559
 30
0.0
 10
137.143963
 20
121.062605
 30
0.0
 10
137.072010
 20
121.021531
 30
0.0
 10
137.005504
 20
120.955026
 30
0.0
  0
SPLINE
  5
2a9
100
AcDbEntity
  8
pot_board
 62
7
100
AcDbSpline
 70
8
 71
3
 72
8
 73
4
 74
0
 40
0
 40
0
 40
0
 40
0
 40
1
 40
1
 40
1
 40
1
 10
137.005504
 20
120.955026
 30
0.0
 10
136.734084
 20
120.683606
 30
0.0
 10
136.858957
 20
120.224130
 30
0.0
 10
137.231399
 20
120.123828
 30
0.0
  0
SPLINE
  5
2aa
100
AcDbEntity
  8
pot_board
 62
7
100
AcDbSpline
 70
8
 71
3
 72
8
 73
4
 74
0
 40
0
 40
0
 40
0
 40
0
 40
1
 40
1
 40
1
 40
1
 10
137.231399
 20
120.123828
 30
0.0
 10
137.305284
 20
120.103932
 30
0.0
 10
137.400764
 20
120.103896
 30
0.0
 10
137.476939
 20
120.123733
 30
0.0
  0
LINE
  5
2ab
100
AcDbEntity
  8
pot_board
 62
7
100
AcDbLine
 10
137.476939
 20
120.123733
 30
0.0
 11
137.476939
 21
120.123737
 31
0.0
  0
ENDSEC
  0
SECTION
  2
OBJECTS
  0
DICTIONARY
  5
C
330
0
100
AcDbDictionary
  3
ACAD_GROUP
350
D
  3
ACAD_MLINESTYLE
350
17
  0
DICTIONARY
  5
D
330
C
100
AcDbDictionary
  0
DICTIONARY
  5
1A
330
C
100
AcDbDictionary
  0
DICTIONARY
  5
17
330
C
100
AcDbDictionary
  3
STANDARD
350
18
  0
DICTIONARY
  5
19
330
C
100
AcDbDictionary
  0
ENDSEC
  0
EOF
