  0
SECTION
  2
HEADER
  9
$ACADVER
  1
AC1014
  9
$HANDSEED
  5
FFFF
  9
$MEASUREMENT
 70
     1
  0
ENDSEC
  0
SECTION
  2
TABLES
  0
TABLE
  2
VPORT
  5
8
330
0
100
AcDbSymbolTable
 70
     4
  0
VPORT
  5
2E
330
8
100
AcDbSymbolTableRecord
100
AcDbViewportTableRecord
  2
*ACTIVE
 70
     0
 10
0.0
 20
0.0
 11
1.0
 21
1.0
 12
210.0
 22
148.5
 13
0.0
 23
0.0
 14
10.0
 24
10.0
 15
10.0
 25
10.0
 16
0.0
 26
0.0
 36
1.0
 17
0.0
 27
0.0
 37
0.0
 40
341.0
 41
1.24
 42
50.0
 43
0.0
 44
0.0
 50
0.0
 51
0.0
 71
     0
 72
   100
 73
     1
 74
     3
 75
     0
 76
     0
 77
     0
 78
     0
  0
ENDTAB
  0
TABLE
  2
LTYPE
  5
5
330
0
100
AcDbSymbolTable
 70
     1
  0
LTYPE
  5
14
330
5
100
AcDbSymbolTableRecord
100
AcDbLinetypeTableRecord
  2
BYBLOCK
 70
     0
  3

 72
    65
 73
     0
 40
0.0
  0
LTYPE
  5
15
330
5
100
AcDbSymbolTableRecord
100
AcDbLinetypeTableRecord
  2
BYLAYER
 70
     0
  3

 72
    65
 73
     0
 40
0.0
  0
LTYPE
  5
16
330
5
100
AcDbSymbolTableRecord
100
AcDbLinetypeTableRecord
  2
CONTINUOUS
 70
     0
  3
Solid line
 72
    65
 73
     0
 40
0.0
  0
ENDTAB
  0
TABLE
  2
LAYER
  5
2
100
AcDbSymbolTable
 70
2
  0
LAYER
  5
50
100
AcDbSymbolTableRecord
100
AcDbLayerTableRecord
  2
0
 70
0
  6
CONTINUOUS
  0
LAYER
  5
51
100
AcDbSymbolTableRecord
100
AcDbLayerTableRecord
  2
Livello_1
 70
0
  6
CONTINUOUS
  0
ENDTAB
  0
TABLE
  2
STYLE
  5
3
330
0
100
AcDbSymbolTable
 70
     1
  0
STYLE
  5
11
330
3
100
AcDbSymbolTableRecord
100
AcDbTextStyleTableRecord
  2
STANDARD
 70
     0
 40
0.0
 41
1.0
 50
0.0
 71
     0
 42
2.5
  3
txt
  4

  0
ENDTAB
  0
TABLE
  2
VIEW
  5
6
330
0
100
AcDbSymbolTable
 70
     0
  0
ENDTAB
  0
TABLE
  2
UCS
  5
7
330
0
100
AcDbSymbolTable
 70
     0
  0
ENDTAB
  0
TABLE
  2
APPID
  5
9
330
0
100
AcDbSymbolTable
 70
     2
  0
APPID
  5
12
330
9
100
AcDbSymbolTableRecord
100
AcDbRegAppTableRecord
  2
ACAD
 70
     0
  0
ENDTAB
  0
TABLE
  2
DIMSTYLE
  5
A
330
0
100
AcDbSymbolTable
 70
     1
  0
DIMSTYLE
105
27
330
A
100
AcDbSymbolTableRecord
100
AcDbDimStyleTableRecord
  2
ISO-25
 70
     0
  3

  4

  5

  6

  7

 40
1.0
 41
2.5
 42
0.625
 43
3.75
 44
1.25
 45
0.0
 46
0.0
 47
0.0
 48
0.0
140
2.5
141
2.5
142
0.0
143
0.03937007874016
144
1.0
145
0.0
146
1.0
147
0.625
 71
     0
 72
     0
 73
     0
 74
     0
 75
     0
 76
     0
 77
     1
 78
     8
170
     0
171
     3
172
     1
173
     0
174
     0
175
     0
176
     0
177
     0
178
     0
270
     2
271
     2
272
     2
273
     2
274
     3
340
11
275
     0
280
     0
281
     0
282
     0
283
     0
284
     8
285
     0
286
     0
287
     3
288
     0
  0
ENDTAB
  0
TABLE
  2
BLOCK_RECORD
  5
1
330
0
100
AcDbSymbolTable
 70
     1
  0
BLOCK_RECORD
  5
1F
330
1
100
AcDbSymbolTableRecord
100
AcDbBlockTableRecord
  2
*MODEL_SPACE
  0
BLOCK_RECORD
  5
1B
330
1
100
AcDbSymbolTableRecord
100
AcDbBlockTableRecord
  2
*PAPER_SPACE
  0
ENDTAB
  0
ENDSEC
  0
SECTION
  2
BLOCKS
  0
BLOCK
  5
20
330
1F
100
AcDbEntity
  8
0
100
AcDbBlockBegin
  2
*MODEL_SPACE
 70
     0
 10
0.0
 20
0.0
 30
0.0
  3
*MODEL_SPACE
  1

  0
ENDBLK
  5
21
330
1F
100
AcDbEntity
  8
0
100
AcDbBlockEnd
  0
BLOCK
  5
1C
330
1B
100
AcDbEntity
 67
     1
  8
0
100
AcDbBlockBegin
  2
*PAPER_SPACE
  1

  0
ENDBLK
  5
1D
330
1B
100
AcDbEntity
 67
     1
  8
0
100
AcDbBlockEnd
  0
ENDSEC
  0
SECTION
  2
ENTITIES
  0
SPLINE
  5
100
100
AcDbEntity
  8
0
 62
7
100
AcDbSpline
 70
8
 71
3
 72
8
 73
4
 74
0
 40
0
 40
0
 40
0
 40
0
 40
1
 40
1
 40
1
 40
1
 10
117.188093
 20
135.310909
 30
0.0
 10
117.205111
 20
135.089080
 30
0.0
 10
117.269379
 20
134.783266
 30
0.0
 10
117.341057
 20
134.582973
 30
0.0
  0
SPLINE
  5
101
100
AcDbEntity
  8
0
 62
7
100
AcDbSpline
 70
8
 71
3
 72
8
 73
4
 74
0
 40
0
 40
0
 40
0
 40
0
 40
1
 40
1
 40
1
 40
1
 10
117.341057
 20
134.582973
 30
0.0
 10
117.425682
 20
134.346505
 30
0.0
 10
117.459215
 20
134.262010
 30
0.0
 10
117.493181
 20
134.199659
 30
0.0
  0
SPLINE
  5
102
100
AcDbEntity
  8
0
 62
7
100
AcDbSpline
 70
8
 71
3
 72
8
 73
4
 74
0
 40
0
 40
0
 40
0
 40
0
 40
1
 40
1
 40
1
 40
1
 10
117.493181
 20
134.199659
 30
0.0
 10
117.512203
 20
134.164734
 30
0.0
 10
117.557561
 20
134.079009
 30
0.0
 10
117.593968
 20
134.009159
 30
0.0
  0
SPLINE
  5
103
100
AcDbEntity
  8
0
 62
7
100
AcDbSpline
 70
8
 71
3
 72
8
 73
4
 74
0
 40
0
 40
0
 40
0
 40
0
 40
1
 40
1
 40
1
 40
1
 10
117.593968
 20
134.009159
 30
0.0
 10
117.754329
 20
133.701489
 30
0.0
 10
118.103805
 20
133.308706
 30
0.0
 10
118.440700
 20
133.057497
 30
0.0
  0
SPLINE
  5
104
100
AcDbEntity
  8
0
 62
7
100
AcDbSpline
 70
8
 71
3
 72
8
 73
4
 74
0
 40
0
 40
0
 40
0
 40
0
 40
1
 40
1
 40
1
 40
1
 10
118.440700
 20
133.057497
 30
0.0
 10
118.659902
 20
132.894051
 30
0.0
 10
118.905116
 20
132.761974
 30
0.0
 10
119.214765
 20
132.640573
 30
0.0
  0
SPLINE
  5
105
100
AcDbEntity
  8
0
 62
7
100
AcDbSpline
 70
8
 71
3
 72
8
 73
4
 74
0
 40
0
 40
0
 40
0
 40
0
 40
1
 40
1
 40
1
 40
1
 10
119.214765
 20
132.640573
 30
0.0
 10
119.404116
 20
132.566335
 30
0.0
 10
119.455904
 20
132.550874
 30
0.0
 10
119.641908
 20
132.513059
 30
0.0
  0
SPLINE
  5
106
100
AcDbEntity
  8
0
 62
7
100
AcDbSpline
 70
8
 71
3
 72
8
 73
4
 74
0
 40
0
 40
0
 40
0
 40
0
 40
1
 40
1
 40
1
 40
1
 10
119.641908
 20
132.513059
 30
0.0
 10
120.045167
 20
132.431077
 30
0.0
 10
119.219345
 20
132.437534
 30
0.0
 10
129.299200
 20
132.437534
 30
0.0
  0
SPLINE
  5
107
100
AcDbEntity
  8
0
 62
7
100
AcDbSpline
 70
8
 71
3
 72
8
 73
4
 74
0
 40
0
 40
0
 40
0
 40
0
 40
1
 40
1
 40
1
 40
1
 10
129.299200
 20
132.437534
 30
0.0
 10
139.379057
 20
132.437534
 30
0.0
 10
138.553235
 20
132.431071
 30
0.0
 10
138.956491
 20
132.513059
 30
0.0
  0
SPLINE
  5
108
100
AcDbEntity
  8
0
 62
7
100
AcDbSpline
 70
8
 71
3
 72
8
 73
4
 74
0
 40
0
 40
0
 40
0
 40
0
 40
1
 40
1
 40
1
 40
1
 10
138.956491
 20
132.513059
 30
0.0
 10
139.142495
 20
132.550874
 30
0.0
 10
139.194283
 20
132.566335
 30
0.0
 10
139.383635
 20
132.640573
 30
0.0
  0
SPLINE
  5
109
100
AcDbEntity
  8
0
 62
7
100
AcDbSpline
 70
8
 71
3
 72
8
 73
4
 74
0
 40
0
 40
0
 40
0
 40
0
 40
1
 40
1
 40
1
 40
1
 10
139.383635
 20
132.640573
 30
0.0
 10
139.693283
 20
132.761971
 30
0.0
 10
139.938498
 20
132.894051
 30
0.0
 10
140.157700
 20
133.057497
 30
0.0
  0
SPLINE
  5
10a
100
AcDbEntity
  8
0
 62
7
100
AcDbSpline
 70
8
 71
3
 72
8
 73
4
 74
0
 40
0
 40
0
 40
0
 40
0
 40
1
 40
1
 40
1
 40
1
 10
140.157700
 20
133.057497
 30
0.0
 10
140.494594
 20
133.308706
 30
0.0
 10
140.844070
 20
133.701489
 30
0.0
 10
141.004431
 20
134.009159
 30
0.0
  0
SPLINE
  5
10b
100
AcDbEntity
  8
0
 62
7
100
AcDbSpline
 70
8
 71
3
 72
8
 73
4
 74
0
 40
0
 40
0
 40
0
 40
0
 40
1
 40
1
 40
1
 40
1
 10
141.004431
 20
134.009159
 30
0.0
 10
141.040838
 20
134.079009
 30
0.0
 10
141.086194
 20
134.164734
 30
0.0
 10
141.105218
 20
134.199659
 30
0.0
  0
SPLINE
  5
10c
100
AcDbEntity
  8
0
 62
7
100
AcDbSpline
 70
8
 71
3
 72
8
 73
4
 74
0
 40
0
 40
0
 40
0
 40
0
 40
1
 40
1
 40
1
 40
1
 10
141.105218
 20
134.199659
 30
0.0
 10
141.139184
 20
134.262010
 30
0.0
 10
141.172717
 20
134.346505
 30
0.0
 10
141.257342
 20
134.582973
 30
0.0
  0
SPLINE
  5
10d
100
AcDbEntity
  8
0
 62
7
100
AcDbSpline
 70
8
 71
3
 72
8
 73
4
 74
0
 40
0
 40
0
 40
0
 40
0
 40
1
 40
1
 40
1
 40
1
 10
141.257342
 20
134.582973
 30
0.0
 10
141.280710
 20
134.648277
 30
0.0
 10
141.321322
 20
134.795913
 30
0.0
 10
141.347588
 20
134.911057
 30
0.0
  0
SPLINE
  5
10e
100
AcDbEntity
  8
0
 62
7
100
AcDbSpline
 70
8
 71
3
 72
8
 73
4
 74
0
 40
0
 40
0
 40
0
 40
0
 40
1
 40
1
 40
1
 40
1
 10
141.347588
 20
134.911057
 30
0.0
 10
141.435574
 20
135.296758
 30
0.0
 10
141.427700
 20
133.954749
 30
0.0
 10
141.427700
 20
148.566534
 30
0.0
  0
SPLINE
  5
10f
100
AcDbEntity
  8
0
 62
7
100
AcDbSpline
 70
8
 71
3
 72
8
 73
4
 74
0
 40
0
 40
0
 40
0
 40
0
 40
1
 40
1
 40
1
 40
1
 10
141.427700
 20
148.566534
 30
0.0
 10
141.427700
 20
163.178319
 30
0.0
 10
141.435574
 20
161.836310
 30
0.0
 10
141.347588
 20
162.222011
 30
0.0
  0
SPLINE
  5
110
100
AcDbEntity
  8
0
 62
7
100
AcDbSpline
 70
8
 71
3
 72
8
 73
4
 74
0
 40
0
 40
0
 40
0
 40
0
 40
1
 40
1
 40
1
 40
1
 10
141.347588
 20
162.222011
 30
0.0
 10
141.321313
 20
162.337155
 30
0.0
 10
141.280713
 20
162.484791
 30
0.0
 10
141.257342
 20
162.550095
 30
0.0
  0
SPLINE
  5
111
100
AcDbEntity
  8
0
 62
7
100
AcDbSpline
 70
8
 71
3
 72
8
 73
4
 74
0
 40
0
 40
0
 40
0
 40
0
 40
1
 40
1
 40
1
 40
1
 10
141.257342
 20
162.550095
 30
0.0
 10
141.172717
 20
162.786563
 30
0.0
 10
141.139184
 20
162.871058
 30
0.0
 10
141.105218
 20
162.933409
 30
0.0
  0
SPLINE
  5
112
100
AcDbEntity
  8
0
 62
7
100
AcDbSpline
 70
8
 71
3
 72
8
 73
4
 74
0
 40
0
 40
0
 40
0
 40
0
 40
1
 40
1
 40
1
 40
1
 10
141.105218
 20
162.933409
 30
0.0
 10
141.086197
 20
162.968334
 30
0.0
 10
141.040843
 20
163.054059
 30
0.0
 10
141.004440
 20
163.123909
 30
0.0
  0
SPLINE
  5
113
100
AcDbEntity
  8
0
 62
7
100
AcDbSpline
 70
8
 71
3
 72
8
 73
4
 74
0
 40
0
 40
0
 40
0
 40
0
 40
1
 40
1
 40
1
 40
1
 10
141.004440
 20
163.123909
 30
0.0
 10
140.843347
 20
163.433016
 30
0.0
 10
140.479738
 20
163.839721
 30
0.0
 10
140.141825
 20
164.088765
 30
0.0
  0
SPLINE
  5
114
100
AcDbEntity
  8
0
 62
7
100
AcDbSpline
 70
8
 71
3
 72
8
 73
4
 74
0
 40
0
 40
0
 40
0
 40
0
 40
1
 40
1
 40
1
 40
1
 10
140.141825
 20
164.088765
 30
0.0
 10
139.938667
 20
164.238492
 30
0.0
 10
139.679488
 20
164.376504
 30
0.0
 10
139.383635
 20
164.492495
 30
0.0
  0
SPLINE
  5
115
100
AcDbEntity
  8
0
 62
7
100
AcDbSpline
 70
8
 71
3
 72
8
 73
4
 74
0
 40
0
 40
0
 40
0
 40
0
 40
1
 40
1
 40
1
 40
1
 10
139.383635
 20
164.492495
 30
0.0
 10
139.194283
 20
164.566733
 30
0.0
 10
139.142495
 20
164.582194
 30
0.0
 10
138.956491
 20
164.620009
 30
0.0
  0
SPLINE
  5
116
100
AcDbEntity
  8
0
 62
7
100
AcDbSpline
 70
8
 71
3
 72
8
 73
4
 74
0
 40
0
 40
0
 40
0
 40
0
 40
1
 40
1
 40
1
 40
1
 10
138.956491
 20
164.620009
 30
0.0
 10
138.553235
 20
164.701991
 30
0.0
 10
139.379057
 20
164.695534
 30
0.0
 10
129.299200
 20
164.695534
 30
0.0
  0
SPLINE
  5
117
100
AcDbEntity
  8
0
 62
7
100
AcDbSpline
 70
8
 71
3
 72
8
 73
4
 74
0
 40
0
 40
0
 40
0
 40
0
 40
1
 40
1
 40
1
 40
1
 10
129.299200
 20
164.695534
 30
0.0
 10
119.219345
 20
164.695534
 30
0.0
 10
120.045167
 20
164.701997
 30
0.0
 10
119.641908
 20
164.620009
 30
0.0
  0
SPLINE
  5
118
100
AcDbEntity
  8
0
 62
7
100
AcDbSpline
 70
8
 71
3
 72
8
 73
4
 74
0
 40
0
 40
0
 40
0
 40
0
 40
1
 40
1
 40
1
 40
1
 10
119.641908
 20
164.620009
 30
0.0
 10
119.455904
 20
164.582194
 30
0.0
 10
119.404116
 20
164.566733
 30
0.0
 10
119.214765
 20
164.492495
 30
0.0
  0
SPLINE
  5
119
100
AcDbEntity
  8
0
 62
7
100
AcDbSpline
 70
8
 71
3
 72
8
 73
4
 74
0
 40
0
 40
0
 40
0
 40
0
 40
1
 40
1
 40
1
 40
1
 10
119.214765
 20
164.492495
 30
0.0
 10
118.918911
 20
164.376504
 30
0.0
 10
118.659732
 20
164.238492
 30
0.0
 10
118.456575
 20
164.088765
 30
0.0
  0
SPLINE
  5
11a
100
AcDbEntity
  8
0
 62
7
100
AcDbSpline
 70
8
 71
3
 72
8
 73
4
 74
0
 40
0
 40
0
 40
0
 40
0
 40
1
 40
1
 40
1
 40
1
 10
118.456575
 20
164.088765
 30
0.0
 10
118.118661
 20
163.839721
 30
0.0
 10
117.755052
 20
163.433016
 30
0.0
 10
117.593959
 20
163.123909
 30
0.0
  0
SPLINE
  5
11b
100
AcDbEntity
  8
0
 62
7
100
AcDbSpline
 70
8
 71
3
 72
8
 73
4
 74
0
 40
0
 40
0
 40
0
 40
0
 40
1
 40
1
 40
1
 40
1
 10
117.593959
 20
163.123909
 30
0.0
 10
117.557558
 20
163.054059
 30
0.0
 10
117.512208
 20
162.968334
 30
0.0
 10
117.493181
 20
162.933409
 30
0.0
  0
SPLINE
  5
11c
100
AcDbEntity
  8
0
 62
7
100
AcDbSpline
 70
8
 71
3
 72
8
 73
4
 74
0
 40
0
 40
0
 40
0
 40
0
 40
1
 40
1
 40
1
 40
1
 10
117.493181
 20
162.933409
 30
0.0
 10
117.459215
 20
162.871058
 30
0.0
 10
117.425682
 20
162.786563
 30
0.0
 10
117.341057
 20
162.550095
 30
0.0
  0
SPLINE
  5
11d
100
AcDbEntity
  8
0
 62
7
100
AcDbSpline
 70
8
 71
3
 72
8
 73
4
 74
0
 40
0
 40
0
 40
0
 40
0
 40
1
 40
1
 40
1
 40
1
 10
117.341057
 20
162.550095
 30
0.0
 10
117.269379
 20
162.349802
 30
0.0
 10
117.205117
 20
162.043991
 30
0.0
 10
117.188093
 20
161.822159
 30
0.0
  0
SPLINE
  5
11e
100
AcDbEntity
  8
0
 62
7
100
AcDbSpline
 70
8
 71
3
 72
8
 73
4
 74
0
 40
0
 40
0
 40
0
 40
0
 40
1
 40
1
 40
1
 40
1
 10
118.796263
 20
136.110196
 30
0.0
 10
118.846295
 20
136.235209
 30
0.0
 10
118.890886
 20
136.342256
 30
0.0
 10
118.895351
 20
136.348076
 30
0.0
  0
SPLINE
  5
11f
100
AcDbEntity
  8
0
 62
7
100
AcDbSpline
 70
8
 71
3
 72
8
 73
4
 74
0
 40
0
 40
0
 40
0
 40
0
 40
1
 40
1
 40
1
 40
1
 10
118.895351
 20
136.348076
 30
0.0
 10
118.899810
 20
136.353889
 30
0.0
 10
118.911748
 20
136.385518
 30
0.0
 10
118.921880
 20
136.418346
 30
0.0
  0
SPLINE
  5
120
100
AcDbEntity
  8
0
 62
7
100
AcDbSpline
 70
8
 71
3
 72
8
 73
4
 74
0
 40
0
 40
0
 40
0
 40
0
 40
1
 40
1
 40
1
 40
1
 10
118.921880
 20
136.418346
 30
0.0
 10
118.939096
 20
136.474184
 30
0.0
 10
118.954773
 20
136.492370
 30
0.0
 10
119.164670
 20
136.700156
 30
0.0
  0
LWPOLYLINE
  5
121
100
AcDbEntity
  8
0
 62
7
100
AcDbPolyline
 90
9
 70
0
 10
119.677462
 20
134.086784
 30
0.0
 10
119.384930
 20
134.210242
 30
0.0
 10
119.163061
 20
134.432492
 30
0.0
 10
118.941195
 20
134.654742
 30
0.0
 10
118.823204
 20
134.951076
 30
0.0
 10
118.705209
 20
135.247409
 30
0.0
 10
118.705252
 20
135.565155
 30
0.0
 10
118.705294
 20
135.882897
 30
0.0
 10
118.796263
 20
136.110196
 30
0.0
  0
SPLINE
  5
122
100
AcDbEntity
  8
0
 62
7
100
AcDbSpline
 70
8
 71
3
 72
8
 73
4
 74
0
 40
0
 40
0
 40
0
 40
0
 40
1
 40
1
 40
1
 40
1
 10
121.765641
 20
136.207698
 30
0.0
 10
121.827465
 20
136.057892
 30
0.0
 10
121.883317
 20
135.919137
 30
0.0
 10
121.889754
 20
135.899351
 30
0.0
  0
SPLINE
  5
123
100
AcDbEntity
  8
0
 62
7
100
AcDbSpline
 70
8
 71
3
 72
8
 73
4
 74
0
 40
0
 40
0
 40
0
 40
0
 40
1
 40
1
 40
1
 40
1
 10
121.889754
 20
135.899351
 30
0.0
 10
121.897205
 20
135.876406
 30
0.0
 10
121.901466
 20
135.751500
 30
0.0
 10
121.901466
 20
135.554684
 30
0.0
  0
LWPOLYLINE
  5
124
100
AcDbEntity
  8
0
 62
7
100
AcDbPolyline
 90
11
 70
0
 10
119.164670
 20
136.700156
 30
0.0
 10
119.389048
 20
136.922282
 30
0.0
 10
119.684111
 20
137.045283
 30
0.0
 10
119.979175
 20
137.168284
 30
0.0
 10
120.298086
 20
137.168284
 30
0.0
 10
120.617000
 20
137.168284
 30
0.0
 10
120.912628
 20
137.045579
 30
0.0
 10
121.208252
 20
136.922875
 30
0.0
 10
121.430742
 20
136.701472
 30
0.0
 10
121.653232
 20
136.480068
 30
0.0
 10
121.765641
 20
136.207698
 30
0.0
  0
LWPOLYLINE
  5
125
100
AcDbEntity
  8
0
 62
7
100
AcDbPolyline
 90
12
 70
0
 10
121.901466
 20
135.554684
 30
0.0
 10
121.901466
 20
135.245995
 30
0.0
 10
121.778762
 20
134.950367
 30
0.0
 10
121.656057
 20
134.654742
 30
0.0
 10
121.434654
 20
134.432252
 30
0.0
 10
121.213251
 20
134.209763
 30
0.0
 10
120.914422
 20
134.085571
 30
0.0
 10
120.615591
 20
133.961382
 30
0.0
 10
120.292800
 20
133.962228
 30
0.0
 10
119.970008
 20
133.963075
 30
0.0
 10
119.677476
 20
134.086533
 30
0.0
 10
119.677462
 20
134.086784
 30
0.0
  0
SPLINE
  5
126
100
AcDbEntity
  8
0
 62
7
100
AcDbSpline
 70
8
 71
3
 72
8
 73
4
 74
0
 40
0
 40
0
 40
0
 40
0
 40
1
 40
1
 40
1
 40
1
 10
136.696907
 20
135.555392
 30
0.0
 10
136.696907
 20
135.751483
 30
0.0
 10
136.701225
 20
135.876446
 30
0.0
 10
136.708704
 20
135.899351
 30
0.0
  0
SPLINE
  5
127
100
AcDbEntity
  8
0
 62
7
100
AcDbSpline
 70
8
 71
3
 72
8
 73
4
 74
0
 40
0
 40
0
 40
0
 40
0
 40
1
 40
1
 40
1
 40
1
 10
136.708704
 20
135.899351
 30
0.0
 10
136.715139
 20
135.919135
 30
0.0
 10
136.770993
 20
136.057892
 30
0.0
 10
136.832817
 20
136.207698
 30
0.0
  0
LWPOLYLINE
  5
128
100
AcDbEntity
  8
0
 62
7
100
AcDbPolyline
 90
7
 70
0
 10
137.678614
 20
134.086784
 30
0.0
 10
137.384982
 20
134.210242
 30
0.0
 10
137.165083
 20
134.429992
 30
0.0
 10
136.945184
 20
134.649744
 30
0.0
 10
136.820992
 20
134.948575
 30
0.0
 10
136.696800
 20
135.247409
 30
0.0
 10
136.696907
 20
135.555392
 30
0.0
  0
SPLINE
  5
129
100
AcDbEntity
  8
0
 62
7
100
AcDbSpline
 70
8
 71
3
 72
8
 73
4
 74
0
 40
0
 40
0
 40
0
 40
0
 40
1
 40
1
 40
1
 40
1
 10
139.433788
 20
136.700159
 30
0.0
 10
139.643685
 20
136.492370
 30
0.0
 10
139.659354
 20
136.474184
 30
0.0
 10
139.676578
 20
136.418346
 30
0.0
  0
SPLINE
  5
12a
100
AcDbEntity
  8
0
 62
7
100
AcDbSpline
 70
8
 71
3
 72
8
 73
4
 74
0
 40
0
 40
0
 40
0
 40
0
 40
1
 40
1
 40
1
 40
1
 10
139.676578
 20
136.418346
 30
0.0
 10
139.686710
 20
136.385518
 30
0.0
 10
139.698648
 20
136.353898
 30
0.0
 10
139.703107
 20
136.348076
 30
0.0
  0
SPLINE
  5
12b
100
AcDbEntity
  8
0
 62
7
100
AcDbSpline
 70
8
 71
3
 72
8
 73
4
 74
0
 40
0
 40
0
 40
0
 40
0
 40
1
 40
1
 40
1
 40
1
 10
139.703107
 20
136.348076
 30
0.0
 10
139.707566
 20
136.342262
 30
0.0
 10
139.752157
 20
136.235209
 30
0.0
 10
139.802193
 20
136.110196
 30
0.0
  0
LWPOLYLINE
  5
12c
100
AcDbEntity
  8
0
 62
7
100
AcDbPolyline
 90
11
 70
0
 10
136.832817
 20
136.207698
 30
0.0
 10
136.945226
 20
136.480068
 30
0.0
 10
137.167716
 20
136.701472
 30
0.0
 10
137.390206
 20
136.922875
 30
0.0
 10
137.685831
 20
137.045579
 30
0.0
 10
137.981459
 20
137.168284
 30
0.0
 10
138.300373
 20
137.168284
 30
0.0
 10
138.619284
 20
137.168284
 30
0.0
 10
138.914347
 20
137.045283
 30
0.0
 10
139.209410
 20
136.922282
 30
0.0
 10
139.433788
 20
136.700159
 30
0.0
  0
LWPOLYLINE
  5
12d
100
AcDbEntity
  8
0
 62
7
100
AcDbPolyline
 90
14
 70
0
 10
139.802193
 20
136.110196
 30
0.0
 10
139.893161
 20
135.882897
 30
0.0
 10
139.893161
 20
135.565155
 30
0.0
 10
139.893161
 20
135.247409
 30
0.0
 10
139.775144
 20
134.951076
 30
0.0
 10
139.657130
 20
134.654742
 30
0.0
 10
139.433794
 20
134.431327
 30
0.0
 10
139.210460
 20
134.207908
 30
0.0
 10
138.914835
 20
134.084721
 30
0.0
 10
138.619207
 20
133.961534
 30
0.0
 10
138.295710
 20
133.962381
 30
0.0
 10
137.972210
 20
133.963227
 30
0.0
 10
137.678578
 20
134.086685
 30
0.0
 10
137.678614
 20
134.086784
 30
0.0
  0
SPLINE
  5
12e
100
AcDbEntity
  8
0
 62
7
100
AcDbSpline
 70
8
 71
3
 72
8
 73
4
 74
0
 40
0
 40
0
 40
0
 40
0
 40
1
 40
1
 40
1
 40
1
 10
125.382551
 20
140.064364
 30
0.0
 10
125.399569
 20
140.104264
 30
0.0
 10
125.420967
 20
140.151195
 30
0.0
 10
125.430111
 20
140.168659
 30
0.0
  0
SPLINE
  5
12f
100
AcDbEntity
  8
0
 62
7
100
AcDbSpline
 70
8
 71
3
 72
8
 73
4
 74
0
 40
0
 40
0
 40
0
 40
0
 40
1
 40
1
 40
1
 40
1
 10
125.430111
 20
140.168659
 30
0.0
 10
125.439255
 20
140.186129
 30
0.0
 10
125.446762
 20
140.205001
 30
0.0
 10
125.446790
 20
140.210614
 30
0.0
  0
SPLINE
  5
130
100
AcDbEntity
  8
0
 62
7
100
AcDbSpline
 70
8
 71
3
 72
8
 73
4
 74
0
 40
0
 40
0
 40
0
 40
0
 40
1
 40
1
 40
1
 40
1
 10
125.446790
 20
140.210614
 30
0.0
 10
125.446821
 20
140.216230
 30
0.0
 10
125.473573
 20
140.284929
 30
0.0
 10
125.506206
 20
140.363282
 30
0.0
  0
LWPOLYLINE
  5
131
100
AcDbEntity
  8
0
 62
7
100
AcDbPolyline
 90
9
 70
0
 10
126.211499
 20
138.410076
 30
0.0
 10
125.954838
 20
138.517659
 30
0.0
 10
125.761174
 20
138.711232
 30
0.0
 10
125.567513
 20
138.904806
 30
0.0
 10
125.459501
 20
139.166316
 30
0.0
 10
125.351486
 20
139.427826
 30
0.0
 10
125.351551
 20
139.709822
 30
0.0
 10
125.351613
 20
139.991819
 30
0.0
 10
125.382551
 20
140.064364
 30
0.0
  0
SPLINE
  5
132
100
AcDbEntity
  8
0
 62
7
100
AcDbSpline
 70
8
 71
3
 72
8
 73
4
 74
0
 40
0
 40
0
 40
0
 40
0
 40
1
 40
1
 40
1
 40
1
 10
125.762560
 20
140.704972
 30
0.0
 10
125.870919
 20
140.814547
 30
0.0
 10
125.964764
 20
140.904201
 30
0.0
 10
125.971111
 20
140.904201
 30
0.0
  0
SPLINE
  5
133
100
AcDbEntity
  8
0
 62
7
100
AcDbSpline
 70
8
 71
3
 72
8
 73
4
 74
0
 40
0
 40
0
 40
0
 40
0
 40
1
 40
1
 40
1
 40
1
 10
125.971111
 20
140.904201
 30
0.0
 10
125.977461
 20
140.904201
 30
0.0
 10
125.996624
 20
140.918792
 30
0.0
 10
126.013735
 20
140.936645
 30
0.0
  0
LWPOLYLINE
  5
134
100
AcDbEntity
  8
0
 62
7
100
AcDbPolyline
 90
3
 70
0
 10
125.506206
 20
140.363282
 30
0.0
 10
125.565555
 20
140.505745
 30
0.0
 10
125.762560
 20
140.704972
 30
0.0
  0
SPLINE
  5
135
100
AcDbEntity
  8
0
 62
7
100
AcDbSpline
 70
8
 71
3
 72
8
 73
4
 74
0
 40
0
 40
0
 40
0
 40
0
 40
1
 40
1
 40
1
 40
1
 10
125.799788
 20
158.539144
 30
0.0
 10
125.645977
 20
158.690570
 30
0.0
 10
125.552113
 20
158.790906
 30
0.0
 10
125.547659
 20
158.808652
 30
0.0
  0
SPLINE
  5
136
100
AcDbEntity
  8
0
 62
7
100
AcDbSpline
 70
8
 71
3
 72
8
 73
4
 74
0
 40
0
 40
0
 40
0
 40
0
 40
1
 40
1
 40
1
 40
1
 10
125.547659
 20
158.808652
 30
0.0
 10
125.543764
 20
158.824203
 30
0.0
 10
125.531798
 20
158.856139
 30
0.0
 10
125.521102
 20
158.879625
 30
0.0
  0
SPLINE
  5
137
100
AcDbEntity
  8
0
 62
7
100
AcDbSpline
 70
8
 71
3
 72
8
 73
4
 74
0
 40
0
 40
0
 40
0
 40
0
 40
1
 40
1
 40
1
 40
1
 10
125.521102
 20
158.879625
 30
0.0
 10
125.510406
 20
158.903106
 30
0.0
 10
125.486710
 20
158.960426
 30
0.0
 10
125.468451
 20
159.006992
 30
0.0
  0
SPLINE
  5
138
100
AcDbEntity
  8
0
 62
7
100
AcDbSpline
 70
8
 71
3
 72
8
 73
4
 74
0
 40
0
 40
0
 40
0
 40
0
 40
1
 40
1
 40
1
 40
1
 10
125.468451
 20
159.006992
 30
0.0
 10
125.450191
 20
159.053559
 30
0.0
 10
125.428773
 20
159.105948
 30
0.0
 10
125.420851
 20
159.123409
 30
0.0
  0
SPLINE
  5
139
100
AcDbEntity
  8
0
 62
7
100
AcDbSpline
 70
8
 71
3
 72
8
 73
4
 74
0
 40
0
 40
0
 40
0
 40
0
 40
1
 40
1
 40
1
 40
1
 10
125.420851
 20
159.123409
 30
0.0
 10
125.349722
 20
159.280217
 30
0.0
 10
125.351613
 20
159.268118
 30
0.0
 10
125.351467
 20
159.567088
 30
0.0
  0
LWPOLYLINE
  5
13a
100
AcDbEntity
  8
0
 62
7
100
AcDbPolyline
 90
5
 70
0
 10
126.013735
 20
140.936645
 30
0.0
 10
126.044819
 20
140.969089
 30
0.0
 10
126.044819
 20
149.633501
 30
0.0
 10
126.044819
 20
158.297909
 30
0.0
 10
125.799788
 20
158.539144
 30
0.0
  0
SPLINE
  5
13b
100
AcDbEntity
  8
0
 62
7
100
AcDbSpline
 70
8
 71
3
 72
8
 73
4
 74
0
 40
0
 40
0
 40
0
 40
0
 40
1
 40
1
 40
1
 40
1
 10
128.166904
 20
159.567088
 30
0.0
 10
128.166757
 20
159.268118
 30
0.0
 10
128.168598
 20
159.280217
 30
0.0
 10
128.097520
 20
159.123409
 30
0.0
  0
SPLINE
  5
13c
100
AcDbEntity
  8
0
 62
7
100
AcDbSpline
 70
8
 71
3
 72
8
 73
4
 74
0
 40
0
 40
0
 40
0
 40
0
 40
1
 40
1
 40
1
 40
1
 10
128.097520
 20
159.123409
 30
0.0
 10
128.089589
 20
159.105939
 30
0.0
 10
128.068177
 20
159.053559
 30
0.0
 10
128.049917
 20
159.006992
 30
0.0
  0
SPLINE
  5
13d
100
AcDbEntity
  8
0
 62
7
100
AcDbSpline
 70
8
 71
3
 72
8
 73
4
 74
0
 40
0
 40
0
 40
0
 40
0
 40
1
 40
1
 40
1
 40
1
 10
128.049917
 20
159.006992
 30
0.0
 10
128.031658
 20
158.960426
 30
0.0
 10
128.007965
 20
158.903109
 30
0.0
 10
127.997266
 20
158.879625
 30
0.0
  0
SPLINE
  5
13e
100
AcDbEntity
  8
0
 62
7
100
AcDbSpline
 70
8
 71
3
 72
8
 73
4
 74
0
 40
0
 40
0
 40
0
 40
0
 40
1
 40
1
 40
1
 40
1
 10
127.997266
 20
158.879625
 30
0.0
 10
127.986570
 20
158.856145
 30
0.0
 10
127.974632
 20
158.824203
 30
0.0
 10
127.970709
 20
158.808652
 30
0.0
  0
SPLINE
  5
13f
100
AcDbEntity
  8
0
 62
7
100
AcDbSpline
 70
8
 71
3
 72
8
 73
4
 74
0
 40
0
 40
0
 40
0
 40
0
 40
1
 40
1
 40
1
 40
1
 10
127.970709
 20
158.808652
 30
0.0
 10
127.966250
 20
158.790900
 30
0.0
 10
127.872388
 20
158.690570
 30
0.0
 10
127.718580
 20
158.539144
 30
0.0
  0
LWPOLYLINE
  5
140
100
AcDbEntity
  8
0
 62
7
100
AcDbPolyline
 90
17
 70
0
 10
125.351467
 20
159.567088
 30
0.0
 10
125.351328
 20
159.843076
 30
0.0
 10
125.453589
 20
160.097076
 30
0.0
 10
125.555849
 20
160.351076
 30
0.0
 10
125.755787
 20
160.552695
 30
0.0
 10
125.955724
 20
160.754315
 30
0.0
 10
126.217226
 20
160.862324
 30
0.0
 10
126.478727
 20
160.970333
 30
0.0
 10
126.759185
 20
160.970333
 30
0.0
 10
127.039644
 20
160.970333
 30
0.0
 10
127.301145
 20
160.862324
 30
0.0
 10
127.562647
 20
160.754315
 30
0.0
 10
127.762584
 20
160.552695
 30
0.0
 10
127.962522
 20
160.351076
 30
0.0
 10
128.064782
 20
160.097076
 30
0.0
 10
128.167043
 20
159.843076
 30
0.0
 10
128.166904
 20
159.567088
 30
0.0
  0
SPLINE
  5
141
100
AcDbEntity
  8
0
 62
7
100
AcDbSpline
 70
8
 71
3
 72
8
 73
4
 74
0
 40
0
 40
0
 40
0
 40
0
 40
1
 40
1
 40
1
 40
1
 10
127.504633
 20
140.936645
 30
0.0
 10
127.521736
 20
140.918808
 30
0.0
 10
127.540868
 20
140.904201
 30
0.0
 10
127.547164
 20
140.904201
 30
0.0
  0
SPLINE
  5
142
100
AcDbEntity
  8
0
 62
7
100
AcDbSpline
 70
8
 71
3
 72
8
 73
4
 74
0
 40
0
 40
0
 40
0
 40
0
 40
1
 40
1
 40
1
 40
1
 10
127.547164
 20
140.904201
 30
0.0
 10
127.553458
 20
140.904201
 30
0.0
 10
127.650195
 20
140.811711
 30
0.0
 10
127.762135
 20
140.698667
 30
0.0
  0
SPLINE
  5
143
100
AcDbEntity
  8
0
 62
7
100
AcDbSpline
 70
8
 71
3
 72
8
 73
4
 74
0
 40
0
 40
0
 40
0
 40
0
 40
1
 40
1
 40
1
 40
1
 10
127.762135
 20
140.698667
 30
0.0
 10
127.973514
 20
140.485211
 30
0.0
 10
127.993120
 20
140.471266
 30
0.0
 10
128.060927
 20
140.486159
 30
0.0
  0
SPLINE
  5
144
100
AcDbEntity
  8
0
 62
7
100
AcDbSpline
 70
8
 71
3
 72
8
 73
4
 74
0
 40
0
 40
0
 40
0
 40
0
 40
1
 40
1
 40
1
 40
1
 10
128.060927
 20
140.486159
 30
0.0
 10
128.083618
 20
140.491154
 30
0.0
 10
128.150753
 20
140.551776
 30
0.0
 10
128.296213
 20
140.698667
 30
0.0
  0
SPLINE
  5
145
100
AcDbEntity
  8
0
 62
7
100
AcDbSpline
 70
8
 71
3
 72
8
 73
4
 74
0
 40
0
 40
0
 40
0
 40
0
 40
1
 40
1
 40
1
 40
1
 10
128.296213
 20
140.698667
 30
0.0
 10
128.408153
 20
140.811711
 30
0.0
 10
128.504891
 20
140.904201
 30
0.0
 10
128.511187
 20
140.904201
 30
0.0
  0
SPLINE
  5
146
100
AcDbEntity
  8
0
 62
7
100
AcDbSpline
 70
8
 71
3
 72
8
 73
4
 74
0
 40
0
 40
0
 40
0
 40
0
 40
1
 40
1
 40
1
 40
1
 10
128.511187
 20
140.904201
 30
0.0
 10
128.517481
 20
140.904201
 30
0.0
 10
128.536615
 20
140.918792
 30
0.0
 10
128.553715
 20
140.936645
 30
0.0
  0
LWPOLYLINE
  5
147
100
AcDbEntity
  8
0
 62
7
100
AcDbPolyline
 90
5
 70
0
 10
127.718580
 20
158.539144
 30
0.0
 10
127.473549
 20
158.297909
 30
0.0
 10
127.473549
 20
149.633501
 30
0.0
 10
127.473549
 20
140.969089
 30
0.0
 10
127.504633
 20
140.936645
 30
0.0
  0
SPLINE
  5
148
100
AcDbEntity
  8
0
 62
7
100
AcDbSpline
 70
8
 71
3
 72
8
 73
4
 74
0
 40
0
 40
0
 40
0
 40
0
 40
1
 40
1
 40
1
 40
1
 10
128.041654
 20
161.459024
 30
0.0
 10
128.010683
 20
161.536511
 30
0.0
 10
127.975812
 20
161.626102
 30
0.0
 10
127.964161
 20
161.658117
 30
0.0
  0
SPLINE
  5
149
100
AcDbEntity
  8
0
 62
7
100
AcDbSpline
 70
8
 71
3
 72
8
 73
4
 74
0
 40
0
 40
0
 40
0
 40
0
 40
1
 40
1
 40
1
 40
1
 10
127.964161
 20
161.658117
 30
0.0
 10
127.952506
 20
161.690133
 30
0.0
 10
127.931415
 20
161.741034
 30
0.0
 10
127.917284
 20
161.771232
 30
0.0
  0
SPLINE
  5
14a
100
AcDbEntity
  8
0
 62
7
100
AcDbSpline
 70
8
 71
3
 72
8
 73
4
 74
0
 40
0
 40
0
 40
0
 40
0
 40
1
 40
1
 40
1
 40
1
 10
127.917284
 20
161.771232
 30
0.0
 10
127.892138
 20
161.824973
 30
0.0
 10
127.891602
 20
161.832059
 30
0.0
 10
127.891461
 20
162.104607
 30
0.0
  0
LWPOLYLINE
  5
14b
100
AcDbEntity
  8
0
 62
7
100
AcDbPolyline
 90
7
 70
0
 10
128.553715
 20
140.936645
 30
0.0
 10
128.584799
 20
140.969089
 30
0.0
 10
128.584799
 20
150.903501
 30
0.0
 10
128.584799
 20
160.837909
 30
0.0
 10
128.341382
 20
161.078024
 30
0.0
 10
128.097966
 20
161.318141
 30
0.0
 10
128.041654
 20
161.459024
 30
0.0
  0
SPLINE
  5
14c
100
AcDbEntity
  8
0
 62
7
100
AcDbSpline
 70
8
 71
3
 72
8
 73
4
 74
0
 40
0
 40
0
 40
0
 40
0
 40
1
 40
1
 40
1
 40
1
 10
130.706899
 20
162.104607
 30
0.0
 10
130.706760
 20
161.832059
 30
0.0
 10
130.706334
 20
161.824973
 30
0.0
 10
130.681075
 20
161.771232
 30
0.0
  0
SPLINE
  5
14d
100
AcDbEntity
  8
0
 62
7
100
AcDbSpline
 70
8
 71
3
 72
8
 73
4
 74
0
 40
0
 40
0
 40
0
 40
0
 40
1
 40
1
 40
1
 40
1
 10
130.681075
 20
161.771232
 30
0.0
 10
130.666936
 20
161.741034
 30
0.0
 10
130.645851
 20
161.690133
 30
0.0
 10
130.634201
 20
161.658117
 30
0.0
  0
SPLINE
  5
14e
100
AcDbEntity
  8
0
 62
7
100
AcDbSpline
 70
8
 71
3
 72
8
 73
4
 74
0
 40
0
 40
0
 40
0
 40
0
 40
1
 40
1
 40
1
 40
1
 10
130.634201
 20
161.658117
 30
0.0
 10
130.622545
 20
161.626102
 30
0.0
 10
130.587677
 20
161.536511
 30
0.0
 10
130.556706
 20
161.459024
 30
0.0
  0
LWPOLYLINE
  5
14f
100
AcDbEntity
  8
0
 62
7
100
AcDbPolyline
 90
17
 70
0
 10
127.891461
 20
162.104607
 30
0.0
 10
127.891323
 20
162.383076
 30
0.0
 10
127.993583
 20
162.637076
 30
0.0
 10
128.095843
 20
162.891076
 30
0.0
 10
128.295781
 20
163.092695
 30
0.0
 10
128.495719
 20
163.294315
 30
0.0
 10
128.757220
 20
163.402324
 30
0.0
 10
129.018721
 20
163.510333
 30
0.0
 10
129.299180
 20
163.510333
 30
0.0
 10
129.579638
 20
163.510333
 30
0.0
 10
129.841140
 20
163.402324
 30
0.0
 10
130.102638
 20
163.294315
 30
0.0
 10
130.302579
 20
163.092695
 30
0.0
 10
130.502513
 20
162.891076
 30
0.0
 10
130.604774
 20
162.637076
 30
0.0
 10
130.707034
 20
162.383076
 30
0.0
 10
130.706899
 20
162.104607
 30
0.0
  0
SPLINE
  5
150
100
AcDbEntity
  8
0
 62
7
100
AcDbSpline
 70
8
 71
3
 72
8
 73
4
 74
0
 40
0
 40
0
 40
0
 40
0
 40
1
 40
1
 40
1
 40
1
 10
130.044644
 20
140.936645
 30
0.0
 10
130.061747
 20
140.918808
 30
0.0
 10
130.080879
 20
140.904201
 30
0.0
 10
130.087175
 20
140.904201
 30
0.0
  0
SPLINE
  5
151
100
AcDbEntity
  8
0
 62
7
100
AcDbSpline
 70
8
 71
3
 72
8
 73
4
 74
0
 40
0
 40
0
 40
0
 40
0
 40
1
 40
1
 40
1
 40
1
 10
130.087175
 20
140.904201
 30
0.0
 10
130.093469
 20
140.904201
 30
0.0
 10
130.190209
 20
140.811711
 30
0.0
 10
130.302150
 20
140.698667
 30
0.0
  0
SPLINE
  5
152
100
AcDbEntity
  8
0
 62
7
100
AcDbSpline
 70
8
 71
3
 72
8
 73
4
 74
0
 40
0
 40
0
 40
0
 40
0
 40
1
 40
1
 40
1
 40
1
 10
130.302150
 20
140.698667
 30
0.0
 10
130.447607
 20
140.551776
 30
0.0
 10
130.514739
 20
140.491143
 30
0.0
 10
130.537433
 20
140.486159
 30
0.0
  0
SPLINE
  5
153
100
AcDbEntity
  8
0
 62
7
100
AcDbSpline
 70
8
 71
3
 72
8
 73
4
 74
0
 40
0
 40
0
 40
0
 40
0
 40
1
 40
1
 40
1
 40
1
 10
130.537433
 20
140.486159
 30
0.0
 10
130.605242
 20
140.471258
 30
0.0
 10
130.624848
 20
140.485312
 30
0.0
 10
130.836224
 20
140.698667
 30
0.0
  0
SPLINE
  5
154
100
AcDbEntity
  8
0
 62
7
100
AcDbSpline
 70
8
 71
3
 72
8
 73
4
 74
0
 40
0
 40
0
 40
0
 40
0
 40
1
 40
1
 40
1
 40
1
 10
130.836224
 20
140.698667
 30
0.0
 10
130.948165
 20
140.811711
 30
0.0
 10
131.044905
 20
140.904201
 30
0.0
 10
131.051198
 20
140.904201
 30
0.0
  0
SPLINE
  5
155
100
AcDbEntity
  8
0
 62
7
100
AcDbSpline
 70
8
 71
3
 72
8
 73
4
 74
0
 40
0
 40
0
 40
0
 40
0
 40
1
 40
1
 40
1
 40
1
 10
131.051198
 20
140.904201
 30
0.0
 10
131.057492
 20
140.904201
 30
0.0
 10
131.076627
 20
140.918792
 30
0.0
 10
131.093726
 20
140.936645
 30
0.0
  0
LWPOLYLINE
  5
156
100
AcDbEntity
  8
0
 62
7
100
AcDbPolyline
 90
7
 70
0
 10
130.556706
 20
161.459024
 30
0.0
 10
130.500394
 20
161.318141
 30
0.0
 10
130.256977
 20
161.078024
 30
0.0
 10
130.013560
 20
160.837909
 30
0.0
 10
130.013560
 20
150.903501
 30
0.0
 10
130.013560
 20
140.969089
 30
0.0
 10
130.044644
 20
140.936645
 30
0.0
  0
SPLINE
  5
157
100
AcDbEntity
  8
0
 62
7
100
AcDbSpline
 70
8
 71
3
 72
8
 73
4
 74
0
 40
0
 40
0
 40
0
 40
0
 40
1
 40
1
 40
1
 40
1
 10
130.879779
 20
158.539144
 30
0.0
 10
130.725971
 20
158.690570
 30
0.0
 10
130.632107
 20
158.790906
 30
0.0
 10
130.627651
 20
158.808652
 30
0.0
  0
SPLINE
  5
158
100
AcDbEntity
  8
0
 62
7
100
AcDbSpline
 70
8
 71
3
 72
8
 73
4
 74
0
 40
0
 40
0
 40
0
 40
0
 40
1
 40
1
 40
1
 40
1
 10
130.627651
 20
158.808652
 30
0.0
 10
130.623756
 20
158.824203
 30
0.0
 10
130.611790
 20
158.856139
 30
0.0
 10
130.601093
 20
158.879625
 30
0.0
  0
SPLINE
  5
159
100
AcDbEntity
  8
0
 62
7
100
AcDbSpline
 70
8
 71
3
 72
8
 73
4
 74
0
 40
0
 40
0
 40
0
 40
0
 40
1
 40
1
 40
1
 40
1
 10
130.601093
 20
158.879625
 30
0.0
 10
130.590397
 20
158.903106
 30
0.0
 10
130.566702
 20
158.960426
 30
0.0
 10
130.548442
 20
159.006992
 30
0.0
  0
SPLINE
  5
15a
100
AcDbEntity
  8
0
 62
7
100
AcDbSpline
 70
8
 71
3
 72
8
 73
4
 74
0
 40
0
 40
0
 40
0
 40
0
 40
1
 40
1
 40
1
 40
1
 10
130.548442
 20
159.006992
 30
0.0
 10
130.530182
 20
159.053559
 30
0.0
 10
130.508762
 20
159.105948
 30
0.0
 10
130.500840
 20
159.123409
 30
0.0
  0
SPLINE
  5
15b
100
AcDbEntity
  8
0
 62
7
100
AcDbSpline
 70
8
 71
3
 72
8
 73
4
 74
0
 40
0
 40
0
 40
0
 40
0
 40
1
 40
1
 40
1
 40
1
 10
130.500840
 20
159.123409
 30
0.0
 10
130.429711
 20
159.280217
 30
0.0
 10
130.431602
 20
159.268118
 30
0.0
 10
130.431455
 20
159.567088
 30
0.0
  0
LWPOLYLINE
  5
15c
100
AcDbEntity
  8
0
 62
7
100
AcDbPolyline
 90
5
 70
0
 10
131.093726
 20
140.936645
 30
0.0
 10
131.124810
 20
140.969089
 30
0.0
 10
131.124810
 20
149.633501
 30
0.0
 10
131.124810
 20
158.297909
 30
0.0
 10
130.879779
 20
158.539144
 30
0.0
  0
SPLINE
  5
15d
100
AcDbEntity
  8
0
 62
7
100
AcDbSpline
 70
8
 71
3
 72
8
 73
4
 74
0
 40
0
 40
0
 40
0
 40
0
 40
1
 40
1
 40
1
 40
1
 10
133.246893
 20
159.567088
 30
0.0
 10
133.246746
 20
159.268118
 30
0.0
 10
133.248586
 20
159.280217
 30
0.0
 10
133.177509
 20
159.123409
 30
0.0
  0
SPLINE
  5
15e
100
AcDbEntity
  8
0
 62
7
100
AcDbSpline
 70
8
 71
3
 72
8
 73
4
 74
0
 40
0
 40
0
 40
0
 40
0
 40
1
 40
1
 40
1
 40
1
 10
133.177509
 20
159.123409
 30
0.0
 10
133.169578
 20
159.105939
 30
0.0
 10
133.148166
 20
159.053559
 30
0.0
 10
133.129906
 20
159.006992
 30
0.0
  0
SPLINE
  5
15f
100
AcDbEntity
  8
0
 62
7
100
AcDbSpline
 70
8
 71
3
 72
8
 73
4
 74
0
 40
0
 40
0
 40
0
 40
0
 40
1
 40
1
 40
1
 40
1
 10
133.129906
 20
159.006992
 30
0.0
 10
133.111646
 20
158.960426
 30
0.0
 10
133.087954
 20
158.903109
 30
0.0
 10
133.077255
 20
158.879625
 30
0.0
  0
SPLINE
  5
160
100
AcDbEntity
  8
0
 62
7
100
AcDbSpline
 70
8
 71
3
 72
8
 73
4
 74
0
 40
0
 40
0
 40
0
 40
0
 40
1
 40
1
 40
1
 40
1
 10
133.077255
 20
158.879625
 30
0.0
 10
133.066559
 20
158.856145
 30
0.0
 10
133.054621
 20
158.824203
 30
0.0
 10
133.050698
 20
158.808652
 30
0.0
  0
SPLINE
  5
161
100
AcDbEntity
  8
0
 62
7
100
AcDbSpline
 70
8
 71
3
 72
8
 73
4
 74
0
 40
0
 40
0
 40
0
 40
0
 40
1
 40
1
 40
1
 40
1
 10
133.050698
 20
158.808652
 30
0.0
 10
133.046239
 20
158.790900
 30
0.0
 10
132.952377
 20
158.690570
 30
0.0
 10
132.798569
 20
158.539144
 30
0.0
  0
LWPOLYLINE
  5
162
100
AcDbEntity
  8
0
 62
7
100
AcDbPolyline
 90
17
 70
0
 10
130.431455
 20
159.567088
 30
0.0
 10
130.431317
 20
159.843076
 30
0.0
 10
130.533577
 20
160.097076
 30
0.0
 10
130.635838
 20
160.351076
 30
0.0
 10
130.835775
 20
160.552695
 30
0.0
 10
131.035713
 20
160.754315
 30
0.0
 10
131.297214
 20
160.862324
 30
0.0
 10
131.558716
 20
160.970333
 30
0.0
 10
131.839174
 20
160.970333
 30
0.0
 10
132.119632
 20
160.970333
 30
0.0
 10
132.381134
 20
160.862324
 30
0.0
 10
132.642635
 20
160.754315
 30
0.0
 10
132.842573
 20
160.552695
 30
0.0
 10
133.042510
 20
160.351076
 30
0.0
 10
133.144771
 20
160.097076
 30
0.0
 10
133.247031
 20
159.843076
 30
0.0
 10
133.246893
 20
159.567088
 30
0.0
  0
SPLINE
  5
163
100
AcDbEntity
  8
0
 62
7
100
AcDbSpline
 70
8
 71
3
 72
8
 73
4
 74
0
 40
0
 40
0
 40
0
 40
0
 40
1
 40
1
 40
1
 40
1
 10
132.584625
 20
140.936645
 30
0.0
 10
132.601727
 20
140.918808
 30
0.0
 10
132.620904
 20
140.904201
 30
0.0
 10
132.627249
 20
140.904201
 30
0.0
  0
SPLINE
  5
164
100
AcDbEntity
  8
0
 62
7
100
AcDbSpline
 70
8
 71
3
 72
8
 73
4
 74
0
 40
0
 40
0
 40
0
 40
0
 40
1
 40
1
 40
1
 40
1
 10
132.627249
 20
140.904201
 30
0.0
 10
132.633599
 20
140.904201
 30
0.0
 10
132.727440
 20
140.814547
 30
0.0
 10
132.835794
 20
140.704972
 30
0.0
  0
LWPOLYLINE
  5
165
100
AcDbEntity
  8
0
 62
7
100
AcDbPolyline
 90
5
 70
0
 10
132.798569
 20
158.539144
 30
0.0
 10
132.553541
 20
158.297909
 30
0.0
 10
132.553541
 20
149.633501
 30
0.0
 10
132.553541
 20
140.969089
 30
0.0
 10
132.584625
 20
140.936645
 30
0.0
  0
SPLINE
  5
166
100
AcDbEntity
  8
0
 62
7
100
AcDbSpline
 70
8
 71
3
 72
8
 73
4
 74
0
 40
0
 40
0
 40
0
 40
0
 40
1
 40
1
 40
1
 40
1
 10
133.091273
 20
140.363660
 30
0.0
 10
133.123432
 20
140.285513
 30
0.0
 10
133.153105
 20
140.209669
 30
0.0
 10
133.157208
 20
140.195117
 30
0.0
  0
SPLINE
  5
167
100
AcDbEntity
  8
0
 62
7
100
AcDbSpline
 70
8
 71
3
 72
8
 73
4
 74
0
 40
0
 40
0
 40
0
 40
0
 40
1
 40
1
 40
1
 40
1
 10
133.157208
 20
140.195117
 30
0.0
 10
133.161301
 20
140.180555
 30
0.0
 10
133.168328
 20
140.163898
 30
0.0
 10
133.172787
 20
140.158076
 30
0.0
  0
SPLINE
  5
168
100
AcDbEntity
  8
0
 62
7
100
AcDbSpline
 70
8
 71
3
 72
8
 73
4
 74
0
 40
0
 40
0
 40
0
 40
0
 40
1
 40
1
 40
1
 40
1
 10
133.172787
 20
140.158076
 30
0.0
 10
133.177246
 20
140.152262
 30
0.0
 10
133.195703
 20
140.112466
 30
0.0
 10
133.213825
 20
140.069655
 30
0.0
  0
LWPOLYLINE
  5
169
100
AcDbEntity
  8
0
 62
7
100
AcDbPolyline
 90
3
 70
0
 10
132.835794
 20
140.704972
 30
0.0
 10
133.032799
 20
140.505745
 30
0.0
 10
133.091273
 20
140.363660
 30
0.0
  0
SPLINE
  5
16a
100
AcDbEntity
  8
0
 62
7
100
AcDbSpline
 70
8
 71
3
 72
8
 73
4
 74
0
 40
0
 40
0
 40
0
 40
0
 40
1
 40
1
 40
1
 40
1
 10
127.005088
 20
138.733387
 30
0.0
 10
127.253083
 20
138.798357
 30
0.0
 10
127.465977
 20
138.951042
 30
0.0
 10
127.604085
 20
139.162983
 30
0.0
  0
SPLINE
  5
16b
100
AcDbEntity
  8
0
 62
7
100
AcDbSpline
 70
8
 71
3
 72
8
 73
4
 74
0
 40
0
 40
0
 40
0
 40
0
 40
1
 40
1
 40
1
 40
1
 10
127.604085
 20
139.162983
 30
0.0
 10
127.712882
 20
139.329940
 30
0.0
 10
127.758252
 20
139.488862
 30
0.0
 10
127.758252
 20
139.702992
 30
0.0
  0
SPLINE
  5
16c
100
AcDbEntity
  8
0
 62
7
100
AcDbSpline
 70
8
 71
3
 72
8
 73
4
 74
0
 40
0
 40
0
 40
0
 40
0
 40
1
 40
1
 40
1
 40
1
 10
127.758252
 20
139.702992
 30
0.0
 10
127.758252
 20
139.864982
 30
0.0
 10
127.745863
 20
139.933562
 30
0.0
 10
127.690869
 20
140.076180
 30
0.0
  0
SPLINE
  5
16d
100
AcDbEntity
  8
0
 62
7
100
AcDbSpline
 70
8
 71
3
 72
8
 73
4
 74
0
 40
0
 40
0
 40
0
 40
0
 40
1
 40
1
 40
1
 40
1
 10
127.690869
 20
140.076180
 30
0.0
 10
127.600879
 20
140.309533
 30
0.0
 10
127.369914
 20
140.541624
 30
0.0
 10
127.142962
 20
140.626754
 30
0.0
  0
LWPOLYLINE
  5
16e
100
AcDbEntity
  8
0
 62
7
100
AcDbPolyline
 90
38
 70
0
 10
133.213825
 20
140.069655
 30
0.0
 10
133.246752
 20
139.991819
 30
0.0
 10
133.246752
 20
139.709136
 30
0.0
 10
133.246752
 20
139.426451
 30
0.0
 10
133.140018
 20
139.167848
 30
0.0
 10
133.033285
 20
138.909242
 30
0.0
 10
132.837961
 20
138.712917
 30
0.0
 10
132.642638
 20
138.516589
 30
0.0
 10
132.381134
 20
138.408580
 30
0.0
 10
132.119627
 20
138.300568
 30
0.0
 10
131.838483
 20
138.300675
 30
0.0
 10
131.557336
 20
138.300780
 30
0.0
 10
131.298733
 20
138.407513
 30
0.0
 10
131.040127
 20
138.514244
 30
0.0
 10
130.831006
 20
138.722366
 30
0.0
 10
130.621888
 20
138.930488
 30
0.0
 10
130.569168
 20
138.930488
 30
0.0
 10
130.516452
 20
138.930488
 30
0.0
 10
130.307331
 20
138.722366
 30
0.0
 10
130.098210
 20
138.514244
 30
0.0
 10
129.839604
 20
138.407513
 30
0.0
 10
129.581001
 20
138.300780
 30
0.0
 10
129.299168
 20
138.300780
 30
0.0
 10
129.017336
 20
138.300780
 30
0.0
 10
128.758733
 20
138.407513
 30
0.0
 10
128.500127
 20
138.514244
 30
0.0
 10
128.291006
 20
138.722366
 30
0.0
 10
128.081888
 20
138.930488
 30
0.0
 10
128.029168
 20
138.930488
 30
0.0
 10
127.976452
 20
138.930488
 30
0.0
 10
127.767331
 20
138.722366
 30
0.0
 10
127.558210
 20
138.514244
 30
0.0
 10
127.299604
 20
138.407513
 30
0.0
 10
127.041001
 20
138.300780
 30
0.0
 10
126.754563
 20
138.301626
 30
0.0
 10
126.468127
 20
138.302473
 30
0.0
 10
126.211465
 20
138.410056
 30
0.0
 10
126.211499
 20
138.410076
 30
0.0
  0
SPLINE
  5
16f
100
AcDbEntity
  8
0
 62
7
100
AcDbSpline
 70
8
 71
3
 72
8
 73
4
 74
0
 40
0
 40
0
 40
0
 40
0
 40
1
 40
1
 40
1
 40
1
 10
127.142962
 20
158.633564
 30
0.0
 10
127.369914
 20
158.718694
 30
0.0
 10
127.600879
 20
158.950785
 30
0.0
 10
127.690869
 20
159.184138
 30
0.0
  0
SPLINE
  5
170
100
AcDbEntity
  8
0
 62
7
100
AcDbSpline
 70
8
 71
3
 72
8
 73
4
 74
0
 40
0
 40
0
 40
0
 40
0
 40
1
 40
1
 40
1
 40
1
 10
127.690869
 20
159.184138
 30
0.0
 10
127.745868
 20
159.326756
 30
0.0
 10
127.758252
 20
159.395339
 30
0.0
 10
127.758252
 20
159.557326
 30
0.0
  0
SPLINE
  5
171
100
AcDbEntity
  8
0
 62
7
100
AcDbSpline
 70
8
 71
3
 72
8
 73
4
 74
0
 40
0
 40
0
 40
0
 40
0
 40
1
 40
1
 40
1
 40
1
 10
127.758252
 20
159.557326
 30
0.0
 10
127.758252
 20
159.771456
 30
0.0
 10
127.712882
 20
159.930378
 30
0.0
 10
127.604085
 20
160.097335
 30
0.0
  0
SPLINE
  5
172
100
AcDbEntity
  8
0
 62
7
100
AcDbSpline
 70
8
 71
3
 72
8
 73
4
 74
0
 40
0
 40
0
 40
0
 40
0
 40
1
 40
1
 40
1
 40
1
 10
127.604085
 20
160.097335
 30
0.0
 10
127.462977
 20
160.313879
 30
0.0
 10
127.242790
 20
160.468672
 30
0.0
 10
126.983964
 20
160.533284
 30
0.0
  0
SPLINE
  5
173
100
AcDbEntity
  8
0
 62
7
100
AcDbSpline
 70
8
 71
3
 72
8
 73
4
 74
0
 40
0
 40
0
 40
0
 40
0
 40
1
 40
1
 40
1
 40
1
 10
126.983964
 20
160.533284
 30
0.0
 10
126.885816
 20
160.557781
 30
0.0
 10
126.643172
 20
160.557781
 30
0.0
 10
126.545024
 20
160.533284
 30
0.0
  0
SPLINE
  5
174
100
AcDbEntity
  8
0
 62
7
100
AcDbSpline
 70
8
 71
3
 72
8
 73
4
 74
0
 40
0
 40
0
 40
0
 40
0
 40
1
 40
1
 40
1
 40
1
 10
126.545024
 20
160.533284
 30
0.0
 10
126.286201
 20
160.468672
 30
0.0
 10
126.066011
 20
160.313879
 30
0.0
 10
125.924903
 20
160.097335
 30
0.0
  0
SPLINE
  5
175
100
AcDbEntity
  8
0
 62
7
100
AcDbSpline
 70
8
 71
3
 72
8
 73
4
 74
0
 40
0
 40
0
 40
0
 40
0
 40
1
 40
1
 40
1
 40
1
 10
125.924903
 20
160.097335
 30
0.0
 10
125.816106
 20
159.930378
 30
0.0
 10
125.770736
 20
159.771456
 30
0.0
 10
125.770736
 20
159.557326
 30
0.0
  0
SPLINE
  5
176
100
AcDbEntity
  8
0
 62
7
100
AcDbSpline
 70
8
 71
3
 72
8
 73
4
 74
0
 40
0
 40
0
 40
0
 40
0
 40
1
 40
1
 40
1
 40
1
 10
125.770736
 20
159.557326
 30
0.0
 10
125.770736
 20
159.395339
 30
0.0
 10
125.783126
 20
159.326756
 30
0.0
 10
125.838119
 20
159.184138
 30
0.0
  0
SPLINE
  5
177
100
AcDbEntity
  8
0
 62
7
100
AcDbSpline
 70
8
 71
3
 72
8
 73
4
 74
0
 40
0
 40
0
 40
0
 40
0
 40
1
 40
1
 40
1
 40
1
 10
125.838119
 20
159.184138
 30
0.0
 10
125.926988
 20
158.953692
 30
0.0
 10
126.153839
 20
158.723864
 30
0.0
 10
126.380020
 20
158.635125
 30
0.0
  0
LWPOLYLINE
  5
178
100
AcDbEntity
  8
0
 62
7
100
AcDbPolyline
 90
5
 70
0
 10
127.142962
 20
140.626754
 30
0.0
 10
127.066348
 20
140.655492
 30
0.0
 10
127.066348
 20
149.630159
 30
0.0
 10
127.066348
 20
158.604826
 30
0.0
 10
127.142962
 20
158.633564
 30
0.0
  0
SPLINE
  5
179
100
AcDbEntity
  8
0
 62
7
100
AcDbSpline
 70
8
 71
3
 72
8
 73
4
 74
0
 40
0
 40
0
 40
0
 40
0
 40
1
 40
1
 40
1
 40
1
 10
126.380020
 20
140.625193
 30
0.0
 10
126.153839
 20
140.536454
 30
0.0
 10
125.926988
 20
140.306626
 30
0.0
 10
125.838119
 20
140.076180
 30
0.0
  0
SPLINE
  5
17a
100
AcDbEntity
  8
0
 62
7
100
AcDbSpline
 70
8
 71
3
 72
8
 73
4
 74
0
 40
0
 40
0
 40
0
 40
0
 40
1
 40
1
 40
1
 40
1
 10
125.838119
 20
140.076180
 30
0.0
 10
125.783120
 20
139.933562
 30
0.0
 10
125.770736
 20
139.864979
 30
0.0
 10
125.770736
 20
139.702992
 30
0.0
  0
SPLINE
  5
17b
100
AcDbEntity
  8
0
 62
7
100
AcDbSpline
 70
8
 71
3
 72
8
 73
4
 74
0
 40
0
 40
0
 40
0
 40
0
 40
1
 40
1
 40
1
 40
1
 10
125.770736
 20
139.702992
 30
0.0
 10
125.770736
 20
139.489426
 30
0.0
 10
125.816431
 20
139.328836
 30
0.0
 10
125.923695
 20
139.165446
 30
0.0
  0
SPLINE
  5
17c
100
AcDbEntity
  8
0
 62
7
100
AcDbSpline
 70
8
 71
3
 72
8
 73
4
 74
0
 40
0
 40
0
 40
0
 40
0
 40
1
 40
1
 40
1
 40
1
 10
125.923695
 20
139.165446
 30
0.0
 10
126.080308
 20
138.926884
 30
0.0
 10
126.311956
 20
138.771165
 30
0.0
 10
126.588274
 20
138.718700
 30
0.0
  0
SPLINE
  5
17d
100
AcDbEntity
  8
0
 62
7
100
AcDbSpline
 70
8
 71
3
 72
8
 73
4
 74
0
 40
0
 40
0
 40
0
 40
0
 40
1
 40
1
 40
1
 40
1
 10
126.588274
 20
138.718700
 30
0.0
 10
126.697723
 20
138.697928
 30
0.0
 10
126.896427
 20
138.704928
 30
0.0
 10
127.005088
 20
138.733376
 30
0.0
  0
LWPOLYLINE
  5
17e
100
AcDbEntity
  8
0
 62
7
100
AcDbPolyline
 90
5
 70
0
 10
126.380020
 20
158.635125
 30
0.0
 10
126.452286
 20
158.606773
 30
0.0
 10
126.452286
 20
149.630159
 30
0.0
 10
126.452286
 20
140.653545
 30
0.0
 10
126.380020
 20
140.625193
 30
0.0
  0
SPLINE
  5
17f
100
AcDbEntity
  8
0
 62
7
100
AcDbSpline
 70
8
 71
3
 72
8
 73
4
 74
0
 40
0
 40
0
 40
0
 40
0
 40
1
 40
1
 40
1
 40
1
 10
126.645585
 20
139.227183
 30
0.0
 10
126.557761
 20
139.250833
 30
0.0
 10
126.484634
 20
139.293245
 30
0.0
 10
126.419689
 20
139.358187
 30
0.0
  0
SPLINE
  5
180
100
AcDbEntity
  8
0
 62
7
100
AcDbSpline
 70
8
 71
3
 72
8
 73
4
 74
0
 40
0
 40
0
 40
0
 40
0
 40
1
 40
1
 40
1
 40
1
 10
126.419689
 20
139.358187
 30
0.0
 10
126.224877
 20
139.553000
 30
0.0
 10
126.224877
 20
139.852985
 30
0.0
 10
126.419689
 20
140.047797
 30
0.0
  0
SPLINE
  5
181
100
AcDbEntity
  8
0
 62
7
100
AcDbSpline
 70
8
 71
3
 72
8
 73
4
 74
0
 40
0
 40
0
 40
0
 40
0
 40
1
 40
1
 40
1
 40
1
 10
126.419689
 20
140.047797
 30
0.0
 10
126.486195
 20
140.114303
 30
0.0
 10
126.558147
 20
140.155375
 30
0.0
 10
126.650123
 20
140.179330
 30
0.0
  0
SPLINE
  5
182
100
AcDbEntity
  8
0
 62
7
100
AcDbSpline
 70
8
 71
3
 72
8
 73
4
 74
0
 40
0
 40
0
 40
0
 40
0
 40
1
 40
1
 40
1
 40
1
 10
126.650123
 20
140.179330
 30
0.0
 10
126.812060
 20
140.221508
 30
0.0
 10
126.985178
 20
140.171907
 30
0.0
 10
127.109299
 20
140.047797
 30
0.0
  0
SPLINE
  5
183
100
AcDbEntity
  8
0
 62
7
100
AcDbSpline
 70
8
 71
3
 72
8
 73
4
 74
0
 40
0
 40
0
 40
0
 40
0
 40
1
 40
1
 40
1
 40
1
 10
127.109299
 20
140.047797
 30
0.0
 10
127.304111
 20
139.852985
 30
0.0
 10
127.304111
 20
139.553000
 30
0.0
 10
127.109299
 20
139.358187
 30
0.0
  0
SPLINE
  5
184
100
AcDbEntity
  8
0
 62
7
100
AcDbSpline
 70
8
 71
3
 72
8
 73
4
 74
0
 40
0
 40
0
 40
0
 40
0
 40
1
 40
1
 40
1
 40
1
 10
127.109299
 20
139.358187
 30
0.0
 10
126.985090
 20
139.233979
 30
0.0
 10
126.807084
 20
139.183689
 30
0.0
 10
126.645585
 20
139.227183
 30
0.0
  0
LWPOLYLINE
  5
185
100
AcDbEntity
  8
0
 62
7
100
AcDbPolyline
 90
2
 70
0
 10
127.005088
 20
138.733376
 30
0.0
 10
127.005088
 20
138.733387
 30
0.0
  0
SPLINE
  5
186
100
AcDbEntity
  8
0
 62
7
100
AcDbSpline
 70
8
 71
3
 72
8
 73
4
 74
0
 40
0
 40
0
 40
0
 40
0
 40
1
 40
1
 40
1
 40
1
 10
126.645585
 20
159.081516
 30
0.0
 10
126.557761
 20
159.105166
 30
0.0
 10
126.484634
 20
159.147579
 30
0.0
 10
126.419689
 20
159.212521
 30
0.0
  0
SPLINE
  5
187
100
AcDbEntity
  8
0
 62
7
100
AcDbSpline
 70
8
 71
3
 72
8
 73
4
 74
0
 40
0
 40
0
 40
0
 40
0
 40
1
 40
1
 40
1
 40
1
 10
126.419689
 20
159.212521
 30
0.0
 10
126.224877
 20
159.407333
 30
0.0
 10
126.224877
 20
159.707318
 30
0.0
 10
126.419689
 20
159.902131
 30
0.0
  0
SPLINE
  5
188
100
AcDbEntity
  8
0
 62
7
100
AcDbSpline
 70
8
 71
3
 72
8
 73
4
 74
0
 40
0
 40
0
 40
0
 40
0
 40
1
 40
1
 40
1
 40
1
 10
126.419689
 20
159.902131
 30
0.0
 10
126.614501
 20
160.096943
 30
0.0
 10
126.914487
 20
160.096943
 30
0.0
 10
127.109299
 20
159.902131
 30
0.0
  0
SPLINE
  5
189
100
AcDbEntity
  8
0
 62
7
100
AcDbSpline
 70
8
 71
3
 72
8
 73
4
 74
0
 40
0
 40
0
 40
0
 40
0
 40
1
 40
1
 40
1
 40
1
 10
127.109299
 20
159.902131
 30
0.0
 10
127.304111
 20
159.707318
 30
0.0
 10
127.304111
 20
159.407333
 30
0.0
 10
127.109299
 20
159.212521
 30
0.0
  0
SPLINE
  5
18a
100
AcDbEntity
  8
0
 62
7
100
AcDbSpline
 70
8
 71
3
 72
8
 73
4
 74
0
 40
0
 40
0
 40
0
 40
0
 40
1
 40
1
 40
1
 40
1
 10
127.109299
 20
159.212521
 30
0.0
 10
126.985090
 20
159.088312
 30
0.0
 10
126.807084
 20
159.038023
 30
0.0
 10
126.645585
 20
159.081516
 30
0.0
  0
LWPOLYLINE
  5
18b
100
AcDbEntity
  8
0
 62
7
100
AcDbPolyline
 90
2
 70
0
 10
126.645585
 20
139.227183
 30
0.0
 10
126.645585
 20
139.227183
 30
0.0
  0
SPLINE
  5
18c
100
AcDbEntity
  8
0
 62
7
100
AcDbSpline
 70
8
 71
3
 72
8
 73
4
 74
0
 40
0
 40
0
 40
0
 40
0
 40
1
 40
1
 40
1
 40
1
 10
129.545088
 20
138.733387
 30
0.0
 10
129.793083
 20
138.798357
 30
0.0
 10
130.005974
 20
138.951042
 30
0.0
 10
130.144085
 20
139.162983
 30
0.0
  0
SPLINE
  5
18d
100
AcDbEntity
  8
0
 62
7
100
AcDbSpline
 70
8
 71
3
 72
8
 73
4
 74
0
 40
0
 40
0
 40
0
 40
0
 40
1
 40
1
 40
1
 40
1
 10
130.144085
 20
139.162983
 30
0.0
 10
130.252882
 20
139.329940
 30
0.0
 10
130.298252
 20
139.488862
 30
0.0
 10
130.298252
 20
139.702992
 30
0.0
  0
SPLINE
  5
18e
100
AcDbEntity
  8
0
 62
7
100
AcDbSpline
 70
8
 71
3
 72
8
 73
4
 74
0
 40
0
 40
0
 40
0
 40
0
 40
1
 40
1
 40
1
 40
1
 10
130.298252
 20
139.702992
 30
0.0
 10
130.298252
 20
139.864982
 30
0.0
 10
130.285863
 20
139.933562
 30
0.0
 10
130.230872
 20
140.076180
 30
0.0
  0
SPLINE
  5
18f
100
AcDbEntity
  8
0
 62
7
100
AcDbSpline
 70
8
 71
3
 72
8
 73
4
 74
0
 40
0
 40
0
 40
0
 40
0
 40
1
 40
1
 40
1
 40
1
 10
130.230872
 20
140.076180
 30
0.0
 10
130.140879
 20
140.309533
 30
0.0
 10
129.909911
 20
140.541624
 30
0.0
 10
129.682962
 20
140.626754
 30
0.0
  0
LWPOLYLINE
  5
190
100
AcDbEntity
  8
0
 62
7
100
AcDbPolyline
 90
2
 70
0
 10
126.645585
 20
159.081516
 30
0.0
 10
126.645585
 20
159.081516
 30
0.0
  0
SPLINE
  5
191
100
AcDbEntity
  8
0
 62
7
100
AcDbSpline
 70
8
 71
3
 72
8
 73
4
 74
0
 40
0
 40
0
 40
0
 40
0
 40
1
 40
1
 40
1
 40
1
 10
129.682962
 20
161.184148
 30
0.0
 10
129.909911
 20
161.269277
 30
0.0
 10
130.140879
 20
161.501368
 30
0.0
 10
130.230872
 20
161.734721
 30
0.0
  0
SPLINE
  5
192
100
AcDbEntity
  8
0
 62
7
100
AcDbSpline
 70
8
 71
3
 72
8
 73
4
 74
0
 40
0
 40
0
 40
0
 40
0
 40
1
 40
1
 40
1
 40
1
 10
130.230872
 20
161.734721
 30
0.0
 10
130.285871
 20
161.877339
 30
0.0
 10
130.298252
 20
161.945919
 30
0.0
 10
130.298252
 20
162.107909
 30
0.0
  0
SPLINE
  5
193
100
AcDbEntity
  8
0
 62
7
100
AcDbSpline
 70
8
 71
3
 72
8
 73
4
 74
0
 40
0
 40
0
 40
0
 40
0
 40
1
 40
1
 40
1
 40
1
 10
130.298252
 20
162.107909
 30
0.0
 10
130.298252
 20
162.322039
 30
0.0
 10
130.252882
 20
162.480962
 30
0.0
 10
130.144085
 20
162.647919
 30
0.0
  0
SPLINE
  5
194
100
AcDbEntity
  8
0
 62
7
100
AcDbSpline
 70
8
 71
3
 72
8
 73
4
 74
0
 40
0
 40
0
 40
0
 40
0
 40
1
 40
1
 40
1
 40
1
 10
130.144085
 20
162.647919
 30
0.0
 10
130.002977
 20
162.864462
 30
0.0
 10
129.782790
 20
163.019255
 30
0.0
 10
129.523964
 20
163.083867
 30
0.0
  0
SPLINE
  5
195
100
AcDbEntity
  8
0
 62
7
100
AcDbSpline
 70
8
 71
3
 72
8
 73
4
 74
0
 40
0
 40
0
 40
0
 40
0
 40
1
 40
1
 40
1
 40
1
 10
129.523964
 20
163.083867
 30
0.0
 10
129.425819
 20
163.108364
 30
0.0
 10
129.183172
 20
163.108364
 30
0.0
 10
129.085024
 20
163.083867
 30
0.0
  0
SPLINE
  5
196
100
AcDbEntity
  8
0
 62
7
100
AcDbSpline
 70
8
 71
3
 72
8
 73
4
 74
0
 40
0
 40
0
 40
0
 40
0
 40
1
 40
1
 40
1
 40
1
 10
129.085024
 20
163.083867
 30
0.0
 10
128.826201
 20
163.019255
 30
0.0
 10
128.606011
 20
162.864462
 30
0.0
 10
128.464903
 20
162.647919
 30
0.0
  0
SPLINE
  5
197
100
AcDbEntity
  8
0
 62
7
100
AcDbSpline
 70
8
 71
3
 72
8
 73
4
 74
0
 40
0
 40
0
 40
0
 40
0
 40
1
 40
1
 40
1
 40
1
 10
128.464903
 20
162.647919
 30
0.0
 10
128.356106
 20
162.480962
 30
0.0
 10
128.310736
 20
162.322039
 30
0.0
 10
128.310736
 20
162.107909
 30
0.0
  0
SPLINE
  5
198
100
AcDbEntity
  8
0
 62
7
100
AcDbSpline
 70
8
 71
3
 72
8
 73
4
 74
0
 40
0
 40
0
 40
0
 40
0
 40
1
 40
1
 40
1
 40
1
 10
128.310736
 20
162.107909
 30
0.0
 10
128.310736
 20
161.945919
 30
0.0
 10
128.323126
 20
161.877339
 30
0.0
 10
128.378119
 20
161.734721
 30
0.0
  0
SPLINE
  5
199
100
AcDbEntity
  8
0
 62
7
100
AcDbSpline
 70
8
 71
3
 72
8
 73
4
 74
0
 40
0
 40
0
 40
0
 40
0
 40
1
 40
1
 40
1
 40
1
 10
128.378119
 20
161.734721
 30
0.0
 10
128.466988
 20
161.504275
 30
0.0
 10
128.693839
 20
161.274448
 30
0.0
 10
128.920020
 20
161.185708
 30
0.0
  0
LWPOLYLINE
  5
19a
100
AcDbEntity
  8
0
 62
7
100
AcDbPolyline
 90
5
 70
0
 10
129.682962
 20
140.626754
 30
0.0
 10
129.606348
 20
140.655492
 30
0.0
 10
129.606348
 20
150.905451
 30
0.0
 10
129.606348
 20
161.155409
 30
0.0
 10
129.682962
 20
161.184148
 30
0.0
  0
SPLINE
  5
19b
100
AcDbEntity
  8
0
 62
7
100
AcDbSpline
 70
8
 71
3
 72
8
 73
4
 74
0
 40
0
 40
0
 40
0
 40
0
 40
1
 40
1
 40
1
 40
1
 10
128.920020
 20
140.625193
 30
0.0
 10
128.693839
 20
140.536454
 30
0.0
 10
128.466988
 20
140.306626
 30
0.0
 10
128.378119
 20
140.076180
 30
0.0
  0
SPLINE
  5
19c
100
AcDbEntity
  8
0
 62
7
100
AcDbSpline
 70
8
 71
3
 72
8
 73
4
 74
0
 40
0
 40
0
 40
0
 40
0
 40
1
 40
1
 40
1
 40
1
 10
128.378119
 20
140.076180
 30
0.0
 10
128.323120
 20
139.933562
 30
0.0
 10
128.310736
 20
139.864979
 30
0.0
 10
128.310736
 20
139.702992
 30
0.0
  0
SPLINE
  5
19d
100
AcDbEntity
  8
0
 62
7
100
AcDbSpline
 70
8
 71
3
 72
8
 73
4
 74
0
 40
0
 40
0
 40
0
 40
0
 40
1
 40
1
 40
1
 40
1
 10
128.310736
 20
139.702992
 30
0.0
 10
128.310736
 20
139.489426
 30
0.0
 10
128.356431
 20
139.328836
 30
0.0
 10
128.463695
 20
139.165446
 30
0.0
  0
SPLINE
  5
19e
100
AcDbEntity
  8
0
 62
7
100
AcDbSpline
 70
8
 71
3
 72
8
 73
4
 74
0
 40
0
 40
0
 40
0
 40
0
 40
1
 40
1
 40
1
 40
1
 10
128.463695
 20
139.165446
 30
0.0
 10
128.620308
 20
138.926884
 30
0.0
 10
128.851956
 20
138.771165
 30
0.0
 10
129.128274
 20
138.718700
 30
0.0
  0
SPLINE
  5
19f
100
AcDbEntity
  8
0
 62
7
100
AcDbSpline
 70
8
 71
3
 72
8
 73
4
 74
0
 40
0
 40
0
 40
0
 40
0
 40
1
 40
1
 40
1
 40
1
 10
129.128274
 20
138.718700
 30
0.0
 10
129.237723
 20
138.697928
 30
0.0
 10
129.436427
 20
138.704928
 30
0.0
 10
129.545088
 20
138.733376
 30
0.0
  0
LWPOLYLINE
  5
1a0
100
AcDbEntity
  8
0
 62
7
100
AcDbPolyline
 90
5
 70
0
 10
128.920020
 20
161.185708
 30
0.0
 10
128.992286
 20
161.157356
 30
0.0
 10
128.992286
 20
150.905451
 30
0.0
 10
128.992286
 20
140.653545
 30
0.0
 10
128.920020
 20
140.625193
 30
0.0
  0
SPLINE
  5
1a1
100
AcDbEntity
  8
0
 62
7
100
AcDbSpline
 70
8
 71
3
 72
8
 73
4
 74
0
 40
0
 40
0
 40
0
 40
0
 40
1
 40
1
 40
1
 40
1
 10
129.185585
 20
139.227183
 30
0.0
 10
129.097761
 20
139.250833
 30
0.0
 10
129.024634
 20
139.293245
 30
0.0
 10
128.959689
 20
139.358187
 30
0.0
  0
SPLINE
  5
1a2
100
AcDbEntity
  8
0
 62
7
100
AcDbSpline
 70
8
 71
3
 72
8
 73
4
 74
0
 40
0
 40
0
 40
0
 40
0
 40
1
 40
1
 40
1
 40
1
 10
128.959689
 20
139.358187
 30
0.0
 10
128.764877
 20
139.553000
 30
0.0
 10
128.764877
 20
139.852985
 30
0.0
 10
128.959689
 20
140.047797
 30
0.0
  0
SPLINE
  5
1a3
100
AcDbEntity
  8
0
 62
7
100
AcDbSpline
 70
8
 71
3
 72
8
 73
4
 74
0
 40
0
 40
0
 40
0
 40
0
 40
1
 40
1
 40
1
 40
1
 10
128.959689
 20
140.047797
 30
0.0
 10
129.026195
 20
140.114303
 30
0.0
 10
129.098147
 20
140.155375
 30
0.0
 10
129.190123
 20
140.179330
 30
0.0
  0
SPLINE
  5
1a4
100
AcDbEntity
  8
0
 62
7
100
AcDbSpline
 70
8
 71
3
 72
8
 73
4
 74
0
 40
0
 40
0
 40
0
 40
0
 40
1
 40
1
 40
1
 40
1
 10
129.190123
 20
140.179330
 30
0.0
 10
129.352060
 20
140.221508
 30
0.0
 10
129.525178
 20
140.171907
 30
0.0
 10
129.649299
 20
140.047797
 30
0.0
  0
SPLINE
  5
1a5
100
AcDbEntity
  8
0
 62
7
100
AcDbSpline
 70
8
 71
3
 72
8
 73
4
 74
0
 40
0
 40
0
 40
0
 40
0
 40
1
 40
1
 40
1
 40
1
 10
129.649299
 20
140.047797
 30
0.0
 10
129.715805
 20
139.981292
 30
0.0
 10
129.756876
 20
139.909339
 30
0.0
 10
129.780832
 20
139.817363
 30
0.0
  0
SPLINE
  5
1a6
100
AcDbEntity
  8
0
 62
7
100
AcDbSpline
 70
8
 71
3
 72
8
 73
4
 74
0
 40
0
 40
0
 40
0
 40
0
 40
1
 40
1
 40
1
 40
1
 10
129.780832
 20
139.817363
 30
0.0
 10
129.871397
 20
139.469659
 30
0.0
 10
129.532586
 20
139.133730
 30
0.0
 10
129.185585
 20
139.227183
 30
0.0
  0
LWPOLYLINE
  5
1a7
100
AcDbEntity
  8
0
 62
7
100
AcDbPolyline
 90
2
 70
0
 10
129.545088
 20
138.733376
 30
0.0
 10
129.545088
 20
138.733387
 30
0.0
  0
SPLINE
  5
1a8
100
AcDbEntity
  8
0
 62
7
100
AcDbSpline
 70
8
 71
3
 72
8
 73
4
 74
0
 40
0
 40
0
 40
0
 40
0
 40
1
 40
1
 40
1
 40
1
 10
129.185585
 20
161.632099
 30
0.0
 10
129.097761
 20
161.655749
 30
0.0
 10
129.024634
 20
161.698162
 30
0.0
 10
128.959689
 20
161.763104
 30
0.0
  0
SPLINE
  5
1a9
100
AcDbEntity
  8
0
 62
7
100
AcDbSpline
 70
8
 71
3
 72
8
 73
4
 74
0
 40
0
 40
0
 40
0
 40
0
 40
1
 40
1
 40
1
 40
1
 10
128.959689
 20
161.763104
 30
0.0
 10
128.764877
 20
161.957916
 30
0.0
 10
128.764877
 20
162.257902
 30
0.0
 10
128.959689
 20
162.452714
 30
0.0
  0
SPLINE
  5
1aa
100
AcDbEntity
  8
0
 62
7
100
AcDbSpline
 70
8
 71
3
 72
8
 73
4
 74
0
 40
0
 40
0
 40
0
 40
0
 40
1
 40
1
 40
1
 40
1
 10
128.959689
 20
162.452714
 30
0.0
 10
129.154501
 20
162.647526
 30
0.0
 10
129.454487
 20
162.647526
 30
0.0
 10
129.649299
 20
162.452714
 30
0.0
  0
SPLINE
  5
1ab
100
AcDbEntity
  8
0
 62
7
100
AcDbSpline
 70
8
 71
3
 72
8
 73
4
 74
0
 40
0
 40
0
 40
0
 40
0
 40
1
 40
1
 40
1
 40
1
 10
129.649299
 20
162.452714
 30
0.0
 10
129.715805
 20
162.386208
 30
0.0
 10
129.756876
 20
162.314256
 30
0.0
 10
129.780832
 20
162.222280
 30
0.0
  0
SPLINE
  5
1ac
100
AcDbEntity
  8
0
 62
7
100
AcDbSpline
 70
8
 71
3
 72
8
 73
4
 74
0
 40
0
 40
0
 40
0
 40
0
 40
1
 40
1
 40
1
 40
1
 10
129.780832
 20
162.222280
 30
0.0
 10
129.871397
 20
161.874576
 30
0.0
 10
129.532586
 20
161.538647
 30
0.0
 10
129.185585
 20
161.632099
 30
0.0
  0
LWPOLYLINE
  5
1ad
100
AcDbEntity
  8
0
 62
7
100
AcDbPolyline
 90
2
 70
0
 10
129.185585
 20
139.227183
 30
0.0
 10
129.185585
 20
139.227183
 30
0.0
  0
SPLINE
  5
1ae
100
AcDbEntity
  8
0
 62
7
100
AcDbSpline
 70
8
 71
3
 72
8
 73
4
 74
0
 40
0
 40
0
 40
0
 40
0
 40
1
 40
1
 40
1
 40
1
 10
132.085088
 20
138.733387
 30
0.0
 10
132.333083
 20
138.798357
 30
0.0
 10
132.545977
 20
138.951042
 30
0.0
 10
132.684085
 20
139.162983
 30
0.0
  0
SPLINE
  5
1af
100
AcDbEntity
  8
0
 62
7
100
AcDbSpline
 70
8
 71
3
 72
8
 73
4
 74
0
 40
0
 40
0
 40
0
 40
0
 40
1
 40
1
 40
1
 40
1
 10
132.684085
 20
139.162983
 30
0.0
 10
132.792882
 20
139.329940
 30
0.0
 10
132.838252
 20
139.488862
 30
0.0
 10
132.838252
 20
139.702992
 30
0.0
  0
SPLINE
  5
1b0
100
AcDbEntity
  8
0
 62
7
100
AcDbSpline
 70
8
 71
3
 72
8
 73
4
 74
0
 40
0
 40
0
 40
0
 40
0
 40
1
 40
1
 40
1
 40
1
 10
132.838252
 20
139.702992
 30
0.0
 10
132.838252
 20
139.864982
 30
0.0
 10
132.825863
 20
139.933562
 30
0.0
 10
132.770872
 20
140.076180
 30
0.0
  0
SPLINE
  5
1b1
100
AcDbEntity
  8
0
 62
7
100
AcDbSpline
 70
8
 71
3
 72
8
 73
4
 74
0
 40
0
 40
0
 40
0
 40
0
 40
1
 40
1
 40
1
 40
1
 10
132.770872
 20
140.076180
 30
0.0
 10
132.680879
 20
140.309533
 30
0.0
 10
132.449914
 20
140.541624
 30
0.0
 10
132.222962
 20
140.626754
 30
0.0
  0
LWPOLYLINE
  5
1b2
100
AcDbEntity
  8
0
 62
7
100
AcDbPolyline
 90
2
 70
0
 10
129.185585
 20
161.632099
 30
0.0
 10
129.185585
 20
161.632099
 30
0.0
  0
SPLINE
  5
1b3
100
AcDbEntity
  8
0
 62
7
100
AcDbSpline
 70
8
 71
3
 72
8
 73
4
 74
0
 40
0
 40
0
 40
0
 40
0
 40
1
 40
1
 40
1
 40
1
 10
132.222962
 20
158.633564
 30
0.0
 10
132.449914
 20
158.718694
 30
0.0
 10
132.680879
 20
158.950785
 30
0.0
 10
132.770872
 20
159.184138
 30
0.0
  0
SPLINE
  5
1b4
100
AcDbEntity
  8
0
 62
7
100
AcDbSpline
 70
8
 71
3
 72
8
 73
4
 74
0
 40
0
 40
0
 40
0
 40
0
 40
1
 40
1
 40
1
 40
1
 10
132.770872
 20
159.184138
 30
0.0
 10
132.825871
 20
159.326756
 30
0.0
 10
132.838252
 20
159.395339
 30
0.0
 10
132.838252
 20
159.557326
 30
0.0
  0
SPLINE
  5
1b5
100
AcDbEntity
  8
0
 62
7
100
AcDbSpline
 70
8
 71
3
 72
8
 73
4
 74
0
 40
0
 40
0
 40
0
 40
0
 40
1
 40
1
 40
1
 40
1
 10
132.838252
 20
159.557326
 30
0.0
 10
132.838252
 20
159.771456
 30
0.0
 10
132.792882
 20
159.930378
 30
0.0
 10
132.684085
 20
160.097335
 30
0.0
  0
SPLINE
  5
1b6
100
AcDbEntity
  8
0
 62
7
100
AcDbSpline
 70
8
 71
3
 72
8
 73
4
 74
0
 40
0
 40
0
 40
0
 40
0
 40
1
 40
1
 40
1
 40
1
 10
132.684085
 20
160.097335
 30
0.0
 10
132.542977
 20
160.313879
 30
0.0
 10
132.322790
 20
160.468672
 30
0.0
 10
132.063964
 20
160.533284
 30
0.0
  0
SPLINE
  5
1b7
100
AcDbEntity
  8
0
 62
7
100
AcDbSpline
 70
8
 71
3
 72
8
 73
4
 74
0
 40
0
 40
0
 40
0
 40
0
 40
1
 40
1
 40
1
 40
1
 10
132.063964
 20
160.533284
 30
0.0
 10
131.965819
 20
160.557781
 30
0.0
 10
131.723172
 20
160.557781
 30
0.0
 10
131.625024
 20
160.533284
 30
0.0
  0
SPLINE
  5
1b8
100
AcDbEntity
  8
0
 62
7
100
AcDbSpline
 70
8
 71
3
 72
8
 73
4
 74
0
 40
0
 40
0
 40
0
 40
0
 40
1
 40
1
 40
1
 40
1
 10
131.625024
 20
160.533284
 30
0.0
 10
131.366201
 20
160.468672
 30
0.0
 10
131.146011
 20
160.313879
 30
0.0
 10
131.004903
 20
160.097335
 30
0.0
  0
SPLINE
  5
1b9
100
AcDbEntity
  8
0
 62
7
100
AcDbSpline
 70
8
 71
3
 72
8
 73
4
 74
0
 40
0
 40
0
 40
0
 40
0
 40
1
 40
1
 40
1
 40
1
 10
131.004903
 20
160.097335
 30
0.0
 10
130.896106
 20
159.930378
 30
0.0
 10
130.850736
 20
159.771456
 30
0.0
 10
130.850736
 20
159.557326
 30
0.0
  0
SPLINE
  5
1ba
100
AcDbEntity
  8
0
 62
7
100
AcDbSpline
 70
8
 71
3
 72
8
 73
4
 74
0
 40
0
 40
0
 40
0
 40
0
 40
1
 40
1
 40
1
 40
1
 10
130.850736
 20
159.557326
 30
0.0
 10
130.850736
 20
159.395339
 30
0.0
 10
130.863126
 20
159.326756
 30
0.0
 10
130.918119
 20
159.184138
 30
0.0
  0
SPLINE
  5
1bb
100
AcDbEntity
  8
0
 62
7
100
AcDbSpline
 70
8
 71
3
 72
8
 73
4
 74
0
 40
0
 40
0
 40
0
 40
0
 40
1
 40
1
 40
1
 40
1
 10
130.918119
 20
159.184138
 30
0.0
 10
131.006988
 20
158.953692
 30
0.0
 10
131.233839
 20
158.723864
 30
0.0
 10
131.460020
 20
158.635125
 30
0.0
  0
LWPOLYLINE
  5
1bc
100
AcDbEntity
  8
0
 62
7
100
AcDbPolyline
 90
5
 70
0
 10
132.222962
 20
140.626754
 30
0.0
 10
132.146348
 20
140.655492
 30
0.0
 10
132.146348
 20
149.630159
 30
0.0
 10
132.146348
 20
158.604826
 30
0.0
 10
132.222962
 20
158.633564
 30
0.0
  0
SPLINE
  5
1bd
100
AcDbEntity
  8
0
 62
7
100
AcDbSpline
 70
8
 71
3
 72
8
 73
4
 74
0
 40
0
 40
0
 40
0
 40
0
 40
1
 40
1
 40
1
 40
1
 10
131.460020
 20
140.625193
 30
0.0
 10
131.233839
 20
140.536454
 30
0.0
 10
131.006988
 20
140.306626
 30
0.0
 10
130.918119
 20
140.076180
 30
0.0
  0
SPLINE
  5
1be
100
AcDbEntity
  8
0
 62
7
100
AcDbSpline
 70
8
 71
3
 72
8
 73
4
 74
0
 40
0
 40
0
 40
0
 40
0
 40
1
 40
1
 40
1
 40
1
 10
130.918119
 20
140.076180
 30
0.0
 10
130.863120
 20
139.933562
 30
0.0
 10
130.850736
 20
139.864979
 30
0.0
 10
130.850736
 20
139.702992
 30
0.0
  0
SPLINE
  5
1bf
100
AcDbEntity
  8
0
 62
7
100
AcDbSpline
 70
8
 71
3
 72
8
 73
4
 74
0
 40
0
 40
0
 40
0
 40
0
 40
1
 40
1
 40
1
 40
1
 10
130.850736
 20
139.702992
 30
0.0
 10
130.850736
 20
139.489426
 30
0.0
 10
130.896431
 20
139.328836
 30
0.0
 10
131.003695
 20
139.165446
 30
0.0
  0
SPLINE
  5
1c0
100
AcDbEntity
  8
0
 62
7
100
AcDbSpline
 70
8
 71
3
 72
8
 73
4
 74
0
 40
0
 40
0
 40
0
 40
0
 40
1
 40
1
 40
1
 40
1
 10
131.003695
 20
139.165446
 30
0.0
 10
131.160308
 20
138.926884
 30
0.0
 10
131.391956
 20
138.771165
 30
0.0
 10
131.668274
 20
138.718700
 30
0.0
  0
SPLINE
  5
1c1
100
AcDbEntity
  8
0
 62
7
100
AcDbSpline
 70
8
 71
3
 72
8
 73
4
 74
0
 40
0
 40
0
 40
0
 40
0
 40
1
 40
1
 40
1
 40
1
 10
131.668274
 20
138.718700
 30
0.0
 10
131.777723
 20
138.697928
 30
0.0
 10
131.976427
 20
138.704928
 30
0.0
 10
132.085088
 20
138.733376
 30
0.0
  0
LWPOLYLINE
  5
1c2
100
AcDbEntity
  8
0
 62
7
100
AcDbPolyline
 90
5
 70
0
 10
131.460020
 20
158.635125
 30
0.0
 10
131.532286
 20
158.606773
 30
0.0
 10
131.532286
 20
149.630159
 30
0.0
 10
131.532286
 20
140.653545
 30
0.0
 10
131.460020
 20
140.625193
 30
0.0
  0
SPLINE
  5
1c3
100
AcDbEntity
  8
0
 62
7
100
AcDbSpline
 70
8
 71
3
 72
8
 73
4
 74
0
 40
0
 40
0
 40
0
 40
0
 40
1
 40
1
 40
1
 40
1
 10
131.725585
 20
139.227183
 30
0.0
 10
131.637761
 20
139.250833
 30
0.0
 10
131.564634
 20
139.293245
 30
0.0
 10
131.499689
 20
139.358187
 30
0.0
  0
SPLINE
  5
1c4
100
AcDbEntity
  8
0
 62
7
100
AcDbSpline
 70
8
 71
3
 72
8
 73
4
 74
0
 40
0
 40
0
 40
0
 40
0
 40
1
 40
1
 40
1
 40
1
 10
131.499689
 20
139.358187
 30
0.0
 10
131.304877
 20
139.553000
 30
0.0
 10
131.304877
 20
139.852985
 30
0.0
 10
131.499689
 20
140.047797
 30
0.0
  0
SPLINE
  5
1c5
100
AcDbEntity
  8
0
 62
7
100
AcDbSpline
 70
8
 71
3
 72
8
 73
4
 74
0
 40
0
 40
0
 40
0
 40
0
 40
1
 40
1
 40
1
 40
1
 10
131.499689
 20
140.047797
 30
0.0
 10
131.566195
 20
140.114303
 30
0.0
 10
131.638147
 20
140.155375
 30
0.0
 10
131.730123
 20
140.179330
 30
0.0
  0
SPLINE
  5
1c6
100
AcDbEntity
  8
0
 62
7
100
AcDbSpline
 70
8
 71
3
 72
8
 73
4
 74
0
 40
0
 40
0
 40
0
 40
0
 40
1
 40
1
 40
1
 40
1
 10
131.730123
 20
140.179330
 30
0.0
 10
131.892060
 20
140.221508
 30
0.0
 10
132.065178
 20
140.171907
 30
0.0
 10
132.189299
 20
140.047797
 30
0.0
  0
SPLINE
  5
1c7
100
AcDbEntity
  8
0
 62
7
100
AcDbSpline
 70
8
 71
3
 72
8
 73
4
 74
0
 40
0
 40
0
 40
0
 40
0
 40
1
 40
1
 40
1
 40
1
 10
132.189299
 20
140.047797
 30
0.0
 10
132.255805
 20
139.981292
 30
0.0
 10
132.296876
 20
139.909339
 30
0.0
 10
132.320832
 20
139.817363
 30
0.0
  0
SPLINE
  5
1c8
100
AcDbEntity
  8
0
 62
7
100
AcDbSpline
 70
8
 71
3
 72
8
 73
4
 74
0
 40
0
 40
0
 40
0
 40
0
 40
1
 40
1
 40
1
 40
1
 10
132.320832
 20
139.817363
 30
0.0
 10
132.411399
 20
139.469659
 30
0.0
 10
132.072586
 20
139.133730
 30
0.0
 10
131.725585
 20
139.227183
 30
0.0
  0
LWPOLYLINE
  5
1c9
100
AcDbEntity
  8
0
 62
7
100
AcDbPolyline
 90
2
 70
0
 10
132.085088
 20
138.733376
 30
0.0
 10
132.085088
 20
138.733387
 30
0.0
  0
SPLINE
  5
1ca
100
AcDbEntity
  8
0
 62
7
100
AcDbSpline
 70
8
 71
3
 72
8
 73
4
 74
0
 40
0
 40
0
 40
0
 40
0
 40
1
 40
1
 40
1
 40
1
 10
131.725585
 20
159.081516
 30
0.0
 10
131.637761
 20
159.105166
 30
0.0
 10
131.564634
 20
159.147579
 30
0.0
 10
131.499689
 20
159.212521
 30
0.0
  0
SPLINE
  5
1cb
100
AcDbEntity
  8
0
 62
7
100
AcDbSpline
 70
8
 71
3
 72
8
 73
4
 74
0
 40
0
 40
0
 40
0
 40
0
 40
1
 40
1
 40
1
 40
1
 10
131.499689
 20
159.212521
 30
0.0
 10
131.304877
 20
159.407333
 30
0.0
 10
131.304877
 20
159.707318
 30
0.0
 10
131.499689
 20
159.902131
 30
0.0
  0
SPLINE
  5
1cc
100
AcDbEntity
  8
0
 62
7
100
AcDbSpline
 70
8
 71
3
 72
8
 73
4
 74
0
 40
0
 40
0
 40
0
 40
0
 40
1
 40
1
 40
1
 40
1
 10
131.499689
 20
159.902131
 30
0.0
 10
131.694501
 20
160.096943
 30
0.0
 10
131.994487
 20
160.096943
 30
0.0
 10
132.189299
 20
159.902131
 30
0.0
  0
SPLINE
  5
1cd
100
AcDbEntity
  8
0
 62
7
100
AcDbSpline
 70
8
 71
3
 72
8
 73
4
 74
0
 40
0
 40
0
 40
0
 40
0
 40
1
 40
1
 40
1
 40
1
 10
132.189299
 20
159.902131
 30
0.0
 10
132.255805
 20
159.835625
 30
0.0
 10
132.296876
 20
159.763672
 30
0.0
 10
132.320832
 20
159.671696
 30
0.0
  0
SPLINE
  5
1ce
100
AcDbEntity
  8
0
 62
7
100
AcDbSpline
 70
8
 71
3
 72
8
 73
4
 74
0
 40
0
 40
0
 40
0
 40
0
 40
1
 40
1
 40
1
 40
1
 10
132.320832
 20
159.671696
 30
0.0
 10
132.411399
 20
159.323993
 30
0.0
 10
132.072586
 20
158.988064
 30
0.0
 10
131.725585
 20
159.081516
 30
0.0
  0
LWPOLYLINE
  5
1cf
100
AcDbEntity
  8
0
 62
7
100
AcDbPolyline
 90
2
 70
0
 10
131.725585
 20
139.227183
 30
0.0
 10
131.725585
 20
139.227183
 30
0.0
  0
LWPOLYLINE
  5
1d0
100
AcDbEntity
  8
0
 62
7
100
AcDbPolyline
 90
2
 70
0
 10
131.725585
 20
159.081516
 30
0.0
 10
131.725585
 20
159.081516
 30
0.0
  0
LWPOLYLINE
  5
1d1
100
AcDbEntity
  8
0
 62
7
100
AcDbPolyline
 90
2
 70
0
 10
117.188093
 20
161.822159
 30
0.0
 10
117.188093
 20
135.310909
 30
0.0
  0
LWPOLYLINE
  5
1d2
100
AcDbEntity
  8
0
 62
7
100
AcDbPolyline
 90
5
 70
1
 10
116.354188
 20
165.647100
 30
0.0
 10
142.318940
 20
165.647100
 30
0.0
 10
142.318940
 20
131.485969
 30
0.0
 10
116.354188
 20
131.485969
 30
0.0
 10
116.354188
 20
165.647100
 30
0.0
  0
SPLINE
  5
1d3
100
AcDbEntity
  8
0
 62
7
100
AcDbSpline
 70
8
 71
3
 72
8
 73
4
 74
0
 40
0
 40
0
 40
0
 40
0
 40
1
 40
1
 40
1
 40
1
 10
139.337110
 20
132.455690
 30
0.0
 10
139.545791
 20
132.536976
 30
0.0
 10
139.842407
 20
132.676455
 30
0.0
 10
139.996260
 20
132.765646
 30
0.0
  0
SPLINE
  5
1d4
100
AcDbEntity
  8
0
 62
7
100
AcDbSpline
 70
8
 71
3
 72
8
 73
4
 74
0
 40
0
 40
0
 40
0
 40
0
 40
1
 40
1
 40
1
 40
1
 10
139.996260
 20
132.765646
 30
0.0
 10
140.405691
 20
133.002992
 30
0.0
 10
140.990029
 20
133.630629
 30
0.0
 10
141.202390
 20
134.061145
 30
0.0
  0
SPLINE
  5
1d5
100
AcDbEntity
  8
0
 62
7
100
AcDbSpline
 70
8
 71
3
 72
8
 73
4
 74
0
 40
0
 40
0
 40
0
 40
0
 40
1
 40
1
 40
1
 40
1
 10
141.202390
 20
134.061145
 30
0.0
 10
141.594157
 20
134.855366
 30
0.0
 10
141.565633
 20
133.716357
 30
0.0
 10
141.565633
 20
148.566783
 30
0.0
  0
SPLINE
  5
1d6
100
AcDbEntity
  8
0
 62
7
100
AcDbSpline
 70
8
 71
3
 72
8
 73
4
 74
0
 40
0
 40
0
 40
0
 40
0
 40
1
 40
1
 40
1
 40
1
 10
141.565633
 20
148.566783
 30
0.0
 10
141.565633
 20
161.979840
 30
0.0
 10
141.565461
 20
162.001238
 30
0.0
 10
141.446879
 20
162.429118
 30
0.0
  0
SPLINE
  5
1d7
100
AcDbEntity
  8
0
 62
7
100
AcDbSpline
 70
8
 71
3
 72
8
 73
4
 74
0
 40
0
 40
0
 40
0
 40
0
 40
1
 40
1
 40
1
 40
1
 10
141.446879
 20
162.429118
 30
0.0
 10
141.381565
 20
162.664816
 30
0.0
 10
141.259049
 20
162.986662
 30
0.0
 10
141.174622
 20
163.144331
 30
0.0
  0
SPLINE
  5
1d8
100
AcDbEntity
  8
0
 62
7
100
AcDbSpline
 70
8
 71
3
 72
8
 73
4
 74
0
 40
0
 40
0
 40
0
 40
0
 40
1
 40
1
 40
1
 40
1
 10
141.174622
 20
163.144331
 30
0.0
 10
140.940051
 20
163.582402
 30
0.0
 10
140.232234
 20
164.262402
 30
0.0
 10
139.786817
 20
164.477600
 30
0.0
  0
SPLINE
  5
1d9
100
AcDbEntity
  8
0
 62
7
100
AcDbSpline
 70
8
 71
3
 72
8
 73
4
 74
0
 40
0
 40
0
 40
0
 40
0
 40
1
 40
1
 40
1
 40
1
 10
139.786817
 20
164.477600
 30
0.0
 10
138.996603
 20
164.859376
 30
0.0
 10
139.696836
 20
164.835480
 30
0.0
 10
129.299724
 20
164.835480
 30
0.0
  0
SPLINE
  5
1da
100
AcDbEntity
  8
0
 62
7
100
AcDbSpline
 70
8
 71
3
 72
8
 73
4
 74
0
 40
0
 40
0
 40
0
 40
0
 40
1
 40
1
 40
1
 40
1
 10
129.299724
 20
164.835480
 30
0.0
 10
118.901069
 20
164.835480
 30
0.0
 10
119.601705
 20
164.859441
 30
0.0
 10
118.812632
 20
164.477055
 30
0.0
  0
SPLINE
  5
1db
100
AcDbEntity
  8
0
 62
7
100
AcDbSpline
 70
8
 71
3
 72
8
 73
4
 74
0
 40
0
 40
0
 40
0
 40
0
 40
1
 40
1
 40
1
 40
1
 10
118.812632
 20
164.477055
 30
0.0
 10
118.301369
 20
164.229306
 30
0.0
 10
117.632051
 20
163.562743
 30
0.0
 10
117.388352
 20
163.058643
 30
0.0
  0
SPLINE
  5
1dc
100
AcDbEntity
  8
0
 62
7
100
AcDbSpline
 70
8
 71
3
 72
8
 73
4
 74
0
 40
0
 40
0
 40
0
 40
0
 40
1
 40
1
 40
1
 40
1
 10
117.388352
 20
163.058643
 30
0.0
 10
117.006971
 20
162.269736
 30
0.0
 10
117.033816
 20
163.364496
 30
0.0
 10
117.033816
 20
148.599619
 30
0.0
  0
SPLINE
  5
1dd
100
AcDbEntity
  8
0
 62
7
100
AcDbSpline
 70
8
 71
3
 72
8
 73
4
 74
0
 40
0
 40
0
 40
0
 40
0
 40
1
 40
1
 40
1
 40
1
 10
117.033816
 20
148.599619
 30
0.0
 10
117.033816
 20
133.805742
 30
0.0
 10
117.008783
 20
134.815886
 30
0.0
 10
117.393954
 20
134.073080
 30
0.0
  0
SPLINE
  5
1de
100
AcDbEntity
  8
0
 62
7
100
AcDbSpline
 70
8
 71
3
 72
8
 73
4
 74
0
 40
0
 40
0
 40
0
 40
0
 40
1
 40
1
 40
1
 40
1
 10
117.393954
 20
134.073080
 30
0.0
 10
117.856813
 20
133.180482
 30
0.0
 10
118.762185
 20
132.506975
 30
0.0
 10
119.727729
 20
132.336976
 30
0.0
  0
SPLINE
  5
1df
100
AcDbEntity
  8
0
 62
7
100
AcDbSpline
 70
8
 71
3
 72
8
 73
4
 74
0
 40
0
 40
0
 40
0
 40
0
 40
1
 40
1
 40
1
 40
1
 10
119.727729
 20
132.336976
 30
0.0
 10
119.869591
 20
132.311999
 30
0.0
 10
124.254367
 20
132.295238
 30
0.0
 10
129.471677
 20
132.299728
 30
0.0
  0
LWPOLYLINE
  5
1e0
100
AcDbEntity
  8
0
 62
7
100
AcDbPolyline
 90
10
 70
1
 10
116.517959
 20
148.557357
 30
0.0
 10
116.517959
 20
165.465970
 30
0.0
 10
129.328384
 20
165.465970
 30
0.0
 10
142.138806
 20
165.465970
 30
0.0
 10
142.138806
 20
148.557357
 30
0.0
 10
142.138806
 20
131.648743
 30
0.0
 10
129.328384
 20
131.648743
 30
0.0
 10
116.517959
 20
131.648743
 30
0.0
 10
116.517959
 20
148.557357
 30
0.0
 10
116.517959
 20
148.557357
 30
0.0
  0
LWPOLYLINE
  5
1e1
100
AcDbEntity
  8
0
 62
7
100
AcDbPolyline
 90
4
 70
1
 10
129.471677
 20
132.299728
 30
0.0
 10
138.957696
 20
132.307884
 30
0.0
 10
139.337110
 20
132.455681
 30
0.0
 10
139.337110
 20
132.455690
 30
0.0
  0
SPLINE
  5
1e2
100
AcDbEntity
  8
0
 62
7
100
AcDbSpline
 70
8
 71
3
 72
8
 73
4
 74
0
 40
0
 40
0
 40
0
 40
0
 40
1
 40
1
 40
1
 40
1
 10
139.053451
 20
132.378954
 30
0.0
 10
139.385545
 20
132.470250
 30
0.0
 10
139.805636
 20
132.654956
 30
0.0
 10
140.081728
 20
132.831071
 30
0.0
  0
SPLINE
  5
1e3
100
AcDbEntity
  8
0
 62
7
100
AcDbSpline
 70
8
 71
3
 72
8
 73
4
 74
0
 40
0
 40
0
 40
0
 40
0
 40
1
 40
1
 40
1
 40
1
 10
140.081728
 20
132.831071
 30
0.0
 10
140.566555
 20
133.140338
 30
0.0
 10
141.098964
 20
133.785964
 30
0.0
 10
141.322185
 20
134.335310
 30
0.0
  0
SPLINE
  5
1e4
100
AcDbEntity
  8
0
 62
7
100
AcDbSpline
 70
8
 71
3
 72
8
 73
4
 74
0
 40
0
 40
0
 40
0
 40
0
 40
1
 40
1
 40
1
 40
1
 10
141.322185
 20
134.335310
 30
0.0
 10
141.544681
 20
134.882874
 30
0.0
 10
141.533273
 20
134.109100
 30
0.0
 10
141.533273
 20
148.655197
 30
0.0
  0
SPLINE
  5
1e5
100
AcDbEntity
  8
0
 62
7
100
AcDbSpline
 70
8
 71
3
 72
8
 73
4
 74
0
 40
0
 40
0
 40
0
 40
0
 40
1
 40
1
 40
1
 40
1
 10
141.533273
 20
148.655197
 30
0.0
 10
141.533273
 20
161.535275
 30
0.0
 10
141.530028
 20
162.142899
 30
0.0
 10
141.459921
 20
162.394690
 30
0.0
  0
SPLINE
  5
1e6
100
AcDbEntity
  8
0
 62
7
100
AcDbSpline
 70
8
 71
3
 72
8
 73
4
 74
0
 40
0
 40
0
 40
0
 40
0
 40
1
 40
1
 40
1
 40
1
 10
141.459921
 20
162.394690
 30
0.0
 10
141.319868
 20
162.897683
 30
0.0
 10
141.058022
 20
163.367857
 30
0.0
 10
140.714719
 20
163.732790
 30
0.0
  0
SPLINE
  5
1e7
100
AcDbEntity
  8
0
 62
7
100
AcDbSpline
 70
8
 71
3
 72
8
 73
4
 74
0
 40
0
 40
0
 40
0
 40
0
 40
1
 40
1
 40
1
 40
1
 10
140.714719
 20
163.732790
 30
0.0
 10
140.181914
 20
164.299165
 30
0.0
 10
139.614549
 20
164.632636
 30
0.0
 10
138.979526
 20
164.752651
 30
0.0
  0
SPLINE
  5
1e8
100
AcDbEntity
  8
0
 62
7
100
AcDbSpline
 70
8
 71
3
 72
8
 73
4
 74
0
 40
0
 40
0
 40
0
 40
0
 40
1
 40
1
 40
1
 40
1
 10
138.979526
 20
164.752651
 30
0.0
 10
138.562151
 20
164.831532
 30
0.0
 10
120.025660
 20
164.831741
 30
0.0
 10
119.608481
 20
164.752868
 30
0.0
  0
SPLINE
  5
1e9
100
AcDbEntity
  8
0
 62
7
100
AcDbSpline
 70
8
 71
3
 72
8
 73
4
 74
0
 40
0
 40
0
 40
0
 40
0
 40
1
 40
1
 40
1
 40
1
 10
119.608481
 20
164.752868
 30
0.0
 10
119.001136
 20
164.638046
 30
0.0
 10
118.475221
 20
164.338035
 30
0.0
 10
117.965384
 20
163.815560
 30
0.0
  0
SPLINE
  5
1ea
100
AcDbEntity
  8
0
 62
7
100
AcDbSpline
 70
8
 71
3
 72
8
 73
4
 74
0
 40
0
 40
0
 40
0
 40
0
 40
1
 40
1
 40
1
 40
1
 10
117.965384
 20
163.815560
 30
0.0
 10
117.563708
 20
163.403928
 30
0.0
 10
117.393988
 20
163.136674
 30
0.0
 10
117.227477
 20
162.653598
 30
0.0
  0
SPLINE
  5
1eb
100
AcDbEntity
  8
0
 62
7
100
AcDbSpline
 70
8
 71
3
 72
8
 73
4
 74
0
 40
0
 40
0
 40
0
 40
0
 40
1
 40
1
 40
1
 40
1
 10
117.227477
 20
162.653598
 30
0.0
 10
117.112006
 20
162.318591
 30
0.0
 10
117.105354
 20
162.261041
 30
0.0
 10
117.071628
 20
161.305538
 30
0.0
  0
SPLINE
  5
1ec
100
AcDbEntity
  8
0
 62
7
100
AcDbSpline
 70
8
 71
3
 72
8
 73
4
 74
0
 40
0
 40
0
 40
0
 40
0
 40
1
 40
1
 40
1
 40
1
 10
117.071628
 20
161.305538
 30
0.0
 10
117.025750
 20
160.005749
 30
0.0
 10
117.025925
 20
137.231308
 30
0.0
 10
117.071823
 20
135.908679
 30
0.0
  0
SPLINE
  5
1ed
100
AcDbEntity
  8
0
 62
7
100
AcDbSpline
 70
8
 71
3
 72
8
 73
4
 74
0
 40
0
 40
0
 40
0
 40
0
 40
1
 40
1
 40
1
 40
1
 10
117.071823
 20
135.908679
 30
0.0
 10
117.091155
 20
135.351397
 30
0.0
 10
117.128936
 20
134.804250
 30
0.0
 10
117.155773
 20
134.692795
 30
0.0
  0
SPLINE
  5
1ee
100
AcDbEntity
  8
0
 62
7
100
AcDbSpline
 70
8
 71
3
 72
8
 73
4
 74
0
 40
0
 40
0
 40
0
 40
0
 40
1
 40
1
 40
1
 40
1
 10
117.155773
 20
134.692795
 30
0.0
 10
117.287009
 20
134.147686
 30
0.0
 10
117.744460
 20
133.444783
 30
0.0
 10
118.224585
 20
133.050485
 30
0.0
  0
SPLINE
  5
1ef
100
AcDbEntity
  8
0
 62
7
100
AcDbSpline
 70
8
 71
3
 72
8
 73
4
 74
0
 40
0
 40
0
 40
0
 40
0
 40
1
 40
1
 40
1
 40
1
 10
118.224585
 20
133.050485
 30
0.0
 10
118.496585
 20
132.827108
 30
0.0
 10
119.036575
 20
132.532830
 30
0.0
 10
119.383914
 20
132.418679
 30
0.0
  0
SPLINE
  5
1f0
100
AcDbEntity
  8
0
 62
7
100
AcDbSpline
 70
8
 71
3
 72
8
 73
4
 74
0
 40
0
 40
0
 40
0
 40
0
 40
1
 40
1
 40
1
 40
1
 10
119.383914
 20
132.418679
 30
0.0
 10
119.714563
 20
132.310018
 30
0.0
 10
121.582172
 20
132.291318
 30
0.0
 10
130.874022
 20
132.303640
 30
0.0
  0
SPLINE
  5
1f1
100
AcDbEntity
  8
0
 62
7
100
AcDbSpline
 70
8
 71
3
 72
8
 73
4
 74
0
 40
0
 40
0
 40
0
 40
0
 40
1
 40
1
 40
1
 40
1
 10
130.874022
 20
132.303640
 30
0.0
 10
138.006060
 20
132.313094
 30
0.0
 10
138.841878
 20
132.320799
 30
0.0
 10
139.053449
 20
132.378954
 30
0.0
  0
LWPOLYLINE
  5
1f2
100
AcDbEntity
  8
0
 62
7
100
AcDbPolyline
 90
10
 70
1
 10
116.506323
 20
148.553874
 30
0.0
 10
116.506323
 20
165.474931
 30
0.0
 10
129.333902
 20
165.474931
 30
0.0
 10
142.161480
 20
165.474931
 30
0.0
 10
142.161480
 20
148.553874
 30
0.0
 10
142.161480
 20
131.632817
 30
0.0
 10
129.333902
 20
131.632817
 30
0.0
 10
116.506323
 20
131.632817
 30
0.0
 10
116.506323
 20
148.553874
 30
0.0
 10
116.506323
 20
148.553874
 30
0.0
  0
SPLINE
  5
1f3
100
AcDbEntity
  8
0
 62
7
100
AcDbSpline
 70
8
 71
3
 72
8
 73
4
 74
0
 40
0
 40
0
 40
0
 40
0
 40
1
 40
1
 40
1
 40
1
 10
119.733596
 20
134.226109
 30
0.0
 10
119.360072
 20
134.385427
 30
0.0
 10
119.133939
 20
134.612398
 30
0.0
 10
118.978683
 20
134.983814
 30
0.0
  0
SPLINE
  5
1f4
100
AcDbEntity
  8
0
 62
7
100
AcDbSpline
 70
8
 71
3
 72
8
 73
4
 74
0
 40
0
 40
0
 40
0
 40
0
 40
1
 40
1
 40
1
 40
1
 10
118.978683
 20
134.983814
 30
0.0
 10
118.564877
 20
135.973751
 30
0.0
 10
119.250505
 20
137.023239
 30
0.0
 10
120.311031
 20
137.023239
 30
0.0
  0
SPLINE
  5
1f5
100
AcDbEntity
  8
0
 62
7
100
AcDbSpline
 70
8
 71
3
 72
8
 73
4
 74
0
 40
0
 40
0
 40
0
 40
0
 40
1
 40
1
 40
1
 40
1
 10
120.311031
 20
137.023239
 30
0.0
 10
120.548473
 20
137.023239
 30
0.0
 10
120.644090
 20
137.000690
 30
0.0
 10
120.891393
 20
136.886376
 30
0.0
  0
SPLINE
  5
1f6
100
AcDbEntity
  8
0
 62
7
100
AcDbSpline
 70
8
 71
3
 72
8
 73
4
 74
0
 40
0
 40
0
 40
0
 40
0
 40
1
 40
1
 40
1
 40
1
 10
120.891393
 20
136.886376
 30
0.0
 10
121.449564
 20
136.628362
 30
0.0
 10
121.734625
 20
136.181384
 30
0.0
 10
121.734625
 20
135.564179
 30
0.0
  0
SPLINE
  5
1f7
100
AcDbEntity
  8
0
 62
7
100
AcDbSpline
 70
8
 71
3
 72
8
 73
4
 74
0
 40
0
 40
0
 40
0
 40
0
 40
1
 40
1
 40
1
 40
1
 10
121.734625
 20
135.564179
 30
0.0
 10
121.734625
 20
134.935582
 30
0.0
 10
121.424776
 20
134.463083
 30
0.0
 10
120.857780
 20
134.227041
 30
0.0
  0
SPLINE
  5
1f8
100
AcDbEntity
  8
0
 62
7
100
AcDbSpline
 70
8
 71
3
 72
8
 73
4
 74
0
 40
0
 40
0
 40
0
 40
0
 40
1
 40
1
 40
1
 40
1
 10
120.857780
 20
134.227041
 30
0.0
 10
120.456285
 20
134.059897
 30
0.0
 10
120.123924
 20
134.059624
 30
0.0
 10
119.733596
 20
134.226194
 30
0.0
  0
LWPOLYLINE
  5
1f9
100
AcDbEntity
  8
0
 62
7
100
AcDbPolyline
 90
3
 70
1
 10
139.053449
 20
132.378954
 30
0.0
 10
139.053451
 20
132.378954
 30
0.0
 10
139.053451
 20
132.378954
 30
0.0
  0
SPLINE
  5
1fa
100
AcDbEntity
  8
0
 62
7
100
AcDbSpline
 70
8
 71
3
 72
8
 73
4
 74
0
 40
0
 40
0
 40
0
 40
0
 40
1
 40
1
 40
1
 40
1
 10
137.725184
 20
134.230052
 30
0.0
 10
136.979330
 20
134.552776
 30
0.0
 10
136.649737
 20
135.388605
 30
0.0
 10
136.971191
 20
136.142122
 30
0.0
  0
SPLINE
  5
1fb
100
AcDbEntity
  8
0
 62
7
100
AcDbSpline
 70
8
 71
3
 72
8
 73
4
 74
0
 40
0
 40
0
 40
0
 40
0
 40
1
 40
1
 40
1
 40
1
 10
136.971191
 20
136.142122
 30
0.0
 10
137.127488
 20
136.508494
 30
0.0
 10
137.362444
 20
136.742135
 30
0.0
 10
137.733272
 20
136.899936
 30
0.0
  0
SPLINE
  5
1fc
100
AcDbEntity
  8
0
 62
7
100
AcDbSpline
 70
8
 71
3
 72
8
 73
4
 74
0
 40
0
 40
0
 40
0
 40
0
 40
1
 40
1
 40
1
 40
1
 10
137.733272
 20
136.899936
 30
0.0
 10
138.292222
 20
137.137790
 30
0.0
 10
138.892822
 20
137.022785
 30
0.0
 10
139.327467
 20
136.594676
 30
0.0
  0
SPLINE
  5
1fd
100
AcDbEntity
  8
0
 62
7
100
AcDbSpline
 70
8
 71
3
 72
8
 73
4
 74
0
 40
0
 40
0
 40
0
 40
0
 40
1
 40
1
 40
1
 40
1
 10
139.327467
 20
136.594676
 30
0.0
 10
139.872376
 20
136.057960
 30
0.0
 10
139.871887
 20
135.069914
 30
0.0
 10
139.326338
 20
134.532676
 30
0.0
  0
SPLINE
  5
1fe
100
AcDbEntity
  8
0
 62
7
100
AcDbSpline
 70
8
 71
3
 72
8
 73
4
 74
0
 40
0
 40
0
 40
0
 40
0
 40
1
 40
1
 40
1
 40
1
 10
139.326338
 20
134.532676
 30
0.0
 10
138.892661
 20
134.105519
 30
0.0
 10
138.280338
 20
133.989796
 30
0.0
 10
137.725074
 20
134.230052
 30
0.0
  0
LWPOLYLINE
  5
1ff
100
AcDbEntity
  8
0
 62
7
100
AcDbPolyline
 90
2
 70
1
 10
119.733596
 20
134.226194
 30
0.0
 10
119.733596
 20
134.226109
 30
0.0
  0
SPLINE
  5
200
100
AcDbEntity
  8
0
 62
7
100
AcDbSpline
 70
8
 71
3
 72
8
 73
4
 74
0
 40
0
 40
0
 40
0
 40
0
 40
1
 40
1
 40
1
 40
1
 10
126.253661
 20
138.561695
 30
0.0
 10
125.627424
 20
138.855065
 30
0.0
 10
125.352138
 20
139.522924
 30
0.0
 10
125.589544
 20
140.172884
 30
0.0
  0
SPLINE
  5
201
100
AcDbEntity
  8
0
 62
7
100
AcDbSpline
 70
8
 71
3
 72
8
 73
4
 74
0
 40
0
 40
0
 40
0
 40
0
 40
1
 40
1
 40
1
 40
1
 10
125.589544
 20
140.172884
 30
0.0
 10
125.654720
 20
140.351328
 30
0.0
 10
125.737149
 20
140.467572
 30
0.0
 10
125.934044
 20
140.658727
 30
0.0
  0
LWPOLYLINE
  5
202
100
AcDbEntity
  8
0
 62
7
100
AcDbPolyline
 90
2
 70
1
 10
137.725074
 20
134.230052
 30
0.0
 10
137.725184
 20
134.230052
 30
0.0
  0
SPLINE
  5
203
100
AcDbEntity
  8
0
 62
7
100
AcDbSpline
 70
8
 71
3
 72
8
 73
4
 74
0
 40
0
 40
0
 40
0
 40
0
 40
1
 40
1
 40
1
 40
1
 10
125.935844
 20
158.624432
 30
0.0
 10
125.497356
 20
159.075607
 30
0.0
 10
125.386132
 20
159.565031
 30
0.0
 10
125.608055
 20
160.066836
 30
0.0
  0
SPLINE
  5
204
100
AcDbEntity
  8
0
 62
7
100
AcDbSpline
 70
8
 71
3
 72
8
 73
4
 74
0
 40
0
 40
0
 40
0
 40
0
 40
1
 40
1
 40
1
 40
1
 10
125.608055
 20
160.066836
 30
0.0
 10
126.053604
 20
161.074299
 30
0.0
 10
127.504681
 20
161.062485
 30
0.0
 10
127.916889
 20
160.048040
 30
0.0
  0
SPLINE
  5
205
100
AcDbEntity
  8
0
 62
7
100
AcDbSpline
 70
8
 71
3
 72
8
 73
4
 74
0
 40
0
 40
0
 40
0
 40
0
 40
1
 40
1
 40
1
 40
1
 10
127.916889
 20
160.048040
 30
0.0
 10
128.126789
 20
159.531472
 30
0.0
 10
128.019542
 20
159.071845
 30
0.0
 10
127.584716
 20
158.624438
 30
0.0
  0
LWPOLYLINE
  5
206
100
AcDbEntity
  8
0
 62
7
100
AcDbPolyline
 90
5
 70
1
 10
125.934044
 20
140.658727
 30
0.0
 10
126.192867
 20
140.910004
 30
0.0
 10
126.192867
 20
149.634988
 30
0.0
 10
126.192867
 20
158.359973
 30
0.0
 10
125.935844
 20
158.624432
 30
0.0
  0
SPLINE
  5
207
100
AcDbEntity
  8
0
 62
7
100
AcDbSpline
 70
8
 71
3
 72
8
 73
4
 74
0
 40
0
 40
0
 40
0
 40
0
 40
1
 40
1
 40
1
 40
1
 10
127.621532
 20
140.628510
 30
0.0
 10
128.016062
 20
140.254650
 30
0.0
 10
128.064277
 20
140.255090
 30
0.0
 10
128.452386
 20
140.636101
 30
0.0
  0
LWPOLYLINE
  5
208
100
AcDbEntity
  8
0
 62
7
100
AcDbPolyline
 90
5
 70
1
 10
127.584716
 20
158.624438
 30
0.0
 10
127.327694
 20
158.359979
 30
0.0
 10
127.327694
 20
149.633464
 30
0.0
 10
127.327694
 20
140.906953
 30
0.0
 10
127.621532
 20
140.628510
 30
0.0
  0
SPLINE
  5
209
100
AcDbEntity
  8
0
 62
7
100
AcDbSpline
 70
8
 71
3
 72
8
 73
4
 74
0
 40
0
 40
0
 40
0
 40
0
 40
1
 40
1
 40
1
 40
1
 10
128.487153
 20
161.137133
 30
0.0
 10
128.289262
 20
161.328209
 30
0.0
 10
128.207911
 20
161.442605
 30
0.0
 10
128.142653
 20
161.621579
 30
0.0
  0
SPLINE
  5
20a
100
AcDbEntity
  8
0
 62
7
100
AcDbSpline
 70
8
 71
3
 72
8
 73
4
 74
0
 40
0
 40
0
 40
0
 40
0
 40
1
 40
1
 40
1
 40
1
 10
128.142653
 20
161.621579
 30
0.0
 10
127.894969
 20
162.300873
 30
0.0
 10
128.184546
 20
163.012415
 30
0.0
 10
128.810693
 20
163.263079
 30
0.0
  0
SPLINE
  5
20b
100
AcDbEntity
  8
0
 62
7
100
AcDbSpline
 70
8
 71
3
 72
8
 73
4
 74
0
 40
0
 40
0
 40
0
 40
0
 40
1
 40
1
 40
1
 40
1
 10
128.810693
 20
163.263079
 30
0.0
 10
129.172863
 20
163.408065
 30
0.0
 10
129.468093
 20
163.404328
 30
0.0
 10
129.806344
 20
163.250492
 30
0.0
  0
SPLINE
  5
20c
100
AcDbEntity
  8
0
 62
7
100
AcDbSpline
 70
8
 71
3
 72
8
 73
4
 74
0
 40
0
 40
0
 40
0
 40
0
 40
1
 40
1
 40
1
 40
1
 10
129.806344
 20
163.250492
 30
0.0
 10
130.129655
 20
163.103437
 30
0.0
 10
130.336733
 20
162.889465
 30
0.0
 10
130.467727
 20
162.567085
 30
0.0
  0
SPLINE
  5
20d
100
AcDbEntity
  8
0
 62
7
100
AcDbSpline
 70
8
 71
3
 72
8
 73
4
 74
0
 40
0
 40
0
 40
0
 40
0
 40
1
 40
1
 40
1
 40
1
 10
130.467727
 20
162.567085
 30
0.0
 10
130.670898
 20
162.067083
 30
0.0
 10
130.554995
 20
161.593548
 30
0.0
 10
130.122617
 20
161.157066
 30
0.0
  0
LWPOLYLINE
  5
20e
100
AcDbEntity
  8
0
 62
7
100
AcDbPolyline
 90
5
 70
1
 10
128.452386
 20
140.636101
 30
0.0
 10
128.746225
 20
140.924564
 30
0.0
 10
128.746225
 20
150.905776
 30
0.0
 10
128.746225
 20
160.886991
 30
0.0
 10
128.487153
 20
161.137133
 30
0.0
  0
SPLINE
  5
20f
100
AcDbEntity
  8
0
 62
7
100
AcDbSpline
 70
8
 71
3
 72
8
 73
4
 74
0
 40
0
 40
0
 40
0
 40
0
 40
1
 40
1
 40
1
 40
1
 10
130.163381
 20
140.620255
 30
0.0
 10
130.386368
 20
140.406085
 30
0.0
 10
130.474726
 20
140.346683
 30
0.0
 10
130.570311
 20
140.346683
 30
0.0
  0
SPLINE
  5
210
100
AcDbEntity
  8
0
 62
7
100
AcDbSpline
 70
8
 71
3
 72
8
 73
4
 74
0
 40
0
 40
0
 40
0
 40
0
 40
1
 40
1
 40
1
 40
1
 10
130.570311
 20
140.346683
 30
0.0
 10
130.665903
 20
140.346683
 30
0.0
 10
130.754233
 20
140.406071
 30
0.0
 10
130.977191
 20
140.620255
 30
0.0
  0
LWPOLYLINE
  5
211
100
AcDbEntity
  8
0
 62
7
100
AcDbPolyline
 90
5
 70
1
 10
130.122617
 20
161.157066
 30
0.0
 10
129.880239
 20
160.912391
 30
0.0
 10
129.879392
 20
150.903112
 30
0.0
 10
129.878545
 20
140.893830
 30
0.0
 10
130.163381
 20
140.620255
 30
0.0
  0
SPLINE
  5
212
100
AcDbEntity
  8
0
 62
7
100
AcDbSpline
 70
8
 71
3
 72
8
 73
4
 74
0
 40
0
 40
0
 40
0
 40
0
 40
1
 40
1
 40
1
 40
1
 10
131.019194
 20
158.605362
 30
0.0
 10
130.450418
 20
159.147887
 30
0.0
 10
130.420948
 20
159.889510
 30
0.0
 10
130.946474
 20
160.435509
 30
0.0
  0
SPLINE
  5
213
100
AcDbEntity
  8
0
 62
7
100
AcDbSpline
 70
8
 71
3
 72
8
 73
4
 74
0
 40
0
 40
0
 40
0
 40
0
 40
1
 40
1
 40
1
 40
1
 10
130.946474
 20
160.435509
 30
0.0
 10
131.428956
 20
160.936786
 30
0.0
 10
132.214222
 20
160.946765
 30
0.0
 10
132.724528
 20
160.458115
 30
0.0
  0
SPLINE
  5
214
100
AcDbEntity
  8
0
 62
7
100
AcDbSpline
 70
8
 71
3
 72
8
 73
4
 74
0
 40
0
 40
0
 40
0
 40
0
 40
1
 40
1
 40
1
 40
1
 10
132.724528
 20
160.458115
 30
0.0
 10
132.966965
 20
160.225956
 30
0.0
 10
133.082902
 20
159.935123
 30
0.0
 10
133.082902
 20
159.559101
 30
0.0
  0
SPLINE
  5
215
100
AcDbEntity
  8
0
 62
7
100
AcDbSpline
 70
8
 71
3
 72
8
 73
4
 74
0
 40
0
 40
0
 40
0
 40
0
 40
1
 40
1
 40
1
 40
1
 10
133.082902
 20
159.559101
 30
0.0
 10
133.082902
 20
159.184124
 30
0.0
 10
132.960096
 20
158.919577
 30
0.0
 10
132.640691
 20
158.606489
 30
0.0
  0
LWPOLYLINE
  5
216
100
AcDbEntity
  8
0
 62
7
100
AcDbPolyline
 90
5
 70
1
 10
130.977191
 20
140.620255
 30
0.0
 10
131.261973
 20
140.893830
 30
0.0
 10
131.260844
 20
149.634887
 30
0.0
 10
131.259715
 20
158.375944
 30
0.0
 10
131.019194
 20
158.605362
 30
0.0
  0
SPLINE
  5
217
100
AcDbEntity
  8
0
 62
7
100
AcDbSpline
 70
8
 71
3
 72
8
 73
4
 74
0
 40
0
 40
0
 40
0
 40
0
 40
1
 40
1
 40
1
 40
1
 10
132.647210
 20
140.673846
 30
0.0
 10
132.837950
 20
140.492989
 30
0.0
 10
132.923043
 20
140.374978
 30
0.0
 10
132.991710
 20
140.196066
 30
0.0
  0
SPLINE
  5
218
100
AcDbEntity
  8
0
 62
7
100
AcDbSpline
 70
8
 71
3
 72
8
 73
4
 74
0
 40
0
 40
0
 40
0
 40
0
 40
1
 40
1
 40
1
 40
1
 10
132.991710
 20
140.196066
 30
0.0
 10
133.249230
 20
139.525094
 30
0.0
 10
132.961019
 20
138.813135
 30
0.0
 10
132.324196
 20
138.547112
 30
0.0
  0
SPLINE
  5
219
100
AcDbEntity
  8
0
 62
7
100
AcDbSpline
 70
8
 71
3
 72
8
 73
4
 74
0
 40
0
 40
0
 40
0
 40
0
 40
1
 40
1
 40
1
 40
1
 10
132.324196
 20
138.547112
 30
0.0
 10
131.822850
 20
138.337684
 30
0.0
 10
131.301784
 20
138.454769
 30
0.0
 10
130.892990
 20
138.868702
 30
0.0
  0
SPLINE
  5
21a
100
AcDbEntity
  8
0
 62
7
100
AcDbSpline
 70
8
 71
3
 72
8
 73
4
 74
0
 40
0
 40
0
 40
0
 40
0
 40
1
 40
1
 40
1
 40
1
 10
130.892990
 20
138.868702
 30
0.0
 10
130.740805
 20
139.022803
 30
0.0
 10
130.642467
 20
139.090280
 30
0.0
 10
130.570074
 20
139.090280
 30
0.0
  0
SPLINE
  5
21b
100
AcDbEntity
  8
0
 62
7
100
AcDbSpline
 70
8
 71
3
 72
8
 73
4
 74
0
 40
0
 40
0
 40
0
 40
0
 40
1
 40
1
 40
1
 40
1
 10
130.570074
 20
139.090280
 30
0.0
 10
130.497679
 20
139.090280
 30
0.0
 10
130.399341
 20
139.022803
 30
0.0
 10
130.247159
 20
138.868702
 30
0.0
  0
SPLINE
  5
21c
100
AcDbEntity
  8
0
 62
7
100
AcDbSpline
 70
8
 71
3
 72
8
 73
4
 74
0
 40
0
 40
0
 40
0
 40
0
 40
1
 40
1
 40
1
 40
1
 10
130.247159
 20
138.868702
 30
0.0
 10
129.688184
 20
138.302697
 30
0.0
 10
128.906888
 20
138.303614
 30
0.0
 10
128.347625
 20
138.870959
 30
0.0
  0
SPLINE
  5
21d
100
AcDbEntity
  8
0
 62
7
100
AcDbSpline
 70
8
 71
3
 72
8
 73
4
 74
0
 40
0
 40
0
 40
0
 40
0
 40
1
 40
1
 40
1
 40
1
 10
128.347625
 20
138.870959
 30
0.0
 10
128.064240
 20
139.158425
 30
0.0
 10
127.980045
 20
139.160040
 30
0.0
 10
127.711223
 20
138.883180
 30
0.0
  0
SPLINE
  5
21e
100
AcDbEntity
  8
0
 62
7
100
AcDbSpline
 70
8
 71
3
 72
8
 73
4
 74
0
 40
0
 40
0
 40
0
 40
0
 40
1
 40
1
 40
1
 40
1
 10
127.711223
 20
138.883180
 30
0.0
 10
127.290689
 20
138.450065
 30
0.0
 10
126.747733
 20
138.330337
 30
0.0
 10
126.253683
 20
138.561779
 30
0.0
  0
LWPOLYLINE
  5
21f
100
AcDbEntity
  8
0
 62
7
100
AcDbPolyline
 90
5
 70
1
 10
132.640691
 20
158.606489
 30
0.0
 10
132.393899
 20
158.364582
 30
0.0
 10
132.393899
 20
149.639304
 30
0.0
 10
132.393899
 20
140.914023
 30
0.0
 10
132.647210
 20
140.673846
 30
0.0
  0
SPLINE
  5
220
100
AcDbEntity
  8
0
 62
7
100
AcDbSpline
 70
8
 71
3
 72
8
 73
4
 74
0
 40
0
 40
0
 40
0
 40
0
 40
1
 40
1
 40
1
 40
1
 10
127.226370
 20
138.660120
 30
0.0
 10
127.490954
 20
138.785421
 30
0.0
 10
127.681626
 20
138.978334
 30
0.0
 10
127.804302
 20
139.244850
 30
0.0
  0
SPLINE
  5
221
100
AcDbEntity
  8
0
 62
7
100
AcDbSpline
 70
8
 71
3
 72
8
 73
4
 74
0
 40
0
 40
0
 40
0
 40
0
 40
1
 40
1
 40
1
 40
1
 10
127.804302
 20
139.244850
 30
0.0
 10
127.888464
 20
139.427699
 30
0.0
 10
127.901288
 20
139.507864
 30
0.0
 10
127.889147
 20
139.775250
 30
0.0
  0
SPLINE
  5
222
100
AcDbEntity
  8
0
 62
7
100
AcDbSpline
 70
8
 71
3
 72
8
 73
4
 74
0
 40
0
 40
0
 40
0
 40
0
 40
1
 40
1
 40
1
 40
1
 10
127.889147
 20
139.775250
 30
0.0
 10
127.876277
 20
140.058455
 30
0.0
 10
127.859804
 20
140.112890
 30
0.0
 10
127.725842
 20
140.314650
 30
0.0
  0
SPLINE
  5
223
100
AcDbEntity
  8
0
 62
7
100
AcDbSpline
 70
8
 71
3
 72
8
 73
4
 74
0
 40
0
 40
0
 40
0
 40
0
 40
1
 40
1
 40
1
 40
1
 10
127.725842
 20
140.314650
 30
0.0
 10
127.640707
 20
140.442875
 30
0.0
 10
127.498026
 20
140.589027
 30
0.0
 10
127.392955
 20
140.655637
 30
0.0
  0
LWPOLYLINE
  5
224
100
AcDbEntity
  8
0
 62
7
100
AcDbPolyline
 90
2
 70
1
 10
126.253683
 20
138.561779
 30
0.0
 10
126.253661
 20
138.561695
 30
0.0
  0
SPLINE
  5
225
100
AcDbEntity
  8
0
 62
7
100
AcDbSpline
 70
8
 71
3
 72
8
 73
4
 74
0
 40
0
 40
0
 40
0
 40
0
 40
1
 40
1
 40
1
 40
1
 10
127.390700
 20
158.605185
 30
0.0
 10
127.491222
 20
158.672057
 30
0.0
 10
127.639437
 20
158.822055
 30
0.0
 10
127.720065
 20
158.938512
 30
0.0
  0
SPLINE
  5
226
100
AcDbEntity
  8
0
 62
7
100
AcDbSpline
 70
8
 71
3
 72
8
 73
4
 74
0
 40
0
 40
0
 40
0
 40
0
 40
1
 40
1
 40
1
 40
1
 10
127.720065
 20
158.938512
 30
0.0
 10
127.848241
 20
159.123644
 30
0.0
 10
127.869081
 20
159.187923
 30
0.0
 10
127.885904
 20
159.450034
 30
0.0
  0
SPLINE
  5
227
100
AcDbEntity
  8
0
 62
7
100
AcDbSpline
 70
8
 71
3
 72
8
 73
4
 74
0
 40
0
 40
0
 40
0
 40
0
 40
1
 40
1
 40
1
 40
1
 10
127.885904
 20
159.450034
 30
0.0
 10
127.910768
 20
159.837547
 30
0.0
 10
127.826793
 20
160.100945
 30
0.0
 10
127.605756
 20
160.328710
 30
0.0
  0
SPLINE
  5
228
100
AcDbEntity
  8
0
 62
7
100
AcDbSpline
 70
8
 71
3
 72
8
 73
4
 74
0
 40
0
 40
0
 40
0
 40
0
 40
1
 40
1
 40
1
 40
1
 10
127.605756
 20
160.328710
 30
0.0
 10
127.043163
 20
160.908423
 30
0.0
 10
126.104833
 20
160.775592
 30
0.0
 10
125.737583
 20
160.064245
 30
0.0
  0
SPLINE
  5
229
100
AcDbEntity
  8
0
 62
7
100
AcDbSpline
 70
8
 71
3
 72
8
 73
4
 74
0
 40
0
 40
0
 40
0
 40
0
 40
1
 40
1
 40
1
 40
1
 10
125.737583
 20
160.064245
 30
0.0
 10
125.617721
 20
159.832078
 30
0.0
 10
125.593986
 20
159.408671
 30
0.0
 10
125.687156
 20
159.164707
 30
0.0
  0
SPLINE
  5
22a
100
AcDbEntity
  8
0
 62
7
100
AcDbSpline
 70
8
 71
3
 72
8
 73
4
 74
0
 40
0
 40
0
 40
0
 40
0
 40
1
 40
1
 40
1
 40
1
 10
125.687156
 20
159.164707
 30
0.0
 10
125.767434
 20
158.954502
 30
0.0
 10
126.025188
 20
158.651390
 30
0.0
 10
126.200944
 20
158.560503
 30
0.0
  0
LWPOLYLINE
  5
22b
100
AcDbEntity
  8
0
 62
7
100
AcDbPolyline
 90
5
 70
1
 10
127.392955
 20
140.655637
 30
0.0
 10
127.209065
 20
140.772214
 30
0.0
 10
127.208500
 20
149.627905
 30
0.0
 10
127.207936
 20
158.483595
 30
0.0
 10
127.390700
 20
158.605185
 30
0.0
  0
SPLINE
  5
22c
100
AcDbEntity
  8
0
 62
7
100
AcDbSpline
 70
8
 71
3
 72
8
 73
4
 74
0
 40
0
 40
0
 40
0
 40
0
 40
1
 40
1
 40
1
 40
1
 10
126.314505
 20
149.626866
 30
0.0
 10
126.314505
 20
144.255872
 30
0.0
 10
126.299801
 20
140.751951
 30
0.0
 10
126.277240
 20
140.751951
 30
0.0
  0
SPLINE
  5
22d
100
AcDbEntity
  8
0
 62
7
100
AcDbSpline
 70
8
 71
3
 72
8
 73
4
 74
0
 40
0
 40
0
 40
0
 40
0
 40
1
 40
1
 40
1
 40
1
 10
126.277240
 20
140.751951
 30
0.0
 10
126.256751
 20
140.751951
 30
0.0
 10
126.140599
 20
140.661126
 30
0.0
 10
126.019139
 20
140.550120
 30
0.0
  0
SPLINE
  5
22e
100
AcDbEntity
  8
0
 62
7
100
AcDbSpline
 70
8
 71
3
 72
8
 73
4
 74
0
 40
0
 40
0
 40
0
 40
0
 40
1
 40
1
 40
1
 40
1
 10
126.019139
 20
140.550120
 30
0.0
 10
125.715587
 20
140.272689
 30
0.0
 10
125.609618
 20
140.021709
 30
0.0
 10
125.634448
 20
139.639019
 30
0.0
  0
SPLINE
  5
22f
100
AcDbEntity
  8
0
 62
7
100
AcDbSpline
 70
8
 71
3
 72
8
 73
4
 74
0
 40
0
 40
0
 40
0
 40
0
 40
1
 40
1
 40
1
 40
1
 10
125.634448
 20
139.639019
 30
0.0
 10
125.655417
 20
139.315919
 30
0.0
 10
125.731064
 20
139.138929
 30
0.0
 10
125.944071
 20
138.914650
 30
0.0
  0
SPLINE
  5
230
100
AcDbEntity
  8
0
 62
7
100
AcDbSpline
 70
8
 71
3
 72
8
 73
4
 74
0
 40
0
 40
0
 40
0
 40
0
 40
1
 40
1
 40
1
 40
1
 10
125.944071
 20
138.914650
 30
0.0
 10
126.185620
 20
138.660320
 30
0.0
 10
126.398054
 20
138.572095
 30
0.0
 10
126.780592
 20
138.567238
 30
0.0
  0
SPLINE
  5
231
100
AcDbEntity
  8
0
 62
7
100
AcDbSpline
 70
8
 71
3
 72
8
 73
4
 74
0
 40
0
 40
0
 40
0
 40
0
 40
1
 40
1
 40
1
 40
1
 10
126.780592
 20
138.567238
 30
0.0
 10
126.957119
 20
138.564980
 30
0.0
 10
127.079313
 20
138.590464
 30
0.0
 10
127.226418
 20
138.660120
 30
0.0
  0
LWPOLYLINE
  5
232
100
AcDbEntity
  8
0
 62
7
100
AcDbPolyline
 90
3
 70
1
 10
126.200944
 20
158.560503
 30
0.0
 10
126.314505
 20
158.501778
 30
0.0
 10
126.314505
 20
149.626866
 30
0.0
  0
SPLINE
  5
233
100
AcDbEntity
  8
0
 62
7
100
AcDbSpline
 70
8
 71
3
 72
8
 73
4
 74
0
 40
0
 40
0
 40
0
 40
0
 40
1
 40
1
 40
1
 40
1
 10
129.734609
 20
138.642453
 30
0.0
 10
130.016936
 20
138.763472
 30
0.0
 10
130.268842
 20
139.018858
 30
0.0
 10
130.369925
 20
139.286543
 30
0.0
  0
SPLINE
  5
234
100
AcDbEntity
  8
0
 62
7
100
AcDbSpline
 70
8
 71
3
 72
8
 73
4
 74
0
 40
0
 40
0
 40
0
 40
0
 40
1
 40
1
 40
1
 40
1
 10
130.369925
 20
139.286543
 30
0.0
 10
130.472651
 20
139.558574
 30
0.0
 10
130.463253
 20
139.957879
 30
0.0
 10
130.348787
 20
140.184865
 30
0.0
  0
SPLINE
  5
235
100
AcDbEntity
  8
0
 62
7
100
AcDbSpline
 70
8
 71
3
 72
8
 73
4
 74
0
 40
0
 40
0
 40
0
 40
0
 40
1
 40
1
 40
1
 40
1
 10
130.348787
 20
140.184865
 30
0.0
 10
130.260409
 20
140.360111
 30
0.0
 10
130.019498
 20
140.617562
 30
0.0
 10
129.870917
 20
140.695540
 30
0.0
  0
LWPOLYLINE
  5
236
100
AcDbEntity
  8
0
 62
7
100
AcDbPolyline
 90
2
 70
1
 10
127.226418
 20
138.660120
 30
0.0
 10
127.226370
 20
138.660120
 30
0.0
  0
SPLINE
  5
237
100
AcDbEntity
  8
0
 62
7
100
AcDbSpline
 70
8
 71
3
 72
8
 73
4
 74
0
 40
0
 40
0
 40
0
 40
0
 40
1
 40
1
 40
1
 40
1
 10
129.870917
 20
161.113632
 30
0.0
 10
130.019498
 20
161.191610
 30
0.0
 10
130.260409
 20
161.449062
 30
0.0
 10
130.348787
 20
161.624310
 30
0.0
  0
SPLINE
  5
238
100
AcDbEntity
  8
0
 62
7
100
AcDbSpline
 70
8
 71
3
 72
8
 73
4
 74
0
 40
0
 40
0
 40
0
 40
0
 40
1
 40
1
 40
1
 40
1
 10
130.348787
 20
161.624310
 30
0.0
 10
130.463253
 20
161.851296
 30
0.0
 10
130.472651
 20
162.250598
 30
0.0
 10
130.369925
 20
162.522632
 30
0.0
  0
SPLINE
  5
239
100
AcDbEntity
  8
0
 62
7
100
AcDbSpline
 70
8
 71
3
 72
8
 73
4
 74
0
 40
0
 40
0
 40
0
 40
0
 40
1
 40
1
 40
1
 40
1
 10
130.369925
 20
162.522632
 30
0.0
 10
130.271596
 20
162.783022
 30
0.0
 10
130.020461
 20
163.042734
 30
0.0
 10
129.746908
 20
163.166929
 30
0.0
  0
SPLINE
  5
23a
100
AcDbEntity
  8
0
 62
7
100
AcDbSpline
 70
8
 71
3
 72
8
 73
4
 74
0
 40
0
 40
0
 40
0
 40
0
 40
1
 40
1
 40
1
 40
1
 10
129.746908
 20
163.166929
 30
0.0
 10
129.472394
 20
163.291558
 30
0.0
 10
129.099016
 20
163.273866
 30
0.0
 10
128.794716
 20
163.121804
 30
0.0
  0
SPLINE
  5
23b
100
AcDbEntity
  8
0
 62
7
100
AcDbSpline
 70
8
 71
3
 72
8
 73
4
 74
0
 40
0
 40
0
 40
0
 40
0
 40
1
 40
1
 40
1
 40
1
 10
128.794716
 20
163.121804
 30
0.0
 10
128.380733
 20
162.914935
 30
0.0
 10
128.171660
 20
162.575744
 30
0.0
 10
128.171660
 20
162.110986
 30
0.0
  0
SPLINE
  5
23c
100
AcDbEntity
  8
0
 62
7
100
AcDbSpline
 70
8
 71
3
 72
8
 73
4
 74
0
 40
0
 40
0
 40
0
 40
0
 40
1
 40
1
 40
1
 40
1
 10
128.171660
 20
162.110986
 30
0.0
 10
128.171660
 20
161.703183
 30
0.0
 10
128.335907
 20
161.386719
 30
0.0
 10
128.666452
 20
161.157653
 30
0.0
  0
LWPOLYLINE
  5
23d
100
AcDbEntity
  8
0
 62
7
100
AcDbPolyline
 90
5
 70
1
 10
129.870917
 20
140.695540
 30
0.0
 10
129.759462
 20
140.754036
 30
0.0
 10
129.759462
 20
150.904588
 30
0.0
 10
129.759462
 20
161.055139
 30
0.0
 10
129.870917
 20
161.113632
 30
0.0
  0
SPLINE
  5
23e
100
AcDbEntity
  8
0
 62
7
100
AcDbSpline
 70
8
 71
3
 72
8
 73
4
 74
0
 40
0
 40
0
 40
0
 40
0
 40
1
 40
1
 40
1
 40
1
 10
128.668444
 20
140.657610
 30
0.0
 10
128.343674
 20
140.442686
 30
0.0
 10
128.171660
 20
140.110482
 30
0.0
 10
128.171660
 20
139.698187
 30
0.0
  0
SPLINE
  5
23f
100
AcDbEntity
  8
0
 62
7
100
AcDbSpline
 70
8
 71
3
 72
8
 73
4
 74
0
 40
0
 40
0
 40
0
 40
0
 40
1
 40
1
 40
1
 40
1
 10
128.171660
 20
139.698187
 30
0.0
 10
128.171660
 20
139.233432
 30
0.0
 10
128.380733
 20
138.894240
 30
0.0
 10
128.794716
 20
138.687368
 30
0.0
  0
SPLINE
  5
240
100
AcDbEntity
  8
0
 62
7
100
AcDbSpline
 70
8
 71
3
 72
8
 73
4
 74
0
 40
0
 40
0
 40
0
 40
0
 40
1
 40
1
 40
1
 40
1
 10
128.794716
 20
138.687368
 30
0.0
 10
129.099922
 20
138.534855
 30
0.0
 10
129.445111
 20
138.518359
 30
0.0
 10
129.734609
 20
138.642453
 30
0.0
  0
LWPOLYLINE
  5
241
100
AcDbEntity
  8
0
 62
7
100
AcDbPolyline
 90
5
 70
1
 10
128.666452
 20
161.157653
 30
0.0
 10
128.827284
 20
161.046195
 30
0.0
 10
128.827284
 20
150.904461
 30
0.0
 10
128.827284
 20
140.762726
 30
0.0
 10
128.668444
 20
140.657610
 30
0.0
  0
SPLINE
  5
242
100
AcDbEntity
  8
0
 62
7
100
AcDbSpline
 70
8
 71
3
 72
8
 73
4
 74
0
 40
0
 40
0
 40
0
 40
0
 40
1
 40
1
 40
1
 40
1
 10
132.236941
 20
138.620806
 30
0.0
 10
132.741450
 20
138.832814
 30
0.0
 10
133.046648
 20
139.333107
 30
0.0
 10
132.982868
 20
139.843562
 30
0.0
  0
SPLINE
  5
243
100
AcDbEntity
  8
0
 62
7
100
AcDbSpline
 70
8
 71
3
 72
8
 73
4
 74
0
 40
0
 40
0
 40
0
 40
0
 40
1
 40
1
 40
1
 40
1
 10
132.982868
 20
139.843562
 30
0.0
 10
132.948149
 20
140.121455
 30
0.0
 10
132.749019
 20
140.449222
 30
0.0
 10
132.505334
 20
140.629588
 30
0.0
  0
LWPOLYLINE
  5
244
100
AcDbEntity
  8
0
 62
7
100
AcDbPolyline
 90
2
 70
1
 10
129.734609
 20
138.642453
 30
0.0
 10
129.734609
 20
138.642453
 30
0.0
  0
SPLINE
  5
245
100
AcDbEntity
  8
0
 62
7
100
AcDbSpline
 70
8
 71
3
 72
8
 73
4
 74
0
 40
0
 40
0
 40
0
 40
0
 40
1
 40
1
 40
1
 40
1
 10
132.505334
 20
158.626253
 30
0.0
 10
133.409476
 20
159.295458
 30
0.0
 10
132.957957
 20
160.695184
 30
0.0
 10
131.839106
 20
160.691577
 30
0.0
  0
SPLINE
  5
246
100
AcDbEntity
  8
0
 62
7
100
AcDbSpline
 70
8
 71
3
 72
8
 73
4
 74
0
 40
0
 40
0
 40
0
 40
0
 40
1
 40
1
 40
1
 40
1
 10
131.839106
 20
160.691577
 30
0.0
 10
130.718631
 20
160.687965
 30
0.0
 10
130.282250
 20
159.299547
 30
0.0
 10
131.189747
 20
158.625539
 30
0.0
  0
LWPOLYLINE
  5
247
100
AcDbEntity
  8
0
 62
7
100
AcDbPolyline
 90
5
 70
1
 10
132.505334
 20
140.629588
 30
0.0
 10
132.312819
 20
140.772079
 30
0.0
 10
132.312819
 20
149.627919
 30
0.0
 10
132.312819
 20
158.483761
 30
0.0
 10
132.505334
 20
158.626253
 30
0.0
  0
SPLINE
  5
248
100
AcDbEntity
  8
0
 62
7
100
AcDbSpline
 70
8
 71
3
 72
8
 73
4
 74
0
 40
0
 40
0
 40
0
 40
0
 40
1
 40
1
 40
1
 40
1
 10
131.263692
 20
140.693570
 30
0.0
 10
131.065072
 20
140.590861
 30
0.0
 10
130.817609
 20
140.272896
 30
0.0
 10
130.746844
 20
140.029476
 30
0.0
  0
SPLINE
  5
249
100
AcDbEntity
  8
0
 62
7
100
AcDbSpline
 70
8
 71
3
 72
8
 73
4
 74
0
 40
0
 40
0
 40
0
 40
0
 40
1
 40
1
 40
1
 40
1
 10
130.746844
 20
140.029476
 30
0.0
 10
130.583593
 20
139.467902
 30
0.0
 10
130.903768
 20
138.817952
 30
0.0
 10
131.436787
 20
138.628914
 30
0.0
  0
SPLINE
  5
24a
100
AcDbEntity
  8
0
 62
7
100
AcDbSpline
 70
8
 71
3
 72
8
 73
4
 74
0
 40
0
 40
0
 40
0
 40
0
 40
1
 40
1
 40
1
 40
1
 10
131.436787
 20
138.628914
 30
0.0
 10
131.653483
 20
138.552065
 30
0.0
 10
132.063473
 20
138.547908
 30
0.0
 10
132.236941
 20
138.620815
 30
0.0
  0
LWPOLYLINE
  5
24b
100
AcDbEntity
  8
0
 62
7
100
AcDbPolyline
 90
5
 70
1
 10
131.189747
 20
158.625539
 30
0.0
 10
131.380639
 20
158.483761
 30
0.0
 10
131.380639
 20
149.618905
 30
0.0
 10
131.380639
 20
140.754048
 30
0.0
 10
131.263692
 20
140.693570
 30
0.0
  0
SPLINE
  5
24c
100
AcDbEntity
  8
0
 62
7
100
AcDbSpline
 70
8
 71
3
 72
8
 73
4
 74
0
 40
0
 40
0
 40
0
 40
0
 40
1
 40
1
 40
1
 40
1
 10
129.070769
 20
139.474943
 30
0.0
 10
128.868215
 20
139.690553
 30
0.0
 10
129.017934
 20
140.022420
 30
0.0
 10
129.317761
 20
140.022420
 30
0.0
  0
SPLINE
  5
24d
100
AcDbEntity
  8
0
 62
7
100
AcDbSpline
 70
8
 71
3
 72
8
 73
4
 74
0
 40
0
 40
0
 40
0
 40
0
 40
1
 40
1
 40
1
 40
1
 10
129.317761
 20
140.022420
 30
0.0
 10
129.605013
 20
140.022420
 30
0.0
 10
129.743296
 20
139.678335
 30
0.0
 10
129.538391
 20
139.473431
 30
0.0
  0
SPLINE
  5
24e
100
AcDbEntity
  8
0
 62
7
100
AcDbSpline
 70
8
 71
3
 72
8
 73
4
 74
0
 40
0
 40
0
 40
0
 40
0
 40
1
 40
1
 40
1
 40
1
 10
129.538391
 20
139.473431
 30
0.0
 10
129.403455
 20
139.338492
 30
0.0
 10
129.198333
 20
139.339155
 30
0.0
 10
129.070769
 20
139.474842
 30
0.0
  0
LWPOLYLINE
  5
24f
100
AcDbEntity
  8
0
 62
7
100
AcDbPolyline
 90
2
 70
1
 10
132.236941
 20
138.620815
 30
0.0
 10
132.236941
 20
138.620806
 30
0.0
  0
SPLINE
  5
250
100
AcDbEntity
  8
0
 62
7
100
AcDbSpline
 70
8
 71
3
 72
8
 73
4
 74
0
 40
0
 40
0
 40
0
 40
0
 40
1
 40
1
 40
1
 40
1
 10
126.535527
 20
139.473431
 30
0.0
 10
126.330623
 20
139.678335
 30
0.0
 10
126.468906
 20
140.022420
 30
0.0
 10
126.756157
 20
140.022420
 30
0.0
  0
SPLINE
  5
251
100
AcDbEntity
  8
0
 62
7
100
AcDbSpline
 70
8
 71
3
 72
8
 73
4
 74
0
 40
0
 40
0
 40
0
 40
0
 40
1
 40
1
 40
1
 40
1
 10
126.756157
 20
140.022420
 30
0.0
 10
126.955324
 20
140.022420
 30
0.0
 10
127.084517
 20
139.890992
 30
0.0
 10
127.084517
 20
139.688382
 30
0.0
  0
SPLINE
  5
252
100
AcDbEntity
  8
0
 62
7
100
AcDbSpline
 70
8
 71
3
 72
8
 73
4
 74
0
 40
0
 40
0
 40
0
 40
0
 40
1
 40
1
 40
1
 40
1
 10
127.084517
 20
139.688382
 30
0.0
 10
127.084517
 20
139.406674
 30
0.0
 10
126.737968
 20
139.270987
 30
0.0
 10
126.535527
 20
139.473431
 30
0.0
  0
LWPOLYLINE
  5
253
100
AcDbEntity
  8
0
 62
7
100
AcDbPolyline
 90
2
 70
1
 10
129.070769
 20
139.474842
 30
0.0
 10
129.070769
 20
139.474943
 30
0.0
  0
SPLINE
  5
254
100
AcDbEntity
  8
0
 62
7
100
AcDbSpline
 70
8
 71
3
 72
8
 73
4
 74
0
 40
0
 40
0
 40
0
 40
0
 40
1
 40
1
 40
1
 40
1
 10
131.673625
 20
139.401074
 30
0.0
 10
131.605452
 20
139.428506
 30
0.0
 10
131.502229
 20
139.631740
 30
0.0
 10
131.502229
 20
139.738544
 30
0.0
  0
SPLINE
  5
255
100
AcDbEntity
  8
0
 62
7
100
AcDbSpline
 70
8
 71
3
 72
8
 73
4
 74
0
 40
0
 40
0
 40
0
 40
0
 40
1
 40
1
 40
1
 40
1
 10
131.502229
 20
139.738544
 30
0.0
 10
131.502229
 20
139.871358
 30
0.0
 10
131.679772
 20
140.022420
 30
0.0
 10
131.835869
 20
140.022420
 30
0.0
  0
SPLINE
  5
256
100
AcDbEntity
  8
0
 62
7
100
AcDbSpline
 70
8
 71
3
 72
8
 73
4
 74
0
 40
0
 40
0
 40
0
 40
0
 40
1
 40
1
 40
1
 40
1
 10
131.835869
 20
140.022420
 30
0.0
 10
132.176842
 20
140.022420
 30
0.0
 10
132.304697
 20
139.634788
 30
0.0
 10
132.032623
 20
139.425899
 30
0.0
  0
SPLINE
  5
257
100
AcDbEntity
  8
0
 62
7
100
AcDbSpline
 70
8
 71
3
 72
8
 73
4
 74
0
 40
0
 40
0
 40
0
 40
0
 40
1
 40
1
 40
1
 40
1
 10
132.032623
 20
139.425899
 30
0.0
 10
131.967946
 20
139.376242
 30
0.0
 10
131.769460
 20
139.362517
 30
0.0
 10
131.673625
 20
139.401063
 30
0.0
  0
LWPOLYLINE
  5
258
100
AcDbEntity
  8
0
 62
7
100
AcDbPolyline
 90
2
 70
1
 10
126.535527
 20
139.473431
 30
0.0
 10
126.535527
 20
139.473431
 30
0.0
  0
SPLINE
  5
259
100
AcDbEntity
  8
0
 62
7
100
AcDbSpline
 70
8
 71
3
 72
8
 73
4
 74
0
 40
0
 40
0
 40
0
 40
0
 40
1
 40
1
 40
1
 40
1
 10
126.520044
 20
159.340182
 30
0.0
 10
126.406348
 20
159.484722
 30
0.0
 10
126.412461
 20
159.659316
 30
0.0
 10
126.535538
 20
159.782382
 30
0.0
  0
SPLINE
  5
25a
100
AcDbEntity
  8
0
 62
7
100
AcDbSpline
 70
8
 71
3
 72
8
 73
4
 74
0
 40
0
 40
0
 40
0
 40
0
 40
1
 40
1
 40
1
 40
1
 10
126.535538
 20
159.782382
 30
0.0
 10
126.747891
 20
159.994737
 30
0.0
 10
127.084528
 20
159.853437
 30
0.0
 10
127.084528
 20
159.551947
 30
0.0
  0
SPLINE
  5
25b
100
AcDbEntity
  8
0
 62
7
100
AcDbSpline
 70
8
 71
3
 72
8
 73
4
 74
0
 40
0
 40
0
 40
0
 40
0
 40
1
 40
1
 40
1
 40
1
 10
127.084528
 20
159.551947
 30
0.0
 10
127.084528
 20
159.255120
 30
0.0
 10
126.700339
 20
159.110989
 30
0.0
 10
126.520056
 20
159.340182
 30
0.0
  0
LWPOLYLINE
  5
25c
100
AcDbEntity
  8
0
 62
7
100
AcDbPolyline
 90
2
 70
1
 10
131.673625
 20
139.401063
 30
0.0
 10
131.673625
 20
139.401074
 30
0.0
  0
SPLINE
  5
25d
100
AcDbEntity
  8
0
 62
7
100
AcDbSpline
 70
8
 71
3
 72
8
 73
4
 74
0
 40
0
 40
0
 40
0
 40
0
 40
1
 40
1
 40
1
 40
1
 10
129.070769
 20
161.887742
 30
0.0
 10
128.778054
 20
162.199327
 30
0.0
 10
129.236038
 20
162.638092
 30
0.0
 10
129.538391
 20
162.335739
 30
0.0
  0
SPLINE
  5
25e
100
AcDbEntity
  8
0
 62
7
100
AcDbSpline
 70
8
 71
3
 72
8
 73
4
 74
0
 40
0
 40
0
 40
0
 40
0
 40
1
 40
1
 40
1
 40
1
 10
129.538391
 20
162.335739
 30
0.0
 10
129.670006
 20
162.204125
 30
0.0
 10
129.670006
 20
162.017844
 30
0.0
 10
129.538391
 20
161.886230
 30
0.0
  0
SPLINE
  5
25f
100
AcDbEntity
  8
0
 62
7
100
AcDbSpline
 70
8
 71
3
 72
8
 73
4
 74
0
 40
0
 40
0
 40
0
 40
0
 40
1
 40
1
 40
1
 40
1
 10
129.538391
 20
161.886230
 30
0.0
 10
129.403455
 20
161.751294
 30
0.0
 10
129.198333
 20
161.751957
 30
0.0
 10
129.070769
 20
161.887641
 30
0.0
  0
LWPOLYLINE
  5
260
100
AcDbEntity
  8
0
 62
7
100
AcDbPolyline
 90
2
 70
1
 10
126.520056
 20
159.340182
 30
0.0
 10
126.520044
 20
159.340182
 30
0.0
  0
SPLINE
  5
261
100
AcDbEntity
  8
0
 62
7
100
AcDbSpline
 70
8
 71
3
 72
8
 73
4
 74
0
 40
0
 40
0
 40
0
 40
0
 40
1
 40
1
 40
1
 40
1
 10
131.619097
 20
159.310122
 30
0.0
 10
131.485124
 20
159.418608
 30
0.0
 10
131.485124
 20
159.696648
 30
0.0
 10
131.619097
 20
159.805131
 30
0.0
  0
SPLINE
  5
262
100
AcDbEntity
  8
0
 62
7
100
AcDbSpline
 70
8
 71
3
 72
8
 73
4
 74
0
 40
0
 40
0
 40
0
 40
0
 40
1
 40
1
 40
1
 40
1
 10
131.619097
 20
159.805131
 30
0.0
 10
131.721456
 20
159.888017
 30
0.0
 10
131.909329
 20
159.905439
 30
0.0
 10
132.026217
 20
159.842881
 30
0.0
  0
SPLINE
  5
263
100
AcDbEntity
  8
0
 62
7
100
AcDbSpline
 70
8
 71
3
 72
8
 73
4
 74
0
 40
0
 40
0
 40
0
 40
0
 40
1
 40
1
 40
1
 40
1
 10
132.026217
 20
159.842881
 30
0.0
 10
132.149644
 20
159.776827
 30
0.0
 10
132.209754
 20
159.578606
 30
0.0
 10
132.150059
 20
159.434489
 30
0.0
  0
SPLINE
  5
264
100
AcDbEntity
  8
0
 62
7
100
AcDbSpline
 70
8
 71
3
 72
8
 73
4
 74
0
 40
0
 40
0
 40
0
 40
0
 40
1
 40
1
 40
1
 40
1
 10
132.150059
 20
159.434489
 30
0.0
 10
132.122006
 20
159.366764
 30
0.0
 10
132.066278
 20
159.293813
 30
0.0
 10
132.026217
 20
159.272372
 30
0.0
  0
SPLINE
  5
265
100
AcDbEntity
  8
0
 62
7
100
AcDbSpline
 70
8
 71
3
 72
8
 73
4
 74
0
 40
0
 40
0
 40
0
 40
0
 40
1
 40
1
 40
1
 40
1
 10
132.026217
 20
159.272372
 30
0.0
 10
131.909329
 20
159.209815
 30
0.0
 10
131.721456
 20
159.227236
 30
0.0
 10
131.619097
 20
159.310122
 30
0.0
  0
LWPOLYLINE
  5
266
100
AcDbEntity
  8
0
 62
7
100
AcDbPolyline
 90
2
 70
1
 10
129.070769
 20
161.887641
 30
0.0
 10
129.070769
 20
161.887742
 30
0.0
  0
LWPOLYLINE
  5
267
100
AcDbEntity
  8
0
 62
7
100
AcDbPolyline
 90
2
 70
1
 10
131.619097
 20
159.310122
 30
0.0
 10
131.619097
 20
159.310122
 30
0.0
  0
ENDSEC
  0
SECTION
  2
OBJECTS
  0
DICTIONARY
  5
C
330
0
100
AcDbDictionary
  3
ACAD_GROUP
350
D
  3
ACAD_MLINESTYLE
350
17
  0
DICTIONARY
  5
D
330
C
100
AcDbDictionary
  0
DICTIONARY
  5
1A
330
C
100
AcDbDictionary
  0
DICTIONARY
  5
17
330
C
100
AcDbDictionary
  3
STANDARD
350
18
  0
DICTIONARY
  5
19
330
C
100
AcDbDictionary
  0
ENDSEC
  0
EOF
