<?xml version="1.0" encoding="UTF-8" standalone="no"?>
<!-- Created with Inkscape (http://www.inkscape.org/) -->

<svg
   xmlns:dc="http://purl.org/dc/elements/1.1/"
   xmlns:cc="http://creativecommons.org/ns#"
   xmlns:rdf="http://www.w3.org/1999/02/22-rdf-syntax-ns#"
   xmlns:svg="http://www.w3.org/2000/svg"
   xmlns="http://www.w3.org/2000/svg"
   xmlns:sodipodi="http://sodipodi.sourceforge.net/DTD/sodipodi-0.dtd"
   xmlns:inkscape="http://www.inkscape.org/namespaces/inkscape"
   id="svg2"
   version="1.1"
   inkscape:version="0.91 r13725"
   xml:space="preserve"
   width="743.75"
   height="1052.5"
   viewBox="0 0 743.75 1052.5"
   sodipodi:docname="pot board.svg"
   inkscape:export-filename="/home/luca/git/LabAccessControl/DoorOpener/DoorOpenerPCB/pot board.pdf.png"
   inkscape:export-xdpi="2400"
   inkscape:export-ydpi="2400"><metadata
     id="metadata8"><rdf:RDF><cc:Work
         rdf:about=""><dc:format>image/svg+xml</dc:format><dc:type
           rdf:resource="http://purl.org/dc/dcmitype/StillImage" /><dc:title></dc:title></cc:Work></rdf:RDF></metadata><defs
     id="defs6"><clipPath
       clipPathUnits="userSpaceOnUse"
       id="clipPath26"><path
         d="m 302,600 9313,0 0,12833 -9313,0 0,-12833 z"
         id="path28"
         inkscape:connector-curvature="0"
         style="clip-rule:evenodd" /></clipPath><clipPath
       clipPathUnits="userSpaceOnUse"
       id="clipPath36"><path
         d="m 302,600 9313,0 0,12833 -9313,0 0,-12833 z"
         id="path38"
         inkscape:connector-curvature="0"
         style="clip-rule:evenodd" /></clipPath><clipPath
       clipPathUnits="userSpaceOnUse"
       id="clipPath42"><path
         d="m 4338,6207 1240,0 0,1618 -1240,0 0,-1618 z"
         id="path44"
         inkscape:connector-curvature="0"
         style="clip-rule:evenodd" /></clipPath></defs><sodipodi:namedview
     pagecolor="#ffffff"
     bordercolor="#666666"
     borderopacity="1"
     objecttolerance="10"
     gridtolerance="10"
     guidetolerance="10"
     inkscape:pageopacity="0"
     inkscape:pageshadow="2"
     inkscape:window-width="1863"
     inkscape:window-height="1056"
     id="namedview4"
     showgrid="false"
     inkscape:zoom="10.147402"
     inkscape:cx="478.82202"
     inkscape:cy="367.47511"
     inkscape:window-x="57"
     inkscape:window-y="24"
     inkscape:window-maximized="1"
     inkscape:current-layer="g10" /><g
     id="g10"
     inkscape:groupmode="layer"
     inkscape:label="pot board"
     transform="matrix(1.25,0,0,-1.25,0,1052.5)"><path
       style="fill:#000000"
       d="m 353.08446,262.28723 c -0.43229,0.0227 -0.55206,0.0412 -0.94535,0.14552 -0.24769,0.0657 -0.49755,0.11949 -0.55524,0.11949 -0.0577,0 -0.16553,0.0322 -0.23965,0.0715 -0.0741,0.0393 -0.36173,0.15442 -0.63913,0.25578 -0.55539,0.20294 -1.59459,0.70642 -1.76247,0.85388 -0.0588,0.0516 -0.26761,0.2221 -0.4641,0.37885 -0.1965,0.15675 -0.51292,0.44025 -0.70316,0.63 -0.19025,0.18975 -0.38242,0.3688 -0.42705,0.39788 -0.0446,0.0291 -0.12901,0.12359 -0.18751,0.21 -0.0585,0.0864 -0.24804,0.32587 -0.42121,0.53212 -0.29179,0.34752 -0.33906,0.42299 -0.645,1.02983 -0.18157,0.36015 -0.33013,0.67221 -0.33013,0.69345 0,0.0212 -0.0278,0.074 -0.0618,0.11721 -0.034,0.0432 -0.0691,0.12941 -0.078,0.19154 -0.0215,0.15024 -0.12369,0.4307 -0.17931,0.49237 -0.0245,0.0272 -0.0564,0.12841 -0.0708,0.225 -0.0145,0.0966 -0.0864,0.39835 -0.15978,0.6706 -0.12784,0.47405 -0.1349,0.52229 -0.16687,1.14006 -0.0476,0.91914 -0.0476,79.66074 0,80.57988 0.032,0.61777 0.039,0.66601 0.16687,1.14006 0.0734,0.27225 0.14532,0.57402 0.15978,0.67061 0.0145,0.0966 0.0463,0.19783 0.0708,0.225 0.0556,0.0617 0.15776,0.34212 0.17931,0.49236 0.009,0.0621 0.044,0.14832 0.078,0.19154 0.034,0.0432 0.0618,0.096 0.0618,0.11721 0,0.0212 0.14856,0.3333 0.33013,0.69345 0.30594,0.60684 0.35321,0.68231 0.645,1.02983 0.17317,0.20625 0.36272,0.4457 0.42121,0.53212 0.0585,0.0864 0.14288,0.18091 0.18751,0.21 0.0446,0.0291 0.2368,0.20813 0.42705,0.39788 0.19024,0.18975 0.50666,0.47325 0.70316,0.63 0.19649,0.15675 0.40534,0.32723 0.4641,0.37885 0.16788,0.14746 1.20708,0.65093 1.76247,0.85388 0.2774,0.10136 0.56501,0.21647 0.63913,0.25578 0.0741,0.0393 0.18258,0.0715 0.24101,0.0715 0.0584,0 0.30155,0.0525 0.54024,0.11669 0.4001,0.10758 0.48319,0.1193 1.06399,0.15009 0.89686,0.0476 57.03445,0.0475 57.93,-5e-5 0.56668,-0.0301 0.66769,-0.0439 1.005,-0.13692 0.20625,-0.0569 0.44925,-0.1113 0.54,-0.12087 0.0907,-0.01 0.22924,-0.0495 0.30775,-0.0888 0.0785,-0.0393 0.34852,-0.14563 0.6,-0.23634 0.25149,-0.0907 0.72725,-0.29803 1.05725,-0.46071 0.57141,-0.28169 0.62215,-0.31397 1.065,-0.67747 0.25575,-0.20993 0.627,-0.54047 0.825,-0.73454 0.198,-0.19407 0.38986,-0.36841 0.42637,-0.38742 0.0365,-0.019 0.1099,-0.0985 0.16311,-0.17661 0.10226,-0.15016 0.54922,-0.70996 0.68827,-0.86205 0.0453,-0.0495 0.21694,-0.36 0.3815,-0.69 0.42309,-0.84842 0.50678,-1.03406 0.52637,-1.16759 0.009,-0.0647 0.065,-0.21418 0.12332,-0.33224 0.0583,-0.11805 0.10606,-0.24497 0.10606,-0.28203 0,-0.0371 0.0667,-0.3263 0.14818,-0.64276 0.14646,-0.56873 0.14855,-0.58336 0.18018,-1.26538 0.0451,-0.97119 0.0451,-79.3988 0,-80.37 -0.0316,-0.68202 -0.0337,-0.69665 -0.18018,-1.26538 -0.0815,-0.31646 -0.14818,-0.6057 -0.14818,-0.64276 0,-0.0371 -0.0477,-0.16398 -0.10606,-0.28203 -0.0583,-0.11806 -0.11383,-0.26757 -0.12332,-0.33224 -0.0196,-0.13353 -0.10328,-0.31917 -0.52637,-1.16759 -0.16456,-0.33 -0.33624,-0.6405 -0.3815,-0.69 -0.13905,-0.15209 -0.58601,-0.71189 -0.68827,-0.86205 -0.0532,-0.0781 -0.12661,-0.1576 -0.16311,-0.17661 -0.0365,-0.019 -0.22837,-0.19335 -0.42637,-0.38742 -0.198,-0.19407 -0.56925,-0.52461 -0.825,-0.73454 -0.44285,-0.3635 -0.49359,-0.39578 -1.065,-0.67747 -0.33,-0.16268 -0.80925,-0.37113 -1.065,-0.46322 -0.25575,-0.0921 -0.51225,-0.19522 -0.57,-0.22917 -0.0578,-0.034 -0.19275,-0.0731 -0.3,-0.0869 -0.10725,-0.0138 -0.36375,-0.0715 -0.57,-0.12803 -0.33621,-0.0922 -0.44018,-0.10633 -1.005,-0.13632 -0.76873,-0.0408 -57.25781,-0.0392 -58.035,0.002 z m 5.33967,7.45731 0.82466,0.3527 0.66043,0.66 c 0.52685,0.52651 0.67053,0.68731 0.71035,0.795 0.0804,0.21746 0.38311,0.96694 0.43014,1.065 0.17004,0.35455 0.16475,0.31281 0.16481,1.29999 l 6e-5,0.92001 -0.33568,0.83874 -0.33568,0.83874 -0.26253,0.25626 c -0.31024,0.30283 -0.40268,0.39505 -0.76252,0.76064 l -0.27129,0.27562 -0.59871,0.2309 c -0.32929,0.12699 -0.63838,0.23927 -0.68688,0.24949 -0.0485,0.0102 -0.12949,0.0481 -0.18,0.0841 -0.09,0.0642 -0.11171,0.0655 -1.09683,0.0655 -0.98914,0 -1.00647,-10e-4 -1.09805,-0.0664 -0.0512,-0.0365 -0.15243,-0.0799 -0.225,-0.0964 -0.24252,-0.0552 -1.15846,-0.44257 -1.2829,-0.54258 -0.0666,-0.0535 -0.36839,-0.35585 -0.67071,-0.6719 -0.53842,-0.56288 -0.55169,-0.57986 -0.64749,-0.82869 -0.0538,-0.13973 -0.11695,-0.28876 -0.14035,-0.33118 -0.0234,-0.0424 -0.13771,-0.29833 -0.25402,-0.56869 l -0.21148,-0.49155 0,-0.91953 0,-0.91953 0.29598,-0.65679 c 0.16279,-0.36123 0.32356,-0.71982 0.35725,-0.79688 0.0428,-0.0979 0.22811,-0.31471 0.61535,-0.72 0.30475,-0.31894 0.59046,-0.61365 0.63491,-0.6549 0.0444,-0.0412 0.44098,-0.23242 0.88117,-0.42482 l 0.80034,-0.34982 0.93,-0.003 0.93,-0.003 0.82467,0.3527 z m 50.93577,3e-4 0.82043,0.35254 0.63457,0.66465 0.63456,0.66465 0.2082,0.47535 c 0.11451,0.26144 0.27314,0.61845 0.3525,0.79336 l 0.1443,0.31802 0,0.90628 0,0.90629 -0.16851,0.3957 c -0.0927,0.21763 -0.21303,0.4902 -0.26746,0.6057 -0.0544,0.1155 -0.13722,0.31031 -0.18399,0.43292 -0.0762,0.19974 -0.12109,0.26057 -0.43176,0.585 -0.1907,0.19914 -0.4337,0.45493 -0.54,0.56843 -0.1063,0.1135 -0.26078,0.25631 -0.34328,0.31736 -0.14508,0.10737 -1.16255,0.54121 -1.26959,0.54135 -0.0277,0 -0.12819,0.0411 -0.22326,0.0912 l -0.17286,0.0911 -0.97218,-0.009 c -0.94857,-0.008 -0.97436,-0.0103 -1.06164,-0.0749 -0.0492,-0.0364 -0.12793,-0.0742 -0.17496,-0.0841 -0.047,-0.01 -0.35551,-0.12183 -0.68551,-0.24883 l -0.6,-0.23089 -0.28898,-0.29602 c -0.31089,-0.31846 -0.33799,-0.34552 -0.75523,-0.75398 l -0.27579,-0.27 -0.3241,-0.825 -0.32409,-0.825 0.009,-0.96 0.009,-0.96 0.1125,-0.23165 c 0.0619,-0.12741 0.1125,-0.24089 0.1125,-0.25219 0,-0.0113 0.0909,-0.24455 0.20191,-0.51835 l 0.20192,-0.49781 0.66058,-0.6605 0.66059,-0.66049 0.81,-0.34936 0.81,-0.34936 0.93,-0.003 0.93,-0.003 0.82044,0.35253 z m -32.87544,12.23931 0.705,0.29299 0.57,0.57274 c 0.3135,0.31501 0.59949,0.58841 0.63553,0.60755 0.0954,0.0507 0.25324,0.0423 0.33947,-0.0181 0.0412,-0.0289 0.32475,-0.30214 0.63,-0.6073 l 0.555,-0.55483 0.72982,-0.2925 0.72982,-0.2925 0.77018,-3.6e-4 0.77018,-3.6e-4 0.735,0.29286 0.735,0.29287 0.57,0.57503 c 0.3135,0.31627 0.59949,0.58965 0.63553,0.6075 0.08,0.0397 0.24828,0.0416 0.30947,0.004 0.0247,-0.0154 0.30825,-0.28855 0.63,-0.60704 l 0.585,-0.57909 0.705,-0.29304 0.705,-0.29305 0.795,0 0.795,0 0.72,0.28972 0.72,0.28972 0.57656,0.57204 c 0.50218,0.49824 0.58473,0.59349 0.63989,0.73827 0.0348,0.0914 0.0842,0.21348 0.10979,0.27123 0.0256,0.0578 0.13248,0.31302 0.23761,0.56726 l 0.19115,0.46226 0,0.76976 0,0.76976 -0.30017,0.73286 -0.30016,0.73285 -0.56234,0.56464 c -0.30928,0.31056 -0.59923,0.58422 -0.64432,0.60813 -0.0451,0.0239 -0.10247,0.0831 -0.1275,0.1315 -0.0406,0.0786 -0.0455,2.74569 -0.0455,24.57108 0,21.82539 0.005,24.49253 0.0455,24.57098 0.025,0.0484 0.0824,0.10757 0.1275,0.13149 0.0451,0.0239 0.33538,0.29793 0.64509,0.6089 l 0.5631,0.56541 0.22687,0.55411 c 0.40667,0.99325 0.37193,0.83452 0.37193,1.69919 l 0,0.75535 -0.15982,0.38478 c -0.0879,0.21164 -0.22337,0.54065 -0.30106,0.73114 l -0.14125,0.34635 -0.57644,0.57191 -0.57643,0.57191 -0.72,0.28945 -0.72,0.28946 -0.795,3.2e-4 -0.795,3.3e-4 -0.72356,-0.30505 -0.72356,-0.30505 -0.53451,-0.52049 c -0.29399,-0.28627 -0.54499,-0.52049 -0.55779,-0.52049 -0.0128,0 -0.0385,-0.0574 -0.0572,-0.1275 -0.0187,-0.0701 -0.0531,-0.14896 -0.0764,-0.17519 -0.0234,-0.0262 -0.12428,-0.24898 -0.22424,-0.495 -0.3194,-0.78617 -0.29767,-0.67548 -0.29767,-1.51614 l 0,-0.74444 0.0879,-0.23337 c 0.16734,-0.44421 0.38262,-0.95381 0.4471,-1.05836 0.0356,-0.0577 0.0648,-0.12808 0.0649,-0.15629 0,-0.0282 0.0575,-0.10218 0.12761,-0.16437 0.0701,-0.0622 0.2085,-0.19613 0.3075,-0.29762 0.099,-0.1015 0.3285,-0.32361 0.51,-0.49357 0.1815,-0.16996 0.35353,-0.3437 0.3823,-0.38609 0.0496,-0.0731 0.0523,-1.32822 0.0523,-24.57206 0,-23.258 -0.003,-24.49879 -0.0524,-24.57 -0.0584,-0.0836 -1.2873,-1.30642 -1.35759,-1.35086 -0.0618,-0.0391 -0.23051,-0.0361 -0.30809,0.005 -0.0778,0.0416 -1.32994,1.29773 -1.37198,1.37629 -0.0194,0.0362 -0.0296,9.74763 -0.0296,28.13871 0,25.04368 0.005,28.09299 0.0455,28.17146 0.025,0.0484 0.0842,0.108 0.13142,0.13243 0.0473,0.0244 0.32715,0.29933 0.62199,0.61087 l 0.53608,0.56643 0.2925,0.70305 0.2925,0.70306 0,0.80073 c 0,0.77336 -0.002,0.80615 -0.0699,0.95909 -0.0385,0.0871 -0.16954,0.40811 -0.29128,0.71336 l -0.22135,0.555 -0.28607,0.3 c -0.62152,0.65181 -0.85624,0.87306 -0.96137,0.90621 -0.0577,0.0182 -0.38684,0.14913 -0.73132,0.29095 l -0.62631,0.25784 -0.77603,0 -0.77603,0 -0.69766,-0.28575 c -0.38371,-0.15716 -0.72579,-0.29999 -0.76018,-0.3174 -0.0344,-0.0174 -0.30439,-0.27697 -0.6,-0.57678 l -0.53747,-0.54511 -0.20706,-0.52498 c -0.11388,-0.28874 -0.24551,-0.61499 -0.2925,-0.72501 l -0.0854,-0.20003 0.002,-0.81997 0.002,-0.81997 0.30571,-0.71145 0.3057,-0.71144 0.52162,-0.54242 c 0.2869,-0.29833 0.56004,-0.56228 0.607,-0.58656 0.047,-0.0243 0.10585,-0.0838 0.13087,-0.13215 0.0406,-0.0785 0.0455,-3.12778 0.0455,-28.17146 0,-19.33118 -0.01,-28.10158 -0.0311,-28.14159 -0.0365,-0.0682 -1.23886,-1.27494 -1.34889,-1.35379 -0.0815,-0.0584 -0.24239,-0.071 -0.32707,-0.0257 -0.0726,0.0388 -1.34336,1.30764 -1.38199,1.37982 -0.0483,0.0902 -0.0407,49.01587 0.008,49.1008 0.02,0.0352 0.20519,0.22468 0.41144,0.42103 0.75311,0.71692 0.92247,0.8934 0.94341,0.98309 0.0113,0.0485 0.0448,0.12274 0.0743,0.165 0.0295,0.0423 0.0952,0.18483 0.14592,0.31683 0.0507,0.132 0.12128,0.30522 0.15679,0.38493 0.20626,0.46304 0.20959,0.48339 0.20959,1.28007 0,0.79668 -0.003,0.81703 -0.2096,1.28007 -0.0355,0.0797 -0.10607,0.25293 -0.15679,0.38493 -0.0507,0.132 -0.11739,0.27599 -0.14816,0.31998 -0.0308,0.044 -0.0638,0.11899 -0.0733,0.16668 -0.0124,0.0622 -0.1746,0.23892 -0.57276,0.6243 -0.30548,0.29568 -0.57769,0.55258 -0.60491,0.5709 -0.0272,0.0183 -0.35817,0.16377 -0.73543,0.32322 l -0.68593,0.28992 -0.79907,3.7e-4 -0.79907,3.6e-4 -0.73455,-0.29286 -0.73455,-0.29287 -0.57045,-0.57 -0.57045,-0.57 -0.14742,-0.375 c -0.0811,-0.20625 -0.2127,-0.53221 -0.2925,-0.72436 l -0.14508,-0.34936 0,-0.76677 c 0,-0.87459 -0.0378,-0.69777 0.36298,-1.69951 l 0.22202,-0.555 0.555,-0.5579 c 0.30525,-0.30684 0.59704,-0.58205 0.64843,-0.61157 0.0514,-0.0295 0.11552,-0.091 0.1425,-0.13672 0.0453,-0.0767 0.0491,-1.9557 0.0491,-24.56881 0,-22.75975 -0.004,-24.49168 -0.0498,-24.57004 -0.0274,-0.0464 -0.0983,-0.1119 -0.1575,-0.14562 -0.0592,-0.0337 -0.3507,-0.30838 -0.6477,-0.61033 l -0.54,-0.54901 -0.2925,-0.72784 -0.2925,-0.72783 0,-0.77942 0,-0.77943 0.19834,-0.48774 c 0.10908,-0.26826 0.20827,-0.50124 0.22041,-0.51774 0.0121,-0.0165 0.0544,-0.1245 0.0939,-0.24 0.0698,-0.20421 0.0875,-0.22571 0.64208,-0.78 l 0.57026,-0.57 0.72,-0.29062 0.72,-0.29063 0.81,-0.002 0.81,-0.002 0.705,0.293 z m -2.18337,0.51905 c -1.22145,0.2642 -2.13662,1.14144 -2.47215,2.3697 -0.0612,0.22412 -0.0692,0.31851 -0.0672,0.79434 0.002,0.4521 0.0126,0.57748 0.0657,0.77026 0.14877,0.54039 0.41011,1.01426 0.77087,1.39774 0.37255,0.39603 0.79151,0.67674 1.25354,0.83992 l 0.23242,0.0821 9e-5,25.00775 9e-5,25.00775 -0.1275,0.0369 c -0.22911,0.0663 -0.66773,0.29549 -0.91007,0.47553 -0.60053,0.44615 -1.0142,1.06025 -1.21772,1.80773 -0.06,0.22039 -0.0693,0.32442 -0.0693,0.77934 0,0.45492 0.009,0.55895 0.0693,0.77934 0.31524,1.15779 1.17344,2.02696 2.30244,2.33183 0.26971,0.0728 0.34746,0.0804 0.82285,0.0804 0.47241,0 0.5541,-0.008 0.81551,-0.0786 0.90945,-0.24597 1.67341,-0.87744 2.07851,-1.71804 0.69297,-1.43794 0.21255,-3.19145 -1.11644,-4.07496 -0.22186,-0.1475 -0.57588,-0.32016 -0.78471,-0.38273 l -0.12289,-0.0368 0,-25.0105 0,-25.0105 0.1275,-0.0377 c 0.23553,-0.0696 0.66971,-0.29619 0.90959,-0.47473 1.14943,-0.85549 1.59353,-2.32972 1.10964,-3.68359 -0.35689,-0.99854 -1.20532,-1.76399 -2.24767,-2.02784 -0.36713,-0.0929 -1.05202,-0.10483 -1.42243,-0.0247 z m 0.99732,1.78503 c 0.70169,0.18276 1.1599,0.87842 1.0417,1.58151 -0.13782,0.81978 -0.9385,1.35257 -1.72485,1.14775 -0.26072,-0.0679 -0.46468,-0.18433 -0.6532,-0.37285 -0.55404,-0.55404 -0.55475,-1.43522 -0.002,-1.98091 0.36688,-0.36194 0.85937,-0.50016 1.33796,-0.3755 z m 0,56.22 c 0.70169,0.18276 1.1599,0.87842 1.0417,1.58151 -0.0942,0.56042 -0.49808,1.00492 -1.0417,1.14651 -0.47871,0.12469 -0.97099,-0.0135 -1.33796,-0.37549 -0.55227,-0.54484 -0.55227,-1.4322 0,-1.97703 0.36688,-0.36194 0.85937,-0.50016 1.33796,-0.3755 z m 6.20268,-58.00503 c -1.21579,0.26297 -2.15398,1.16049 -2.47087,2.36378 -0.0785,0.29793 -0.10702,0.92557 -0.0577,1.2684 0.0917,0.63778 0.38736,1.23919 0.84696,1.72303 0.35838,0.37728 0.7809,0.65729 1.23241,0.81675 l 0.23242,0.0821 0,28.605 0,28.605 -0.23242,0.0821 c -0.97017,0.34263 -1.73438,1.18723 -2.02465,2.23766 -0.0543,0.19631 -0.0636,0.31208 -0.0636,0.78526 0,0.47318 0.009,0.58895 0.0636,0.78526 0.1683,0.60905 0.4264,1.04984 0.87521,1.49474 0.48425,0.48003 0.95714,0.73366 1.62434,0.87122 0.39675,0.0818 1.0123,0.0698 1.39674,-0.0271 1.04116,-0.26259 1.89075,-1.02901 2.24767,-2.02762 0.50477,-1.41228 -0.009,-2.95836 -1.25802,-3.78899 -0.19661,-0.13071 -0.64333,-0.34242 -0.81169,-0.38467 l -0.077,-0.0193 0,-28.612 0,-28.612 0.12286,-0.0368 c 0.0676,-0.0202 0.22411,-0.0829 0.34786,-0.13935 0.79694,-0.36318 1.42442,-1.06521 1.70119,-1.90334 0.13786,-0.41748 0.18045,-0.73342 0.15938,-1.18232 -0.0382,-0.81469 -0.36372,-1.54275 -0.94708,-2.1185 -0.42638,-0.42081 -0.91774,-0.69988 -1.48515,-0.84351 -0.36713,-0.0929 -1.05202,-0.10483 -1.42243,-0.0247 z m 0.99732,1.78503 c 0.70169,0.18276 1.1599,0.87842 1.0417,1.58151 -0.13782,0.81978 -0.9385,1.35257 -1.72485,1.14775 -0.26072,-0.0679 -0.46468,-0.18433 -0.6532,-0.37285 -0.55404,-0.55404 -0.55475,-1.43522 -0.002,-1.98091 0.36688,-0.36194 0.85937,-0.50016 1.33796,-0.3755 z m 0,63.42 c 0.70169,0.18276 1.1599,0.87842 1.0417,1.58151 -0.13822,0.8222 -0.93837,1.3526 -1.7296,1.14651 -0.25113,-0.0654 -0.45527,-0.18333 -0.65006,-0.37549 -0.55314,-0.5457 -0.55243,-1.42688 0.002,-1.98092 0.35554,-0.35554 0.85975,-0.49575 1.33635,-0.37161 z m 6.19929,-65.20435 c -0.58544,0.12653 -1.09779,0.39181 -1.52043,0.78724 -0.68987,0.64545 -1.03281,1.42945 -1.03281,2.36112 0,0.5375 0.1051,0.99051 0.33758,1.455 0.36321,0.72569 1.13574,1.38771 1.87492,1.60672 l 0.1275,0.0378 0,25.00775 0,25.00775 -0.23242,0.0821 c -0.73371,0.25906 -1.4163,0.86387 -1.76973,1.56792 -0.23239,0.46295 -0.33785,0.91711 -0.33785,1.455 0,0.93168 0.34294,1.71567 1.03281,2.36112 0.43346,0.40555 0.94198,0.66485 1.54951,0.7901 0.39675,0.0818 1.0123,0.0698 1.39674,-0.0271 1.15386,-0.29102 2.02722,-1.1671 2.35685,-2.3642 0.0548,-0.19913 0.0647,-0.31488 0.0647,-0.75991 0,-0.44503 -0.01,-0.56078 -0.0647,-0.7599 -0.30451,-1.10587 -1.05935,-1.92949 -2.09841,-2.2896 l -0.1575,-0.0546 0,-25.00821 0,-25.00821 0.1275,-0.0377 c 0.23937,-0.0707 0.67573,-0.29951 0.91471,-0.47959 0.60351,-0.45475 1.00131,-1.05386 1.21599,-1.83132 0.0921,-0.33346 0.0908,-1.17271 -0.002,-1.51083 -0.16832,-0.61128 -0.45186,-1.10585 -0.87197,-1.52091 -0.42571,-0.42059 -0.91727,-0.69983 -1.48488,-0.84351 -0.36872,-0.0933 -1.05187,-0.10485 -1.42581,-0.024 z m 1.00071,1.78435 c 0.69994,0.18231 1.1596,0.88017 1.0417,1.58151 -0.13782,0.81978 -0.9385,1.35257 -1.72485,1.14775 -0.26072,-0.0679 -0.46468,-0.18433 -0.6532,-0.37285 -0.76938,-0.76938 -0.41541,-2.07183 0.64033,-2.35615 0.20944,-0.0564 0.48009,-0.0565 0.69602,-3e-4 z m 0,56.22 c 0.69994,0.18231 1.1596,0.88017 1.0417,1.58151 -0.13757,0.8183 -0.93992,1.3522 -1.72485,1.14775 -0.26072,-0.0679 -0.46468,-0.18433 -0.6532,-0.37285 -0.76938,-0.76938 -0.41541,-2.07183 0.64033,-2.35615 0.20944,-0.0564 0.48009,-0.0565 0.69602,-2.7e-4 z"
       id="path5577"
       inkscape:connector-curvature="0" /></g></svg>