<?xml version="1.0" encoding="UTF-8" standalone="no"?>
<!-- Created with Inkscape (http://www.inkscape.org/) -->

<svg
   xmlns:dc="http://purl.org/dc/elements/1.1/"
   xmlns:cc="http://creativecommons.org/ns#"
   xmlns:rdf="http://www.w3.org/1999/02/22-rdf-syntax-ns#"
   xmlns:svg="http://www.w3.org/2000/svg"
   xmlns="http://www.w3.org/2000/svg"
   xmlns:sodipodi="http://sodipodi.sourceforge.net/DTD/sodipodi-0.dtd"
   xmlns:inkscape="http://www.inkscape.org/namespaces/inkscape"
   id="svg2"
   version="1.1"
   inkscape:version="0.91 r13725"
   xml:space="preserve"
   width="12mm"
   height="12.000047mm"
   viewBox="0 0 42.519685 42.519852"
   sodipodi:docname="logo_fablab.svg"><metadata
     id="metadata8"><rdf:RDF><cc:Work
         rdf:about=""><dc:format>image/svg+xml</dc:format><dc:type
           rdf:resource="http://purl.org/dc/dcmitype/StillImage" /><dc:title></dc:title></cc:Work></rdf:RDF></metadata><defs
     id="defs6"><clipPath
       clipPathUnits="userSpaceOnUse"
       id="clipPath16"><path
         d="m 0,283.465 1190.55,0 L 1190.55,0 0,0 0,283.465 Z"
         id="path18"
         inkscape:connector-curvature="0" /></clipPath></defs><sodipodi:namedview
     pagecolor="#ffffff"
     bordercolor="#666666"
     borderopacity="1"
     objecttolerance="10"
     gridtolerance="10"
     guidetolerance="10"
     inkscape:pageopacity="0"
     inkscape:pageshadow="2"
     inkscape:window-width="1871"
     inkscape:window-height="1056"
     id="namedview4"
     showgrid="false"
     inkscape:zoom="8.70858"
     inkscape:cx="7.0464749"
     inkscape:cy="17.565545"
     inkscape:window-x="49"
     inkscape:window-y="24"
     inkscape:window-maximized="1"
     inkscape:current-layer="g4184"
     fit-margin-top="1"
     fit-margin-left="1"
     fit-margin-right="1"
     fit-margin-bottom="1"
     units="mm"
     inkscape:snap-object-midpoints="true"
     inkscape:snap-intersection-paths="true"
     inkscape:snap-midpoints="true"
     inkscape:snap-bbox="true"
     inkscape:bbox-nodes="true"
     inkscape:snap-bbox-edge-midpoints="true"
     inkscape:snap-bbox-midpoints="true"
     inkscape:snap-page="true"
     inkscape:snap-center="true" /><g
     id="g10"
     inkscape:groupmode="layer"
     inkscape:label="Logo FabLab L'Aquila"
     transform="matrix(1.25,0,0,-1.25,-165.72034,200.71048)"><g
       id="g12"><g
         id="g14"
         clip-path="url(#clipPath16)"><g
           id="g4184"
           transform="translate(-1.1942245,-0.55118056)"><g
             id="g4185"
             transform="matrix(0.7,0,0,0.7,45.23351,43.233467)"><circle
               style="fill:#ffffff;fill-opacity:1;fill-rule:nonzero;stroke:none;stroke-width:1.35570014;stroke-linecap:round;stroke-linejoin:miter;stroke-miterlimit:4;stroke-dasharray:none;stroke-opacity:1"
               id="path4144"
               cx="150.77837"
               cy="-144.11156"
               r="15.590551"
               transform="scale(1,-1)" /><g
               id="g3562"
               transform="matrix(0.11233602,0,0,0.11233602,133.97468,128.05657)"><g
                 transform="translate(260.8303,202.4483)"
                 id="g20"><path
                   inkscape:connector-curvature="0"
                   id="path22"
                   style="fill:#01aec5;fill-opacity:1;fill-rule:nonzero;stroke:none"
                   d="m 0,0 -18.029,-10.687 0,-32.824 -19.376,-10.627 c 0,0 -5.226,7.037 -15.473,7.037 -16.533,0 -42.286,-22.707 -42.286,-51.41 0,0 0.137,-25.988 21.293,-25.988 20.354,0 38.584,26.685 39.947,37.904 l 15.895,9.052 0,-36.476 -88.585,-50.69 0,-20.959 c 67.532,2.436 121.536,57.956 121.536,126.104 C 14.922,-38.017 9.518,-17.741 0,0" /></g><g
                 transform="translate(121.574,51.4176)"
                 id="g24"><path
                   inkscape:connector-curvature="0"
                   id="path26"
                   style="fill:#9bc31b;fill-opacity:1;fill-rule:nonzero;stroke:none"
                   d="m 0,0 0,27.863 c 0,0 13.627,4.941 13.627,22.818 0,24.133 -19.387,53.139 -42.902,53.139 0,0 -20.764,-0.408 -20.764,-25.716 0,-16.695 7.717,-28.491 12.969,-34.587 l 0,-22.402 -27.904,15.897 0,103.792 -18.014,10.682 c -9.668,-17.851 -15.17,-38.291 -15.17,-60.019 0,-68.36 54.342,-124.02 122.174,-126.134 l 0,20.989 L 0,0 Z" /></g><g
                 transform="translate(238.9584,199.0491)"
                 id="g28"><path
                   inkscape:connector-curvature="0"
                   id="path30"
                   style="fill:#e62252;fill-opacity:1;fill-rule:nonzero;stroke:none"
                   d="m 0,0 17.751,10.522 c -22.279,35.735 -61.924,59.517 -107.123,59.517 -45.019,0 -84.523,-23.59 -106.852,-59.078 l 18.23,-10.809 27.343,15.814 18.016,-10.121 c 0,0 -0.93,-1.03 -0.93,-5.845 0,-22.823 31.668,-28.085 41.656,-28.085 9.991,0 41.773,5.447 41.773,28.085 0,22.637 -33.546,27.703 -40.892,27.703 -7.345,0 -15.616,-1.957 -15.616,-1.957 l -13.782,7.706 31.298,18.1 L 0,0 Z" /></g></g></g></g></g></g></g></svg>